<?xml version="1.0" standalone="no"?>
<!DOCTYPE svg PUBLIC "-//W3C//DTD SVG 1.1//EN" "http://www.w3.org/Graphics/SVG/1.1/DTD/svg11.dtd" >
<svg xmlns="http://www.w3.org/2000/svg" xmlns:xlink="http://www.w3.org/1999/xlink" version="1.1">
<metadata>
Created by FontForge 20190801 at Sat Nov  4 03:21:35 2017
 By Unknown
Copyright 2017 BBC. Modification of this file requires prior written permission from the BBC.
</metadata>
<defs>
<font id="BBCReithSans-BoldItalic" horiz-adv-x="0" >
  <font-face 
    font-family="BBC Reith Sans"
    font-weight="700"
    font-style="italic"
    font-stretch="normal"
    units-per-em="1000"
    panose-1="2 11 7 3 2 2 4 9 2 4"
    ascent="745"
    descent="-255"
    x-height="518"
    cap-height="715"
    bbox="-235 -263 1325 997"
    underline-thickness="78"
    underline-position="-225"
    slope="-12"
    unicode-range="U+000D-FFFD"
  />
<missing-glyph horiz-adv-x="500" 
d="M0 0v715h500v-715h-500zM87 668l162 -265l162 265h-324zM278 357l168 -273v547zM221 357l-167 272v-544zM249 311l-162 -264h324z" />
    <glyph glyph-name="f_b" unicode="fb" horiz-adv-x="946" 
d="M386 405h-117l-119 -556h-145l119 556h-80l24 113h80l6 29q22 107 80 159t155 52q58 0 104 -23l-24 -112q-13 8 -30.5 13t-36.5 5q-42 0 -68 -24.5t-37 -78.5l-4 -20h117zM916 352q0 -62 -16 -117t-45.5 -100.5t-70 -78.5t-90 -51t-104.5 -18q-53 0 -103 11.5t-96 33.5
l152 713h145l-40 -187l-37 -136q33 53 75.5 81t91.5 28q43 0 73.5 -22t47.5 -62.5t17 -94.5zM716 412q-67 0 -125 -120l-39 -181q12 -5 25.5 -7t27.5 -2q34 0 63.5 18t51.5 50.5t34.5 75.5t12.5 92q0 36 -13 55t-38 19z" />
    <glyph glyph-name="f_j" unicode="fj" horiz-adv-x="650" 
d="M297 538l-4 -20h346l-120 -565q-21 -98 -72 -145t-140 -47q-27 0 -51.5 4.5t-46.5 15.5l24 112q13 -8 26.5 -11.5t32.5 -3.5q66 0 84 84l94 443h-201l-119 -556h-145l119 556h-80l24 113h80l6 29q22 107 78 159t150 52q26 0 50.5 -5.5t46.5 -16.5l-24 -112q-27 17 -60 17
q-41 0 -64 -24.5t-34 -78.5zM589 595q-36 0 -57.5 18.5t-21.5 47.5q0 39 25 63t68 24q36 0 57.5 -18.5t21.5 -47.5q0 -39 -25 -63t-68 -24z" />
    <glyph glyph-name="f_k" unicode="fk" horiz-adv-x="934" 
d="M386 405h-117l-119 -556h-145l119 556h-80l24 113h80l6 29q22 107 80 159t155 52q58 0 104 -23l-24 -112q-13 8 -30.5 13t-36.5 5q-42 0 -68 -24.5t-37 -78.5l-4 -20h117zM605 218h-29l-47 -218h-145l159 745h145l-88 -414h30q45 49 85.5 95t79.5 92h166
q-59 -66 -116.5 -128.5t-115.5 -122.5q38 -68 72.5 -133t70.5 -134h-156q-27 57 -53.5 109t-57.5 109z" />
    <glyph glyph-name="f_t" unicode="ft" horiz-adv-x="733" 
d="M415 163l51 242h-197l-119 -556h-145l119 556h-80l24 113h80l6 29q22 107 78 159t150 52q26 0 50.5 -5.5t46.5 -16.5l-24 -112q-27 17 -60 17q-41 0 -64 -24.5t-34 -78.5l-4 -20h197l27 125l152 33l-34 -158h123l-24 -113h-123l-48 -228q-2 -10 -3 -18.5t-1 -15.5
q0 -39 42 -39q23 0 44 7.5t43 23.5l-26 -123q-26 -13 -54 -19t-62 -6q-66 0 -101.5 30.5t-35.5 87.5q0 16 1.5 30t4.5 28z" />
    <glyph glyph-name="f_h" unicode="fh" horiz-adv-x="949" 
d="M386 405h-117l-119 -556h-145l119 556h-80l24 113h80l6 29q22 107 80 159t155 52q58 0 104 -23l-24 -112q-13 8 -30.5 13t-36.5 5q-42 0 -68 -24.5t-37 -78.5l-4 -20h117zM719 412q-70 0 -128 -122l-62 -290h-145l159 745h145l-41 -192l-36 -134q34 55 77 83.5t95 28.5
q38 0 66.5 -16.5t44 -46.5t15.5 -72q0 -14 -1 -30t-6 -37l-70 -329h-145l69 325q2 10 3 19.5t1 18.5q0 23 -10.5 36t-30.5 13z" />
    <glyph glyph-name="uniFB00" unicode="ff" horiz-adv-x="718" 
d="M352 -151l119 556h-202l-119 -556h-145l119 556h-80l24 113h80l6 29q22 107 78 159t150 52q26 0 50.5 -5.5t46.5 -16.5l-24 -112q-27 17 -60 17q-41 0 -64 -24.5t-34 -78.5l-4 -20h202l6 29q23 107 80.5 159t154.5 52q58 0 104 -23l-24 -112q-14 8 -31 13t-36 5
q-42 0 -68 -24.5t-37 -78.5l-4 -20h117l-24 -113h-117l-119 -556h-145z" />
    <glyph glyph-name="uniFB01" unicode="fi" horiz-adv-x="650" 
d="M297 538l-4 -20h346l-110 -518h-145l86 405h-201l-119 -556h-145l119 556h-80l24 113h80l6 29q22 107 78 159t150 52q26 0 50.5 -5.5t46.5 -16.5l-24 -112q-27 17 -60 17q-41 0 -64 -24.5t-34 -78.5zM589 595q-36 0 -57.5 18.5t-21.5 47.5q0 39 25 63t68 24
q36 0 57.5 -18.5t21.5 -47.5q0 -39 -25 -63t-68 -24z" />
    <glyph glyph-name="uniFB02" unicode="fl" horiz-adv-x="700" 
d="M386 405h-117l-119 -556h-145l119 556h-80l24 113h80l6 29q22 107 80 159t155 52q58 0 104 -23l-24 -112q-13 8 -30.5 13t-36.5 5q-42 0 -68 -24.5t-37 -78.5l-4 -20h117zM560 155q-3 -13 -3 -23q0 -27 32 -27q30 0 57 18l-25 -116q-38 -16 -83 -16q-129 0 -129 109
q0 24 6 54l126 591h145z" />
    <glyph glyph-name="uniFB03" unicode="ffi" horiz-adv-x="997" 
d="M644 538l-4 -20h346l-110 -518h-145l86 405h-201l-119 -556h-145l119 556h-202l-119 -556h-145l119 556h-80l24 113h80l6 29q22 107 78 159t150 52q26 0 50.5 -5.5t46.5 -16.5l-24 -112q-27 17 -60 17q-41 0 -64 -24.5t-34 -78.5l-4 -20h202l6 29q23 107 78.5 159
t149.5 52q26 0 50.5 -5.5t46.5 -16.5l-24 -112q-27 17 -60 17q-40 0 -63.5 -24.5t-34.5 -78.5zM936 595q-36 0 -57.5 18.5t-21.5 47.5q0 39 24.5 63t68.5 24q36 0 57.5 -18.5t21.5 -47.5q0 -39 -24.5 -63t-68.5 -24z" />
    <glyph glyph-name="uniFB04" unicode="ffl" horiz-adv-x="1047" 
d="M352 -151l119 556h-202l-119 -556h-145l119 556h-80l24 113h80l6 29q22 107 78 159t150 52q26 0 50.5 -5.5t46.5 -16.5l-24 -112q-27 17 -60 17q-41 0 -64 -24.5t-34 -78.5l-4 -20h202l6 29q23 107 80.5 159t154.5 52q58 0 104 -23l-24 -112q-14 8 -31 13t-36 5
q-42 0 -68 -24.5t-37 -78.5l-4 -20h117l-24 -113h-117l-119 -556h-145zM907 155q-3 -13 -3 -23q0 -27 32 -27q30 0 57 18l-25 -116q-38 -16 -83 -16q-129 0 -129 109q0 24 6 54l126 591h145z" />
    <glyph glyph-name="f_f_b" unicode="ffb" horiz-adv-x="1293" 
d="M352 -151l119 556h-202l-119 -556h-145l119 556h-80l24 113h80l6 29q22 107 78 159t150 52q26 0 50.5 -5.5t46.5 -16.5l-24 -112q-27 17 -60 17q-41 0 -64 -24.5t-34 -78.5l-4 -20h202l6 29q23 107 80.5 159t154.5 52q58 0 104 -23l-24 -112q-14 8 -31 13t-36 5
q-42 0 -68 -24.5t-37 -78.5l-4 -20h117l-24 -113h-117l-119 -556h-145zM1263 352q0 -62 -16 -117t-45.5 -100.5t-70 -78.5t-90 -51t-104.5 -18q-53 0 -103 11.5t-96 33.5l152 713h145l-40 -187l-37 -136q33 53 75.5 81t91.5 28q43 0 73.5 -22t47.5 -62.5t17 -94.5zM1063 412
q-67 0 -125 -120l-39 -181q12 -5 25.5 -7t27.5 -2q34 0 63.5 18t51.5 50.5t34.5 75.5t12.5 92q0 36 -13 55t-38 19z" />
    <glyph glyph-name="f_f_h" unicode="ffh" horiz-adv-x="1296" 
d="M352 -151l119 556h-202l-119 -556h-145l119 556h-80l24 113h80l6 29q22 107 78 159t150 52q26 0 50.5 -5.5t46.5 -16.5l-24 -112q-27 17 -60 17q-41 0 -64 -24.5t-34 -78.5l-4 -20h202l6 29q23 107 80.5 159t154.5 52q58 0 104 -23l-24 -112q-14 8 -31 13t-36 5
q-42 0 -68 -24.5t-37 -78.5l-4 -20h117l-24 -113h-117l-119 -556h-145zM1066 412q-70 0 -128 -122l-62 -290h-145l159 745h145l-41 -192l-36 -134q34 55 77 83.5t95 28.5q38 0 66.5 -16.5t44 -46.5t15.5 -72q0 -14 -1 -30t-6 -37l-70 -329h-145l69 325q2 10 3 19.5t1 18.5
q0 23 -10.5 36t-30.5 13z" />
    <glyph glyph-name="f_f_j" unicode="ffj" horiz-adv-x="997" 
d="M644 538l-4 -20h346l-120 -565q-21 -98 -72.5 -145t-139.5 -47q-27 0 -51.5 4.5t-46.5 15.5l24 112q14 -8 27 -11.5t32 -3.5q66 0 84 84l94 443h-201l-119 -556h-145l119 556h-202l-119 -556h-145l119 556h-80l24 113h80l6 29q22 107 78 159t150 52q26 0 50.5 -5.5
t46.5 -16.5l-24 -112q-27 17 -60 17q-41 0 -64 -24.5t-34 -78.5l-4 -20h202l6 29q23 107 78.5 159t149.5 52q26 0 50.5 -5.5t46.5 -16.5l-24 -112q-27 17 -60 17q-40 0 -63.5 -24.5t-34.5 -78.5zM936 595q-36 0 -57.5 18.5t-21.5 47.5q0 39 24.5 63t68.5 24q36 0 57.5 -18.5
t21.5 -47.5q0 -39 -24.5 -63t-68.5 -24z" />
    <glyph glyph-name="f_f_k" unicode="ffk" horiz-adv-x="1281" 
d="M352 -151l119 556h-202l-119 -556h-145l119 556h-80l24 113h80l6 29q22 107 78 159t150 52q26 0 50.5 -5.5t46.5 -16.5l-24 -112q-27 17 -60 17q-41 0 -64 -24.5t-34 -78.5l-4 -20h202l6 29q23 107 80.5 159t154.5 52q58 0 104 -23l-24 -112q-14 8 -31 13t-36 5
q-42 0 -68 -24.5t-37 -78.5l-4 -20h117l-24 -113h-117l-119 -556h-145zM952 218h-29l-47 -218h-145l159 745h145l-88 -414h30q45 49 85.5 95t79.5 92h166q-59 -66 -116.5 -128.5t-115.5 -122.5q38 -68 72.5 -133t70.5 -134h-156q-27 57 -53.5 109t-57.5 109z" />
    <glyph glyph-name="f_f_t" unicode="fft" horiz-adv-x="1080" 
d="M352 -151l119 556h-202l-119 -556h-145l119 556h-80l24 113h80l6 29q22 107 78 159t150 52q26 0 50.5 -5.5t46.5 -16.5l-24 -112q-27 17 -60 17q-41 0 -64 -24.5t-34 -78.5l-4 -20h202l6 29q23 107 78.5 159t149.5 52q26 0 50.5 -5.5t46.5 -16.5l-24 -112q-27 17 -60 17
q-40 0 -63.5 -24.5t-34.5 -78.5l-4 -20h197l27 125l152 33l-34 -158h123l-24 -113h-123l-48 -228q-2 -10 -3 -18.5t-1 -15.5q0 -39 42 -39q23 0 44 7.5t43 23.5l-26 -123q-26 -13 -53.5 -19t-62.5 -6q-66 0 -101.5 30.5t-35.5 87.5q0 16 1.5 30t4.5 28l51 242h-197
l-119 -556h-145z" />
    <glyph glyph-name=".notdef" horiz-adv-x="500" 
d="M0 0v715h500v-715h-500zM87 668l162 -265l162 265h-324zM278 357l168 -273v547zM221 357l-167 272v-544zM249 311l-162 -264h324z" />
    <glyph glyph-name="uni0000" 
 />
    <glyph glyph-name="uni0000" 
 />
    <glyph glyph-name="uni000D" unicode="&#xd;" horiz-adv-x="221" 
 />
    <glyph glyph-name="space" unicode=" " horiz-adv-x="221" 
 />
    <glyph glyph-name="exclam" unicode="!" horiz-adv-x="279" 
d="M196 228h-125l90 487h151zM95 -9q-37 0 -59.5 20.5t-22.5 52.5q0 26 12.5 48t34.5 35t52 13q37 0 59.5 -21t22.5 -52q0 -26 -12.5 -48t-35 -35t-51.5 -13z" />
    <glyph glyph-name="quotedbl" unicode="&#x22;" horiz-adv-x="404" 
d="M198 438h-109l51 277h125zM391 438h-109l51 277h125z" />
    <glyph glyph-name="numbersign" unicode="#" horiz-adv-x="596" 
d="M249 0l61 171h-108l-61 -171h-112l61 171h-78l20 96h92l61 168h-88l20 96h102l60 168h111l-60 -168h108l60 168h111l-60 -168h77l-20 -96h-91l-61 -168h87l-20 -96h-101l-61 -171h-110zM236 267h108l60 168h-108z" />
    <glyph glyph-name="dollar" unicode="$" horiz-adv-x="596" 
d="M540 217q0 -64 -31.5 -113.5t-88 -79t-134.5 -35.5l-21 -101h-76l22 102q-108 9 -183 64l25 121q81 -65 182 -69l42 195q-62 26 -97.5 53t-51 59.5t-15.5 77.5q0 62 31 109.5t87 76t133 34.5l20 95h76l-20 -96q86 -10 160 -59l-25 -119q-35 28 -76 43.5t-84 17.5
l-39 -184q61 -25 97 -52t51.5 -60.5t15.5 -79.5zM259 507q0 -22 10.5 -37t36.5 -29l32 147q-39 -8 -59 -29t-20 -52zM393 200q0 22 -10 37.5t-37 30.5l-33 -155q38 10 59 32.5t21 54.5z" />
    <glyph glyph-name="percent" unicode="%" horiz-adv-x="964" 
d="M199 0l491 699h116l-491 -699h-116zM719 -10q-71 0 -110.5 41t-39.5 114q0 36 7.5 73t23 70.5t39.5 60.5t57 42.5t75 15.5q71 0 110.5 -41t39.5 -114q0 -36 -7.5 -73t-23 -70.5t-39.5 -60.5t-57 -42.5t-75 -15.5zM768 322q-20 0 -36 -12t-27.5 -31.5t-18.5 -43
t-10.5 -47.5t-3.5 -45q0 -33 12.5 -50.5t37.5 -17.5q20 0 36 12t27.5 31.5t18.5 43t10.5 47.5t3.5 45q0 33 -12.5 50.5t-37.5 17.5zM233 292q-71 0 -110.5 41t-39.5 114q0 36 7.5 73t23 70.5t39.5 60.5t57 42.5t75 15.5q71 0 110.5 -41t39.5 -114q0 -36 -7.5 -73t-23 -70.5
t-39.5 -60.5t-57 -42.5t-75 -15.5zM282 624q-20 0 -36 -12t-27.5 -31.5t-18.5 -43t-10.5 -47.5t-3.5 -45q0 -33 12.5 -50.5t37.5 -17.5q20 0 36 12t27.5 31.5t18.5 43t10.5 47.5t3.5 45q0 33 -12.5 50.5t-37.5 17.5z" />
    <glyph glyph-name="ampersand" unicode="&#x26;" horiz-adv-x="738" 
d="M492 0q-16 21 -30 39q-42 -26 -91 -39t-104 -13q-74 0 -128.5 22.5t-84.5 63.5t-30 96q0 75 44.5 128.5t140.5 92.5q-18 32 -28 65t-10 66q0 46 15.5 83.5t44 65t67.5 42.5t86 15q54 0 93 -18.5t60.5 -52.5t21.5 -81q0 -70 -44.5 -122t-141.5 -92q24 -33 52 -69.5
t59 -77.5q40 63 60 155h127q-16 -76 -45 -138.5t-69 -110.5q22 -28 46 -58t49 -62h-160zM294 526q0 -22 5.5 -42.5t22.5 -48.5q59 22 86.5 52.5t27.5 75.5q0 27 -16 43t-44 16q-38 0 -60 -26t-22 -70zM166 191q0 -43 32 -67t88 -24q60 0 109 27q-45 60 -78 105t-59 81
q-48 -23 -70 -52t-22 -70z" />
    <glyph glyph-name="quotesingle" unicode="'" horiz-adv-x="211" 
d="M198 438h-109l51 277h125z" />
    <glyph glyph-name="parenleft" unicode="(" horiz-adv-x="343" 
d="M237 -163h-140q-29 72 -42.5 144t-13.5 150q0 113 26 222.5t77.5 212t125.5 192.5h162q-77 -86 -131 -191.5t-82 -223t-28 -240.5q0 -73 11.5 -140t34.5 -126z" />
    <glyph glyph-name="parenright" unicode=")" horiz-adv-x="343" 
d="M124 758h140q28 -72 42 -144t14 -150q0 -113 -26 -222.5t-77 -211.5t-126 -193h-162q77 86 131 191.5t82 223t28 240.5q0 74 -11.5 140.5t-34.5 125.5z" />
    <glyph glyph-name="asterisk" unicode="*" horiz-adv-x="428" 
d="M431 412l-79 -55l-76 115l-75 -115l-79 55l87 103l-117 30l33 92l111 -47l-11 125h102l-10 -124l111 46l32 -92l-116 -30z" />
    <glyph glyph-name="plus" unicode="+" horiz-adv-x="596" 
d="M257 113v178h-170v118h170v178h123v-178h170v-118h-170v-178h-123z" />
    <glyph glyph-name="comma" unicode="," horiz-adv-x="276" 
d="M192 73q0 -27 -10 -56.5t-27.5 -59.5t-42 -57.5t-52.5 -48.5h-126q94 74 128 148q-24 6 -38.5 24t-14.5 44q0 27 12.5 48t35 33t51.5 12q40 0 62 -22.5t22 -64.5z" />
    <glyph glyph-name="hyphen" unicode="-" horiz-adv-x="370" 
d="M32 218l25 119h290l-25 -119h-290z" />
    <glyph glyph-name="period" unicode="." horiz-adv-x="276" 
d="M92 -9q-37 0 -59.5 20.5t-22.5 52.5q0 26 12.5 48t35 35t51.5 13q37 0 59.5 -21t22.5 -52q0 -26 -12.5 -48t-34.5 -35t-52 -13z" />
    <glyph glyph-name="slash" unicode="/" horiz-adv-x="513" 
d="M-74 -163l525 921h155l-525 -921h-155z" />
    <glyph glyph-name="zero" unicode="0" horiz-adv-x="596" 
d="M368 712q70 0 119 -29.5t74.5 -86t25.5 -135.5q0 -46 -8 -99t-24 -106t-41.5 -101.5t-60.5 -86t-80.5 -59.5t-102.5 -22q-70 0 -119 29.5t-74.5 85.5t-25.5 136q0 46 8 99t24 106t41.5 101.5t60.5 86t80.5 59.5t102.5 22zM364 589q-28 0 -51.5 -18t-41.5 -48.5
t-31.5 -68.5t-22.5 -78.5t-13.5 -79t-4.5 -68.5q0 -57 19 -87.5t56 -30.5q28 0 51.5 18t41.5 48.5t31.5 68.5t22.5 78.5t13.5 78.5t4.5 69q0 57 -19 87.5t-56 30.5z" />
    <glyph glyph-name="one" unicode="1" horiz-adv-x="596" 
d="M488 699l-149 -699h-147l116 545q-86 -40 -165 -81l30 140q44 23 92.5 46.5t104.5 48.5h118z" />
    <glyph glyph-name="two" unicode="2" horiz-adv-x="596" 
d="M502 127l-27 -127h-466l5 24q12 58 31 104.5t48 85.5t71.5 72.5t101.5 64.5q44 23 74.5 41.5t49.5 36.5t28 38t9 46q0 35 -26.5 54.5t-73.5 19.5q-38 0 -70.5 -7.5t-63.5 -23.5t-65 -42l31 147q42 25 90.5 38t107.5 13q67 0 116.5 -22t77 -61.5t27.5 -92.5
q0 -46 -9.5 -81t-33.5 -65.5t-65.5 -59.5t-105.5 -63q-68 -36 -109.5 -68.5t-64.5 -71.5h312z" />
    <glyph glyph-name="three" unicode="3" horiz-adv-x="596" 
d="M522 214q0 -51 -21.5 -92.5t-61 -72t-94.5 -46.5t-122 -16q-62 0 -110.5 12.5t-95.5 40.5l25 119q28 -19 55 -30t58 -16t69 -5q46 0 79 14t51.5 39t18.5 60q0 39 -27.5 60t-79.5 21h-102l24 115h99q67 0 107 27.5t40 77.5q0 33 -28.5 51t-81.5 18q-102 0 -189 -54l28 132
q46 21 94 32t97 11q72 0 122.5 -20.5t77.5 -58.5t27 -91q0 -45 -19.5 -83t-54.5 -65t-82 -40q48 -18 72.5 -53.5t24.5 -86.5z" />
    <glyph glyph-name="four" unicode="4" horiz-adv-x="596" 
d="M34 250q98 112 196.5 222t205.5 227h151l-96 -450h71l-24 -114h-71l-29 -135h-139l29 135h-318zM352 249l56 262q-59 -66 -117.5 -131.5t-113.5 -130.5h175z" />
    <glyph glyph-name="five" unicode="5" horiz-adv-x="596" 
d="M538 249q0 -81 -38 -140t-108.5 -90.5t-167.5 -31.5q-62 0 -112 12t-93 39l25 117q26 -18 52.5 -28.5t56 -15.5t67.5 -5q54 0 92 15.5t58.5 44t20.5 67.5q0 87 -138 87q-30 0 -55 -1.5t-49.5 -5t-50.5 -9.5l116 395h389l-27 -125h-265l-43 -146q15 3 30 4t28 1
q67 0 114.5 -21.5t72.5 -62.5t25 -100z" />
    <glyph glyph-name="six" unicode="6" horiz-adv-x="596" 
d="M563 254q0 -57 -20.5 -105.5t-57.5 -85t-86 -56.5t-107 -20q-74 0 -125.5 29.5t-79 85.5t-27.5 136q0 26 3 56.5t11 62.5q26 111 82 190.5t135.5 122t177.5 42.5q48 0 84.5 -9.5t70.5 -29.5l-25 -116q-21 13 -41.5 20t-42.5 10.5t-50 3.5q-86 0 -147 -53.5t-91 -154.5
q66 58 148 58q57 0 99.5 -23t65.5 -65.5t23 -98.5zM203 233q0 -63 25.5 -97.5t72.5 -34.5q34 0 61 18.5t42.5 49.5t15.5 71q0 44 -25 68t-68 24q-67 0 -121 -47q-2 -14 -2.5 -27t-0.5 -25z" />
    <glyph glyph-name="seven" unicode="7" horiz-adv-x="596" 
d="M605 593q-90 -152 -180.5 -299.5t-182.5 -293.5h-164q93 141 184.5 284t181.5 288h-321l27 127h478z" />
    <glyph glyph-name="eight" unicode="8" horiz-adv-x="596" 
d="M554 214q0 -51 -20 -92.5t-57 -72t-88 -46.5t-113 -16q-74 0 -129 22.5t-85 64t-30 97.5q0 48 20 87.5t57.5 67.5t89.5 42q-37 22 -56.5 55t-19.5 74q0 48 19 87.5t54.5 68t83.5 44t107 15.5q68 0 118.5 -22t78 -61.5t27.5 -93.5q0 -63 -37 -110t-102 -69q82 -54 82 -142
zM339 415l34 -9q28 7 50 22t34.5 38t12.5 52q0 36 -24.5 57.5t-67.5 21.5q-52 0 -82.5 -27.5t-30.5 -74.5q0 -28 18.5 -49t55.5 -31zM181 191q0 -40 28.5 -64.5t76.5 -24.5q38 0 66 14t43.5 39.5t15.5 60.5q0 68 -83 92l-25 7q-37 -5 -64.5 -22.5t-42.5 -43.5t-15 -58z" />
    <glyph glyph-name="nine" unicode="9" horiz-adv-x="596" 
d="M569 342q-26 -111 -80.5 -190.5t-133.5 -122t-177 -42.5q-48 0 -84 9.5t-71 29.5l25 116q22 -12 42 -19.5t42 -11t50 -3.5q87 0 145.5 53.5t89.5 154.5q-67 -58 -147 -58q-58 0 -100 23t-65 65t-23 99t20.5 105.5t57 85t85.5 56.5t106 20q73 0 125 -29.5t79.5 -86
t27.5 -135.5q0 -26 -3.5 -56.5t-10.5 -62.5zM225 459q0 -43 24.5 -67.5t66.5 -24.5q67 0 121 47q2 14 2.5 27t0.5 25q0 63 -26 97.5t-72 34.5q-33 0 -59.5 -18.5t-42 -50t-15.5 -70.5z" />
    <glyph glyph-name="colon" unicode=":" horiz-adv-x="276" 
d="M92 -9q-37 0 -59.5 20.5t-22.5 52.5q0 26 12.5 48t35 35t51.5 13q37 0 59.5 -21t22.5 -52q0 -26 -12.5 -48t-34.5 -35t-52 -13zM169 358q-37 0 -59.5 20.5t-22.5 52.5q0 26 12.5 48t35 35t51.5 13q37 0 59.5 -21t22.5 -52q0 -26 -12.5 -48t-34.5 -35t-52 -13z" />
    <glyph glyph-name="semicolon" unicode=";" horiz-adv-x="276" 
d="M192 73q0 -27 -10 -56.5t-27.5 -59.5t-42 -57.5t-52.5 -48.5h-126q94 74 128 148q-24 6 -38.5 24t-14.5 44q0 27 12.5 48t35 33t51.5 12q40 0 62 -22.5t22 -64.5zM169 358q-37 0 -59.5 20.5t-22.5 52.5q0 26 12.5 48t35 35t51.5 13q37 0 59.5 -21t22.5 -52
q0 -26 -12.5 -48t-34.5 -35t-52 -13z" />
    <glyph glyph-name="less" unicode="&#x3c;" horiz-adv-x="596" 
d="M550 222v-127l-463 203v104l463 203v-126l-315 -128z" />
    <glyph glyph-name="equal" unicode="=" horiz-adv-x="596" 
d="M550 175h-463v118h463v-118zM550 407h-463v118h463v-118z" />
    <glyph glyph-name="greater" unicode="&#x3e;" horiz-adv-x="596" 
d="M550 298l-463 -203v127l315 129l-315 128v126l463 -203v-104z" />
    <glyph glyph-name="question" unicode="?" horiz-adv-x="507" 
d="M147 228l4 17q7 32 16 55.5t22 41t31 32.5t43 30q35 20 57 36t34.5 31t17.5 31t5 37q0 36 -27.5 55t-80.5 19q-46 0 -85 -11.5t-81 -36.5l27 128q38 19 82.5 28t88.5 9q69 0 119.5 -20.5t77.5 -59t27 -91.5q0 -37 -8 -67.5t-26.5 -55.5t-49 -48.5t-74.5 -47.5
q-31 -17 -49.5 -31t-28 -29t-13.5 -35l-4 -17h-125zM171 -9q-37 0 -59.5 20.5t-22.5 52.5q0 26 12.5 48t34.5 35t52 13q37 0 59.5 -21t22.5 -52q0 -26 -12.5 -48t-35 -35t-51.5 -13z" />
    <glyph glyph-name="at" unicode="@" horiz-adv-x="938" 
d="M665 -173q-60 -27 -122 -40t-127 -13q-123 0 -209.5 42.5t-132.5 122.5t-46 192q0 80 19 153.5t54 137.5t84 116t109.5 89.5t129.5 57.5t144 20q79 0 143 -22.5t109.5 -63.5t70 -98.5t24.5 -127.5q0 -82 -21 -151.5t-59 -121t-89.5 -80t-112.5 -28.5q-54 0 -85 25.5
t-31 69.5v7q-66 -102 -152 -102q-35 0 -60 17.5t-39 49t-14 74.5q0 52 15 99t42.5 87.5t64.5 70t81 46t92 16.5q41 0 81 -11.5t76 -38.5l-67 -223q-5 -15 -8 -29t-3 -26q0 -39 35 -39q33 0 61.5 22t50.5 61t34 90.5t12 110.5q0 71 -30.5 122t-87.5 78t-137 27
q-73 0 -139 -24.5t-121 -68.5t-95.5 -104t-62.5 -132.5t-22 -152.5q0 -86 34.5 -147t101 -92.5t160.5 -31.5q50 0 94.5 6.5t86 20.5t85.5 37zM378 167q0 -25 10 -40t28 -15q26 0 49 20t50 67l49 165q-16 7 -37 7q-29 0 -56 -16.5t-48 -45t-33 -65t-12 -77.5z" />
    <glyph glyph-name="A" unicode="A" horiz-adv-x="714" 
d="M491 0q-4 40 -8.5 79t-8.5 78h-264q-21 -39 -41.5 -78.5t-41.5 -78.5h-170q106 188 209.5 366t206.5 349h162q31 -180 60 -358.5t54 -356.5h-158zM277 282h183q-8 69 -16.5 136.5t-17.5 134.5q-38 -67 -75 -135z" />
    <glyph glyph-name="B" unicode="B" horiz-adv-x="663" 
d="M614 243q0 -75 -36.5 -129.5t-103.5 -84t-160 -29.5h-292l151 715h237q73 0 125.5 -20.5t80.5 -59t28 -92.5q0 -65 -33 -109.5t-94 -64.5q45 -16 71 -49t26 -77zM257 420h101q64 0 100.5 28.5t36.5 80.5q0 34 -26.5 53t-72.5 19h-101zM192 114h118q74 0 114 31t40 87
q0 37 -30 57.5t-82 20.5h-118z" />
    <glyph glyph-name="C" unicode="C" horiz-adv-x="649" 
d="M64 287q0 67 18 131t54 120.5t88 99.5t120.5 67.5t152.5 24.5q43 0 77.5 -6t64 -18t57.5 -32l-28 -133q-36 31 -77 44.5t-98 13.5t-101 -18t-76.5 -49t-53.5 -70t-31 -81t-10 -82q0 -89 47 -136t134 -47q60 0 106 14.5t91 46.5l-32 -150q-41 -21 -88 -31.5t-102 -10.5
q-98 0 -168 36t-107.5 103.5t-37.5 162.5z" />
    <glyph glyph-name="D" unicode="D" horiz-adv-x="731" 
d="M22 0l151 715h241q91 0 157.5 -34.5t102.5 -97.5t36 -150q0 -98 -28.5 -178t-82 -137t-128.5 -87.5t-167 -30.5h-282zM553 415q0 82 -40.5 126.5t-114.5 44.5h-101l-97 -457h100q58 0 104.5 20.5t79.5 58t51 90t18 117.5z" />
    <glyph glyph-name="E" unicode="E" horiz-adv-x="594" 
d="M173 715h467l-26 -125h-316l-34 -159h280l-26 -125h-280l-39 -181h334l-26 -125h-485z" />
    <glyph glyph-name="F" unicode="F" horiz-adv-x="557" 
d="M173 715h453l-26 -125h-302l-38 -180h266l-27 -125h-266l-60 -285h-151z" />
    <glyph glyph-name="G" unicode="G" horiz-adv-x="719" 
d="M614 42q-56 -29 -115 -43t-127 -14q-96 0 -165 36t-106 103.5t-37 162.5q0 67 19 131t55.5 120.5t90.5 99.5t124 67.5t156 24.5q69 0 121.5 -13.5t98.5 -42.5l-28 -133q-40 31 -86 44.5t-110 13.5q-59 0 -105.5 -18t-80 -48.5t-55.5 -69.5t-32.5 -81t-10.5 -83
q0 -89 46 -137t131 -48q55 0 94 16l31 149h-115l25 119h256z" />
    <glyph glyph-name="H" unicode="H" horiz-adv-x="741" 
d="M460 0l65 309h-287l-65 -309h-151l151 715h151l-58 -275h287l58 275h151l-151 -715h-151z" />
    <glyph glyph-name="I" unicode="I" horiz-adv-x="303" 
d="M173 715h151l-151 -715h-151z" />
    <glyph glyph-name="J" unicode="J" horiz-adv-x="490" 
d="M125 -15q-90 0 -156 43l26 124q29 -19 58 -27.5t65 -8.5q62 0 97 31.5t49 98.5l99 469h151l-101 -479q-27 -128 -97.5 -189.5t-190.5 -61.5z" />
    <glyph glyph-name="K" unicode="K" horiz-adv-x="697" 
d="M274 308h-36l-65 -308h-151l151 715h151l-58 -277h38q72 71 138 139t131 138h186q-87 -88 -174 -175t-179 -175q58 -90 114.5 -180t114.5 -185h-173q-46 79 -91 153t-97 155z" />
    <glyph glyph-name="L" unicode="L" horiz-adv-x="561" 
d="M173 715h151l-124 -584h319l-28 -131h-469z" />
    <glyph glyph-name="M" unicode="M" horiz-adv-x="869" 
d="M348 133q-20 89 -39.5 179.5t-37.5 181.5l-105 -494h-144l151 715h180q20 -110 40.5 -218.5t42.5 -214.5q68 106 135.5 213.5t136.5 219.5h182l-151 -715h-144l102 482q-56 -88 -113 -175t-115 -174h-121z" />
    <glyph glyph-name="N" unicode="N" horiz-adv-x="741" 
d="M458 0q-45 127 -92 253.5t-93 246.5l-106 -500h-145l151 715h153q49 -126 95 -248.5t91 -248.5l105 497h145l-151 -715h-153z" />
    <glyph glyph-name="O" unicode="O" horiz-adv-x="773" 
d="M365 -15q-69 0 -125 21t-95 60.5t-60 94.5t-21 123q0 67 16.5 131.5t48.5 121.5t79 100.5t108 68t135 24.5q69 0 125 -21t95 -60.5t60 -94.5t21 -123q0 -67 -16.5 -131.5t-48.5 -121.5t-79 -100.5t-108 -68t-135 -24.5zM445 599q-46 0 -82.5 -19t-63 -50.5t-44 -72
t-26 -83.5t-8.5 -84q0 -82 39 -128t111 -46q46 0 82.5 19t63 50.5t44 72t26 83.5t8.5 84q0 82 -39 128t-111 46z" />
    <glyph glyph-name="P" unicode="P" horiz-adv-x="636" 
d="M646 516q0 -84 -37 -145t-106 -94t-166 -33h-114l-52 -244h-149l151 715h223q78 0 134 -24t86 -68.5t30 -106.5zM297 596l-49 -233h85q77 0 118.5 36.5t41.5 103.5q0 44 -29 68.5t-82 24.5h-85z" />
    <glyph glyph-name="Q" unicode="Q" horiz-adv-x="812" 
d="M536 0q-31 0 -58.5 -4t-55 -7.5t-57.5 -3.5q-69 0 -125 21t-95 60.5t-60 94.5t-21 123q0 67 16.5 131.5t48.5 121.5t79 100.5t108 68t135 24.5q69 0 125 -21t95 -60.5t60 -94.5t21 -123q0 -63 -16 -124t-47.5 -113.5t-77.5 -91.5l181 29l-28 -131h-228zM445 599
q-46 0 -82.5 -19t-63 -50.5t-44 -72t-26 -83.5t-8.5 -84q0 -82 39 -128t111 -46q46 0 82.5 19t63 50.5t44 72t26 83.5t8.5 84q0 82 -39 128t-111 46z" />
    <glyph glyph-name="R" unicode="R" horiz-adv-x="659" 
d="M226 260l-55 -260h-149l151 715h227q80 0 137.5 -23.5t88.5 -66.5t31 -103q0 -88 -45 -150t-127 -90q28 -69 54.5 -138.5t53.5 -143.5h-159q-22 66 -44.5 130.5t-46.5 129.5h-117zM251 379h88q79 0 122 33.5t43 96.5q0 41 -31 64t-87 23h-89z" />
    <glyph glyph-name="S" unicode="S" horiz-adv-x="605" 
d="M396 606q-67 0 -103.5 -23t-36.5 -64q0 -20 9 -35t33 -28.5t69 -31.5q52 -20 87 -41t56.5 -44.5t31 -52.5t9.5 -66q0 -53 -21.5 -96.5t-61 -74.5t-95 -47.5t-124.5 -16.5q-139 0 -236 68l27 127q46 -37 97 -54t110 -17q71 0 110 25.5t39 69.5q0 21 -9 37t-31 29.5
t-62 29.5q-54 21 -91 42t-59.5 44.5t-32 51.5t-9.5 64q0 51 21 93t60.5 72.5t94 46.5t121.5 16q59 0 113 -16t101 -47l-27 -125q-42 33 -89 48.5t-101 15.5z" />
    <glyph glyph-name="T" unicode="T" horiz-adv-x="607" 
d="M113 715h575l-28 -131h-212l-123 -584h-151l123 584h-212z" />
    <glyph glyph-name="U" unicode="U" horiz-adv-x="728" 
d="M87 322l83 393h151l-91 -431q-6 -27 -6 -49q0 -57 32.5 -88t92.5 -31q62 0 102 38t55 111l95 450h151l-95 -450q-29 -139 -110 -209.5t-210 -70.5q-83 0 -141.5 29t-89.5 84t-31 132q0 20 3 42t9 50z" />
    <glyph glyph-name="V" unicode="V" horiz-adv-x="698" 
d="M784 715q-100 -181 -201.5 -359t-206.5 -356h-162q-30 178 -56.5 357t-49.5 358h158q12 -137 27 -274t32 -273q74 136 146.5 273t142.5 274h170z" />
    <glyph glyph-name="W" unicode="W" horiz-adv-x="942" 
d="M538 0q-5 119 -9.5 239t-6.5 240q-55 -120 -111.5 -239.5t-114.5 -239.5h-158q-10 175 -16.5 354t-8.5 361h162q-5 -135 -8 -270.5t-4 -266.5q59 127 116.5 253.5t112.5 253.5h146q1 -126 3 -250t5 -248q54 129 108 262t105 266h164q-79 -182 -162 -361t-165 -354h-158z
" />
    <glyph glyph-name="X" unicode="X" horiz-adv-x="664" 
d="M437 0q-21 58 -46 122t-56 136q-51 -63 -100.5 -127t-97.5 -131h-182q78 97 155.5 190.5t161.5 189.5q-43 93 -79.5 175.5t-67.5 159.5h163q19 -55 42 -112.5l49 -122.5q43 54 87 112t90 123h177q-76 -96 -147.5 -182.5t-145.5 -170.5q48 -104 87 -191.5t74 -170.5h-164z
" />
    <glyph glyph-name="Y" unicode="Y" horiz-adv-x="685" 
d="M421 271l-57 -271h-151l57 271q-42 111 -82 221.5t-77 222.5h159q22 -79 46 -157.5t49 -155.5q58 78 114.5 156.5t110.5 156.5h178q-85 -112 -171 -222t-176 -222z" />
    <glyph glyph-name="Z" unicode="Z" horiz-adv-x="623" 
d="M560 127l-27 -127h-551l23 107q110 124 220 244t219 237h-321l27 127h521l-23 -107q-110 -118 -221.5 -239.5t-219.5 -241.5h353z" />
    <glyph glyph-name="bracketleft" unicode="[" horiz-adv-x="342" 
d="M-11 -163l195 921h248l-25 -117h-102l-147 -687h103l-25 -117h-247z" />
    <glyph glyph-name="backslash" unicode="\" horiz-adv-x="513" 
d="M274 -163l-154 921h137l154 -921h-137z" />
    <glyph glyph-name="bracketright" unicode="]" horiz-adv-x="342" 
d="M372 758l-195 -921h-248l25 117h102l147 687h-103l25 117h247z" />
    <glyph glyph-name="asciicircum" unicode="^" horiz-adv-x="596" 
d="M438 306l-130 263l-131 -263h-127l207 399h104l207 -399h-130z" />
    <glyph glyph-name="underscore" unicode="_" horiz-adv-x="500" 
d="M-88 -164l24 112h500l-24 -112h-500z" />
    <glyph glyph-name="grave" unicode="`" horiz-adv-x="500" 
d="M220 762h148q23 -38 47 -78t48 -84h-117q-48 66 -126 162z" />
    <glyph glyph-name="a" unicode="a" horiz-adv-x="569" 
d="M328 0q2 26 6 54.5t10 59.5q-34 -62 -79 -94.5t-98 -32.5q-41 0 -71.5 22t-47 62.5t-16.5 95.5q0 62 16 117t45 100t69 78t89 51t104 18q52 0 101.5 -11.5t94.5 -33.5l-67 -316q-10 -50 -17 -92t-10 -78h-129zM181 181q0 -37 12.5 -56t35.5 -19q65 0 122 119l39 183
q-22 8 -50 8q-33 0 -62 -18.5t-50.5 -51t-34 -75t-12.5 -90.5z" />
    <glyph glyph-name="b" unicode="b" horiz-adv-x="575" 
d="M545 352q0 -62 -16 -117t-45.5 -100.5t-70 -78.5t-90 -51t-104.5 -18q-53 0 -103 11.5t-96 33.5l152 713h145l-40 -187l-37 -136q33 53 75.5 81t91.5 28q43 0 73.5 -22t47.5 -62.5t17 -94.5zM345 412q-67 0 -125 -120l-39 -181q12 -5 25.5 -7t27.5 -2q34 0 63.5 18
t51.5 50.5t34.5 75.5t12.5 92q0 36 -13 55t-38 19z" />
    <glyph glyph-name="c" unicode="c" horiz-adv-x="475" 
d="M185 217q0 -112 100 -112q37 0 69.5 11.5t69.5 40.5l-29 -136q-33 -17 -68 -25.5t-78 -8.5q-65 0 -112 25.5t-72 74.5t-25 117q0 52 14 100t40.5 89.5t64 72t86 48t105.5 17.5q85 0 138 -40l-25 -116q-20 20 -46 29t-62 9q-42 0 -73.5 -17t-53 -45.5t-32.5 -63t-11 -70.5
z" />
    <glyph glyph-name="d" unicode="d" horiz-adv-x="575" 
d="M334 0q2 26 6 55t10 61q-34 -63 -80 -96t-100 -33q-43 0 -73.5 22t-47.5 62.5t-17 95.5q0 62 16 117t45.5 100t70 78t89.5 51t105 18q31 0 62 -7l47 221h145l-122 -575q-10 -50 -17 -92t-10 -78h-129zM181 181q0 -37 13 -56t38 -19q67 0 125 120l38 181q-11 5 -24.5 7
t-27.5 2q-34 0 -63.5 -18.5t-51.5 -51t-34.5 -75t-12.5 -90.5z" />
    <glyph glyph-name="e" unicode="e" horiz-adv-x="530" 
d="M428 29q-38 -22 -76.5 -32t-87.5 -10q-71 0 -121 25.5t-76.5 74t-26.5 116.5q0 55 15 104.5t43 90t65.5 70.5t83 46.5t96.5 16.5q53 0 92 -17.5t59.5 -49.5t20.5 -75q0 -93 -81.5 -140.5t-255.5 -58.5q5 -46 31.5 -67.5t77.5 -21.5q30 0 57 6t54 19t58 35zM328 425
q-32 0 -61 -19t-50.5 -51.5t-31.5 -74.5q104 6 151 29.5t47 68.5q0 23 -15 35t-40 12z" />
    <glyph glyph-name="f" unicode="f" horiz-adv-x="371" 
d="M386 405h-117l-119 -556h-145l119 556h-80l24 113h80l6 29q22 107 80 159t155 52q58 0 104 -23l-24 -112q-13 8 -30.5 13t-36.5 5q-42 0 -68 -24.5t-37 -78.5l-4 -20h117z" />
    <glyph glyph-name="g" unicode="g" horiz-adv-x="578" 
d="M457 3q-25 -117 -100 -179.5t-192 -62.5q-56 0 -100 11.5t-81 36.5l25 116q33 -25 67.5 -36t79.5 -11q63 0 103 33t54 96l6 28l25 83q-33 -54 -76 -82.5t-94 -28.5q-42 0 -73.5 21t-48.5 60.5t-17 92.5q0 59 16 112t45.5 96.5t70 75.5t90 49t104.5 17q53 0 103 -11.5
t96 -33.5zM184 195q0 -69 52 -69q68 0 127 113l36 168q-12 5 -25.5 7t-27.5 2q-34 0 -63.5 -17t-51.5 -47.5t-34.5 -70.5t-12.5 -86z" />
    <glyph glyph-name="h" unicode="h" horiz-adv-x="578" 
d="M348 412q-70 0 -128 -122l-62 -290h-145l159 745h145l-41 -192l-36 -134q34 55 77 83.5t95 28.5q38 0 66.5 -16.5t44 -46.5t15.5 -72q0 -14 -1 -30t-6 -37l-70 -329h-145l69 325q2 10 3 19.5t1 18.5q0 23 -10.5 36t-30.5 13z" />
    <glyph glyph-name="i" unicode="i" horiz-adv-x="279" 
d="M218 595q-36 0 -57.5 18.5t-21.5 47.5q0 39 24.5 63t68.5 24q36 0 57.5 -18.5t21.5 -47.5q0 -39 -24.5 -63t-68.5 -24zM123 518h145l-110 -518h-145z" />
    <glyph glyph-name="j" unicode="j" horiz-adv-x="279" 
d="M218 595q-36 0 -57.5 18.5t-21.5 47.5q0 39 24.5 63t68.5 24q36 0 57.5 -18.5t21.5 -47.5q0 -39 -24.5 -63t-68.5 -24zM268 518l-120 -565q-21 -98 -72.5 -145t-139.5 -47q-27 0 -51.5 4.5t-46.5 15.5l24 112q14 -8 27 -11.5t32 -3.5q66 0 84 84l118 556h145z" />
    <glyph glyph-name="k" unicode="k" horiz-adv-x="563" 
d="M234 218h-29l-47 -218h-145l159 745h145l-88 -414h30q45 49 85.5 95t79.5 92h166q-59 -66 -116.5 -128.5t-115.5 -122.5q38 -68 72.5 -133t70.5 -134h-156q-27 57 -53.5 109t-57.5 109z" />
    <glyph glyph-name="l" unicode="l" horiz-adv-x="329" 
d="M189 155q-3 -13 -3 -23q0 -27 32 -27q30 0 57 18l-25 -116q-38 -16 -83 -16q-129 0 -129 109q0 24 6 54l126 591h145z" />
    <glyph glyph-name="m" unicode="m" horiz-adv-x="853" 
d="M339 412q-64 0 -119 -120l-62 -292h-145l74 348q11 50 17.5 92t9.5 78h129q-2 -26 -6 -54t-10 -59q34 61 78 93.5t98 32.5q50 0 82 -30t38 -83q33 55 75.5 84t93.5 29q37 0 64 -16.5t42 -46.5t15 -72q0 -14 -1.5 -30t-5.5 -37l-70 -329h-145l69 325q2 10 3 19.5t1 18.5
q0 23 -9 36t-27 13q-64 0 -119 -120l-62 -292h-145l69 325q2 10 3 19.5t1 18.5q0 23 -9 36t-27 13z" />
    <glyph glyph-name="n" unicode="n" horiz-adv-x="578" 
d="M348 412q-70 0 -128 -122l-62 -290h-145l74 348q11 50 17.5 92t9.5 78h129q-2 -27 -6 -55.5t-11 -61.5q36 63 82.5 96.5t103.5 33.5q38 0 66.5 -16.5t44 -46.5t15.5 -72q0 -14 -1 -30t-6 -37l-70 -329h-145l69 325q2 10 3 19.5t1 18.5q0 23 -10.5 36t-30.5 13z" />
    <glyph glyph-name="o" unicode="o" horiz-adv-x="571" 
d="M256 -13q-67 0 -115.5 26.5t-74.5 75.5t-26 117q0 49 12 96.5t36 89t57.5 73t77 49t95.5 17.5q67 0 115.5 -26.5t74.5 -75.5t26 -117q0 -50 -12 -97t-36 -88.5t-57.5 -73t-77 -49t-95.5 -17.5zM259 104q27 0 48.5 13.5t36.5 36.5t25 51t15 56.5t5 53.5q0 47 -19.5 73
t-54.5 26q-27 0 -48.5 -13.5t-36.5 -36.5t-25 -51t-15 -56.5t-5 -53.5q0 -47 19 -73t55 -26z" />
    <glyph glyph-name="p" unicode="p" horiz-adv-x="575" 
d="M219 -13q-31 0 -62 7l-47 -220h-145l122 574q11 50 17.5 92t9.5 78h129q-2 -26 -6 -55t-10 -61q34 63 80 96t100 33q43 0 73.5 -22t47.5 -62.5t17 -95.5q0 -62 -16 -117t-45.5 -100t-70 -78t-90 -51t-104.5 -18zM345 412q-67 0 -125 -120l-38 -181q11 -5 24.5 -7t27.5 -2
q34 0 63.5 18.5t51.5 51t34.5 75t12.5 90.5q0 37 -13 56t-38 19z" />
    <glyph glyph-name="q" unicode="q" horiz-adv-x="575" 
d="M557 486l-152 -712h-145l40 186l37 136q-33 -53 -75.5 -81t-91.5 -28q-43 0 -73.5 22t-47.5 62t-17 95q0 62 16 117t45.5 100.5t70 78.5t89.5 51t105 18q52 0 102.5 -11.5t96.5 -33.5zM181 180q0 -36 13 -55t38 -19q67 0 125 120l39 181q-12 5 -25.5 7t-27.5 2
q-34 0 -63.5 -18t-51.5 -50.5t-34.5 -75.5t-12.5 -92z" />
    <glyph glyph-name="r" unicode="r" horiz-adv-x="402" 
d="M356 383q-39 0 -74.5 -32.5t-69.5 -98.5l-54 -252h-145l74 348q11 50 17.5 92t9.5 78h129q-3 -35 -9 -74t-16 -86q32 83 75 126t97 43q17 0 30.5 -3t27.5 -9l-32 -149q-14 9 -28 13t-32 4z" />
    <glyph glyph-name="s" unicode="s" horiz-adv-x="467" 
d="M0 33l23 110q66 -48 149 -48q44 0 69.5 15t25.5 42q0 19 -14 31t-50 25q-52 19 -82.5 40t-43.5 47.5t-13 63.5q0 52 28.5 90.5t80 60t119.5 21.5q46 0 88 -11.5t77 -34.5l-23 -109q-30 23 -66 35t-74 12q-44 0 -67.5 -14.5t-23.5 -39.5q0 -13 6.5 -22t21.5 -17t42 -18
q50 -18 79.5 -39t42.5 -48t13 -63q0 -53 -28.5 -92.5t-80 -61t-121.5 -21.5q-107 0 -178 46z" />
    <glyph glyph-name="t" unicode="t" horiz-adv-x="395" 
d="M324 12q-26 -13 -54 -19t-62 -6q-66 0 -101.5 30.5t-35.5 87.5q0 16 1.5 30t4.5 28l51 242h-84l24 113h84l27 125l152 33l-34 -158h123l-24 -113h-123l-48 -228q-2 -10 -3 -18.5t-1 -15.5q0 -39 42 -39q23 0 44 7.5t43 23.5z" />
    <glyph glyph-name="u" unicode="u" horiz-adv-x="573" 
d="M332 0q2 26 6 54.5t10 60.5q-34 -62 -79.5 -95t-101.5 -33q-39 0 -67 16.5t-43 46.5t-15 72q0 14 1 30t6 37l70 329h145l-69 -325q-2 -10 -3 -19.5t-1 -18.5q0 -23 10.5 -36t29.5 -13q67 0 124 121l62 291h145l-74 -348q-10 -50 -17 -92t-10 -78h-129z" />
    <glyph glyph-name="v" unicode="v" horiz-adv-x="530" 
d="M578 518q-73 -136 -145 -264t-148 -254h-150q-21 122 -39 252t-32 266h150q4 -94 9.5 -187t13.5 -183q47 91 93 183.5t90 186.5h158z" />
    <glyph glyph-name="w" unicode="w" horiz-adv-x="754" 
d="M410 0q-5 83 -8 166.5t-6 167.5q-39 -83 -80 -167t-82 -167h-145q-8 128 -14 258t-10 260h149q-5 -95 -7.5 -188t-3.5 -185q41 88 80.5 175.5t78.5 177.5h135q1 -86 3 -171.5t5 -170.5q37 91 72.5 180t71.5 182h152q-59 -130 -120.5 -260t-125.5 -258h-145z" />
    <glyph glyph-name="x" unicode="x" horiz-adv-x="526" 
d="M316 0q-18 46 -34.5 86.5t-33.5 78.5q-32 -40 -65 -82t-65 -83h-164q59 68 118.5 136t118.5 133q-30 64 -57.5 126t-53.5 123h147q15 -44 29 -83t28 -75q32 39 61 79t57 79h158q-54 -67 -109 -132t-111 -129q34 -66 65 -130t59 -127h-148z" />
    <glyph glyph-name="y" unicode="y" horiz-adv-x="530" 
d="M229 -85q-33 -54 -67 -88t-73 -50t-87 -16q-28 0 -53 6t-43 17l23 108q26 -16 65 -16q33 0 58 17.5t51 58.5q9 14 18 29.5t17 30.5q-20 122 -38 248t-36 258h150q4 -83 11 -173t15 -183q99 189 180 356h158q-43 -77 -89 -157.5t-91.5 -159.5t-88.5 -152t-80 -134z" />
    <glyph glyph-name="z" unicode="z" horiz-adv-x="472" 
d="M411 112l-24 -112h-410l21 98q72 77 146.5 154t150.5 154h-220l24 112h392l-21 -98q-78 -78 -152.5 -154.5t-146.5 -153.5h240z" />
    <glyph glyph-name="braceleft" unicode="{" horiz-adv-x="341" 
d="M260 -46l-25 -117h-59q-44 0 -75.5 15.5t-49 44.5t-17.5 68q0 33 7.5 62.5t18 57t18 53.5t7.5 51q0 27 -15 40t-48 13l23 111q42 0 64.5 21t32.5 65q5 23 6 46t3 49t9 58q13 58 38.5 95t66 54t98.5 17h67l-25 -117h-27q-68 0 -86 -83q-6 -30 -8 -56t-3.5 -49.5
t-6.5 -47.5q-8 -40 -38.5 -68t-74.5 -39q33 -10 51 -32.5t18 -53.5q0 -24 -8 -49.5t-18.5 -52t-18.5 -53t-8 -52.5q0 -24 12.5 -37.5t41.5 -13.5h29z" />
    <glyph glyph-name="bar" unicode="|" horiz-adv-x="307" 
d="M-20 -226l208 983h143l-208 -983h-143z" />
    <glyph glyph-name="braceright" unicode="}" horiz-adv-x="341" 
d="M199 3q-13 -59 -38.5 -95.5t-66 -53.5t-98.5 -17h-67l25 117h27q68 0 86 83q7 30 8.5 56t3 50t6.5 47q8 40 38.5 68t74.5 39q-33 10 -51 32.5t-18 53.5q0 24 8 49.5t18.5 52t18.5 53t8 52.5q0 24 -12.5 37.5t-41.5 13.5h-29l25 117h59q43 0 75 -16t49.5 -44.5t17.5 -67.5
q0 -33 -7.5 -62.5t-18 -57t-18 -53.5t-7.5 -51q0 -27 15 -40t48 -13l-23 -111q-42 0 -64.5 -21t-32.5 -65q-5 -24 -6 -46.5t-3 -48t-9 -58.5z" />
    <glyph glyph-name="asciitilde" unicode="~" horiz-adv-x="596" 
d="M338 404q24 -16 38.5 -25t25 -12.5t20.5 -3.5q26 0 38 21.5t13 68.5h95q0 -103 -35.5 -155.5t-104.5 -52.5q-31 0 -60.5 11.5t-69.5 40.5q-24 17 -38.5 25.5t-25 12t-20.5 3.5q-26 0 -38 -22t-13 -68h-95q0 103 35.5 155.5t104.5 52.5q31 0 60.5 -12t69.5 -40z" />
    <glyph glyph-name="uni00A0" unicode="&#xa0;" horiz-adv-x="221" 
 />
    <glyph glyph-name="exclamdown" unicode="&#xa1;" horiz-adv-x="279" 
d="M186 527q37 0 59.5 -20.5t22.5 -52.5q0 -26 -12.5 -48t-35 -35t-51.5 -13q-37 0 -59.5 21t-22.5 52q0 26 12.5 48t34.5 35t52 13zM85 290h125l-90 -487h-151z" />
    <glyph glyph-name="cent" unicode="&#xa2;" horiz-adv-x="596" 
d="M312 78q-17 0 -32 2l-50 -116h-99l61 140q-50 26 -76.5 74.5t-26.5 116.5q0 52 14.5 100t42 89.5t67.5 72t90 48t110 17.5h3l49 114h99l-55 -127q30 -10 54 -27l-25 -115q-30 27 -75 35l-133 -306q9 -1 18 -1q40 0 75.5 11.5t75.5 40.5l-29 -135q-36 -17 -73.5 -25.5
t-84.5 -8.5zM233 308q0 -43 17 -70l111 259q-41 -13 -70 -43t-43.5 -68.5t-14.5 -77.5z" />
    <glyph glyph-name="sterling" unicode="&#xa3;" horiz-adv-x="596" 
d="M520 125l-26 -125h-477l22 105q39 13 67 41.5t43 69t15 89.5h-102l20 92h77q-1 11 -1.5 21.5t-0.5 21.5q0 85 34.5 146t98.5 93.5t155 32.5q52 0 94 -12t79 -38l-26 -120q-31 25 -63.5 36t-78.5 11q-76 0 -114.5 -43.5t-38.5 -126.5v-22h173l-20 -92h-149
q-2 -64 -28.5 -110t-72.5 -70h320z" />
    <glyph glyph-name="currency" unicode="&#xa4;" horiz-adv-x="596" 
d="M610 91l-75 -61l-93 103q-27 -13 -58 -20t-65 -7t-65 7t-58 20l-93 -103l-75 61l95 102q-24 30 -37.5 70t-13.5 87t13 86.5t37 69.5l-94 101l75 61l93 -103q54 27 123 27t123 -27l93 103l75 -61l-94 -102q24 -30 37 -69t13 -86t-13 -86.5t-37 -70.5zM319 222
q37 0 63.5 16t41.5 44.5t15 67.5q0 38 -14.5 66.5t-41.5 44t-64 15.5t-64 -15.5t-41.5 -44t-14.5 -66.5q0 -39 15 -67.5t41.5 -44.5t63.5 -16z" />
    <glyph glyph-name="yen" unicode="&#xa5;" horiz-adv-x="596" 
d="M498 110h-159l-23 -110h-144l23 110h-157l18 86h158l16 76h-158l18 86h106q-20 56 -40 115t-39 116.5t-36 109.5h148q12 -46 26.5 -99t30.5 -108.5t32 -109.5q39 53 79 108.5t77.5 108.5t69.5 100h160q-39 -52 -82.5 -109.5t-88.5 -116.5t-89 -115h106l-18 -86h-158
l-16 -76h158z" />
    <glyph glyph-name="brokenbar" unicode="&#xa6;" horiz-adv-x="307" 
d="M105 365l83 392h143l-83 -392h-143zM-20 -226l87 411h143l-87 -411h-143z" />
    <glyph glyph-name="section" unicode="&#xa7;" horiz-adv-x="529" 
d="M411 9q0 -41 -17.5 -74.5t-49.5 -58t-76.5 -38t-98.5 -13.5q-55 0 -103 11.5t-87 35.5l23 106q68 -49 161 -49q49 0 78 18t29 50q0 15 -4.5 26t-16 20t-32.5 22l-72 44q-41 25 -63.5 46.5t-31.5 44.5t-9 52q0 61 42.5 106.5t117.5 68.5q-26 20 -41 39t-21.5 40t-6.5 48
q0 53 29 92.5t81 61.5t122 22q47 0 89.5 -11.5t79.5 -34.5l-22 -106q-63 48 -145 48q-45 0 -70 -16t-25 -44q0 -14 4 -25t15.5 -21t33.5 -23l71 -43q41 -26 64 -47.5t32.5 -45t9.5 -52.5q0 -61 -41 -107t-114 -71q24 -18 38 -35.5t20.5 -38t6.5 -48.5zM230 204l50 -30
q41 16 64 43.5t23 62.5q0 17 -4.5 29.5t-16.5 23.5t-35 25l-43 26q-43 -14 -68 -41t-25 -62q0 -16 5 -28.5t16.5 -24t33.5 -24.5z" />
    <glyph glyph-name="dieresis" unicode="&#xa8;" horiz-adv-x="500" 
d="M214 611q-30 0 -48.5 17t-18.5 43q0 21 10.5 39t28.5 29t42 11q31 0 49.5 -17t18.5 -43q0 -22 -10.5 -39.5t-29 -28.5t-42.5 -11zM452 611q-30 0 -48.5 17t-18.5 43q0 21 10.5 39t28.5 29t42 11q31 0 49.5 -17t18.5 -43q0 -22 -10.5 -39.5t-29 -28.5t-42.5 -11z" />
    <glyph glyph-name="copyright" unicode="&#xa9;" horiz-adv-x="872" 
d="M458 -15q-89 0 -161 26t-123 75t-78.5 117.5t-27.5 153.5q0 84 27.5 153t79 118t123.5 75.5t160 26.5t160 -26.5t123.5 -75.5t79 -118t27.5 -153q0 -85 -27.5 -153.5t-78.5 -117.5t-123 -75t-161 -26zM458 66q69 0 124 20t94.5 58t60.5 92t21 121t-20.5 121t-60 92
t-95 58.5t-124.5 20.5t-124.5 -20.5t-95 -58.5t-60 -92t-20.5 -121t21 -121t60.5 -92t94.5 -58t124 -20zM608 276v-102q-27 -16 -60 -24.5t-68 -8.5q-70 0 -119.5 25.5t-75.5 74t-26 116.5q0 66 27.5 114.5t78 75t118.5 26.5q34 0 63.5 -7t55.5 -23v-104q-21 17 -47 25
t-54 8q-56 0 -87.5 -30.5t-31.5 -84.5q0 -55 31.5 -85t86.5 -30q28 0 55 8t53 26z" />
    <glyph glyph-name="ordfeminine" unicode="&#xaa;" horiz-adv-x="457" 
d="M316 306q3 42 12 89q-28 -48 -64 -73.5t-78 -25.5q-48 0 -75.5 36t-27.5 97q0 57 19 106.5t52.5 86.5t78.5 57.5t98 20.5q79 0 147 -33l-50 -236q-8 -41 -13 -70t-7 -55h-92zM191 440q0 -26 9.5 -41t29.5 -15q54 0 102 90l29 135q-9 4 -19.5 5.5t-21.5 1.5
q-27 0 -50.5 -14t-41 -38t-27.5 -56t-10 -68z" />
    <glyph glyph-name="guillemotleft" unicode="&#xab;" horiz-adv-x="613" 
d="M371 472l-181 -220l92 -200h-137l-103 210l177 210h152zM615 472l-181 -220l92 -200h-137l-103 210l177 210h152z" />
    <glyph glyph-name="logicalnot" unicode="&#xac;" horiz-adv-x="596" 
d="M427 164v178h-340v118h463v-296h-123z" />
    <glyph glyph-name="registered" unicode="&#xae;" horiz-adv-x="530" 
d="M319 292q-69 0 -119.5 27t-78 76t-27.5 115t28 115.5t78.5 77t118.5 27.5t118.5 -27.5t78.5 -77t28 -115.5t-27.5 -115t-78 -76t-119.5 -27zM319 341q53 0 91 20t58.5 58t20.5 91q0 54 -20.5 92t-58.5 58t-91 20t-91 -20t-58.5 -58t-20.5 -92q0 -53 20.5 -91t58.5 -58
t91 -20zM287 473v-73h-64v222h98q49 0 74.5 -19.5t25.5 -55.5q0 -42 -38 -61q13 -21 27 -43t26 -43h-73q-10 19 -20 37l-20 36h-2h-34zM287 521h29q39 0 39 26q0 27 -39 27h-29v-53z" />
    <glyph glyph-name="macron" unicode="&#xaf;" horiz-adv-x="500" 
d="M192 727h320l-20 -92h-320z" />
    <glyph glyph-name="degree" unicode="&#xb0;" horiz-adv-x="454" 
d="M286 712q57 0 99.5 -23t66 -63.5t23.5 -94.5q0 -55 -23.5 -96.5t-66 -65t-99.5 -23.5t-99.5 23.5t-66 65t-23.5 96.5q0 54 23.5 94.5t66 63.5t99.5 23zM286 435q40 0 63.5 26.5t23.5 69.5q0 41 -23.5 66.5t-63.5 25.5t-63.5 -25.5t-23.5 -66.5q0 -43 23.5 -69.5
t63.5 -26.5z" />
    <glyph glyph-name="plusminus" unicode="&#xb1;" horiz-adv-x="596" 
d="M550 0h-463v118h463v-118zM257 174v178h-170v118h170v178h123v-178h170v-118h-170v-178h-123z" />
    <glyph glyph-name="acute" unicode="&#xb4;" horiz-adv-x="500" 
d="M334 762h164q-56 -48 -100.5 -88.5t-79.5 -73.5h-133q38 44 76.5 85t72.5 77z" />
    <glyph glyph-name="paragraph" unicode="&#xb6;" horiz-adv-x="685" 
d="M310 -150h-130l94 446q-89 2 -138 47.5t-49 124.5q0 119 78 183t224 64h317l-183 -865h-130l160 754h-83z" />
    <glyph glyph-name="cedilla" unicode="&#xb8;" horiz-adv-x="500" 
d="M276 -127q0 -34 -18.5 -59t-52.5 -39t-79 -14q-25 0 -46 4t-40 13l15 68q16 -8 31 -11.5t37 -3.5q30 0 47 9.5t17 25.5q0 26 -47 26q-14 0 -26 -1t-26 -4l60 128h73l-34 -69h5q40 0 62 -19t22 -54z" />
    <glyph glyph-name="ordmasculine" unicode="&#xba;" horiz-adv-x="454" 
d="M254 296q-51 0 -88.5 20t-57.5 56.5t-20 85.5q0 46 14 89t41.5 77.5t68 55t92.5 20.5q51 0 88.5 -20t57.5 -56.5t20 -85.5q0 -46 -14 -89t-41.5 -77.5t-68 -55t-92.5 -20.5zM299 614q-28 0 -48 -14.5t-33 -38t-19 -50t-6 -50.5q0 -37 17.5 -58t48.5 -21q28 0 48 14.5
t33 38t19 50t6 50.5q0 37 -17.5 58t-48.5 21z" />
    <glyph glyph-name="guillemotright" unicode="&#xbb;" horiz-adv-x="613" 
d="M331 262l-177 -210h-152l181 220l-92 200h137zM575 262l-177 -210h-152l181 220l-92 200h137z" />
    <glyph glyph-name="onequarter" unicode="&#xbc;" horiz-adv-x="964" 
d="M199 0l491 699h116l-491 -699h-116zM563 149q61 62 121 122.5t128 125.5h104l-53 -249h46l-16 -77h-46l-15 -71h-96l15 71h-205zM767 148l28 134q-34 -34 -67 -67.5t-66 -66.5h105zM370 699l-84 -397h-103l61 289q-28 -13 -55 -25.5t-51 -24.5l20 98q28 13 61 28t70 32
h81z" />
    <glyph glyph-name="onehalf" unicode="&#xbd;" horiz-adv-x="964" 
d="M179 0l491 699h116l-491 -699h-116zM879 88l-19 -88h-312l5 24q13 62 49 105t102 73q32 15 52 25.5t30.5 19t14.5 17t4 19.5q0 37 -64 37q-36 0 -64.5 -10t-59.5 -32l21 99q51 30 126 30q45 0 78 -13.5t51 -37.5t18 -57q0 -27 -7 -48t-23.5 -38.5t-44 -34t-68.5 -34.5
q-34 -15 -55 -28t-34 -28h200zM370 699l-84 -397h-103l61 289q-28 -13 -55 -25.5t-51 -24.5l20 98q28 13 61 28t70 32h81z" />
    <glyph glyph-name="threequarters" unicode="&#xbe;" horiz-adv-x="964" 
d="M219 0l491 699h116l-491 -699h-116zM563 149q61 62 121 122.5t128 125.5h104l-53 -249h46l-16 -77h-46l-15 -71h-96l15 71h-205zM767 148l28 134q-34 -34 -67 -67.5t-66 -66.5h105zM398 422q0 -39 -24.5 -68.5t-69 -45.5t-104.5 -16q-40 0 -72 7t-60 24l17 81
q25 -16 52 -22.5t63 -6.5q44 0 69 14t25 39q0 17 -18 26t-52 9h-62l17 80h58q89 0 89 48q0 35 -71 35q-31 0 -62 -8t-59 -25l19 90q30 13 60.5 19.5t62.5 6.5q72 0 112 -26.5t40 -73.5q0 -39 -24.5 -68t-65.5 -42q60 -19 60 -77z" />
    <glyph glyph-name="questiondown" unicode="&#xbf;" horiz-adv-x="507" 
d="M338 527q37 0 59.5 -20.5t22.5 -52.5q0 -26 -12.5 -48t-35 -35t-51.5 -13q-37 0 -59.5 21t-22.5 52q0 26 12.5 48t34.5 35t52 13zM-16 -41q0 37 8 67.5t26.5 55.5t49 48.5t74.5 47.5q32 17 50 31t27 29t14 35l4 17h125l-4 -17q-8 -32 -16.5 -55.5t-21.5 -41t-30.5 -32.5
t-43.5 -30q-34 -20 -56.5 -36t-35 -31t-17.5 -31t-5 -37q0 -36 28 -55t80 -19q46 0 85 11.5t81 36.5l-27 -128q-37 -19 -82 -28t-89 -9q-70 0 -120 20.5t-77 59t-27 91.5z" />
    <glyph glyph-name="Agrave" unicode="&#xc0;" horiz-adv-x="714" 
d="M491 0q-4 40 -8.5 79t-8.5 78h-264q-21 -39 -41.5 -78.5t-41.5 -78.5h-170q106 188 209.5 366t206.5 349h162q31 -180 60 -358.5t54 -356.5h-158zM277 282h183q-8 69 -16.5 136.5t-17.5 134.5q-38 -67 -75 -135zM279 915h159q31 -30 62.5 -63t61.5 -66h-133
q-31 28 -69 61t-81 68z" />
    <glyph glyph-name="Aacute" unicode="&#xc1;" horiz-adv-x="714" 
d="M491 0q-4 40 -8.5 79t-8.5 78h-264q-21 -39 -41.5 -78.5t-41.5 -78.5h-170q106 188 209.5 366t206.5 349h162q31 -180 60 -358.5t54 -356.5h-158zM277 282h183q-8 69 -16.5 136.5t-17.5 134.5q-38 -67 -75 -135zM519 915h175q-53 -35 -101 -68t-87 -61h-149
q39 33 81.5 66.5t80.5 62.5z" />
    <glyph glyph-name="Acircumflex" unicode="&#xc2;" horiz-adv-x="714" 
d="M491 0q-4 40 -8.5 79t-8.5 78h-264q-21 -39 -41.5 -78.5t-41.5 -78.5h-170q106 188 209.5 366t206.5 349h162q31 -180 60 -358.5t54 -356.5h-158zM277 282h183q-8 69 -16.5 136.5t-17.5 134.5q-38 -67 -75 -135zM538 786q-25 26 -60 60q-25 -17 -46.5 -32t-39.5 -28h-145
q44 34 87.5 67t83.5 62h134q28 -29 58 -62t59 -67h-131z" />
    <glyph glyph-name="Atilde" unicode="&#xc3;" horiz-adv-x="714" 
d="M491 0q-4 40 -8.5 79t-8.5 78h-264q-21 -39 -41.5 -78.5t-41.5 -78.5h-170q106 188 209.5 366t206.5 349h162q31 -180 60 -358.5t54 -356.5h-158zM277 282h183q-8 69 -16.5 136.5t-17.5 134.5q-38 -67 -75 -135zM549 785q-25 0 -44.5 6.5t-33.5 15.5q-21 14 -33.5 21
t-21 9t-18.5 2q-20 0 -30 -12t-14 -38h-95q12 73 47.5 108t94.5 35q25 0 44.5 -6.5t33.5 -15.5q21 -14 33.5 -21t21 -9t18.5 -2q20 0 30 12t14 38h95q-12 -73 -47.5 -108t-94.5 -35z" />
    <glyph glyph-name="Adieresis" unicode="&#xc4;" horiz-adv-x="714" 
d="M491 0q-4 40 -8.5 79t-8.5 78h-264q-21 -39 -41.5 -78.5t-41.5 -78.5h-170q106 188 209.5 366t206.5 349h162q31 -180 60 -358.5t54 -356.5h-158zM277 282h183q-8 69 -16.5 136.5t-17.5 134.5q-38 -67 -75 -135zM341 789q-31 0 -49.5 17.5t-18.5 42.5q0 22 10.5 40
t28.5 29t43 11q31 0 49.5 -17.5t18.5 -42.5q0 -22 -10.5 -40t-28.5 -29t-43 -11zM595 789q-31 0 -49.5 17.5t-18.5 42.5q0 22 10.5 40t28.5 29t43 11q31 0 49.5 -17.5t18.5 -42.5q0 -22 -10.5 -40t-28.5 -29t-43 -11z" />
    <glyph glyph-name="Aring" unicode="&#xc5;" horiz-adv-x="714" 
d="M491 0q-4 40 -8.5 79t-8.5 78h-264q-21 -39 -41.5 -78.5t-41.5 -78.5h-170q106 188 209.5 366t206.5 349h162q31 -180 60 -358.5t54 -356.5h-158zM277 282h183q-8 69 -16.5 136.5t-17.5 134.5q-38 -67 -75 -135zM473 774q-34 0 -59 12.5t-39 34.5t-14 51q0 36 16.5 64
t45.5 44.5t66 16.5q34 0 59 -12.5t39 -34.5t14 -51q0 -36 -16.5 -64.5t-45.5 -44.5t-66 -16zM487 940q-28 0 -45 -16.5t-17 -44.5q0 -23 13.5 -35.5t36.5 -12.5q28 0 45 16.5t17 44.5q0 22 -13.5 35t-36.5 13z" />
    <glyph glyph-name="AE" unicode="&#xc6;" horiz-adv-x="1027" 
d="M-48 0q128 170 267.5 350t285.5 365h568l-26 -125h-304l-34 -159h268l-26 -125h-268l-39 -181h322l-26 -125h-470l33 157h-261q-58 -80 -114 -157h-176zM335 282h195l65 308h-26q-126 -163 -234 -308z" />
    <glyph glyph-name="Ccedilla" unicode="&#xc7;" horiz-adv-x="649" 
d="M64 287q0 67 18 131t54 120.5t88 99.5t120.5 67.5t152.5 24.5q43 0 77.5 -6t64 -18t57.5 -32l-28 -133q-36 31 -77 44.5t-98 13.5t-101 -18t-76.5 -49t-53.5 -70t-31 -81t-10 -82q0 -89 47 -136t134 -47q60 0 106 14.5t91 46.5l-32 -150q-41 -21 -88 -31.5t-102 -10.5
q-98 0 -168 36t-107.5 103.5t-37.5 162.5zM472 -127q0 -34 -19 -59t-54 -39t-81 -14q-25 0 -48 4t-42 13l15 70q16 -8 32.5 -11.5t39.5 -3.5q31 0 48.5 9t17.5 24q0 25 -49 25q-14 0 -28 -1t-28 -4l60 129h75l-33 -68h6q43 0 65.5 -19.5t22.5 -54.5z" />
    <glyph glyph-name="Egrave" unicode="&#xc8;" horiz-adv-x="594" 
d="M173 715h467l-26 -125h-316l-34 -159h280l-26 -125h-280l-39 -181h334l-26 -125h-485zM241 915h159q31 -30 62.5 -63t61.5 -66h-133q-31 28 -69 61t-81 68z" />
    <glyph glyph-name="Eacute" unicode="&#xc9;" horiz-adv-x="594" 
d="M173 715h467l-26 -125h-316l-34 -159h280l-26 -125h-280l-39 -181h334l-26 -125h-485zM481 915h175q-53 -35 -101 -68t-87 -61h-149q39 33 81.5 66.5t80.5 62.5z" />
    <glyph glyph-name="Ecircumflex" unicode="&#xca;" horiz-adv-x="594" 
d="M173 715h467l-26 -125h-316l-34 -159h280l-26 -125h-280l-39 -181h334l-26 -125h-485zM500 786q-25 26 -60 60q-25 -17 -46.5 -32t-39.5 -28h-145q44 34 87.5 67t83.5 62h134q28 -29 58 -62t59 -67h-131z" />
    <glyph glyph-name="Edieresis" unicode="&#xcb;" horiz-adv-x="594" 
d="M173 715h467l-26 -125h-316l-34 -159h280l-26 -125h-280l-39 -181h334l-26 -125h-485zM303 789q-31 0 -49.5 17.5t-18.5 42.5q0 22 10.5 40t28.5 29t43 11q31 0 49.5 -17.5t18.5 -42.5q0 -22 -10.5 -40t-28.5 -29t-43 -11zM557 789q-31 0 -49.5 17.5t-18.5 42.5
q0 22 10.5 40t28.5 29t43 11q31 0 49.5 -17.5t18.5 -42.5q0 -22 -10.5 -40t-28.5 -29t-43 -11z" />
    <glyph glyph-name="Igrave" unicode="&#xcc;" horiz-adv-x="303" 
d="M173 715h151l-151 -715h-151zM78 915h159q31 -30 62.5 -63t61.5 -66h-133q-31 28 -69 61t-81 68z" />
    <glyph glyph-name="Iacute" unicode="&#xcd;" horiz-adv-x="303" 
d="M173 715h151l-151 -715h-151zM318 915h175q-53 -35 -101 -68t-87 -61h-149q39 33 81.5 66.5t80.5 62.5z" />
    <glyph glyph-name="Icircumflex" unicode="&#xce;" horiz-adv-x="303" 
d="M173 715h151l-151 -715h-151zM337 786q-25 26 -60 60q-25 -17 -46.5 -32t-39.5 -28h-145q44 34 87.5 67t83.5 62h134q28 -29 58 -62t59 -67h-131z" />
    <glyph glyph-name="Idieresis" unicode="&#xcf;" horiz-adv-x="303" 
d="M173 715h151l-151 -715h-151zM140 789q-31 0 -49.5 17.5t-18.5 42.5q0 22 10.5 40t28.5 29t43 11q31 0 49.5 -17.5t18.5 -42.5q0 -22 -10.5 -40t-28.5 -29t-43 -11zM394 789q-31 0 -49.5 17.5t-18.5 42.5q0 22 10.5 40t28.5 29t43 11q31 0 49.5 -17.5t18.5 -42.5
q0 -22 -10.5 -40t-28.5 -29t-43 -11z" />
    <glyph glyph-name="Eth" unicode="&#xd0;" horiz-adv-x="731" 
d="M710 433q0 -98 -28.5 -178t-82 -137t-128.5 -87.5t-167 -30.5h-282l68 320h-74l23 108h73l61 287h241q91 0 157.5 -34.5t102.5 -97.5t36 -150zM200 129h100q58 0 104.5 20.5t79.5 58t51 90t18 117.5q0 82 -40.5 126.5t-114.5 44.5h-101l-34 -158h141l-23 -108h-140z" />
    <glyph glyph-name="Ntilde" unicode="&#xd1;" horiz-adv-x="741" 
d="M458 0q-45 127 -92 253.5t-93 246.5l-106 -500h-145l151 715h153q49 -126 95 -248.5t91 -248.5l105 497h145l-151 -715h-153zM569 785q-25 0 -44.5 6.5t-33.5 15.5q-21 14 -33.5 21t-21 9t-18.5 2q-20 0 -30 -12t-14 -38h-95q12 73 47.5 108t94.5 35q25 0 44.5 -6.5
t33.5 -15.5q21 -14 33.5 -21t21 -9t18.5 -2q20 0 30 12t14 38h95q-12 -73 -47.5 -108t-94.5 -35z" />
    <glyph glyph-name="Ograve" unicode="&#xd2;" horiz-adv-x="773" 
d="M365 -15q-69 0 -125 21t-95 60.5t-60 94.5t-21 123q0 67 16.5 131.5t48.5 121.5t79 100.5t108 68t135 24.5q69 0 125 -21t95 -60.5t60 -94.5t21 -123q0 -67 -16.5 -131.5t-48.5 -121.5t-79 -100.5t-108 -68t-135 -24.5zM445 599q-46 0 -82.5 -19t-63 -50.5t-44 -72
t-26 -83.5t-8.5 -84q0 -82 39 -128t111 -46q46 0 82.5 19t63 50.5t44 72t26 83.5t8.5 84q0 82 -39 128t-111 46zM302 915h159q31 -30 62.5 -63t61.5 -66h-133q-31 28 -69 61t-81 68z" />
    <glyph glyph-name="Oacute" unicode="&#xd3;" horiz-adv-x="773" 
d="M365 -15q-69 0 -125 21t-95 60.5t-60 94.5t-21 123q0 67 16.5 131.5t48.5 121.5t79 100.5t108 68t135 24.5q69 0 125 -21t95 -60.5t60 -94.5t21 -123q0 -67 -16.5 -131.5t-48.5 -121.5t-79 -100.5t-108 -68t-135 -24.5zM445 599q-46 0 -82.5 -19t-63 -50.5t-44 -72
t-26 -83.5t-8.5 -84q0 -82 39 -128t111 -46q46 0 82.5 19t63 50.5t44 72t26 83.5t8.5 84q0 82 -39 128t-111 46zM542 915h175q-53 -35 -101 -68t-87 -61h-149q39 33 81.5 66.5t80.5 62.5z" />
    <glyph glyph-name="Ocircumflex" unicode="&#xd4;" horiz-adv-x="773" 
d="M365 -15q-69 0 -125 21t-95 60.5t-60 94.5t-21 123q0 67 16.5 131.5t48.5 121.5t79 100.5t108 68t135 24.5q69 0 125 -21t95 -60.5t60 -94.5t21 -123q0 -67 -16.5 -131.5t-48.5 -121.5t-79 -100.5t-108 -68t-135 -24.5zM445 599q-46 0 -82.5 -19t-63 -50.5t-44 -72
t-26 -83.5t-8.5 -84q0 -82 39 -128t111 -46q46 0 82.5 19t63 50.5t44 72t26 83.5t8.5 84q0 82 -39 128t-111 46zM561 786q-25 26 -60 60q-25 -17 -46.5 -32t-39.5 -28h-145q44 34 87.5 67t83.5 62h134q28 -29 58 -62t59 -67h-131z" />
    <glyph glyph-name="Otilde" unicode="&#xd5;" horiz-adv-x="773" 
d="M365 -15q-69 0 -125 21t-95 60.5t-60 94.5t-21 123q0 67 16.5 131.5t48.5 121.5t79 100.5t108 68t135 24.5q69 0 125 -21t95 -60.5t60 -94.5t21 -123q0 -67 -16.5 -131.5t-48.5 -121.5t-79 -100.5t-108 -68t-135 -24.5zM445 599q-46 0 -82.5 -19t-63 -50.5t-44 -72
t-26 -83.5t-8.5 -84q0 -82 39 -128t111 -46q46 0 82.5 19t63 50.5t44 72t26 83.5t8.5 84q0 82 -39 128t-111 46zM572 785q-25 0 -44.5 6.5t-33.5 15.5q-21 14 -33.5 21t-21 9t-18.5 2q-20 0 -30 -12t-14 -38h-95q12 73 47.5 108t94.5 35q25 0 44.5 -6.5t33.5 -15.5
q21 -14 33.5 -21t21 -9t18.5 -2q20 0 30 12t14 38h95q-12 -73 -47.5 -108t-94.5 -35z" />
    <glyph glyph-name="Odieresis" unicode="&#xd6;" horiz-adv-x="773" 
d="M365 -15q-69 0 -125 21t-95 60.5t-60 94.5t-21 123q0 67 16.5 131.5t48.5 121.5t79 100.5t108 68t135 24.5q69 0 125 -21t95 -60.5t60 -94.5t21 -123q0 -67 -16.5 -131.5t-48.5 -121.5t-79 -100.5t-108 -68t-135 -24.5zM445 599q-46 0 -82.5 -19t-63 -50.5t-44 -72
t-26 -83.5t-8.5 -84q0 -82 39 -128t111 -46q46 0 82.5 19t63 50.5t44 72t26 83.5t8.5 84q0 82 -39 128t-111 46zM364 789q-31 0 -49.5 17.5t-18.5 42.5q0 22 10.5 40t28.5 29t43 11q31 0 49.5 -17.5t18.5 -42.5q0 -22 -10.5 -40t-28.5 -29t-43 -11zM618 789
q-31 0 -49.5 17.5t-18.5 42.5q0 22 10.5 40t28.5 29t43 11q31 0 49.5 -17.5t18.5 -42.5q0 -22 -10.5 -40t-28.5 -29t-43 -11z" />
    <glyph glyph-name="multiply" unicode="&#xd7;" horiz-adv-x="596" 
d="M558 193l-82 -83l-158 158l-158 -158l-82 83l158 157l-158 158l82 83l158 -158l158 158l82 -83l-158 -158z" />
    <glyph glyph-name="Oslash" unicode="&#xd8;" horiz-adv-x="773" 
d="M365 -15q-53 0 -98.5 13t-81.5 37l-80 -88l-73 65l83 92q-25 36 -38 81.5t-13 98.5q0 67 16.5 131.5t48.5 121.5t79 100.5t108 68t135 24.5q53 0 97.5 -12.5t80.5 -36.5l78 87l73 -65l-80 -90q25 -36 38.5 -82t13.5 -100q0 -67 -16.5 -131.5t-48.5 -121.5t-79 -100.5
t-108 -68t-135 -24.5zM221 290q0 -35 7 -63l307 346q-36 26 -90 26q-46 0 -82.5 -19t-63 -50.5t-44 -72t-26 -83.5t-8.5 -84zM595 425q0 36 -7 65l-308 -348q36 -26 91 -26q46 0 82.5 19t63 50.5t44 72t26 83.5t8.5 84z" />
    <glyph glyph-name="Ugrave" unicode="&#xd9;" horiz-adv-x="728" 
d="M87 322l83 393h151l-91 -431q-6 -27 -6 -49q0 -57 32.5 -88t92.5 -31q62 0 102 38t55 111l95 450h151l-95 -450q-29 -139 -110 -209.5t-210 -70.5q-83 0 -141.5 29t-89.5 84t-31 132q0 20 3 42t9 50zM286 915h159q31 -30 62.5 -63t61.5 -66h-133q-31 28 -69 61t-81 68z
" />
    <glyph glyph-name="Uacute" unicode="&#xda;" horiz-adv-x="728" 
d="M87 322l83 393h151l-91 -431q-6 -27 -6 -49q0 -57 32.5 -88t92.5 -31q62 0 102 38t55 111l95 450h151l-95 -450q-29 -139 -110 -209.5t-210 -70.5q-83 0 -141.5 29t-89.5 84t-31 132q0 20 3 42t9 50zM526 915h175q-53 -35 -101 -68t-87 -61h-149q39 33 81.5 66.5
t80.5 62.5z" />
    <glyph glyph-name="Ucircumflex" unicode="&#xdb;" horiz-adv-x="728" 
d="M87 322l83 393h151l-91 -431q-6 -27 -6 -49q0 -57 32.5 -88t92.5 -31q62 0 102 38t55 111l95 450h151l-95 -450q-29 -139 -110 -209.5t-210 -70.5q-83 0 -141.5 29t-89.5 84t-31 132q0 20 3 42t9 50zM545 786q-25 26 -60 60q-25 -17 -46.5 -32t-39.5 -28h-145
q44 34 87.5 67t83.5 62h134q28 -29 58 -62t59 -67h-131z" />
    <glyph glyph-name="Udieresis" unicode="&#xdc;" horiz-adv-x="728" 
d="M87 322l83 393h151l-91 -431q-6 -27 -6 -49q0 -57 32.5 -88t92.5 -31q62 0 102 38t55 111l95 450h151l-95 -450q-29 -139 -110 -209.5t-210 -70.5q-83 0 -141.5 29t-89.5 84t-31 132q0 20 3 42t9 50zM348 789q-31 0 -49.5 17.5t-18.5 42.5q0 22 10.5 40t28.5 29t43 11
q31 0 49.5 -17.5t18.5 -42.5q0 -22 -10.5 -40t-28.5 -29t-43 -11zM602 789q-31 0 -49.5 17.5t-18.5 42.5q0 22 10.5 40t28.5 29t43 11q31 0 49.5 -17.5t18.5 -42.5q0 -22 -10.5 -40t-28.5 -29t-43 -11z" />
    <glyph glyph-name="Yacute" unicode="&#xdd;" horiz-adv-x="685" 
d="M421 271l-57 -271h-151l57 271q-42 111 -82 221.5t-77 222.5h159q22 -79 46 -157.5t49 -155.5q58 78 114.5 156.5t110.5 156.5h178q-85 -112 -171 -222t-176 -222zM500 915h175q-53 -35 -101 -68t-87 -61h-149q39 33 81.5 66.5t80.5 62.5z" />
    <glyph glyph-name="Thorn" unicode="&#xde;" horiz-adv-x="636" 
d="M312 128h-114l-27 -128h-149l151 715h149l-24 -116h73q78 0 134 -24t86 -68.5t30 -106.5q0 -84 -37 -145t-106 -94t-166 -33zM357 480h-85l-49 -233h85q76 0 118 36.5t42 103.5q0 44 -29 68.5t-82 24.5z" />
    <glyph glyph-name="germandbls" unicode="&#xdf;" horiz-adv-x="624" 
d="M397 758q58 0 102.5 -19.5t69.5 -54t25 -79.5q0 -35 -10.5 -63t-34 -52t-62.5 -51q-29 -19 -40 -32t-11 -29q0 -10 4 -18.5t16.5 -20t36.5 -30.5q39 -31 56 -63t17 -75q0 -55 -26 -96.5t-74 -64.5t-112 -23q-89 0 -144 37l24 114q47 -35 112 -35q37 0 57 15.5t20 43.5
q0 22 -11.5 37t-36.5 34q-41 31 -58.5 60t-17.5 68q0 41 24.5 74t74.5 66q32 22 45 39.5t13 42.5q0 27 -19 42.5t-51 15.5q-49 0 -79 -38t-49 -126l-134 -628h-145l143 670q25 118 95.5 178.5t179.5 60.5z" />
    <glyph glyph-name="agrave" unicode="&#xe0;" horiz-adv-x="569" 
d="M328 0q2 26 6 54.5t10 59.5q-34 -62 -79 -94.5t-98 -32.5q-41 0 -71.5 22t-47 62.5t-16.5 95.5q0 62 16 117t45 100t69 78t89 51t104 18q52 0 101.5 -11.5t94.5 -33.5l-67 -316q-10 -50 -17 -92t-10 -78h-129zM181 181q0 -37 12.5 -56t35.5 -19q65 0 122 119l39 183
q-22 8 -50 8q-33 0 -62 -18.5t-50.5 -51t-34 -75t-12.5 -90.5zM215 762h148q23 -38 47 -78t48 -84h-117q-48 66 -126 162z" />
    <glyph glyph-name="aacute" unicode="&#xe1;" horiz-adv-x="569" 
d="M328 0q2 26 6 54.5t10 59.5q-34 -62 -79 -94.5t-98 -32.5q-41 0 -71.5 22t-47 62.5t-16.5 95.5q0 62 16 117t45 100t69 78t89 51t104 18q52 0 101.5 -11.5t94.5 -33.5l-67 -316q-10 -50 -17 -92t-10 -78h-129zM181 181q0 -37 12.5 -56t35.5 -19q65 0 122 119l39 183
q-22 8 -50 8q-33 0 -62 -18.5t-50.5 -51t-34 -75t-12.5 -90.5zM422 762h164q-56 -48 -100.5 -88.5t-79.5 -73.5h-133q38 44 76.5 85t72.5 77z" />
    <glyph glyph-name="acircumflex" unicode="&#xe2;" horiz-adv-x="569" 
d="M328 0q2 26 6 54.5t10 59.5q-34 -62 -79 -94.5t-98 -32.5q-41 0 -71.5 22t-47 62.5t-16.5 95.5q0 62 16 117t45 100t69 78t89 51t104 18q52 0 101.5 -11.5t94.5 -33.5l-67 -316q-10 -50 -17 -92t-10 -78h-129zM181 181q0 -37 12.5 -56t35.5 -19q65 0 122 119l39 183
q-22 8 -50 8q-33 0 -62 -18.5t-50.5 -51t-34 -75t-12.5 -90.5zM449 600q-12 17 -27 38.5t-33 45.5q-28 -24 -52 -45.5t-43 -38.5h-125q40 40 82.5 81.5t84.5 80.5h128q26 -40 50 -81t47 -81h-112z" />
    <glyph glyph-name="atilde" unicode="&#xe3;" horiz-adv-x="569" 
d="M328 0q2 26 6 54.5t10 59.5q-34 -62 -79 -94.5t-98 -32.5q-41 0 -71.5 22t-47 62.5t-16.5 95.5q0 62 16 117t45 100t69 78t89 51t104 18q52 0 101.5 -11.5t94.5 -33.5l-67 -316q-10 -50 -17 -92t-10 -78h-129zM181 181q0 -37 12.5 -56t35.5 -19q65 0 122 119l39 183
q-22 8 -50 8q-33 0 -62 -18.5t-50.5 -51t-34 -75t-12.5 -90.5zM375 629q-18 14 -29.5 22t-20.5 11.5t-19 3.5q-18 0 -28 -13.5t-16 -47.5h-93q24 156 141 156q25 0 43 -6.5t39 -22.5q18 -14 29 -21.5t20 -11t19 -3.5q18 0 28 13.5t16 47.5h93q-24 -156 -141 -156
q-25 0 -43 6.5t-38 21.5z" />
    <glyph glyph-name="adieresis" unicode="&#xe4;" horiz-adv-x="569" 
d="M328 0q2 26 6 54.5t10 59.5q-34 -62 -79 -94.5t-98 -32.5q-41 0 -71.5 22t-47 62.5t-16.5 95.5q0 62 16 117t45 100t69 78t89 51t104 18q52 0 101.5 -11.5t94.5 -33.5l-67 -316q-10 -50 -17 -92t-10 -78h-129zM181 181q0 -37 12.5 -56t35.5 -19q65 0 122 119l39 183
q-22 8 -50 8q-33 0 -62 -18.5t-50.5 -51t-34 -75t-12.5 -90.5zM256 611q-30 0 -48.5 17t-18.5 43q0 21 10.5 39t28.5 29t42 11q31 0 49.5 -17t18.5 -43q0 -22 -10.5 -39.5t-29 -28.5t-42.5 -11zM494 611q-30 0 -48.5 17t-18.5 43q0 21 10.5 39t28.5 29t42 11q31 0 49.5 -17
t18.5 -43q0 -22 -10.5 -39.5t-29 -28.5t-42.5 -11z" />
    <glyph glyph-name="aring" unicode="&#xe5;" horiz-adv-x="569" 
d="M328 0q2 26 6 54.5t10 59.5q-34 -62 -79 -94.5t-98 -32.5q-41 0 -71.5 22t-47 62.5t-16.5 95.5q0 62 16 117t45 100t69 78t89 51t104 18q52 0 101.5 -11.5t94.5 -33.5l-67 -316q-10 -50 -17 -92t-10 -78h-129zM181 181q0 -37 12.5 -56t35.5 -19q65 0 122 119l39 183
q-22 8 -50 8q-33 0 -62 -18.5t-50.5 -51t-34 -75t-12.5 -90.5zM376 588q-32 0 -56 12.5t-37.5 35t-13.5 52.5q0 36 17 65t46 45.5t66 16.5q32 0 56 -12.5t37.5 -35.5t13.5 -52q0 -36 -17 -64.5t-46 -45.5t-66 -17zM395 759q-29 0 -46 -20t-17 -48q0 -22 12.5 -34.5
t34.5 -12.5q29 0 46 20t17 48q0 22 -12.5 34.5t-34.5 12.5z" />
    <glyph glyph-name="ae" unicode="&#xe6;" horiz-adv-x="848" 
d="M746 29q-38 -22 -76.5 -32t-87.5 -10q-87 0 -142.5 38.5t-73.5 109.5q-38 -72 -88.5 -110t-110.5 -38q-41 0 -71.5 22t-47 62.5t-16.5 95.5q0 62 16 117t45 100t69 78t89 51t104 18q92 0 160 -40q32 19 69 29.5t77 10.5q53 0 92 -17.5t59.5 -49.5t20.5 -75
q0 -93 -81.5 -140.5t-255.5 -58.5q5 -46 31.5 -67.5t77.5 -21.5q30 0 57 6t54 19t58 35zM646 425q-32 0 -61 -19t-50.5 -51.5t-31.5 -74.5q104 6 151 29.5t47 68.5q0 23 -15 35t-40 12zM181 181q0 -37 12.5 -56t35.5 -19q71 0 132 141q5 41 18.5 78.5t34.5 68.5
q-28 22 -74 22q-33 0 -62 -18.5t-50.5 -51t-34 -75t-12.5 -90.5z" />
    <glyph glyph-name="ccedilla" unicode="&#xe7;" horiz-adv-x="475" 
d="M185 217q0 -112 100 -112q37 0 69.5 11.5t69.5 40.5l-29 -136q-33 -17 -68 -25.5t-78 -8.5q-65 0 -112 25.5t-72 74.5t-25 117q0 52 14 100t40.5 89.5t64 72t86 48t105.5 17.5q85 0 138 -40l-25 -116q-20 20 -46 29t-62 9q-42 0 -73.5 -17t-53 -45.5t-32.5 -63t-11 -70.5
zM344 -127q0 -34 -18.5 -59t-52.5 -39t-79 -14q-25 0 -46 4t-40 13l15 68q16 -8 31 -11.5t37 -3.5q30 0 47 9.5t17 25.5q0 26 -47 26q-14 0 -26 -1t-26 -4l60 128h73l-34 -69h5q40 0 62 -19t22 -54z" />
    <glyph glyph-name="egrave" unicode="&#xe8;" horiz-adv-x="530" 
d="M428 29q-38 -22 -76.5 -32t-87.5 -10q-71 0 -121 25.5t-76.5 74t-26.5 116.5q0 55 15 104.5t43 90t65.5 70.5t83 46.5t96.5 16.5q53 0 92 -17.5t59.5 -49.5t20.5 -75q0 -93 -81.5 -140.5t-255.5 -58.5q5 -46 31.5 -67.5t77.5 -21.5q30 0 57 6t54 19t58 35zM328 425
q-32 0 -61 -19t-50.5 -51.5t-31.5 -74.5q104 6 151 29.5t47 68.5q0 23 -15 35t-40 12zM203 762h148q23 -38 47 -78t48 -84h-117q-48 66 -126 162z" />
    <glyph glyph-name="ecircumflex" unicode="&#xea;" horiz-adv-x="530" 
d="M428 29q-38 -22 -76.5 -32t-87.5 -10q-71 0 -121 25.5t-76.5 74t-26.5 116.5q0 55 15 104.5t43 90t65.5 70.5t83 46.5t96.5 16.5q53 0 92 -17.5t59.5 -49.5t20.5 -75q0 -93 -81.5 -140.5t-255.5 -58.5q5 -46 31.5 -67.5t77.5 -21.5q30 0 57 6t54 19t58 35zM328 425
q-32 0 -61 -19t-50.5 -51.5t-31.5 -74.5q104 6 151 29.5t47 68.5q0 23 -15 35t-40 12zM437 600q-12 17 -27 38.5t-33 45.5q-28 -24 -52 -45.5t-43 -38.5h-125q40 40 82.5 81.5t84.5 80.5h128q26 -40 50 -81t47 -81h-112z" />
    <glyph glyph-name="edieresis" unicode="&#xeb;" horiz-adv-x="530" 
d="M428 29q-38 -22 -76.5 -32t-87.5 -10q-71 0 -121 25.5t-76.5 74t-26.5 116.5q0 55 15 104.5t43 90t65.5 70.5t83 46.5t96.5 16.5q53 0 92 -17.5t59.5 -49.5t20.5 -75q0 -93 -81.5 -140.5t-255.5 -58.5q5 -46 31.5 -67.5t77.5 -21.5q30 0 57 6t54 19t58 35zM328 425
q-32 0 -61 -19t-50.5 -51.5t-31.5 -74.5q104 6 151 29.5t47 68.5q0 23 -15 35t-40 12zM244 611q-30 0 -48.5 17t-18.5 43q0 21 10.5 39t28.5 29t42 11q31 0 49.5 -17t18.5 -43q0 -22 -10.5 -39.5t-29 -28.5t-42.5 -11zM482 611q-30 0 -48.5 17t-18.5 43q0 21 10.5 39
t28.5 29t42 11q31 0 49.5 -17t18.5 -43q0 -22 -10.5 -39.5t-29 -28.5t-42.5 -11z" />
    <glyph glyph-name="igrave" unicode="&#xec;" horiz-adv-x="279" 
d="M123 518h145l-110 -518h-145zM57 762h148q23 -38 47 -78t48 -84h-117q-48 66 -126 162z" />
    <glyph glyph-name="iacute" unicode="&#xed;" horiz-adv-x="279" 
d="M123 518h145l-110 -518h-145zM264 762h164q-56 -48 -100.5 -88.5t-79.5 -73.5h-133q38 44 76.5 85t72.5 77z" />
    <glyph glyph-name="icircumflex" unicode="&#xee;" horiz-adv-x="279" 
d="M123 518h145l-110 -518h-145zM291 600q-12 17 -27 38.5t-33 45.5q-28 -24 -52 -45.5t-43 -38.5h-125q40 40 82.5 81.5t84.5 80.5h128q26 -40 50 -81t47 -81h-112z" />
    <glyph glyph-name="idieresis" unicode="&#xef;" horiz-adv-x="279" 
d="M123 518h145l-110 -518h-145zM98 611q-30 0 -48.5 17t-18.5 43q0 21 10.5 39t28.5 29t42 11q31 0 49.5 -17t18.5 -43q0 -22 -10.5 -39.5t-29 -28.5t-42.5 -11zM336 611q-30 0 -48.5 17t-18.5 43q0 21 10.5 39t28.5 29t42 11q31 0 49.5 -17t18.5 -43q0 -22 -10.5 -39.5
t-29 -28.5t-42.5 -11z" />
    <glyph glyph-name="eth" unicode="&#xf0;" horiz-adv-x="571" 
d="M535 338q0 -50 -11 -100t-33 -95t-56 -80t-79.5 -55.5t-103.5 -20.5q-64 0 -112 26t-74 73.5t-26 111.5q0 58 17.5 110t50 92t78 62.5t100.5 22.5q60 0 98 -39q-13 67 -42 128l-131 -53l-30 78l118 48q-36 52 -87 98h153q24 -26 45 -54l121 49l30 -78l-104 -42
q38 -67 58 -138.5t20 -143.5zM183 199q0 -45 20 -70.5t56 -25.5q28 0 49.5 14t37 38t25.5 55t15 64.5t6 66.5q-32 35 -82 35q-31 0 -55 -15t-40 -40.5t-24 -57t-8 -64.5z" />
    <glyph glyph-name="ntilde" unicode="&#xf1;" horiz-adv-x="578" 
d="M348 412q-70 0 -128 -122l-62 -290h-145l74 348q11 50 17.5 92t9.5 78h129q-2 -27 -6 -55.5t-11 -61.5q36 63 82.5 96.5t103.5 33.5q38 0 66.5 -16.5t44 -46.5t15.5 -72q0 -14 -1 -30t-6 -37l-70 -329h-145l69 325q2 10 3 19.5t1 18.5q0 23 -10.5 36t-30.5 13zM369 629
q-18 14 -29.5 22t-20.5 11.5t-19 3.5q-18 0 -28 -13.5t-16 -47.5h-93q24 156 141 156q25 0 43 -6.5t39 -22.5q18 -14 29 -21.5t20 -11t19 -3.5q18 0 28 13.5t16 47.5h93q-24 -156 -141 -156q-25 0 -43 6.5t-38 21.5z" />
    <glyph glyph-name="ograve" unicode="&#xf2;" horiz-adv-x="571" 
d="M256 -13q-67 0 -115.5 26.5t-74.5 75.5t-26 117q0 49 12 96.5t36 89t57.5 73t77 49t95.5 17.5q67 0 115.5 -26.5t74.5 -75.5t26 -117q0 -50 -12 -97t-36 -88.5t-57.5 -73t-77 -49t-95.5 -17.5zM259 104q27 0 48.5 13.5t36.5 36.5t25 51t15 56.5t5 53.5q0 47 -19.5 73
t-54.5 26q-27 0 -48.5 -13.5t-36.5 -36.5t-25 -51t-15 -56.5t-5 -53.5q0 -47 19 -73t55 -26zM191 762h148q23 -38 47 -78t48 -84h-117q-48 66 -126 162z" />
    <glyph glyph-name="oacute" unicode="&#xf3;" horiz-adv-x="571" 
d="M256 -13q-67 0 -115.5 26.5t-74.5 75.5t-26 117q0 49 12 96.5t36 89t57.5 73t77 49t95.5 17.5q67 0 115.5 -26.5t74.5 -75.5t26 -117q0 -50 -12 -97t-36 -88.5t-57.5 -73t-77 -49t-95.5 -17.5zM259 104q27 0 48.5 13.5t36.5 36.5t25 51t15 56.5t5 53.5q0 47 -19.5 73
t-54.5 26q-27 0 -48.5 -13.5t-36.5 -36.5t-25 -51t-15 -56.5t-5 -53.5q0 -47 19 -73t55 -26zM398 762h164q-56 -48 -100.5 -88.5t-79.5 -73.5h-133q38 44 76.5 85t72.5 77z" />
    <glyph glyph-name="ocircumflex" unicode="&#xf4;" horiz-adv-x="571" 
d="M256 -13q-67 0 -115.5 26.5t-74.5 75.5t-26 117q0 49 12 96.5t36 89t57.5 73t77 49t95.5 17.5q67 0 115.5 -26.5t74.5 -75.5t26 -117q0 -50 -12 -97t-36 -88.5t-57.5 -73t-77 -49t-95.5 -17.5zM259 104q27 0 48.5 13.5t36.5 36.5t25 51t15 56.5t5 53.5q0 47 -19.5 73
t-54.5 26q-27 0 -48.5 -13.5t-36.5 -36.5t-25 -51t-15 -56.5t-5 -53.5q0 -47 19 -73t55 -26zM425 600q-12 17 -27 38.5t-33 45.5q-28 -24 -52 -45.5t-43 -38.5h-125q40 40 82.5 81.5t84.5 80.5h128q26 -40 50 -81t47 -81h-112z" />
    <glyph glyph-name="otilde" unicode="&#xf5;" horiz-adv-x="571" 
d="M256 -13q-67 0 -115.5 26.5t-74.5 75.5t-26 117q0 49 12 96.5t36 89t57.5 73t77 49t95.5 17.5q67 0 115.5 -26.5t74.5 -75.5t26 -117q0 -50 -12 -97t-36 -88.5t-57.5 -73t-77 -49t-95.5 -17.5zM259 104q27 0 48.5 13.5t36.5 36.5t25 51t15 56.5t5 53.5q0 47 -19.5 73
t-54.5 26q-27 0 -48.5 -13.5t-36.5 -36.5t-25 -51t-15 -56.5t-5 -53.5q0 -47 19 -73t55 -26zM351 629q-18 14 -29.5 22t-20.5 11.5t-19 3.5q-18 0 -28 -13.5t-16 -47.5h-93q24 156 141 156q25 0 43 -6.5t39 -22.5q18 -14 29 -21.5t20 -11t19 -3.5q18 0 28 13.5t16 47.5h93
q-24 -156 -141 -156q-25 0 -43 6.5t-38 21.5z" />
    <glyph glyph-name="odieresis" unicode="&#xf6;" horiz-adv-x="571" 
d="M256 -13q-67 0 -115.5 26.5t-74.5 75.5t-26 117q0 49 12 96.5t36 89t57.5 73t77 49t95.5 17.5q67 0 115.5 -26.5t74.5 -75.5t26 -117q0 -50 -12 -97t-36 -88.5t-57.5 -73t-77 -49t-95.5 -17.5zM259 104q27 0 48.5 13.5t36.5 36.5t25 51t15 56.5t5 53.5q0 47 -19.5 73
t-54.5 26q-27 0 -48.5 -13.5t-36.5 -36.5t-25 -51t-15 -56.5t-5 -53.5q0 -47 19 -73t55 -26zM232 611q-30 0 -48.5 17t-18.5 43q0 21 10.5 39t28.5 29t42 11q31 0 49.5 -17t18.5 -43q0 -22 -10.5 -39.5t-29 -28.5t-42.5 -11zM470 611q-30 0 -48.5 17t-18.5 43q0 21 10.5 39
t28.5 29t42 11q31 0 49.5 -17t18.5 -43q0 -22 -10.5 -39.5t-29 -28.5t-42.5 -11z" />
    <glyph glyph-name="divide" unicode="&#xf7;" horiz-adv-x="596" 
d="M318 474q-38 0 -60.5 22.5t-22.5 56.5t22.5 56.5t60.5 22.5t60.5 -22.5t22.5 -56.5t-22.5 -56.5t-60.5 -22.5zM87 291v118h463v-118h-463zM318 68q-38 0 -60.5 22.5t-22.5 56.5t22.5 56.5t60.5 22.5t60.5 -22.5t22.5 -56.5t-22.5 -56.5t-60.5 -22.5z" />
    <glyph glyph-name="oslash" unicode="&#xf8;" horiz-adv-x="571" 
d="M256 -13q-38 0 -70 9t-58 26l-54 -60l-56 51l57 63q-17 26 -26 59t-9 71q0 49 12 96.5t36 89t57.5 73t77 49t95.5 17.5q38 0 70.5 -9t58.5 -27l54 61l56 -50l-57 -64q16 -26 25 -59t9 -71q0 -50 -12 -97t-36 -88.5t-57.5 -73t-77 -49t-95.5 -17.5zM185 203v-1v-6l177 202
q-18 16 -47 16q-27 0 -48.5 -13.5t-36.5 -36.5t-25 -51t-15 -56.5t-5 -53.5zM389 315v1v5l-177 -201q18 -16 47 -16q27 0 48.5 13.5t36.5 36.5t25 51t15 56.5t5 53.5z" />
    <glyph glyph-name="ugrave" unicode="&#xf9;" horiz-adv-x="573" 
d="M332 0q2 26 6 54.5t10 60.5q-34 -62 -79.5 -95t-101.5 -33q-39 0 -67 16.5t-43 46.5t-15 72q0 14 1 30t6 37l70 329h145l-69 -325q-2 -10 -3 -19.5t-1 -18.5q0 -23 10.5 -36t29.5 -13q67 0 124 121l62 291h145l-74 -348q-10 -50 -17 -92t-10 -78h-129zM197 762h148
q23 -38 47 -78t48 -84h-117q-48 66 -126 162z" />
    <glyph glyph-name="uacute" unicode="&#xfa;" horiz-adv-x="573" 
d="M332 0q2 26 6 54.5t10 60.5q-34 -62 -79.5 -95t-101.5 -33q-39 0 -67 16.5t-43 46.5t-15 72q0 14 1 30t6 37l70 329h145l-69 -325q-2 -10 -3 -19.5t-1 -18.5q0 -23 10.5 -36t29.5 -13q67 0 124 121l62 291h145l-74 -348q-10 -50 -17 -92t-10 -78h-129zM404 762h164
q-56 -48 -100.5 -88.5t-79.5 -73.5h-133q38 44 76.5 85t72.5 77z" />
    <glyph glyph-name="ucircumflex" unicode="&#xfb;" horiz-adv-x="573" 
d="M332 0q2 26 6 54.5t10 60.5q-34 -62 -79.5 -95t-101.5 -33q-39 0 -67 16.5t-43 46.5t-15 72q0 14 1 30t6 37l70 329h145l-69 -325q-2 -10 -3 -19.5t-1 -18.5q0 -23 10.5 -36t29.5 -13q67 0 124 121l62 291h145l-74 -348q-10 -50 -17 -92t-10 -78h-129zM431 600
q-12 17 -27 38.5t-33 45.5q-28 -24 -52 -45.5t-43 -38.5h-125q40 40 82.5 81.5t84.5 80.5h128q26 -40 50 -81t47 -81h-112z" />
    <glyph glyph-name="udieresis" unicode="&#xfc;" horiz-adv-x="573" 
d="M332 0q2 26 6 54.5t10 60.5q-34 -62 -79.5 -95t-101.5 -33q-39 0 -67 16.5t-43 46.5t-15 72q0 14 1 30t6 37l70 329h145l-69 -325q-2 -10 -3 -19.5t-1 -18.5q0 -23 10.5 -36t29.5 -13q67 0 124 121l62 291h145l-74 -348q-10 -50 -17 -92t-10 -78h-129zM238 611
q-30 0 -48.5 17t-18.5 43q0 21 10.5 39t28.5 29t42 11q31 0 49.5 -17t18.5 -43q0 -22 -10.5 -39.5t-29 -28.5t-42.5 -11zM476 611q-30 0 -48.5 17t-18.5 43q0 21 10.5 39t28.5 29t42 11q31 0 49.5 -17t18.5 -43q0 -22 -10.5 -39.5t-29 -28.5t-42.5 -11z" />
    <glyph glyph-name="yacute" unicode="&#xfd;" horiz-adv-x="530" 
d="M229 -85q-33 -54 -67 -88t-73 -50t-87 -16q-28 0 -53 6t-43 17l23 108q26 -16 65 -16q33 0 58 17.5t51 58.5q9 14 18 29.5t17 30.5q-20 122 -38 248t-36 258h150q4 -83 11 -173t15 -183q99 189 180 356h158q-43 -77 -89 -157.5t-91.5 -159.5t-88.5 -152t-80 -134z
M385 762h164q-56 -48 -100.5 -88.5t-79.5 -73.5h-133q38 44 76.5 85t72.5 77z" />
    <glyph glyph-name="thorn" unicode="&#xfe;" horiz-adv-x="575" 
d="M219 -13q-31 0 -62 7l-47 -220h-145l207 971h145l-41 -192l-35 -131q33 53 75 81t91 28q43 0 73.5 -22t47.5 -62.5t17 -95.5q0 -62 -16 -117t-45.5 -100.5t-70 -78t-90 -50.5t-104.5 -18zM345 412q-67 0 -125 -120l-38 -181q11 -5 24.5 -7t27.5 -2q34 0 63.5 18.5
t51.5 51t34.5 75t12.5 90.5q0 37 -13 56t-38 19z" />
    <glyph glyph-name="ydieresis" unicode="&#xff;" horiz-adv-x="530" 
d="M229 -85q-33 -54 -67 -88t-73 -50t-87 -16q-28 0 -53 6t-43 17l23 108q26 -16 65 -16q33 0 58 17.5t51 58.5q9 14 18 29.5t17 30.5q-20 122 -38 248t-36 258h150q4 -83 11 -173t15 -183q99 189 180 356h158q-43 -77 -89 -157.5t-91.5 -159.5t-88.5 -152t-80 -134z
M219 611q-30 0 -48.5 17t-18.5 43q0 21 10.5 39t28.5 29t42 11q31 0 49.5 -17t18.5 -43q0 -22 -10.5 -39.5t-29 -28.5t-42.5 -11zM457 611q-30 0 -48.5 17t-18.5 43q0 21 10.5 39t28.5 29t42 11q31 0 49.5 -17t18.5 -43q0 -22 -10.5 -39.5t-29 -28.5t-42.5 -11z" />
    <glyph glyph-name="Amacron" unicode="&#x100;" horiz-adv-x="714" 
d="M491 0q-4 40 -8.5 79t-8.5 78h-264q-21 -39 -41.5 -78.5t-41.5 -78.5h-170q106 188 209.5 366t206.5 349h162q31 -180 60 -358.5t54 -356.5h-158zM277 282h183q-8 69 -16.5 136.5t-17.5 134.5q-38 -67 -75 -135zM309 896h347l-20 -92h-347z" />
    <glyph glyph-name="amacron" unicode="&#x101;" horiz-adv-x="569" 
d="M328 0q2 26 6 54.5t10 59.5q-34 -62 -79 -94.5t-98 -32.5q-41 0 -71.5 22t-47 62.5t-16.5 95.5q0 62 16 117t45 100t69 78t89 51t104 18q52 0 101.5 -11.5t94.5 -33.5l-67 -316q-10 -50 -17 -92t-10 -78h-129zM181 181q0 -37 12.5 -56t35.5 -19q65 0 122 119l39 183
q-22 8 -50 8q-33 0 -62 -18.5t-50.5 -51t-34 -75t-12.5 -90.5zM234 727h320l-20 -92h-320z" />
    <glyph glyph-name="Abreve" unicode="&#x102;" horiz-adv-x="714" 
d="M491 0q-4 40 -8.5 79t-8.5 78h-264q-21 -39 -41.5 -78.5t-41.5 -78.5h-170q106 188 209.5 366t206.5 349h162q31 -180 60 -358.5t54 -356.5h-158zM277 282h183q-8 69 -16.5 136.5t-17.5 134.5q-38 -67 -75 -135zM480 869q37 0 58.5 15t29.5 46h99q-11 -69 -63 -107
t-134 -38q-49 0 -85 15t-56 42.5t-20 65.5q0 4 0.5 11t2.5 11h98q-1 -4 -1 -7v-5q0 -23 18.5 -36t52.5 -13z" />
    <glyph glyph-name="abreve" unicode="&#x103;" horiz-adv-x="569" 
d="M328 0q2 26 6 54.5t10 59.5q-34 -62 -79 -94.5t-98 -32.5q-41 0 -71.5 22t-47 62.5t-16.5 95.5q0 62 16 117t45 100t69 78t89 51t104 18q52 0 101.5 -11.5t94.5 -33.5l-67 -316q-10 -50 -17 -92t-10 -78h-129zM181 181q0 -37 12.5 -56t35.5 -19q65 0 122 119l39 183
q-22 8 -50 8q-33 0 -62 -18.5t-50.5 -51t-34 -75t-12.5 -90.5zM388 684q69 0 85 75h98q-13 -77 -62.5 -118t-129.5 -41q-47 0 -82 16.5t-54 47t-19 71.5q0 5 0.5 12.5t1.5 11.5h97q-1 -4 -1 -8v-6q0 -29 17 -45t49 -16z" />
    <glyph glyph-name="Aogonek" unicode="&#x104;" horiz-adv-x="714" 
d="M491 0q-4 40 -8.5 79t-8.5 78h-264q-21 -39 -41.5 -78.5t-41.5 -78.5h-170q106 188 209.5 366t206.5 349h162q31 -180 60 -358.5t54 -356.5h-158zM277 282h183q-8 69 -16.5 136.5t-17.5 134.5q-38 -67 -75 -135zM389 -152q0 58 50.5 103.5t150.5 79.5l30 -31
q-64 -27 -98.5 -59t-34.5 -66q0 -38 51 -38q17 0 32.5 3.5t31.5 11.5l-17 -79q-17 -6 -37.5 -9t-37.5 -3q-56 0 -88.5 23t-32.5 64z" />
    <glyph glyph-name="aogonek" unicode="&#x105;" horiz-adv-x="569" 
d="M328 0q2 26 6 54.5t10 59.5q-34 -62 -79 -94.5t-98 -32.5q-41 0 -71.5 22t-47 62.5t-16.5 95.5q0 62 16 117t45 100t69 78t89 51t104 18q52 0 101.5 -11.5t94.5 -33.5l-67 -316q-10 -50 -17 -92t-10 -78h-129zM181 181q0 -37 12.5 -56t35.5 -19q65 0 122 119l39 183
q-22 8 -50 8q-33 0 -62 -18.5t-50.5 -51t-34 -75t-12.5 -90.5zM419 -151l-16 -76q-17 -6 -36 -9t-36 -3q-54 0 -84.5 23t-30.5 64q0 116 192 182l30 -30q-61 -26 -93.5 -58.5t-32.5 -66.5q0 -40 47 -40q17 0 30 3.5t30 10.5z" />
    <glyph glyph-name="Cacute" unicode="&#x106;" horiz-adv-x="649" 
d="M64 287q0 67 18 131t54 120.5t88 99.5t120.5 67.5t152.5 24.5q43 0 77.5 -6t64 -18t57.5 -32l-28 -133q-36 31 -77 44.5t-98 13.5t-101 -18t-76.5 -49t-53.5 -70t-31 -81t-10 -82q0 -89 47 -136t134 -47q60 0 106 14.5t91 46.5l-32 -150q-41 -21 -88 -31.5t-102 -10.5
q-98 0 -168 36t-107.5 103.5t-37.5 162.5zM565 915h175q-53 -35 -101 -68t-87 -61h-149q39 33 81.5 66.5t80.5 62.5z" />
    <glyph glyph-name="cacute" unicode="&#x107;" horiz-adv-x="475" 
d="M185 217q0 -112 100 -112q37 0 69.5 11.5t69.5 40.5l-29 -136q-33 -17 -68 -25.5t-78 -8.5q-65 0 -112 25.5t-72 74.5t-25 117q0 52 14 100t40.5 89.5t64 72t86 48t105.5 17.5q85 0 138 -40l-25 -116q-20 20 -46 29t-62 9q-42 0 -73.5 -17t-53 -45.5t-32.5 -63t-11 -70.5
zM410 762h164q-56 -48 -100.5 -88.5t-79.5 -73.5h-133q38 44 76.5 85t72.5 77z" />
    <glyph glyph-name="Cdotaccent" unicode="&#x10a;" horiz-adv-x="649" 
d="M64 287q0 67 18 131t54 120.5t88 99.5t120.5 67.5t152.5 24.5q43 0 77.5 -6t64 -18t57.5 -32l-28 -133q-36 31 -77 44.5t-98 13.5t-101 -18t-76.5 -49t-53.5 -70t-31 -81t-10 -82q0 -89 47 -136t134 -47q60 0 106 14.5t91 46.5l-32 -150q-41 -21 -88 -31.5t-102 -10.5
q-98 0 -168 36t-107.5 103.5t-37.5 162.5zM513 788q-32 0 -52 18t-20 46q0 23 11 42.5t30.5 31t45.5 11.5q33 0 52.5 -18t19.5 -46q0 -23 -10.5 -42.5t-30 -31t-46.5 -11.5z" />
    <glyph glyph-name="cdotaccent" unicode="&#x10b;" horiz-adv-x="475" 
d="M185 217q0 -112 100 -112q37 0 69.5 11.5t69.5 40.5l-29 -136q-33 -17 -68 -25.5t-78 -8.5q-65 0 -112 25.5t-72 74.5t-25 117q0 52 14 100t40.5 89.5t64 72t86 48t105.5 17.5q85 0 138 -40l-25 -116q-20 20 -46 29t-62 9q-42 0 -73.5 -17t-53 -45.5t-32.5 -63t-11 -70.5
zM363 607q-31 0 -51 18t-20 45q0 23 11 42t30 30.5t45 11.5q32 0 51.5 -18t19.5 -45q0 -23 -10.5 -42t-30 -30.5t-45.5 -11.5z" />
    <glyph glyph-name="Ccaron" unicode="&#x10c;" horiz-adv-x="649" 
d="M64 287q0 67 18 131t54 120.5t88 99.5t120.5 67.5t152.5 24.5q43 0 77.5 -6t64 -18t57.5 -32l-28 -133q-36 31 -77 44.5t-98 13.5t-101 -18t-76.5 -49t-53.5 -70t-31 -81t-10 -82q0 -89 47 -136t134 -47q60 0 106 14.5t91 46.5l-32 -150q-41 -21 -88 -31.5t-102 -10.5
q-98 0 -168 36t-107.5 103.5t-37.5 162.5zM743 915q-44 -35 -87.5 -68t-83.5 -61h-134q-28 28 -58 61t-59 68h131q25 -26 60 -60q25 17 46.5 32t39.5 28h145z" />
    <glyph glyph-name="ccaron" unicode="&#x10d;" horiz-adv-x="475" 
d="M185 217q0 -112 100 -112q37 0 69.5 11.5t69.5 40.5l-29 -136q-33 -17 -68 -25.5t-78 -8.5q-65 0 -112 25.5t-72 74.5t-25 117q0 52 14 100t40.5 89.5t64 72t86 48t105.5 17.5q85 0 138 -40l-25 -116q-20 20 -46 29t-62 9q-42 0 -73.5 -17t-53 -45.5t-32.5 -63t-11 -70.5
zM585 762q-40 -40 -82.5 -81.5t-84.5 -80.5h-128q-26 40 -50 80.5t-47 81.5h112q12 -17 27 -38.5t33 -45.5q28 24 52 45.5t43 38.5h125z" />
    <glyph glyph-name="Dcaron" unicode="&#x10e;" horiz-adv-x="731" 
d="M22 0l151 715h241q91 0 157.5 -34.5t102.5 -97.5t36 -150q0 -98 -28.5 -178t-82 -137t-128.5 -87.5t-167 -30.5h-282zM553 415q0 82 -40.5 126.5t-114.5 44.5h-101l-97 -457h100q58 0 104.5 20.5t79.5 58t51 90t18 117.5zM674 915q-44 -35 -87.5 -68t-83.5 -61h-134
q-28 28 -58 61t-59 68h131q25 -26 60 -60q25 17 46.5 32t39.5 28h145z" />
    <glyph glyph-name="dcaron" unicode="&#x10f;" horiz-adv-x="575" 
d="M334 0q2 26 6 55t10 61q-34 -63 -80 -96t-100 -33q-43 0 -73.5 22t-47.5 62.5t-17 95.5q0 62 16 117t45.5 100t70 78t89.5 51t105 18q31 0 62 -7l47 221h145l-122 -575q-10 -50 -17 -92t-10 -78h-129zM181 181q0 -37 13 -56t38 -19q67 0 125 120l38 181q-11 5 -24.5 7
t-27.5 2q-34 0 -63.5 -18.5t-51.5 -51t-34.5 -75t-12.5 -90.5zM635 555q14 45 26.5 90.5t25.5 99.5h115q-17 -59 -33.5 -104t-36.5 -86h-97z" />
    <glyph glyph-name="Dcroat" unicode="&#x110;" horiz-adv-x="731" 
d="M710 433q0 -98 -28.5 -178t-82 -137t-128.5 -87.5t-167 -30.5h-282l68 320h-74l23 108h73l61 287h241q91 0 157.5 -34.5t102.5 -97.5t36 -150zM200 129h100q58 0 104.5 20.5t79.5 58t51 90t18 117.5q0 82 -40.5 126.5t-114.5 44.5h-101l-34 -158h141l-23 -108h-140z" />
    <glyph glyph-name="dcroat" unicode="&#x111;" horiz-adv-x="575" 
d="M334 0q2 26 6 55t10 61q-34 -63 -80 -96t-100 -33q-43 0 -73.5 22t-47.5 61.5t-17 93.5q0 60 16 114t45.5 98t70 76t89.5 49.5t104 17.5q31 0 61 -7l15 74h-159l19 88h159l15 71h145l-15 -71h65l-19 -88h-65l-88 -416q-10 -50 -17 -92t-10 -78h-129zM181 178
q0 -35 13 -53.5t38 -18.5q67 0 125 120l36 170q-12 4 -24.5 6t-26.5 2q-33 0 -62.5 -17.5t-51.5 -49t-34.5 -72.5t-12.5 -87z" />
    <glyph glyph-name="Emacron" unicode="&#x112;" horiz-adv-x="594" 
d="M173 715h467l-26 -125h-316l-34 -159h280l-26 -125h-280l-39 -181h334l-26 -125h-485zM271 896h347l-20 -92h-347z" />
    <glyph glyph-name="emacron" unicode="&#x113;" horiz-adv-x="530" 
d="M428 29q-38 -22 -76.5 -32t-87.5 -10q-71 0 -121 25.5t-76.5 74t-26.5 116.5q0 55 15 104.5t43 90t65.5 70.5t83 46.5t96.5 16.5q53 0 92 -17.5t59.5 -49.5t20.5 -75q0 -93 -81.5 -140.5t-255.5 -58.5q5 -46 31.5 -67.5t77.5 -21.5q30 0 57 6t54 19t58 35zM328 425
q-32 0 -61 -19t-50.5 -51.5t-31.5 -74.5q104 6 151 29.5t47 68.5q0 23 -15 35t-40 12zM222 727h320l-20 -92h-320z" />
    <glyph glyph-name="Edotaccent" unicode="&#x116;" horiz-adv-x="594" 
d="M173 715h467l-26 -125h-316l-34 -159h280l-26 -125h-280l-39 -181h334l-26 -125h-485zM429 788q-32 0 -52 18t-20 46q0 23 11 42.5t30.5 31t45.5 11.5q33 0 52.5 -18t19.5 -46q0 -23 -10.5 -42.5t-30 -31t-46.5 -11.5z" />
    <glyph glyph-name="edotaccent" unicode="&#x117;" horiz-adv-x="530" 
d="M428 29q-38 -22 -76.5 -32t-87.5 -10q-71 0 -121 25.5t-76.5 74t-26.5 116.5q0 55 15 104.5t43 90t65.5 70.5t83 46.5t96.5 16.5q53 0 92 -17.5t59.5 -49.5t20.5 -75q0 -93 -81.5 -140.5t-255.5 -58.5q5 -46 31.5 -67.5t77.5 -21.5q30 0 57 6t54 19t58 35zM328 425
q-32 0 -61 -19t-50.5 -51.5t-31.5 -74.5q104 6 151 29.5t47 68.5q0 23 -15 35t-40 12zM363 607q-31 0 -51 18t-20 45q0 23 11 42t30 30.5t45 11.5q32 0 51.5 -18t19.5 -45q0 -23 -10.5 -42t-30 -30.5t-45.5 -11.5z" />
    <glyph glyph-name="Eogonek" unicode="&#x118;" horiz-adv-x="594" 
d="M173 715h467l-26 -125h-316l-34 -159h280l-26 -125h-280l-39 -181h334l-26 -125h-485zM258 -152q0 58 50.5 103.5t150.5 79.5l30 -31q-64 -27 -98.5 -59t-34.5 -66q0 -38 51 -38q17 0 32.5 3.5t31.5 11.5l-17 -79q-17 -6 -37.5 -9t-37.5 -3q-56 0 -88.5 23t-32.5 64z" />
    <glyph glyph-name="eogonek" unicode="&#x119;" horiz-adv-x="530" 
d="M428 29q-38 -22 -76.5 -32t-87.5 -10q-71 0 -121 25.5t-76.5 74t-26.5 116.5q0 55 15 104.5t43 90t65.5 70.5t83 46.5t96.5 16.5q53 0 92 -17.5t59.5 -49.5t20.5 -75q0 -93 -81.5 -140.5t-255.5 -58.5q5 -46 31.5 -67.5t77.5 -21.5q30 0 57 6t54 19t58 35zM328 425
q-32 0 -61 -19t-50.5 -51.5t-31.5 -74.5q104 6 151 29.5t47 68.5q0 23 -15 35t-40 12zM163 -150q0 128 218 200l30 -30q-74 -30 -113 -67.5t-39 -75.5q0 -42 47 -42q17 0 30 3.5t30 10.5l-16 -76q-17 -6 -36 -9t-36 -3q-54 0 -84.5 23.5t-30.5 65.5z" />
    <glyph glyph-name="Ecaron" unicode="&#x11a;" horiz-adv-x="594" 
d="M173 715h467l-26 -125h-316l-34 -159h280l-26 -125h-280l-39 -181h334l-26 -125h-485zM659 915q-44 -35 -87.5 -68t-83.5 -61h-134q-28 28 -58 61t-59 68h131q25 -26 60 -60q25 17 46.5 32t39.5 28h145z" />
    <glyph glyph-name="ecaron" unicode="&#x11b;" horiz-adv-x="530" 
d="M428 29q-38 -22 -76.5 -32t-87.5 -10q-71 0 -121 25.5t-76.5 74t-26.5 116.5q0 55 15 104.5t43 90t65.5 70.5t83 46.5t96.5 16.5q53 0 92 -17.5t59.5 -49.5t20.5 -75q0 -93 -81.5 -140.5t-255.5 -58.5q5 -46 31.5 -67.5t77.5 -21.5q30 0 57 6t54 19t58 35zM328 425
q-32 0 -61 -19t-50.5 -51.5t-31.5 -74.5q104 6 151 29.5t47 68.5q0 23 -15 35t-40 12zM585 762q-40 -40 -82.5 -81.5t-84.5 -80.5h-128q-26 40 -50 80.5t-47 81.5h112q12 -17 27 -38.5t33 -45.5q28 24 52 45.5t43 38.5h125z" />
    <glyph glyph-name="Gbreve" unicode="&#x11e;" horiz-adv-x="719" 
d="M614 42q-56 -29 -115 -43t-127 -14q-96 0 -165 36t-106 103.5t-37 162.5q0 67 19 131t55.5 120.5t90.5 99.5t124 67.5t156 24.5q69 0 121.5 -13.5t98.5 -42.5l-28 -133q-40 31 -86 44.5t-110 13.5q-59 0 -105.5 -18t-80 -48.5t-55.5 -69.5t-32.5 -81t-10.5 -83
q0 -89 46 -137t131 -48q55 0 94 16l31 149h-115l25 119h256zM538 869q37 0 58.5 15t29.5 46h99q-11 -69 -63 -107t-134 -38q-49 0 -85 15t-56 42.5t-20 65.5q0 4 0.5 11t2.5 11h98q-1 -4 -1 -7v-5q0 -23 18.5 -36t52.5 -13z" />
    <glyph glyph-name="gbreve" unicode="&#x11f;" horiz-adv-x="578" 
d="M457 3q-25 -117 -100 -179.5t-192 -62.5q-56 0 -100 11.5t-81 36.5l25 116q33 -25 67.5 -36t79.5 -11q63 0 103 33t54 96l6 28l25 83q-33 -54 -76 -82.5t-94 -28.5q-42 0 -73.5 21t-48.5 60.5t-17 92.5q0 59 16 112t45.5 96.5t70 75.5t90 49t104.5 17q53 0 103 -11.5
t96 -33.5zM184 195q0 -69 52 -69q68 0 127 113l36 168q-12 5 -25.5 7t-27.5 2q-34 0 -63.5 -17t-51.5 -47.5t-34.5 -70.5t-12.5 -86zM394 684q69 0 85 75h98q-13 -77 -62.5 -118t-129.5 -41q-47 0 -82 16.5t-54 47t-19 71.5q0 5 0.5 12.5t1.5 11.5h97q-1 -4 -1 -8v-6
q0 -29 17 -45t49 -16z" />
    <glyph glyph-name="Gdotaccent" unicode="&#x120;" horiz-adv-x="719" 
d="M614 42q-56 -29 -115 -43t-127 -14q-96 0 -165 36t-106 103.5t-37 162.5q0 67 19 131t55.5 120.5t90.5 99.5t124 67.5t156 24.5q69 0 121.5 -13.5t98.5 -42.5l-28 -133q-40 31 -86 44.5t-110 13.5q-59 0 -105.5 -18t-80 -48.5t-55.5 -69.5t-32.5 -81t-10.5 -83
q0 -89 46 -137t131 -48q55 0 94 16l31 149h-115l25 119h256zM525 788q-32 0 -52 18t-20 46q0 23 11 42.5t30.5 31t45.5 11.5q33 0 52.5 -18t19.5 -46q0 -23 -10.5 -42.5t-30 -31t-46.5 -11.5z" />
    <glyph glyph-name="gdotaccent" unicode="&#x121;" horiz-adv-x="578" 
d="M457 3q-25 -117 -100 -179.5t-192 -62.5q-56 0 -100 11.5t-81 36.5l25 116q33 -25 67.5 -36t79.5 -11q63 0 103 33t54 96l6 28l25 83q-33 -54 -76 -82.5t-94 -28.5q-42 0 -73.5 21t-48.5 60.5t-17 92.5q0 59 16 112t45.5 96.5t70 75.5t90 49t104.5 17q53 0 103 -11.5
t96 -33.5zM184 195q0 -69 52 -69q68 0 127 113l36 168q-12 5 -25.5 7t-27.5 2q-34 0 -63.5 -17t-51.5 -47.5t-34.5 -70.5t-12.5 -86zM381 607q-31 0 -51 18t-20 45q0 23 11 42t30 30.5t45 11.5q32 0 51.5 -18t19.5 -45q0 -23 -10.5 -42t-30 -30.5t-45.5 -11.5z" />
    <glyph glyph-name="uni0122" unicode="&#x122;" horiz-adv-x="719" 
d="M614 42q-56 -29 -115 -43t-127 -14q-96 0 -165 36t-106 103.5t-37 162.5q0 67 19 131t55.5 120.5t90.5 99.5t124 67.5t156 24.5q69 0 121.5 -13.5t98.5 -42.5l-28 -133q-40 31 -86 44.5t-110 13.5q-59 0 -105.5 -18t-80 -48.5t-55.5 -69.5t-32.5 -81t-10.5 -83
q0 -89 46 -137t131 -48q55 0 94 16l31 149h-115l25 119h256zM417 -122q0 -22 -10 -47t-28.5 -49t-43.5 -45h-100q56 44 78 90q-14 5 -22 16.5t-8 28.5q0 28 19.5 45.5t51.5 17.5q31 0 47 -14.5t16 -42.5z" />
    <glyph glyph-name="uni0123" unicode="&#x123;" horiz-adv-x="578" 
d="M457 3q-25 -117 -100 -179.5t-192 -62.5q-56 0 -100 11.5t-81 36.5l25 116q33 -25 67.5 -36t79.5 -11q63 0 103 33t54 96l6 28l25 83q-33 -54 -76 -82.5t-94 -28.5q-42 0 -73.5 21t-48.5 60.5t-17 92.5q0 59 16 112t45.5 96.5t70 75.5t90 49t104.5 17q53 0 103 -11.5
t96 -33.5zM184 195q0 -69 52 -69q68 0 127 113l36 168q-12 5 -25.5 7t-27.5 2q-34 0 -63.5 -17t-51.5 -47.5t-34.5 -70.5t-12.5 -86zM455 667q0 -30 -20.5 -48.5t-53.5 -18.5q-32 0 -48.5 16.5t-16.5 46.5q0 24 12 51.5t33 54t50 48.5h101q-66 -48 -91 -102q16 -5 25 -17.5
t9 -30.5z" />
    <glyph glyph-name="Hbar" unicode="&#x126;" horiz-adv-x="741" 
d="M460 0l61 289h-287l-61 -289h-151l109 515h-74l22 104h74l20 96h151l-20 -96h287l20 96h151l-20 -96h74l-22 -104h-74l-109 -515h-151zM262 420h287l20 95h-287z" />
    <glyph glyph-name="hbar" unicode="&#x127;" horiz-adv-x="578" 
d="M345 400q-70 0 -128 -122l-59 -278h-145l125 586h-65l19 88h65l15 71h145l-15 -71h159l-19 -88h-159l-9 -42l-37 -136q34 54 77 82.5t95 28.5q39 0 67 -16.5t43.5 -46.5t15.5 -72q0 -14 -1.5 -30t-5.5 -37l-67 -317h-145l66 313q2 10 3 19.5t1 18.5q0 23 -11 36t-30 13z
" />
    <glyph glyph-name="Itilde" unicode="&#x128;" horiz-adv-x="303" 
d="M173 715h151l-151 -715h-151zM348 785q-25 0 -44.5 6.5t-33.5 15.5q-21 14 -33.5 21t-21 9t-18.5 2q-20 0 -30 -12t-14 -38h-95q12 73 47.5 108t94.5 35q25 0 44.5 -6.5t33.5 -15.5q21 -14 33.5 -21t21 -9t18.5 -2q20 0 30 12t14 38h95q-12 -73 -47.5 -108t-94.5 -35z
" />
    <glyph glyph-name="itilde" unicode="&#x129;" horiz-adv-x="279" 
d="M123 518h145l-110 -518h-145zM217 629q-18 14 -29.5 22t-20.5 11.5t-19 3.5q-18 0 -28 -13.5t-16 -47.5h-93q24 156 141 156q25 0 43 -6.5t39 -22.5q18 -14 29 -21.5t20 -11t19 -3.5q18 0 28 13.5t16 47.5h93q-24 -156 -141 -156q-25 0 -43 6.5t-38 21.5z" />
    <glyph glyph-name="Imacron" unicode="&#x12a;" horiz-adv-x="303" 
d="M173 715h151l-151 -715h-151zM108 896h347l-20 -92h-347z" />
    <glyph glyph-name="imacron" unicode="&#x12b;" horiz-adv-x="279" 
d="M123 518h145l-110 -518h-145zM76 727h320l-20 -92h-320z" />
    <glyph glyph-name="Iogonek" unicode="&#x12e;" horiz-adv-x="303" 
d="M173 715h151l-151 -715h-151zM-80 -152q0 58 50.5 103.5t150.5 79.5l30 -31q-64 -27 -98.5 -59t-34.5 -66q0 -38 51 -38q17 0 32.5 3.5t31.5 11.5l-17 -79q-17 -6 -37.5 -9t-37.5 -3q-56 0 -88.5 23t-32.5 64z" />
    <glyph glyph-name="iogonek" unicode="&#x12f;" horiz-adv-x="279" 
d="M218 595q-36 0 -57.5 18.5t-21.5 47.5q0 39 24.5 63t68.5 24q36 0 57.5 -18.5t21.5 -47.5q0 -39 -24.5 -63t-68.5 -24zM123 518h145l-110 -518h-145zM115 -151l-16 -76q-17 -6 -36 -9t-36 -3q-54 0 -84.5 23t-30.5 64q0 116 192 182l30 -30q-61 -26 -93.5 -58.5
t-32.5 -66.5q0 -40 47 -40q17 0 30 3.5t30 10.5z" />
    <glyph glyph-name="Idotaccent" unicode="&#x130;" horiz-adv-x="303" 
d="M173 715h151l-151 -715h-151zM266 788q-32 0 -52 18t-20 46q0 23 11 42.5t30.5 31t45.5 11.5q33 0 52.5 -18t19.5 -46q0 -23 -10.5 -42.5t-30 -31t-46.5 -11.5z" />
    <glyph glyph-name="dotlessi" unicode="&#x131;" horiz-adv-x="279" 
d="M123 518h145l-110 -518h-145z" />
    <glyph glyph-name="IJ" unicode="&#x132;" horiz-adv-x="793" 
d="M173 715h151l-151 -715h-151zM428 -15q-90 0 -156 43l26 124q29 -19 58 -27.5t65 -8.5q62 0 97 31.5t49 98.5l99 469h151l-101 -479q-27 -128 -97.5 -189.5t-190.5 -61.5z" />
    <glyph glyph-name="ij" unicode="&#x133;" horiz-adv-x="558" 
d="M218 595q-36 0 -57.5 18.5t-21.5 47.5q0 39 24.5 63t68.5 24q36 0 57.5 -18.5t21.5 -47.5q0 -39 -24.5 -63t-68.5 -24zM123 518h145l-110 -518h-145zM497 595q-36 0 -57.5 18.5t-21.5 47.5q0 39 24.5 63t68.5 24q36 0 57.5 -18.5t21.5 -47.5q0 -39 -24.5 -63t-68.5 -24z
M547 518l-120 -565q-21 -98 -72.5 -145t-139.5 -47q-27 0 -51.5 4.5t-46.5 15.5l24 112q14 -8 27 -11.5t32 -3.5q66 0 84 84l118 556h145z" />
    <glyph glyph-name="uni0136" unicode="&#x136;" horiz-adv-x="697" 
d="M274 308h-36l-65 -308h-151l151 715h151l-58 -277h38q72 71 138 139t131 138h186q-87 -88 -174 -175t-179 -175q58 -90 114.5 -180t114.5 -185h-173q-46 79 -91 153t-97 155zM366 -122q0 -22 -10 -47t-28.5 -49t-43.5 -45h-100q56 44 78 90q-14 5 -22 16.5t-8 28.5
q0 28 19.5 45.5t51.5 17.5q31 0 47 -14.5t16 -42.5z" />
    <glyph glyph-name="uni0137" unicode="&#x137;" horiz-adv-x="563" 
d="M234 218h-29l-47 -218h-145l159 745h145l-88 -414h30q45 49 85.5 95t79.5 92h166q-59 -66 -116.5 -128.5t-115.5 -122.5q38 -68 72.5 -133t70.5 -134h-156q-27 57 -53.5 109t-57.5 109zM298 -122q0 -22 -10 -47t-28.5 -49t-43.5 -45h-98q57 45 79 92q-14 5 -22.5 16
t-8.5 28q0 28 19.5 45t50.5 17t46.5 -15t15.5 -42z" />
    <glyph glyph-name="kgreenlandic" unicode="&#x138;" horiz-adv-x="563" 
d="M232 208h-29l-45 -208h-145l111 518h145l-42 -197h30q43 49 86 100t81 97h166q-57 -67 -117 -134.5t-116 -129.5q25 -43 48 -83t46.5 -82t49.5 -89h-156q-20 38 -37.5 71t-35.5 66t-40 71z" />
    <glyph glyph-name="Lacute" unicode="&#x139;" horiz-adv-x="561" 
d="M173 715h151l-124 -584h319l-28 -131h-469zM318 915h175q-53 -35 -101 -68t-87 -61h-149q39 33 81.5 66.5t80.5 62.5z" />
    <glyph glyph-name="lacute" unicode="&#x13a;" horiz-adv-x="329" 
d="M189 155q-3 -13 -3 -23q0 -27 32 -27q30 0 57 18l-25 -116q-38 -16 -83 -16q-129 0 -129 109q0 24 6 54l126 591h145zM312 952h175q-53 -35 -101 -68t-87 -61h-149q39 33 81.5 66.5t80.5 62.5z" />
    <glyph glyph-name="uni013B" unicode="&#x13b;" horiz-adv-x="561" 
d="M173 715h151l-124 -584h319l-28 -131h-469zM321 -122q0 -22 -10 -47t-28.5 -49t-43.5 -45h-100q56 44 78 90q-14 5 -22 16.5t-8 28.5q0 28 19.5 45.5t51.5 17.5q31 0 47 -14.5t16 -42.5z" />
    <glyph glyph-name="uni013C" unicode="&#x13c;" horiz-adv-x="329" 
d="M189 155q-3 -13 -3 -23q0 -27 32 -27q30 0 57 18l-25 -116q-38 -16 -83 -16q-129 0 -129 109q0 24 6 54l126 591h145zM197 -122q0 -22 -10 -47t-28.5 -49t-43.5 -45h-98q57 45 79 92q-14 5 -22.5 16t-8.5 28q0 28 19.5 45t50.5 17t46.5 -15t15.5 -42z" />
    <glyph glyph-name="Lcaron" unicode="&#x13d;" horiz-adv-x="561" 
d="M173 715h151l-124 -584h319l-28 -131h-469zM395 525q14 45 26.5 90.5t25.5 99.5h115q-17 -59 -33.5 -104t-36.5 -86h-97z" />
    <glyph glyph-name="lcaron" unicode="&#x13e;" horiz-adv-x="329" 
d="M189 155q-3 -13 -3 -23q0 -27 32 -27q30 0 57 18l-25 -116q-38 -16 -83 -16q-129 0 -129 109q0 24 6 54l126 591h145zM338 555q14 45 26.5 90.5t25.5 99.5h115q-17 -59 -33.5 -104t-36.5 -86h-97z" />
    <glyph glyph-name="Ldot" unicode="&#x13f;" horiz-adv-x="561" 
d="M173 715h151l-124 -584h319l-28 -131h-469zM456 329q-36 0 -58 20t-22 51q0 25 12 46t33.5 34t50.5 13q36 0 58 -20t22 -51q0 -25 -12 -46t-33.5 -34t-50.5 -13z" />
    <glyph glyph-name="ldot" unicode="&#x140;" horiz-adv-x="453" 
d="M189 155q-3 -13 -3 -23q0 -27 32 -27q30 0 57 18l-25 -116q-38 -16 -83 -16q-129 0 -129 109q0 24 6 54l126 591h145zM386 310q-35 0 -57 20t-22 50q0 25 12 46t33 33.5t50 12.5q35 0 57 -20t22 -50q0 -25 -12 -46t-33.5 -33.5t-49.5 -12.5z" />
    <glyph glyph-name="Lslash" unicode="&#x141;" horiz-adv-x="561" 
d="M519 131l-28 -131h-469l48 228l-82 -40l27 127l82 40l76 360h151l-59 -278l224 109l-27 -127l-224 -109l-38 -179h319z" />
    <glyph glyph-name="lslash" unicode="&#x142;" horiz-adv-x="329" 
d="M250 7q-38 -16 -83 -16q-129 0 -129 109q0 24 6 54l32 149l-70 -27l22 103l70 27l72 339h145l-59 -278l100 39l-22 -103l-100 -39l-45 -209q-3 -13 -3 -23q0 -27 32 -27q30 0 57 18z" />
    <glyph glyph-name="Nacute" unicode="&#x143;" horiz-adv-x="741" 
d="M458 0q-45 127 -92 253.5t-93 246.5l-106 -500h-145l151 715h153q49 -126 95 -248.5t91 -248.5l105 497h145l-151 -715h-153zM539 915h175q-53 -35 -101 -68t-87 -61h-149q39 33 81.5 66.5t80.5 62.5z" />
    <glyph glyph-name="nacute" unicode="&#x144;" horiz-adv-x="578" 
d="M348 412q-70 0 -128 -122l-62 -290h-145l74 348q11 50 17.5 92t9.5 78h129q-2 -27 -6 -55.5t-11 -61.5q36 63 82.5 96.5t103.5 33.5q38 0 66.5 -16.5t44 -46.5t15.5 -72q0 -14 -1 -30t-6 -37l-70 -329h-145l69 325q2 10 3 19.5t1 18.5q0 23 -10.5 36t-30.5 13zM416 762
h164q-56 -48 -100.5 -88.5t-79.5 -73.5h-133q38 44 76.5 85t72.5 77z" />
    <glyph glyph-name="uni0145" unicode="&#x145;" horiz-adv-x="741" 
d="M458 0q-45 127 -92 253.5t-93 246.5l-106 -500h-145l151 715h153q49 -126 95 -248.5t91 -248.5l105 497h145l-151 -715h-153zM373 -122q0 -22 -10 -47t-28.5 -49t-43.5 -45h-100q56 44 78 90q-14 5 -22 16.5t-8 28.5q0 28 19.5 45.5t51.5 17.5q31 0 47 -14.5t16 -42.5z
" />
    <glyph glyph-name="uni0146" unicode="&#x146;" horiz-adv-x="578" 
d="M348 412q-70 0 -128 -122l-62 -290h-145l74 348q11 50 17.5 92t9.5 78h129q-2 -27 -6 -55.5t-11 -61.5q36 63 82.5 96.5t103.5 33.5q38 0 66.5 -16.5t44 -46.5t15.5 -72q0 -14 -1 -30t-6 -37l-70 -329h-145l69 325q2 10 3 19.5t1 18.5q0 23 -10.5 36t-30.5 13zM291 -122
q0 -22 -10 -47t-28.5 -49t-43.5 -45h-98q57 45 79 92q-14 5 -22.5 16t-8.5 28q0 28 19.5 45t50.5 17t46.5 -15t15.5 -42z" />
    <glyph glyph-name="Ncaron" unicode="&#x147;" horiz-adv-x="741" 
d="M458 0q-45 127 -92 253.5t-93 246.5l-106 -500h-145l151 715h153q49 -126 95 -248.5t91 -248.5l105 497h145l-151 -715h-153zM717 915q-44 -35 -87.5 -68t-83.5 -61h-134q-28 28 -58 61t-59 68h131q25 -26 60 -60q25 17 46.5 32t39.5 28h145z" />
    <glyph glyph-name="ncaron" unicode="&#x148;" horiz-adv-x="578" 
d="M348 412q-70 0 -128 -122l-62 -290h-145l74 348q11 50 17.5 92t9.5 78h129q-2 -27 -6 -55.5t-11 -61.5q36 63 82.5 96.5t103.5 33.5q38 0 66.5 -16.5t44 -46.5t15.5 -72q0 -14 -1 -30t-6 -37l-70 -329h-145l69 325q2 10 3 19.5t1 18.5q0 23 -10.5 36t-30.5 13zM591 762
q-40 -40 -82.5 -81.5t-84.5 -80.5h-128q-26 40 -50 80.5t-47 81.5h112q12 -17 27 -38.5t33 -45.5q28 24 52 45.5t43 38.5h125z" />
    <glyph glyph-name="Eng" unicode="&#x14a;" horiz-adv-x="737" 
d="M612 4q-26 -124 -93 -183.5t-179 -59.5q-76 0 -143 37l26 125q25 -16 51.5 -23.5t58.5 -7.5q53 0 85 30t45 92l91 431q4 19 6 34t2 31q0 43 -21.5 66t-60.5 23q-121 0 -224 -205l-83 -394h-151l151 715h123l-26 -176q50 94 116.5 142.5t147.5 48.5q56 0 97 -23t63.5 -65
t22.5 -98q0 -19 -2.5 -42.5t-8.5 -51.5z" />
    <glyph glyph-name="eng" unicode="&#x14b;" horiz-adv-x="578" 
d="M451 -47q-21 -98 -72 -145t-140 -47q-27 0 -51.5 4.5t-46.5 15.5l24 112q13 -8 26.5 -11.5t32.5 -3.5q66 0 84 84l77 363q2 10 3 19.5t1 18.5q0 23 -10.5 36t-30.5 13q-70 0 -128 -122l-62 -290h-145l74 348q11 50 17.5 92t9.5 78h129q-2 -27 -6 -55.5t-11 -61.5
q36 63 82.5 96.5t103.5 33.5q38 0 66.5 -16.5t44 -46.5t15.5 -72q0 -14 -1 -30t-6 -37z" />
    <glyph glyph-name="Ohungarumlaut" unicode="&#x150;" horiz-adv-x="773" 
d="M365 -15q-69 0 -125 21t-95 60.5t-60 94.5t-21 123q0 67 16.5 131.5t48.5 121.5t79 100.5t108 68t135 24.5q69 0 125 -21t95 -60.5t60 -94.5t21 -123q0 -67 -16.5 -131.5t-48.5 -121.5t-79 -100.5t-108 -68t-135 -24.5zM445 599q-46 0 -82.5 -19t-63 -50.5t-44 -72
t-26 -83.5t-8.5 -84q0 -82 39 -128t111 -46q46 0 82.5 19t63 50.5t44 72t26 83.5t8.5 84q0 82 -39 128t-111 46zM697 915h163q-53 -35 -101 -68t-86 -61h-138q39 33 81.5 66.5t80.5 62.5zM468 915h163q-53 -35 -101 -68t-86 -61h-138q39 33 81.5 66.5t80.5 62.5z" />
    <glyph glyph-name="ohungarumlaut" unicode="&#x151;" horiz-adv-x="571" 
d="M256 -13q-67 0 -115.5 26.5t-74.5 75.5t-26 117q0 49 12 96.5t36 89t57.5 73t77 49t95.5 17.5q67 0 115.5 -26.5t74.5 -75.5t26 -117q0 -50 -12 -97t-36 -88.5t-57.5 -73t-77 -49t-95.5 -17.5zM259 104q27 0 48.5 13.5t36.5 36.5t25 51t15 56.5t5 53.5q0 47 -19.5 73
t-54.5 26q-27 0 -48.5 -13.5t-36.5 -36.5t-25 -51t-15 -56.5t-5 -53.5q0 -47 19 -73t55 -26zM543 762h152q-55 -48 -100 -88.5t-80 -73.5h-121q38 44 76 85t73 77zM329 762h152q-55 -48 -100 -88.5t-80 -73.5h-121q38 44 76 85t73 77z" />
    <glyph glyph-name="OE" unicode="&#x152;" horiz-adv-x="1031" 
d="M944 0h-430q-59 -15 -122 -15q-102 0 -175.5 36.5t-113 103.5t-39.5 161q0 69 19 134t56.5 121.5t92.5 98.5t126 66t158 24q40 0 73 -3.5t63 -11.5h425l-26 -125h-304l-34 -159h268l-26 -125h-268l-39 -181h322zM221 292q0 -56 22 -96t63 -61t99 -21q51 0 96 13l97 462
q-19 6 -40 9t-49 3q-60 0 -106.5 -18t-81 -49t-56.5 -70.5t-33 -83.5t-11 -88z" />
    <glyph glyph-name="oe" unicode="&#x153;" horiz-adv-x="870" 
d="M768 29q-38 -22 -76.5 -32t-87.5 -10q-60 0 -104.5 19.5t-71.5 56.5q-35 -37 -79 -56.5t-93 -19.5q-67 0 -115.5 26.5t-74.5 75.5t-26 117q0 49 12 96.5t36 89t57.5 73t77 49t95.5 17.5q117 0 169 -83q38 39 88.5 61t107.5 22q53 0 92 -17.5t59.5 -49.5t20.5 -75
q0 -93 -81.5 -140.5t-255.5 -58.5q5 -46 31.5 -67.5t77.5 -21.5q30 0 57 6t54 19t58 35zM668 425q-32 0 -61 -19t-50.5 -51.5t-31.5 -74.5q104 6 151 29.5t47 68.5q0 23 -15 35t-40 12zM185 203q0 -47 19 -73t55 -26q27 0 48.5 13.5t36.5 36.5t25 51t15 56.5t5 53.5
q0 47 -19.5 73t-54.5 26q-27 0 -48.5 -13.5t-36.5 -36.5t-25 -51t-15 -56.5t-5 -53.5z" />
    <glyph glyph-name="Racute" unicode="&#x154;" horiz-adv-x="659" 
d="M226 260l-55 -260h-149l151 715h227q80 0 137.5 -23.5t88.5 -66.5t31 -103q0 -88 -45 -150t-127 -90q28 -69 54.5 -138.5t53.5 -143.5h-159q-22 66 -44.5 130.5t-46.5 129.5h-117zM251 379h88q79 0 122 33.5t43 96.5q0 41 -31 64t-87 23h-89zM484 915h175
q-53 -35 -101 -68t-87 -61h-149q39 33 81.5 66.5t80.5 62.5z" />
    <glyph glyph-name="racute" unicode="&#x155;" horiz-adv-x="402" 
d="M356 383q-39 0 -74.5 -32.5t-69.5 -98.5l-54 -252h-145l74 348q11 50 17.5 92t9.5 78h129q-3 -35 -9 -74t-16 -86q32 83 75 126t97 43q17 0 30.5 -3t27.5 -9l-32 -149q-14 9 -28 13t-32 4zM359 762h164q-56 -48 -100.5 -88.5t-79.5 -73.5h-133q38 44 76.5 85t72.5 77z
" />
    <glyph glyph-name="Rcaron" unicode="&#x158;" horiz-adv-x="659" 
d="M226 260l-55 -260h-149l151 715h227q80 0 137.5 -23.5t88.5 -66.5t31 -103q0 -88 -45 -150t-127 -90q28 -69 54.5 -138.5t53.5 -143.5h-159q-22 66 -44.5 130.5t-46.5 129.5h-117zM251 379h88q79 0 122 33.5t43 96.5q0 41 -31 64t-87 23h-89zM662 915q-44 -35 -87.5 -68
t-83.5 -61h-134q-28 28 -58 61t-59 68h131q25 -26 60 -60q25 17 46.5 32t39.5 28h145z" />
    <glyph glyph-name="rcaron" unicode="&#x159;" horiz-adv-x="402" 
d="M356 383q-39 0 -74.5 -32.5t-69.5 -98.5l-54 -252h-145l74 348q11 50 17.5 92t9.5 78h129q-3 -35 -9 -74t-16 -86q32 83 75 126t97 43q17 0 30.5 -3t27.5 -9l-32 -149q-14 9 -28 13t-32 4zM534 762q-40 -40 -82.5 -81.5t-84.5 -80.5h-128q-26 40 -50 80.5t-47 81.5h112
q12 -17 27 -38.5t33 -45.5q28 24 52 45.5t43 38.5h125z" />
    <glyph glyph-name="Sacute" unicode="&#x15a;" horiz-adv-x="605" 
d="M396 606q-67 0 -103.5 -23t-36.5 -64q0 -20 9 -35t33 -28.5t69 -31.5q52 -20 87 -41t56.5 -44.5t31 -52.5t9.5 -66q0 -53 -21.5 -96.5t-61 -74.5t-95 -47.5t-124.5 -16.5q-139 0 -236 68l27 127q46 -37 97 -54t110 -17q71 0 110 25.5t39 69.5q0 21 -9 37t-31 29.5
t-62 29.5q-54 21 -91 42t-59.5 44.5t-32 51.5t-9.5 64q0 51 21 93t60.5 72.5t94 46.5t121.5 16q59 0 113 -16t101 -47l-27 -125q-42 33 -89 48.5t-101 15.5zM483 915h175q-53 -35 -101 -68t-87 -61h-149q39 33 81.5 66.5t80.5 62.5z" />
    <glyph glyph-name="sacute" unicode="&#x15b;" horiz-adv-x="467" 
d="M0 33l23 110q66 -48 149 -48q44 0 69.5 15t25.5 42q0 19 -14 31t-50 25q-52 19 -82.5 40t-43.5 47.5t-13 63.5q0 52 28.5 90.5t80 60t119.5 21.5q46 0 88 -11.5t77 -34.5l-23 -109q-30 23 -66 35t-74 12q-44 0 -67.5 -14.5t-23.5 -39.5q0 -13 6.5 -22t21.5 -17t42 -18
q50 -18 79.5 -39t42.5 -48t13 -63q0 -53 -28.5 -92.5t-80 -61t-121.5 -21.5q-107 0 -178 46zM361 762h164q-56 -48 -100.5 -88.5t-79.5 -73.5h-133q38 44 76.5 85t72.5 77z" />
    <glyph glyph-name="Scedilla" unicode="&#x15e;" horiz-adv-x="605" 
d="M396 606q-67 0 -103.5 -23t-36.5 -64q0 -20 9 -35t33 -28.5t69 -31.5q52 -20 87 -41t56.5 -44.5t31 -52.5t9.5 -66q0 -53 -21.5 -96.5t-61 -74.5t-95 -47.5t-124.5 -16.5q-139 0 -236 68l27 127q46 -37 97 -54t110 -17q71 0 110 25.5t39 69.5q0 21 -9 37t-31 29.5
t-62 29.5q-54 21 -91 42t-59.5 44.5t-32 51.5t-9.5 64q0 51 21 93t60.5 72.5t94 46.5t121.5 16q59 0 113 -16t101 -47l-27 -125q-42 33 -89 48.5t-101 15.5zM368 -127q0 -34 -19 -59t-54 -39t-81 -14q-25 0 -48 4t-42 13l15 70q16 -8 32.5 -11.5t39.5 -3.5q31 0 48.5 9
t17.5 24q0 25 -49 25q-14 0 -28 -1t-28 -4l60 129h75l-33 -68h6q43 0 65.5 -19.5t22.5 -54.5z" />
    <glyph glyph-name="scedilla" unicode="&#x15f;" horiz-adv-x="467" 
d="M0 33l23 110q66 -48 149 -48q44 0 69.5 15t25.5 42q0 19 -14 31t-50 25q-52 19 -82.5 40t-43.5 47.5t-13 63.5q0 52 28.5 90.5t80 60t119.5 21.5q46 0 88 -11.5t77 -34.5l-23 -109q-30 23 -66 35t-74 12q-44 0 -67.5 -14.5t-23.5 -39.5q0 -13 6.5 -22t21.5 -17t42 -18
q50 -18 79.5 -39t42.5 -48t13 -63q0 -53 -28.5 -92.5t-80 -61t-121.5 -21.5q-107 0 -178 46zM292 -127q0 -34 -18.5 -59t-52.5 -39t-79 -14q-25 0 -46 4t-40 13l15 68q16 -8 31 -11.5t37 -3.5q30 0 47 9.5t17 25.5q0 26 -47 26q-14 0 -26 -1t-26 -4l60 128h73l-34 -69h5
q40 0 62 -19t22 -54z" />
    <glyph glyph-name="Scaron" unicode="&#x160;" horiz-adv-x="605" 
d="M396 606q-67 0 -103.5 -23t-36.5 -64q0 -20 9 -35t33 -28.5t69 -31.5q52 -20 87 -41t56.5 -44.5t31 -52.5t9.5 -66q0 -53 -21.5 -96.5t-61 -74.5t-95 -47.5t-124.5 -16.5q-139 0 -236 68l27 127q46 -37 97 -54t110 -17q71 0 110 25.5t39 69.5q0 21 -9 37t-31 29.5
t-62 29.5q-54 21 -91 42t-59.5 44.5t-32 51.5t-9.5 64q0 51 21 93t60.5 72.5t94 46.5t121.5 16q59 0 113 -16t101 -47l-27 -125q-42 33 -89 48.5t-101 15.5zM661 915q-44 -35 -87.5 -68t-83.5 -61h-134q-28 28 -58 61t-59 68h131q25 -26 60 -60q25 17 46.5 32t39.5 28h145z
" />
    <glyph glyph-name="scaron" unicode="&#x161;" horiz-adv-x="467" 
d="M0 33l23 110q66 -48 149 -48q44 0 69.5 15t25.5 42q0 19 -14 31t-50 25q-52 19 -82.5 40t-43.5 47.5t-13 63.5q0 52 28.5 90.5t80 60t119.5 21.5q46 0 88 -11.5t77 -34.5l-23 -109q-30 23 -66 35t-74 12q-44 0 -67.5 -14.5t-23.5 -39.5q0 -13 6.5 -22t21.5 -17t42 -18
q50 -18 79.5 -39t42.5 -48t13 -63q0 -53 -28.5 -92.5t-80 -61t-121.5 -21.5q-107 0 -178 46zM536 762q-40 -40 -82.5 -81.5t-84.5 -80.5h-128q-26 40 -50 80.5t-47 81.5h112q12 -17 27 -38.5t33 -45.5q28 24 52 45.5t43 38.5h125z" />
    <glyph glyph-name="uni0162" unicode="&#x162;" horiz-adv-x="607" 
d="M113 715h575l-28 -131h-212l-123 -584h-151l123 584h-212zM359 -127q0 -34 -19 -59t-54 -39t-81 -14q-25 0 -48 4t-42 13l15 70q16 -8 32.5 -11.5t39.5 -3.5q31 0 48.5 9t17.5 24q0 25 -49 25q-14 0 -28 -1t-28 -4l60 129h75l-33 -68h6q43 0 65.5 -19.5t22.5 -54.5z" />
    <glyph glyph-name="uni0163" unicode="&#x163;" horiz-adv-x="395" 
d="M324 12q-26 -13 -54 -19t-62 -6q-66 0 -101.5 30.5t-35.5 87.5q0 16 1.5 30t4.5 28l51 242h-84l24 113h84l27 125l152 33l-34 -158h123l-24 -113h-123l-48 -228q-2 -10 -3 -18.5t-1 -15.5q0 -39 42 -39q23 0 44 7.5t43 23.5zM301 -127q0 -34 -18.5 -59t-52.5 -39t-79 -14
q-25 0 -46 4t-40 13l15 68q16 -8 31 -11.5t37 -3.5q30 0 47 9.5t17 25.5q0 26 -47 26q-14 0 -26 -1t-26 -4l60 128h73l-34 -69h5q40 0 62 -19t22 -54z" />
    <glyph glyph-name="Tcaron" unicode="&#x164;" horiz-adv-x="607" 
d="M113 715h575l-28 -131h-212l-123 -584h-151l123 584h-212zM643 915q-44 -35 -87.5 -68t-83.5 -61h-134q-28 28 -58 61t-59 68h131q25 -26 60 -60q25 17 46.5 32t39.5 28h145z" />
    <glyph glyph-name="tcaron" unicode="&#x165;" horiz-adv-x="395" 
d="M324 12q-26 -13 -54 -19t-62 -6q-66 0 -101.5 30.5t-35.5 87.5q0 16 1.5 30t4.5 28l51 242h-84l24 113h84l27 125l152 33l-34 -158h123l-24 -113h-123l-48 -228q-2 -10 -3 -18.5t-1 -15.5q0 -39 42 -39q23 0 44 7.5t43 23.5zM368 565q13 43 25 85.5t24 94.5h116
q-16 -56 -32 -98.5t-35 -81.5h-98z" />
    <glyph glyph-name="Tbar" unicode="&#x166;" horiz-adv-x="607" 
d="M503 265h-122l-56 -265h-151l56 265h-122l23 108h122l44 211h-212l28 131h575l-28 -131h-212l-44 -211h122z" />
    <glyph glyph-name="tbar" unicode="&#x167;" horiz-adv-x="395" 
d="M324 12q-26 -13 -54 -19t-62 -6q-66 0 -101.5 30.5t-35.5 87.5q0 16 1.5 30t4.5 28l12 58h-84l19 88h84l20 96h-84l24 113h84l27 125l152 33l-34 -158h123l-24 -113h-123l-20 -96h123l-19 -88h-123l-9 -44q-2 -10 -3 -18.5t-1 -15.5q0 -39 42 -39q23 0 44 7.5t43 23.5z
" />
    <glyph glyph-name="Utilde" unicode="&#x168;" horiz-adv-x="728" 
d="M87 322l83 393h151l-91 -431q-6 -27 -6 -49q0 -57 32.5 -88t92.5 -31q62 0 102 38t55 111l95 450h151l-95 -450q-29 -139 -110 -209.5t-210 -70.5q-83 0 -141.5 29t-89.5 84t-31 132q0 20 3 42t9 50zM556 785q-25 0 -44.5 6.5t-33.5 15.5q-21 14 -33.5 21t-21 9t-18.5 2
q-20 0 -30 -12t-14 -38h-95q12 73 47.5 108t94.5 35q25 0 44.5 -6.5t33.5 -15.5q21 -14 33.5 -21t21 -9t18.5 -2q20 0 30 12t14 38h95q-12 -73 -47.5 -108t-94.5 -35z" />
    <glyph glyph-name="utilde" unicode="&#x169;" horiz-adv-x="573" 
d="M332 0q2 26 6 54.5t10 60.5q-34 -62 -79.5 -95t-101.5 -33q-39 0 -67 16.5t-43 46.5t-15 72q0 14 1 30t6 37l70 329h145l-69 -325q-2 -10 -3 -19.5t-1 -18.5q0 -23 10.5 -36t29.5 -13q67 0 124 121l62 291h145l-74 -348q-10 -50 -17 -92t-10 -78h-129zM357 629
q-18 14 -29.5 22t-20.5 11.5t-19 3.5q-18 0 -28 -13.5t-16 -47.5h-93q24 156 141 156q25 0 43 -6.5t39 -22.5q18 -14 29 -21.5t20 -11t19 -3.5q18 0 28 13.5t16 47.5h93q-24 -156 -141 -156q-25 0 -43 6.5t-38 21.5z" />
    <glyph glyph-name="Umacron" unicode="&#x16a;" horiz-adv-x="728" 
d="M87 322l83 393h151l-91 -431q-6 -27 -6 -49q0 -57 32.5 -88t92.5 -31q62 0 102 38t55 111l95 450h151l-95 -450q-29 -139 -110 -209.5t-210 -70.5q-83 0 -141.5 29t-89.5 84t-31 132q0 20 3 42t9 50zM316 896h347l-20 -92h-347z" />
    <glyph glyph-name="umacron" unicode="&#x16b;" horiz-adv-x="573" 
d="M332 0q2 26 6 54.5t10 60.5q-34 -62 -79.5 -95t-101.5 -33q-39 0 -67 16.5t-43 46.5t-15 72q0 14 1 30t6 37l70 329h145l-69 -325q-2 -10 -3 -19.5t-1 -18.5q0 -23 10.5 -36t29.5 -13q67 0 124 121l62 291h145l-74 -348q-10 -50 -17 -92t-10 -78h-129zM216 727h320
l-20 -92h-320z" />
    <glyph glyph-name="Uring" unicode="&#x16e;" horiz-adv-x="728" 
d="M87 322l83 393h151l-91 -431q-6 -27 -6 -49q0 -57 32.5 -88t92.5 -31q62 0 102 38t55 111l95 450h151l-95 -450q-29 -139 -110 -209.5t-210 -70.5q-83 0 -141.5 29t-89.5 84t-31 132q0 20 3 42t9 50zM480 774q-34 0 -59 12.5t-39 34.5t-14 51q0 36 16.5 64t45.5 44.5
t66 16.5q34 0 59 -12.5t39 -34.5t14 -51q0 -36 -16.5 -64.5t-45.5 -44.5t-66 -16zM494 940q-28 0 -45 -16.5t-17 -44.5q0 -23 13.5 -35.5t36.5 -12.5q28 0 45 16.5t17 44.5q0 22 -13.5 35t-36.5 13z" />
    <glyph glyph-name="uring" unicode="&#x16f;" horiz-adv-x="573" 
d="M332 0q2 26 6 54.5t10 60.5q-34 -62 -79.5 -95t-101.5 -33q-39 0 -67 16.5t-43 46.5t-15 72q0 14 1 30t6 37l70 329h145l-69 -325q-2 -10 -3 -19.5t-1 -18.5q0 -23 10.5 -36t29.5 -13q67 0 124 121l62 291h145l-74 -348q-10 -50 -17 -92t-10 -78h-129zM358 588
q-32 0 -56 12.5t-37.5 35t-13.5 52.5q0 36 17 65t46 45.5t66 16.5q32 0 56 -12.5t37.5 -35.5t13.5 -52q0 -36 -17 -64.5t-46 -45.5t-66 -17zM377 759q-29 0 -46 -20t-17 -48q0 -22 12.5 -34.5t34.5 -12.5q29 0 46 20t17 48q0 22 -12.5 34.5t-34.5 12.5z" />
    <glyph glyph-name="Uhungarumlaut" unicode="&#x170;" horiz-adv-x="728" 
d="M87 322l83 393h151l-91 -431q-6 -27 -6 -49q0 -57 32.5 -88t92.5 -31q62 0 102 38t55 111l95 450h151l-95 -450q-29 -139 -110 -209.5t-210 -70.5q-83 0 -141.5 29t-89.5 84t-31 132q0 20 3 42t9 50zM681 915h163q-53 -35 -101 -68t-86 -61h-138q39 33 81.5 66.5
t80.5 62.5zM452 915h163q-53 -35 -101 -68t-86 -61h-138q39 33 81.5 66.5t80.5 62.5z" />
    <glyph glyph-name="uhungarumlaut" unicode="&#x171;" horiz-adv-x="573" 
d="M332 0q2 26 6 54.5t10 60.5q-34 -62 -79.5 -95t-101.5 -33q-39 0 -67 16.5t-43 46.5t-15 72q0 14 1 30t6 37l70 329h145l-69 -325q-2 -10 -3 -19.5t-1 -18.5q0 -23 10.5 -36t29.5 -13q67 0 124 121l62 291h145l-74 -348q-10 -50 -17 -92t-10 -78h-129zM549 762h152
q-55 -48 -100 -88.5t-80 -73.5h-121q38 44 76 85t73 77zM335 762h152q-55 -48 -100 -88.5t-80 -73.5h-121q38 44 76 85t73 77z" />
    <glyph glyph-name="Uogonek" unicode="&#x172;" horiz-adv-x="728" 
d="M87 322l83 393h151l-91 -431q-6 -27 -6 -49q0 -57 32.5 -88t92.5 -31q62 0 102 38t55 111l95 450h151l-95 -450q-29 -139 -110 -209.5t-210 -70.5q-83 0 -141.5 29t-89.5 84t-31 132q0 20 3 42t9 50zM237 -150q0 64 57 114t170 87l30 -31q-77 -31 -118 -68t-41 -75
q0 -40 51 -40q17 0 32 3.5t32 11.5l-17 -79q-16 -6 -37 -9t-38 -3q-56 0 -88.5 23.5t-32.5 65.5z" />
    <glyph glyph-name="uogonek" unicode="&#x173;" horiz-adv-x="573" 
d="M332 0q2 26 6 54.5t10 60.5q-34 -62 -79.5 -95t-101.5 -33q-39 0 -67 16.5t-43 46.5t-15 72q0 14 1 30t6 37l70 329h145l-69 -325q-2 -10 -3 -19.5t-1 -18.5q0 -23 10.5 -36t29.5 -13q67 0 124 121l62 291h145l-74 -348q-10 -50 -17 -92t-10 -78h-129zM423 -151l-16 -76
q-17 -6 -36 -9t-36 -3q-54 0 -84.5 23t-30.5 64q0 116 192 182l30 -30q-61 -26 -93.5 -58.5t-32.5 -66.5q0 -40 47 -40q17 0 30 3.5t30 10.5z" />
    <glyph glyph-name="Wcircumflex" unicode="&#x174;" horiz-adv-x="942" 
d="M538 0q-5 119 -9.5 239t-6.5 240q-55 -120 -111.5 -239.5t-114.5 -239.5h-158q-10 175 -16.5 354t-8.5 361h162q-5 -135 -8 -270.5t-4 -266.5q59 127 116.5 253.5t112.5 253.5h146q1 -126 3 -250t5 -248q54 129 108 262t105 266h164q-79 -182 -162 -361t-165 -354h-158z
M655 786q-25 26 -60 60q-25 -17 -46.5 -32t-39.5 -28h-145q44 34 87.5 67t83.5 62h134q28 -29 58 -62t59 -67h-131z" />
    <glyph glyph-name="wcircumflex" unicode="&#x175;" horiz-adv-x="754" 
d="M410 0q-5 83 -8 166.5t-6 167.5q-39 -83 -80 -167t-82 -167h-145q-8 128 -14 258t-10 260h149q-5 -95 -7.5 -188t-3.5 -185q41 88 80.5 175.5t78.5 177.5h135q1 -86 3 -171.5t5 -170.5q37 91 72.5 180t71.5 182h152q-59 -130 -120.5 -260t-125.5 -258h-145zM521 600
q-12 17 -27 38.5t-33 45.5q-28 -24 -52 -45.5t-43 -38.5h-125q40 40 82.5 81.5t84.5 80.5h128q26 -40 50 -81t47 -81h-112z" />
    <glyph glyph-name="Ycircumflex" unicode="&#x176;" horiz-adv-x="685" 
d="M421 271l-57 -271h-151l57 271q-42 111 -82 221.5t-77 222.5h159q22 -79 46 -157.5t49 -155.5q58 78 114.5 156.5t110.5 156.5h178q-85 -112 -171 -222t-176 -222zM519 786q-25 26 -60 60q-25 -17 -46.5 -32t-39.5 -28h-145q44 34 87.5 67t83.5 62h134q28 -29 58 -62
t59 -67h-131z" />
    <glyph glyph-name="ycircumflex" unicode="&#x177;" horiz-adv-x="530" 
d="M229 -85q-33 -54 -67 -88t-73 -50t-87 -16q-28 0 -53 6t-43 17l23 108q26 -16 65 -16q33 0 58 17.5t51 58.5q9 14 18 29.5t17 30.5q-20 122 -38 248t-36 258h150q4 -83 11 -173t15 -183q99 189 180 356h158q-43 -77 -89 -157.5t-91.5 -159.5t-88.5 -152t-80 -134z
M412 600q-12 17 -27 38.5t-33 45.5q-28 -24 -52 -45.5t-43 -38.5h-125q40 40 82.5 81.5t84.5 80.5h128q26 -40 50 -81t47 -81h-112z" />
    <glyph glyph-name="Ydieresis" unicode="&#x178;" horiz-adv-x="685" 
d="M421 271l-57 -271h-151l57 271q-42 111 -82 221.5t-77 222.5h159q22 -79 46 -157.5t49 -155.5q58 78 114.5 156.5t110.5 156.5h178q-85 -112 -171 -222t-176 -222zM322 789q-31 0 -49.5 17.5t-18.5 42.5q0 22 10.5 40t28.5 29t43 11q31 0 49.5 -17.5t18.5 -42.5
q0 -22 -10.5 -40t-28.5 -29t-43 -11zM576 789q-31 0 -49.5 17.5t-18.5 42.5q0 22 10.5 40t28.5 29t43 11q31 0 49.5 -17.5t18.5 -42.5q0 -22 -10.5 -40t-28.5 -29t-43 -11z" />
    <glyph glyph-name="Zacute" unicode="&#x179;" horiz-adv-x="623" 
d="M560 127l-27 -127h-551l23 107q110 124 220 244t219 237h-321l27 127h521l-23 -107q-110 -118 -221.5 -239.5t-219.5 -241.5h353zM476 915h175q-53 -35 -101 -68t-87 -61h-149q39 33 81.5 66.5t80.5 62.5z" />
    <glyph glyph-name="zacute" unicode="&#x17a;" horiz-adv-x="472" 
d="M411 112l-24 -112h-410l21 98q72 77 146.5 154t150.5 154h-220l24 112h392l-21 -98q-78 -78 -152.5 -154.5t-146.5 -153.5h240zM359 762h164q-56 -48 -100.5 -88.5t-79.5 -73.5h-133q38 44 76.5 85t72.5 77z" />
    <glyph glyph-name="Zdotaccent" unicode="&#x17b;" horiz-adv-x="623" 
d="M560 127l-27 -127h-551l23 107q110 124 220 244t219 237h-321l27 127h521l-23 -107q-110 -118 -221.5 -239.5t-219.5 -241.5h353zM424 788q-32 0 -52 18t-20 46q0 23 11 42.5t30.5 31t45.5 11.5q33 0 52.5 -18t19.5 -46q0 -23 -10.5 -42.5t-30 -31t-46.5 -11.5z" />
    <glyph glyph-name="zdotaccent" unicode="&#x17c;" horiz-adv-x="472" 
d="M411 112l-24 -112h-410l21 98q72 77 146.5 154t150.5 154h-220l24 112h392l-21 -98q-78 -78 -152.5 -154.5t-146.5 -153.5h240zM312 607q-31 0 -51 18t-20 45q0 23 11 42t30 30.5t45 11.5q32 0 51.5 -18t19.5 -45q0 -23 -10.5 -42t-30 -30.5t-45.5 -11.5z" />
    <glyph glyph-name="Zcaron" unicode="&#x17d;" horiz-adv-x="623" 
d="M560 127l-27 -127h-551l23 107q110 124 220 244t219 237h-321l27 127h521l-23 -107q-110 -118 -221.5 -239.5t-219.5 -241.5h353zM654 915q-44 -35 -87.5 -68t-83.5 -61h-134q-28 28 -58 61t-59 68h131q25 -26 60 -60q25 17 46.5 32t39.5 28h145z" />
    <glyph glyph-name="zcaron" unicode="&#x17e;" horiz-adv-x="472" 
d="M411 112l-24 -112h-410l21 98q72 77 146.5 154t150.5 154h-220l24 112h392l-21 -98q-78 -78 -152.5 -154.5t-146.5 -153.5h240zM534 762q-40 -40 -82.5 -81.5t-84.5 -80.5h-128q-26 40 -50 80.5t-47 81.5h112q12 -17 27 -38.5t33 -45.5q28 24 52 45.5t43 38.5h125z" />
    <glyph glyph-name="uni0218" unicode="&#x218;" horiz-adv-x="605" 
d="M396 606q-67 0 -103.5 -23t-36.5 -64q0 -20 9 -35t33 -28.5t69 -31.5q52 -20 87 -41t56.5 -44.5t31 -52.5t9.5 -66q0 -53 -21.5 -96.5t-61 -74.5t-95 -47.5t-124.5 -16.5q-139 0 -236 68l27 127q46 -37 97 -54t110 -17q71 0 110 25.5t39 69.5q0 21 -9 37t-31 29.5
t-62 29.5q-54 21 -91 42t-59.5 44.5t-32 51.5t-9.5 64q0 51 21 93t60.5 72.5t94 46.5t121.5 16q59 0 113 -16t101 -47l-27 -125q-42 33 -89 48.5t-101 15.5zM303 -122q0 -22 -10 -47t-28.5 -49t-43.5 -45h-100q56 44 78 90q-14 5 -22 16.5t-8 28.5q0 28 19.5 45.5t51.5 17.5
q31 0 47 -14.5t16 -42.5z" />
    <glyph glyph-name="uni0219" unicode="&#x219;" horiz-adv-x="467" 
d="M0 33l23 110q66 -48 149 -48q44 0 69.5 15t25.5 42q0 19 -14 31t-50 25q-52 19 -82.5 40t-43.5 47.5t-13 63.5q0 52 28.5 90.5t80 60t119.5 21.5q46 0 88 -11.5t77 -34.5l-23 -109q-30 23 -66 35t-74 12q-44 0 -67.5 -14.5t-23.5 -39.5q0 -13 6.5 -22t21.5 -17t42 -18
q50 -18 79.5 -39t42.5 -48t13 -63q0 -53 -28.5 -92.5t-80 -61t-121.5 -21.5q-107 0 -178 46zM234 -122q0 -22 -10 -47t-28.5 -49t-43.5 -45h-98q57 45 79 92q-14 5 -22.5 16t-8.5 28q0 28 19.5 45t50.5 17t46.5 -15t15.5 -42z" />
    <glyph glyph-name="uni021A" unicode="&#x21a;" horiz-adv-x="607" 
d="M113 715h575l-28 -131h-212l-123 -584h-151l123 584h-212zM294 -122q0 -22 -10 -47t-28.5 -49t-43.5 -45h-100q56 44 78 90q-14 5 -22 16.5t-8 28.5q0 28 19.5 45.5t51.5 17.5q31 0 47 -14.5t16 -42.5z" />
    <glyph glyph-name="uni021B" unicode="&#x21b;" horiz-adv-x="395" 
d="M324 12q-26 -13 -54 -19t-62 -6q-66 0 -101.5 30.5t-35.5 87.5q0 16 1.5 30t4.5 28l51 242h-84l24 113h84l27 125l152 33l-34 -158h123l-24 -113h-123l-48 -228q-2 -10 -3 -18.5t-1 -15.5q0 -39 42 -39q23 0 44 7.5t43 23.5zM243 -122q0 -22 -10 -47t-28.5 -49t-43.5 -45
h-98q57 45 79 92q-14 5 -22.5 16t-8.5 28q0 28 19.5 45t50.5 17t46.5 -15t15.5 -42z" />
    <glyph glyph-name="uni0237" unicode="&#x237;" horiz-adv-x="279" 
d="M268 518l-120 -565q-20 -97 -72 -144.5t-140 -47.5q-27 0 -51.5 4.5t-46.5 15.5l24 112q14 -8 27 -11.5t32 -3.5q66 0 84 84l118 556h145z" />
    <glyph glyph-name="circumflex" unicode="&#x2c6;" horiz-adv-x="500" 
d="M407 600q-12 17 -27 38.5t-33 45.5q-28 -24 -52 -45.5t-43 -38.5h-125q40 40 82.5 81.5t84.5 80.5h128q26 -40 50 -81t47 -81h-112z" />
    <glyph glyph-name="caron" unicode="&#x2c7;" horiz-adv-x="500" 
d="M555 762q-40 -40 -82.5 -81.5t-84.5 -80.5h-128q-26 40 -50 80.5t-47 81.5h112q12 -17 27 -38.5t33 -45.5q28 24 52 45.5t43 38.5h125z" />
    <glyph glyph-name="uni02C9" unicode="&#x2c9;" horiz-adv-x="500" 
d="M192 727h320l-20 -92h-320z" />
    <glyph glyph-name="uni02CB" unicode="&#x2cb;" horiz-adv-x="500" 
d="M220 762h148q23 -38 47 -78t48 -84h-117q-48 66 -126 162z" />
    <glyph glyph-name="breve" unicode="&#x2d8;" horiz-adv-x="500" 
d="M346 684q69 0 85 75h98q-13 -77 -62.5 -118t-129.5 -41q-47 0 -82 16.5t-54 47t-19 71.5q0 5 0.5 12.5t1.5 11.5h97q-1 -4 -1 -8v-6q0 -29 17 -45t49 -16z" />
    <glyph glyph-name="dotaccent" unicode="&#x2d9;" horiz-adv-x="500" 
d="M333 607q-31 0 -51 18t-20 45q0 23 11 42t30 30.5t45 11.5q32 0 51.5 -18t19.5 -45q0 -23 -10.5 -42t-30 -30.5t-45.5 -11.5z" />
    <glyph glyph-name="ring" unicode="&#x2da;" horiz-adv-x="500" 
d="M334 588q-32 0 -56 12.5t-37.5 35t-13.5 52.5q0 36 17 65t46 45.5t66 16.5q32 0 56 -12.5t37.5 -35.5t13.5 -52q0 -36 -17 -64.5t-46 -45.5t-66 -17zM353 759q-29 0 -46 -20t-17 -48q0 -22 12.5 -34.5t34.5 -12.5q29 0 46 20t17 48q0 22 -12.5 34.5t-34.5 12.5z" />
    <glyph glyph-name="ogonek" unicode="&#x2db;" horiz-adv-x="500" 
d="M266 -151l-16 -76q-17 -6 -36 -9t-36 -3q-54 0 -84.5 23t-30.5 64q0 116 192 182l30 -30q-61 -26 -93.5 -58.5t-32.5 -66.5q0 -40 47 -40q17 0 30 3.5t30 10.5z" />
    <glyph glyph-name="tilde" unicode="&#x2dc;" horiz-adv-x="500" 
d="M333 629q-18 14 -29.5 22t-20.5 11.5t-19 3.5q-18 0 -28 -13.5t-16 -47.5h-93q24 156 141 156q25 0 43 -6.5t39 -22.5q18 -14 29 -21.5t20 -11t19 -3.5q18 0 28 13.5t16 47.5h93q-24 -156 -141 -156q-25 0 -43 6.5t-38 21.5z" />
    <glyph glyph-name="hungarumlaut" unicode="&#x2dd;" horiz-adv-x="500" 
d="M446 762h152q-55 -48 -100 -88.5t-80 -73.5h-121q38 44 76 85t73 77zM232 762h152q-55 -48 -100 -88.5t-80 -73.5h-121q38 44 76 85t73 77z" />
    <glyph glyph-name="gravecomb" unicode="&#x300;" 
d="M-77 762h148q23 -38 47 -78t48 -84h-117q-48 66 -126 162z" />
    <glyph glyph-name="acutecomb" unicode="&#x301;" 
d="M130 762h164q-56 -48 -100.5 -88.5t-79.5 -73.5h-133q38 44 76.5 85t72.5 77z" />
    <glyph glyph-name="uni0302" unicode="&#x302;" 
d="M157 600q-12 17 -27 38.5t-33 45.5q-28 -24 -52 -45.5t-43 -38.5h-125q40 40 82.5 81.5t84.5 80.5h128q26 -40 50 -81t47 -81h-112z" />
    <glyph glyph-name="tildecomb" unicode="&#x303;" 
d="M83 629q-18 14 -29.5 22t-20.5 11.5t-19 3.5q-18 0 -28 -13.5t-16 -47.5h-93q24 156 141 156q25 0 43 -6.5t39 -22.5q18 -14 29 -21.5t20 -11t19 -3.5q18 0 28 13.5t16 47.5h93q-24 -156 -141 -156q-25 0 -43 6.5t-38 21.5z" />
    <glyph glyph-name="uni0304" unicode="&#x304;" 
d="M-58 727h320l-20 -92h-320z" />
    <glyph glyph-name="uni0306" unicode="&#x306;" 
d="M96 684q69 0 85 75h98q-13 -77 -62.5 -118t-129.5 -41q-47 0 -82 16.5t-54 47t-19 71.5q0 5 0.5 12.5t1.5 11.5h97q-1 -4 -1 -8v-6q0 -29 17 -45t49 -16z" />
    <glyph glyph-name="uni0307" unicode="&#x307;" 
d="M83 607q-31 0 -51 18t-20 45q0 23 11 42t30 30.5t45 11.5q32 0 51.5 -18t19.5 -45q0 -23 -10.5 -42t-30 -30.5t-45.5 -11.5z" />
    <glyph glyph-name="uni0308" unicode="&#x308;" 
d="M-36 611q-30 0 -48.5 17t-18.5 43q0 21 10.5 39t28.5 29t42 11q31 0 49.5 -17t18.5 -43q0 -22 -10.5 -39.5t-29 -28.5t-42.5 -11zM202 611q-30 0 -48.5 17t-18.5 43q0 21 10.5 39t28.5 29t42 11q31 0 49.5 -17t18.5 -43q0 -22 -10.5 -39.5t-29 -28.5t-42.5 -11z" />
    <glyph glyph-name="uni030A" unicode="&#x30a;" 
d="M84 588q-32 0 -56 12.5t-37.5 35t-13.5 52.5q0 36 17 65t46 45.5t66 16.5q32 0 56 -12.5t37.5 -35.5t13.5 -52q0 -36 -17 -64.5t-46 -45.5t-66 -17zM103 759q-29 0 -46 -20t-17 -48q0 -22 12.5 -34.5t34.5 -12.5q29 0 46 20t17 48q0 22 -12.5 34.5t-34.5 12.5z" />
    <glyph glyph-name="uni030B" unicode="&#x30b;" 
d="M275 762h152q-55 -48 -100 -88.5t-80 -73.5h-121q38 44 76 85t73 77zM61 762h152q-55 -48 -100 -88.5t-80 -73.5h-121q38 44 76 85t73 77z" />
    <glyph glyph-name="uni030C" unicode="&#x30c;" 
d="M305 762q-40 -40 -82.5 -81.5t-84.5 -80.5h-128q-26 40 -50 80.5t-47 81.5h112q12 -17 27 -38.5t33 -45.5q28 24 52 45.5t43 38.5h125z" />
    <glyph glyph-name="uni0312" unicode="&#x312;" 
d="M157 667q0 -30 -20.5 -48.5t-53.5 -18.5q-32 0 -48.5 16.5t-16.5 46.5q0 24 12 51.5t33 54t50 48.5h101q-66 -48 -91 -102q16 -5 25 -17.5t9 -30.5z" />
    <glyph glyph-name="uni0315" unicode="&#x315;" 
d="M1 555q14 45 26.5 90.5t25.5 99.5h115q-17 -59 -33.5 -104t-36.5 -86h-97z" />
    <glyph glyph-name="dotbelowcomb" unicode="&#x323;" 
d="M-90 -212q-32 0 -51.5 18t-19.5 45q0 23 11 42t30.5 30.5t44.5 11.5q32 0 51.5 -18t19.5 -45q0 -23 -10.5 -42t-30 -30.5t-45.5 -11.5z" />
    <glyph glyph-name="uni0326" unicode="&#x326;" 
d="M-14 -122q0 -22 -10 -47t-28.5 -49t-43.5 -45h-98q57 45 79 92q-14 5 -22.5 16t-8.5 28q0 28 19.5 45t50.5 17t46.5 -15t15.5 -42z" />
    <glyph glyph-name="uni0327" unicode="&#x327;" 
d="M44 -127q0 -34 -18.5 -59t-52.5 -39t-79 -14q-25 0 -46 4t-40 13l15 68q16 -8 31 -11.5t37 -3.5q30 0 47 9.5t17 25.5q0 26 -47 26q-14 0 -26 -1t-26 -4l60 128h73l-34 -69h5q40 0 62 -19t22 -54z" />
    <glyph glyph-name="uni0328" unicode="&#x328;" 
d="M-27 -151l-16 -76q-17 -6 -36 -9t-36 -3q-54 0 -84.5 23t-30.5 64q0 116 192 182l30 -30q-61 -26 -93.5 -58.5t-32.5 -66.5q0 -40 47 -40q17 0 30 3.5t30 10.5z" />
    <glyph glyph-name="uni0401" unicode="&#x401;" horiz-adv-x="598" 
d="M177 715h467l-26 -125h-316l-34 -159h280l-26 -125h-280l-39 -181h334l-26 -125h-485zM307 789q-31 0 -49.5 17.5t-18.5 42.5q0 22 10.5 40t28.5 29t43 11q31 0 49.5 -17.5t18.5 -42.5q0 -22 -10.5 -40t-28.5 -29t-43 -11zM561 789q-31 0 -49.5 17.5t-18.5 42.5
q0 22 10.5 40t28.5 29t43 11q31 0 49.5 -17.5t18.5 -42.5q0 -22 -10.5 -40t-28.5 -29t-43 -11z" />
    <glyph glyph-name="uni0402" unicode="&#x402;" horiz-adv-x="802" 
d="M738 218q0 -67 -14 -132.5t-42 -123.5t-69 -102t-95 -69.5t-120 -25.5q-12 0 -25 1.5t-22 4.5l27 127q9 -3 20 -3q35 0 63.5 19t51 51t37.5 72t23 83.5t8 83.5q0 51 -21.5 78.5t-67.5 27.5q-38 0 -74.5 -13t-63.5 -36l-55 -261h-151l123 584h-186l28 131h568l-28 -131
h-231l-42 -199q22 17 50 29.5t59 19.5t60 7q59 0 101.5 -26.5t65 -76.5t22.5 -120z" />
    <glyph glyph-name="uni0403" unicode="&#x403;" horiz-adv-x="553" 
d="M177 715h457l-28 -131h-306l-123 -584h-151zM478 915h175q-53 -35 -101 -68t-87 -61h-149q39 33 81.5 66.5t80.5 62.5z" />
    <glyph glyph-name="uni0405" unicode="&#x405;" horiz-adv-x="605" 
d="M396 606q-67 0 -103.5 -23t-36.5 -64q0 -20 9 -35t33 -28.5t69 -31.5q52 -20 87 -41t56.5 -44.5t31 -52.5t9.5 -66q0 -53 -21.5 -96.5t-61 -74.5t-95 -47.5t-124.5 -16.5q-139 0 -236 68l27 127q46 -37 97 -54t110 -17q71 0 110 25.5t39 69.5q0 21 -9 37t-31 29.5
t-62 29.5q-54 21 -91 42t-59.5 44.5t-32 51.5t-9.5 64q0 51 21 93t60.5 72.5t94 46.5t121.5 16q59 0 113 -16t101 -47l-27 -125q-42 33 -89 48.5t-101 15.5z" />
    <glyph glyph-name="uni0406" unicode="&#x406;" horiz-adv-x="311" 
d="M177 715h151l-151 -715h-151z" />
    <glyph glyph-name="uni0408" unicode="&#x408;" horiz-adv-x="494" 
d="M125 -15q-90 0 -156 43l26 124q29 -19 58 -27.5t65 -8.5q62 0 97 31.5t49 98.5l99 469h151l-101 -479q-27 -128 -97.5 -189.5t-190.5 -61.5z" />
    <glyph glyph-name="uni0409" unicode="&#x409;" horiz-adv-x="995" 
d="M406 0l123 584h-136q-30 -120 -57 -211t-54 -156.5t-55.5 -109.5t-61 -69.5t-70.5 -36.5t-85 -11q-10 0 -22.5 1.5t-22.5 5.5l27 130q8 -3 18 -3q30 0 55.5 17.5t50 57.5t50 108t54 168.5t63.5 239.5h423l-55 -262h56q77 0 133.5 -23t86.5 -66.5t30 -102.5
q0 -81 -36.5 -139.5t-105.5 -90t-164 -31.5h-245zM804 248q0 42 -29 64t-82 22h-67l-46 -215h66q76 0 117 33.5t41 95.5z" />
    <glyph glyph-name="uni040A" unicode="&#x40a;" horiz-adv-x="1032" 
d="M443 0l65 309h-266l-65 -309h-151l151 715h151l-58 -275h266l58 275h149l-55 -262h56q78 0 134 -23t86 -66.5t30 -102.5q0 -81 -36.5 -139.5t-105 -90t-164.5 -31.5h-245zM841 248q0 42 -29 64t-82 22h-67l-46 -215h66q76 0 117 33.5t41 95.5z" />
    <glyph glyph-name="uni040B" unicode="&#x40b;" horiz-adv-x="813" 
d="M494 310q-39 0 -75.5 -13t-64.5 -36l-55 -261h-151l123 584h-186l28 131h568l-28 -131h-231l-42 -199q22 17 49.5 29.5t57.5 19.5t60 7q94 0 144.5 -51t50.5 -148q0 -19 -2 -38.5t-7 -42.5l-34 -161h-151l34 161q3 14 4.5 28t1.5 30q0 47 -23 69t-71 22z" />
    <glyph glyph-name="uni040C" unicode="&#x40c;" horiz-adv-x="701" 
d="M278 308h-36l-65 -308h-151l151 715h151l-58 -277h38q72 71 138 139t131 138h186q-87 -88 -174 -175t-179 -175q58 -90 114.5 -180t114.5 -185h-173q-46 79 -91 153t-97 155zM511 915h175q-53 -35 -101 -68t-87 -61h-149q39 33 81.5 66.5t80.5 62.5z" />
    <glyph glyph-name="uni040E" unicode="&#x40e;" horiz-adv-x="660" 
d="M422 182q-34 -54 -65.5 -91t-64.5 -59.5t-69.5 -32t-81.5 -9.5q-23 0 -44 4.5t-34 10.5l26 125q27 -12 61 -12q36 0 62.5 12.5t50.5 40.5q-42 139 -80 273.5t-75 270.5h156q26 -111 48.5 -207t45.5 -188q60 104 114 201.5t106 193.5h168q-76 -131 -156.5 -263
t-167.5 -270zM432 783q-52 0 -90.5 15.5t-59 42.5t-20.5 64q0 7 0.5 14.5t1.5 12.5h102q-1 -3 -1 -5.5v-5.5q0 -27 19.5 -41.5t57.5 -14.5q41 0 66 18t34 49h104q-16 -69 -71 -109t-143 -40z" />
    <glyph glyph-name="uni040F" unicode="&#x40f;" horiz-adv-x="732" 
d="M598 0h-216l-35 -166h-138l35 166h-218l151 715h151l-124 -586h270l124 586h151z" />
    <glyph glyph-name="uni0410" unicode="&#x410;" horiz-adv-x="714" 
d="M491 0q-4 40 -8.5 79t-8.5 78h-264q-21 -39 -41.5 -78.5t-41.5 -78.5h-170q106 188 209.5 366t206.5 349h162q31 -180 60 -358.5t54 -356.5h-158zM277 282h183q-8 69 -16.5 136.5t-17.5 134.5q-38 -67 -75 -135z" />
    <glyph glyph-name="uni0411" unicode="&#x411;" horiz-adv-x="654" 
d="M297 0h-271l151 715h473l-28 -131h-327l-31 -147h87q79 0 136.5 -22.5t88.5 -64t31 -99.5q0 -79 -37.5 -135t-106.5 -86t-166 -30zM196 114h96q79 0 122 33t43 92q0 41 -31 62.5t-89 21.5h-97z" />
    <glyph glyph-name="uni0412" unicode="&#x412;" horiz-adv-x="667" 
d="M618 243q0 -75 -36.5 -129.5t-103.5 -84t-160 -29.5h-292l151 715h237q73 0 125.5 -20.5t80.5 -59t28 -92.5q0 -65 -33 -109.5t-94 -64.5q45 -16 71 -49t26 -77zM261 420h101q64 0 100.5 28.5t36.5 80.5q0 34 -26.5 53t-72.5 19h-101zM196 114h118q74 0 114 31t40 87
q0 37 -30 57.5t-82 20.5h-118z" />
    <glyph glyph-name="uni0413" unicode="&#x413;" horiz-adv-x="553" 
d="M177 715h457l-28 -131h-306l-123 -584h-151z" />
    <glyph glyph-name="uni0414" unicode="&#x414;" horiz-adv-x="776" 
d="M105 0l-35 -166h-138l62 295h72q42 53 76.5 114t65 132t57.5 155t52 185h437l-123 -586h90l-62 -295h-138l35 166h-451zM580 590h-158q-26 -98 -57 -183.5t-66.5 -156t-72.5 -121.5h257z" />
    <glyph glyph-name="uni0415" unicode="&#x415;" horiz-adv-x="598" 
d="M177 715h467l-26 -125h-316l-34 -159h280l-26 -125h-280l-39 -181h334l-26 -125h-485z" />
    <glyph glyph-name="uni0416" unicode="&#x416;" horiz-adv-x="1003" 
d="M407 310q-49 -56 -93.5 -107t-87 -101t-86.5 -102h-186q89 102 174.5 198t174.5 195q-42 81 -83 161t-81 161h161q32 -70 65 -140t68 -138h38l59 278h151l-59 -278h39q65 71 124.5 139.5t118.5 138.5h179q-79 -89 -157 -175.5t-160 -174.5q45 -92 88.5 -181t86.5 -184
h-171q-22 54 -44 103.5t-44.5 100t-48.5 106.5h-38l-65 -310h-151l65 310h-37z" />
    <glyph glyph-name="uni0417" unicode="&#x417;" horiz-adv-x="597" 
d="M545 219q0 -53 -22.5 -96t-65 -74t-101.5 -47.5t-131 -16.5q-66 0 -117.5 12t-99.5 39l25 119q29 -17 58 -27t61.5 -14.5t72.5 -4.5q49 0 85 14.5t55.5 41t19.5 61.5q0 80 -119 80h-108l26 122h105q71 0 111.5 27.5t40.5 74.5q0 36 -30.5 56t-87.5 20q-50 0 -99 -11
t-96 -36l27 129q95 42 199 42q76 0 130.5 -21.5t84.5 -61t30 -95.5q0 -47 -21 -86t-58 -65.5t-87 -37.5q55 -16 83.5 -52.5t28.5 -91.5z" />
    <glyph glyph-name="uni0418" unicode="&#x418;" horiz-adv-x="750" 
d="M471 0l100 473q-65 -75 -133 -154.5t-135.5 -160t-132.5 -158.5h-144l151 715h145l-99 -468q101 120 201.5 238.5t198.5 229.5h144l-151 -715h-145z" />
    <glyph glyph-name="uni0419" unicode="&#x419;" horiz-adv-x="750" 
d="M471 0l100 473q-65 -75 -133 -154.5t-135.5 -160t-132.5 -158.5h-144l151 715h145l-99 -468q101 120 201.5 238.5t198.5 229.5h144l-151 -715h-145zM478 783q-52 0 -90.5 15.5t-59 42.5t-20.5 64q0 7 0.5 14.5t1.5 12.5h102q-1 -3 -1 -5.5v-5.5q0 -27 19.5 -41.5
t57.5 -14.5q41 0 66 18t34 49h104q-16 -69 -71 -109t-143 -40z" />
    <glyph glyph-name="uni041A" unicode="&#x41a;" horiz-adv-x="701" 
d="M278 308h-36l-65 -308h-151l151 715h151l-58 -277h38q72 71 138 139t131 138h186q-87 -88 -174 -175t-179 -175q58 -90 114.5 -180t114.5 -185h-173q-46 79 -91 153t-97 155z" />
    <glyph glyph-name="uni041B" unicode="&#x41b;" horiz-adv-x="729" 
d="M444 0l123 584h-174q-30 -120 -57 -211t-54 -156.5t-55.5 -109.5t-61 -69.5t-70.5 -36.5t-85 -11q-10 0 -22.5 1.5t-22.5 5.5l27 130q8 -3 18 -3q30 0 55.5 17.5t50 57.5t50 108t54 168.5t63.5 239.5h463l-151 -715h-151z" />
    <glyph glyph-name="uni041C" unicode="&#x41c;" horiz-adv-x="877" 
d="M352 133q-20 89 -39.5 179.5t-37.5 181.5l-105 -494h-144l151 715h180q20 -110 40.5 -218.5t42.5 -214.5q68 106 135.5 213.5t136.5 219.5h182l-151 -715h-144l102 482q-56 -88 -113 -175t-115 -174h-121z" />
    <glyph glyph-name="uni041D" unicode="&#x41d;" horiz-adv-x="749" 
d="M464 0l65 309h-287l-65 -309h-151l151 715h151l-58 -275h287l58 275h151l-151 -715h-151z" />
    <glyph glyph-name="uni041E" unicode="&#x41e;" horiz-adv-x="773" 
d="M365 -15q-69 0 -125 21t-95 60.5t-60 94.5t-21 123q0 67 16.5 131.5t48.5 121.5t79 100.5t108 68t135 24.5q69 0 125 -21t95 -60.5t60 -94.5t21 -123q0 -67 -16.5 -131.5t-48.5 -121.5t-79 -100.5t-108 -68t-135 -24.5zM445 599q-46 0 -82.5 -19t-63 -50.5t-44 -72
t-26 -83.5t-8.5 -84q0 -82 39 -128t111 -46q46 0 82.5 19t63 50.5t44 72t26 83.5t8.5 84q0 82 -39 128t-111 46z" />
    <glyph glyph-name="uni041F" unicode="&#x41f;" horiz-adv-x="732" 
d="M177 715h572l-151 -715h-151l123 584h-270l-123 -584h-151z" />
    <glyph glyph-name="uni0420" unicode="&#x420;" horiz-adv-x="640" 
d="M650 516q0 -84 -37 -145t-106 -94t-166 -33h-114l-52 -244h-149l151 715h223q78 0 134 -24t86 -68.5t30 -106.5zM301 596l-49 -233h85q77 0 118.5 36.5t41.5 103.5q0 44 -29 68.5t-82 24.5h-85z" />
    <glyph glyph-name="uni0421" unicode="&#x421;" horiz-adv-x="649" 
d="M64 287q0 67 18 131t54 120.5t88 99.5t120.5 67.5t152.5 24.5q43 0 77.5 -6t64 -18t57.5 -32l-28 -133q-36 31 -77 44.5t-98 13.5t-101 -18t-76.5 -49t-53.5 -70t-31 -81t-10 -82q0 -89 47 -136t134 -47q60 0 106 14.5t91 46.5l-32 -150q-41 -21 -88 -31.5t-102 -10.5
q-98 0 -168 36t-107.5 103.5t-37.5 162.5z" />
    <glyph glyph-name="uni0422" unicode="&#x422;" horiz-adv-x="607" 
d="M113 715h575l-28 -131h-212l-123 -584h-151l123 584h-212z" />
    <glyph glyph-name="uni0423" unicode="&#x423;" horiz-adv-x="660" 
d="M422 182q-34 -54 -65.5 -91t-64.5 -59.5t-69.5 -32t-81.5 -9.5q-23 0 -44 4.5t-34 10.5l26 125q27 -12 61 -12q36 0 62.5 12.5t50.5 40.5q-42 139 -80 273.5t-75 270.5h156q26 -111 48.5 -207t45.5 -188q60 104 114 201.5t106 193.5h168q-76 -131 -156.5 -263
t-167.5 -270z" />
    <glyph glyph-name="uni0424" unicode="&#x424;" horiz-adv-x="849" 
d="M300 -12l20 93q-56 9 -103 29t-82.5 51.5t-55 74t-19.5 95.5q0 62 19.5 112.5t54.5 88.5t83 64t105 40.5t119 17.5l18 83h136l-19 -88q56 -9 103 -29t82.5 -51.5t55 -74t19.5 -95.5q0 -62 -19.5 -112.5t-54.5 -88.5t-83 -64t-105 -40.5t-119 -17.5l-19 -88h-136zM206 336
q0 -58 39 -93.5t106 -43.5l71 334q-45 -3 -84.5 -15.5t-69 -36.5t-46 -60t-16.5 -85zM690 394q0 58 -39 93.5t-106 43.5l-71 -334q45 3 84.5 15.5t69 36.5t46 60t16.5 85z" />
    <glyph glyph-name="uni0425" unicode="&#x425;" horiz-adv-x="664" 
d="M437 0q-21 58 -46 122t-56 136q-51 -63 -100.5 -127t-97.5 -131h-182q78 97 155.5 190.5t161.5 189.5q-43 93 -79.5 175.5t-67.5 159.5h163q19 -55 42 -112.5l49 -122.5q43 54 87 112t90 123h177q-76 -96 -147.5 -182.5t-145.5 -170.5q48 -104 87 -191.5t74 -170.5h-164z
" />
    <glyph glyph-name="uni0426" unicode="&#x426;" horiz-adv-x="759" 
d="M26 0l151 715h151l-124 -586h258l124 586h151l-124 -586h90l-62 -295h-138l35 166h-512z" />
    <glyph glyph-name="uni0427" unicode="&#x427;" horiz-adv-x="688" 
d="M705 715l-151 -715h-151l64 304q-31 -23 -71 -36.5t-81 -13.5q-97 0 -150 52t-53 148q0 46 9 90l36 171h151l-37 -175q-3 -16 -4.5 -30t-1.5 -28q0 -50 23.5 -73.5t72.5 -23.5q36 0 71 12.5t63 35.5l59 282h151z" />
    <glyph glyph-name="uni0428" unicode="&#x428;" horiz-adv-x="987" 
d="M26 0l151 715h151l-124 -586h187l124 586h151l-124 -586h187l124 586h151l-151 -715h-827z" />
    <glyph glyph-name="uni0429" unicode="&#x429;" horiz-adv-x="1016" 
d="M795 0h-769l151 715h151l-124 -586h182l124 586h151l-124 -586h182l124 586h151l-124 -586h90l-62 -295h-138z" />
    <glyph glyph-name="uni042A" unicode="&#x42a;" horiz-adv-x="774" 
d="M736 261q0 -81 -36.5 -139.5t-105 -90t-164.5 -31.5h-265l123 584h-203l28 131h352l-55 -262h76q78 0 134 -23t86 -66.5t30 -102.5zM583 248q0 42 -29 64t-82 22h-87l-46 -215h86q76 0 117 33.5t41 95.5z" />
    <glyph glyph-name="uni042B" unicode="&#x42b;" horiz-adv-x="897" 
d="M763 715h151l-151 -715h-151zM271 453h56q77 0 133.5 -23t86.5 -66.5t30 -102.5q0 -81 -36.5 -139.5t-105.5 -90t-164 -31.5h-245l151 715h149zM424 248q0 42 -29 64t-82 22h-67l-46 -215h66q76 0 117 33.5t41 95.5z" />
    <glyph glyph-name="uni042C" unicode="&#x42c;" horiz-adv-x="645" 
d="M271 453h86q77 0 133.5 -23t86.5 -66.5t30 -102.5q0 -81 -36.5 -139.5t-105.5 -90t-164 -31.5h-275l151 715h149zM454 248q0 42 -29 64t-82 22h-97l-46 -215h96q76 0 117 33.5t41 95.5z" />
    <glyph glyph-name="uni042D" unicode="&#x42d;" horiz-adv-x="673" 
d="M652 423q0 -77 -20.5 -144t-58.5 -121t-91.5 -93t-120 -59.5t-143.5 -20.5q-63 0 -116.5 16.5t-91.5 46.5l27 128q40 -31 85.5 -45.5t101.5 -14.5q62 0 112.5 23.5t87 66t54.5 100.5h-320l26 125h311q-4 81 -48 124.5t-123 43.5q-53 0 -103.5 -14.5t-96.5 -43.5l30 141
q41 23 95 35.5t113 12.5q66 0 119 -21.5t91.5 -61.5t59 -96.5t20.5 -127.5z" />
    <glyph glyph-name="uni042E" unicode="&#x42e;" horiz-adv-x="1015" 
d="M994 431q0 -67 -16 -131.5t-46.5 -121.5t-76 -100.5t-104 -68t-130.5 -24.5q-66 0 -119 21t-91 60.5t-58 94.5t-20 123q0 13 1 25h-92l-65 -309h-151l151 715h151l-58 -275h85q18 60 49 112.5t75 92.5t100 62.5t123 22.5q68 0 121.5 -21t92 -60.5t58.5 -94.5t20 -123z
M696 599q-44 0 -78 -19t-59 -50.5t-41.5 -72t-24.5 -83.5t-8 -84q0 -82 37 -128t105 -46q43 0 77.5 19t59.5 50.5t41 72t24 83.5t8 84q0 82 -36.5 128t-104.5 46z" />
    <glyph glyph-name="uni042F" unicode="&#x42f;" horiz-adv-x="698" 
d="M471 265h-79q-61 -66 -119.5 -132t-115.5 -133h-177q65 75 132 147.5t137 145.5q-51 21 -82.5 62t-31.5 103q0 81 36.5 138.5t105 88t165.5 30.5h273l-151 -715h-149zM288 472q0 -43 29.5 -65.5t84.5 -22.5h94l45 212h-95q-77 0 -117.5 -32t-40.5 -92z" />
    <glyph glyph-name="uni0430" unicode="&#x430;" horiz-adv-x="573" 
d="M328 0q2 26 6 54.5t10 59.5q-34 -62 -79 -94.5t-98 -32.5q-41 0 -71.5 22t-47 62.5t-16.5 95.5q0 62 16 117t45 100t69 78t89 51t104 18q52 0 101.5 -11.5t94.5 -33.5l-67 -316q-10 -50 -17 -92t-10 -78h-129zM181 181q0 -37 12.5 -56t35.5 -19q65 0 122 119l39 183
q-22 8 -50 8q-33 0 -62 -18.5t-50.5 -51t-34 -75t-12.5 -90.5z" />
    <glyph glyph-name="uni0431" unicode="&#x431;" horiz-adv-x="575" 
d="M536 302q0 -52 -14 -99.5t-40 -87t-61.5 -68t-79 -44.5t-91.5 -16q-68 0 -114.5 25t-70.5 72.5t-24 112.5q0 37 8 88t23 107q23 89 55 152t76.5 103t106.5 61.5t145 28.5l88 7q18 2 35.5 5t32.5 9l-28 -131q-13 -5 -31.5 -9t-36.5 -5l-89 -7q-51 -4 -88 -16.5t-63 -38
t-45.5 -67t-36.5 -102.5q35 51 80 77.5t96 26.5t88.5 -22.5t58 -64t20.5 -97.5zM186 204q0 -26 6 -49t21.5 -37t43.5 -14q29 0 53 14.5t42.5 40.5t28.5 60.5t10 74.5q0 36 -19 58t-54 22q-60 0 -111 -62q-11 -35 -16 -60.5t-5 -47.5z" />
    <glyph glyph-name="uni0432" unicode="&#x432;" horiz-adv-x="562" 
d="M503 174q0 -40 -19 -74t-53.5 -59.5t-80.5 -39.5t-99 -14q-69 0 -117 24.5t-73 71t-25 111.5q0 56 16 106.5t45.5 92.5t69.5 73t87.5 48t100.5 17t89.5 -16t56 -44.5t19.5 -65.5q0 -28 -13 -52.5t-36 -43.5t-54 -31q39 -10 62.5 -37.5t23.5 -66.5zM334 425
q-33 0 -62.5 -17t-51.5 -47.5t-34 -69.5q42 4 78.5 11t64.5 17t43.5 25.5t15.5 38.5q0 21 -14 31.5t-40 10.5zM173 204q0 -111 91 -111q31 0 55 10.5t38 28.5t14 43q0 26 -18.5 37t-47.5 11q-19 0 -54.5 -5t-77.5 -13v-1z" />
    <glyph glyph-name="uni0433" unicode="&#x433;" horiz-adv-x="488" 
d="M237 102q49 0 96.5 13t90.5 38l-27 -128q-36 -18 -81.5 -28t-94.5 -10q-64 0 -110.5 17t-71.5 49.5t-25 79.5q0 49 22.5 83.5t70 58t123.5 39.5q39 8 61.5 16.5t32.5 19t10 26.5q0 20 -19 30t-60 10q-42 0 -86.5 -13t-78.5 -35l26 123q38 20 81 30t91 10q57 0 98.5 -17.5
t64.5 -49.5t23 -75q0 -50 -22 -84t-70 -56.5t-128 -39.5q-36 -8 -57.5 -16.5t-31 -19.5t-9.5 -29q0 -42 81 -42z" />
    <glyph glyph-name="uni0434" unicode="&#x434;" horiz-adv-x="565" 
d="M540 431q0 -47 -6 -98t-19.5 -100.5t-36 -94t-55 -78.5t-76.5 -53.5t-101 -19.5q-64 0 -111 25t-73 71t-26 108q0 60 18.5 113.5t52 94t80 64t102.5 23.5q35 0 62.5 -11.5t47.5 -36.5q-1 69 -23 111.5t-69.5 62.5t-124.5 21l25 119q116 -4 189.5 -38.5t108.5 -104.5
t35 -178zM181 195q0 -43 19.5 -67t54.5 -24q30 0 53 18.5t40.5 51t28.5 75t17 90.5q-31 35 -82 35q-40 0 -69.5 -24t-45.5 -65t-16 -90z" />
    <glyph glyph-name="uni0435" unicode="&#x435;" horiz-adv-x="530" 
d="M428 29q-38 -22 -76.5 -32t-87.5 -10q-71 0 -121 25.5t-76.5 74t-26.5 116.5q0 55 15 104.5t43 90t65.5 70.5t83 46.5t96.5 16.5q53 0 92 -17.5t59.5 -49.5t20.5 -75q0 -93 -81.5 -140.5t-255.5 -58.5q5 -46 31.5 -67.5t77.5 -21.5q30 0 57 6t54 19t58 35zM328 425
q-32 0 -61 -19t-50.5 -51.5t-31.5 -74.5q104 6 151 29.5t47 68.5q0 23 -15 35t-40 12z" />
    <glyph glyph-name="uni0436" unicode="&#x436;" horiz-adv-x="832" 
d="M311 215q-47 -51 -93.5 -103t-96.5 -112h-167q65 75 128 145.5t130 142.5q-30 55 -62 114.5t-60 115.5h147q23 -48 48 -97t49 -95h29l41 192h145l-41 -192h29q44 46 88.5 96t85.5 96h164q-38 -41 -78 -84.5t-80 -86t-78 -81.5q35 -68 66.5 -132.5t64.5 -133.5h-156
q-26 60 -51 112.5t-50 102.5h-28l-46 -215h-145l46 215h-29z" />
    <glyph glyph-name="uni0437" unicode="&#x437;" horiz-adv-x="491" 
d="M429 161q0 -52 -33 -91t-92.5 -61t-138.5 -22q-51 0 -92 10.5t-76 31.5l23 108q31 -19 65.5 -29t81.5 -10q55 0 88.5 17.5t33.5 50.5q0 50 -83 50h-89l21 102h81q48 0 75.5 16.5t27.5 46.5q0 23 -23 32.5t-67 9.5q-38 0 -76 -9t-73 -29l25 117q34 14 73 21.5t78 7.5
q63 0 108 -15.5t69 -45t24 -70.5q0 -50 -32 -85.5t-86 -48.5q42 -11 64.5 -38t22.5 -67z" />
    <glyph glyph-name="uni0438" unicode="&#x438;" horiz-adv-x="581" 
d="M336 0q2 26 6 54.5t10 60.5q-34 -62 -79.5 -95t-101.5 -33q-39 0 -67 16.5t-43 46.5t-15 72q0 14 1 30t6 37l70 329h145l-69 -325q-2 -10 -3 -19.5t-1 -18.5q0 -23 10.5 -36t29.5 -13q67 0 124 121l62 291h145l-74 -348q-10 -50 -17 -92t-10 -78h-129z" />
    <glyph glyph-name="uni0439" unicode="&#x439;" horiz-adv-x="581" 
d="M336 0q2 26 6 54.5t10 60.5q-34 -62 -79.5 -95t-101.5 -33q-39 0 -67 16.5t-43 46.5t-15 72q0 14 1 30t6 37l70 329h145l-69 -325q-2 -10 -3 -19.5t-1 -18.5q0 -23 10.5 -36t29.5 -13q67 0 124 121l62 291h145l-74 -348q-10 -50 -17 -92t-10 -78h-129zM374 682
q74 0 91 77h99q-13 -77 -64.5 -118t-134.5 -41q-49 0 -85 16.5t-56 47t-20 71.5q0 5 0.5 12.5t1.5 11.5h97q-1 -4 -1 -8v-6q0 -29 19 -46t53 -17z" />
    <glyph glyph-name="uni043A" unicode="&#x43a;" horiz-adv-x="567" 
d="M237 214h-30l-45 -214h-145l110 518h145l-41 -191h31q44 49 86 97t80 94h166q-59 -66 -117.5 -130t-115.5 -125q38 -67 73 -130.5t71 -132.5h-156q-19 38 -37 72.5l-36 69t-39 72.5z" />
    <glyph glyph-name="uni043B" unicode="&#x43b;" horiz-adv-x="601" 
d="M331 0l86 405h-109q-25 -96 -48.5 -166t-48.5 -118t-53 -76.5t-61 -41t-74 -12.5q-32 0 -54 5l24 115h10q22 0 41 12.5t37 40.5t36.5 75t39.5 116t45 163h384l-110 -518h-145z" />
    <glyph glyph-name="uni043C" unicode="&#x43c;" horiz-adv-x="709" 
d="M270 89q-13 60 -25 118t-23 116l-69 -323h-136l110 518h162q14 -79 28 -152t28 -141q45 70 90 142t93 151h166l-110 -518h-136l68 318q-38 -59 -73.5 -114.5t-74.5 -114.5h-98z" />
    <glyph glyph-name="uni043D" unicode="&#x43d;" horiz-adv-x="592" 
d="M322 0l44 209h-160l-44 -209h-145l110 518h145l-42 -196h160l42 196h145l-110 -518h-145z" />
    <glyph glyph-name="uni043E" unicode="&#x43e;" horiz-adv-x="571" 
d="M256 -13q-67 0 -115.5 26.5t-74.5 75.5t-26 117q0 49 12 96.5t36 89t57.5 73t77 49t95.5 17.5q67 0 115.5 -26.5t74.5 -75.5t26 -117q0 -50 -12 -97t-36 -88.5t-57.5 -73t-77 -49t-95.5 -17.5zM259 104q27 0 48.5 13.5t36.5 36.5t25 51t15 56.5t5 53.5q0 47 -19.5 73
t-54.5 26q-27 0 -48.5 -13.5t-36.5 -36.5t-25 -51t-15 -56.5t-5 -53.5q0 -47 19 -73t55 -26z" />
    <glyph glyph-name="uni043F" unicode="&#x43f;" horiz-adv-x="586" 
d="M352 412q-70 0 -128 -122l-62 -290h-145l74 348q11 50 17.5 92t9.5 78h129q-2 -27 -6 -55.5t-11 -61.5q36 63 82.5 96.5t103.5 33.5q38 0 66.5 -16.5t44 -46.5t15.5 -72q0 -14 -1 -30t-6 -37l-70 -329h-145l69 325q2 10 3 19.5t1 18.5q0 23 -10.5 36t-30.5 13z" />
    <glyph glyph-name="uni0440" unicode="&#x440;" horiz-adv-x="579" 
d="M223 -13q-31 0 -62 7l-47 -220h-145l122 574q11 50 17.5 92t9.5 78h129q-2 -26 -6 -55t-10 -61q34 63 80 96t100 33q43 0 73.5 -22t47.5 -62.5t17 -95.5q0 -62 -16 -117t-45.5 -100t-70 -78t-90 -51t-104.5 -18zM349 412q-67 0 -125 -120l-38 -181q11 -5 24.5 -7t27.5 -2
q34 0 63.5 18.5t51.5 51t34.5 75t12.5 90.5q0 37 -13 56t-38 19z" />
    <glyph glyph-name="uni0441" unicode="&#x441;" horiz-adv-x="475" 
d="M185 217q0 -112 100 -112q37 0 69.5 11.5t69.5 40.5l-29 -136q-33 -17 -68 -25.5t-78 -8.5q-65 0 -112 25.5t-72 74.5t-25 117q0 52 14 100t40.5 89.5t64 72t86 48t105.5 17.5q85 0 138 -40l-25 -116q-20 20 -46 29t-62 9q-42 0 -73.5 -17t-53 -45.5t-32.5 -63t-11 -70.5
z" />
    <glyph glyph-name="uni0442" unicode="&#x442;" horiz-adv-x="861" 
d="M343 412q-64 0 -119 -120l-62 -292h-145l74 348q11 50 17.5 92t9.5 78h129q-2 -26 -6 -54t-10 -59q34 61 78 93.5t98 32.5q50 0 82 -30t38 -83q33 55 75.5 84t93.5 29q37 0 64 -16.5t42 -46.5t15 -72q0 -14 -1.5 -30t-5.5 -37l-70 -329h-145l69 325q2 10 3 19.5t1 18.5
q0 23 -9 36t-27 13q-64 0 -119 -120l-62 -292h-145l69 325q2 10 3 19.5t1 18.5q0 23 -9 36t-27 13z" />
    <glyph glyph-name="uni0443" unicode="&#x443;" horiz-adv-x="530" 
d="M229 -85q-33 -54 -67 -88t-73 -50t-87 -16q-28 0 -53 6t-43 17l23 108q26 -16 65 -16q33 0 58 17.5t51 58.5q9 14 18 29.5t17 30.5q-20 122 -38 248t-36 258h150q4 -83 11 -173t15 -183q99 189 180 356h158q-43 -77 -89 -157.5t-91.5 -159.5t-88.5 -152t-80 -134z" />
    <glyph glyph-name="uni0444" unicode="&#x444;" horiz-adv-x="739" 
d="M700 296q0 -65 -23.5 -119t-66.5 -95t-102.5 -65t-131.5 -29l-46 -214h-127l47 221q-66 12 -112.5 42.5t-71.5 76.5t-25 106q0 65 23.5 119.5t66.5 95.5t102.5 65.5t130.5 29.5l46 215h127l-47 -222q99 -18 154.5 -76.5t55.5 -150.5zM182 229q0 -97 98 -121l65 306
q-50 -8 -86.5 -32.5t-56.5 -63.5t-20 -89zM559 288q0 99 -98 123l-64 -308q49 8 85.5 33t56.5 63.5t20 88.5z" />
    <glyph glyph-name="uni0445" unicode="&#x445;" horiz-adv-x="526" 
d="M316 0q-18 46 -34.5 86.5t-33.5 78.5q-32 -40 -65 -82t-65 -83h-164q59 68 118.5 136t118.5 133q-30 64 -57.5 126t-53.5 123h147q15 -44 29 -83t28 -75q32 39 61 79t57 79h158q-54 -67 -109 -132t-111 -129q34 -66 65 -130t59 -127h-148z" />
    <glyph glyph-name="uni0446" unicode="&#x446;" horiz-adv-x="616" 
d="M561 114l-53 -252h-127l29 135q-33 9 -48 34t-15 68v8q-34 -59 -78 -89.5t-98 -30.5q-39 0 -67 16.5t-43 46.5t-15 72q0 14 1 30t6 37l70 329h145l-69 -325q-2 -10 -3 -19.5t-1 -18.5q0 -23 10.5 -36t29.5 -13q67 0 124 121l62 291h145l-74 -348q-2 -11 -3.5 -21
t-1.5 -17q0 -30 32 -30q21 0 42 12z" />
    <glyph glyph-name="uni0447" unicode="&#x447;" horiz-adv-x="558" 
d="M543 518l-110 -518h-145l42 197q-22 -18 -51.5 -28t-60.5 -10q-71 0 -110 40.5t-39 114.5q0 16 2 36t7 45l26 123h145l-29 -137q-3 -13 -4 -24t-1 -21q0 -30 14.5 -44t45.5 -14q44 0 78 29l45 211h145z" />
    <glyph glyph-name="uni0448" unicode="&#x448;" horiz-adv-x="849" 
d="M604 0q2 26 6 53.5t10 58.5q-33 -61 -75.5 -93t-96.5 -32q-49 0 -80.5 30t-37.5 82q-32 -55 -73 -83.5t-92 -28.5q-37 0 -63.5 16.5t-41 46.5t-14.5 72q0 14 1 30t6 37l70 329h145l-69 -325q-2 -10 -3 -19.5t-1 -18.5q0 -23 8.5 -36t25.5 -13q33 0 60 29.5t55 90.5
l62 292h145l-69 -325q-2 -10 -3 -19.5t-1 -18.5q0 -23 8.5 -36t25.5 -13q33 0 60 29.5t55 90.5l62 292h145l-74 -348q-10 -50 -17 -92t-10 -78h-129z" />
    <glyph glyph-name="uni0449" unicode="&#x449;" horiz-adv-x="884" 
d="M829 114l-53 -252h-127l29 135q-33 9 -48 34t-15 68v5q-32 -57 -73.5 -87t-93.5 -30q-49 0 -80.5 30t-37.5 82q-32 -55 -73 -83.5t-92 -28.5q-37 0 -63.5 16.5t-41 46.5t-14.5 72q0 14 1 30t6 37l70 329h145l-69 -325q-2 -10 -3 -19.5t-1 -18.5q0 -23 8.5 -36t25.5 -13
q33 0 60 29.5t55 90.5l62 292h145l-69 -325q-2 -10 -3 -19.5t-1 -18.5q0 -23 8.5 -36t25.5 -13q33 0 60 29.5t55 90.5l62 292h145l-74 -348l-3.5 -21t-1.5 -17q0 -30 32 -30q21 0 42 12z" />
    <glyph glyph-name="uni044A" unicode="&#x44a;" horiz-adv-x="615" 
d="M577 209q0 -49 -18.5 -90t-52 -70.5t-79.5 -45.5t-102 -16q-55 0 -97 17.5t-65.5 50.5t-23.5 78q0 13 1.5 32t5.5 36l46 204h-147l24 113h289l-43 -192q23 15 52 24t57 9q48 0 82 -18t52.5 -51.5t18.5 -80.5zM280 148q0 -27 16 -42.5t45 -15.5q26 0 47.5 13.5t34 36.5
t12.5 52q0 32 -15.5 48t-43.5 16q-45 0 -83 -28l-8 -36q-2 -12 -3.5 -23t-1.5 -21z" />
    <glyph glyph-name="uni044B" unicode="&#x44b;" horiz-adv-x="787" 
d="M627 518h145l-110 -518h-145zM480 209q0 -49 -18 -90t-51.5 -70.5t-79 -45.5t-100.5 -16t-96 17.5t-64 50.5t-23 78q0 13 1.5 32t5.5 36l71 317h141l-43 -192q23 15 51.5 24t54.5 9q47 0 80.5 -18t51.5 -51.5t18 -80.5zM189 148q0 -27 15.5 -42.5t42.5 -15.5
q25 0 45.5 13.5t33 36.5t12.5 52q0 32 -14.5 48t-41.5 16q-43 0 -80 -28l-8 -36q-2 -12 -3.5 -23t-1.5 -21z" />
    <glyph glyph-name="uni044C" unicode="&#x44c;" horiz-adv-x="532" 
d="M494 209q0 -49 -18.5 -90t-53 -70.5t-81 -45.5t-103.5 -16q-56 0 -99 17.5t-67 50.5t-24 78q0 13 1.5 32t5.5 36l71 317h141l-43 -192q24 14 54.5 23.5t58.5 9.5q49 0 84 -18t54 -51.5t19 -80.5zM189 148q0 -27 17.5 -42.5t47.5 -15.5q27 0 49.5 13.5t35.5 36.5t13 52
q0 32 -16.5 48t-46.5 16q-48 0 -87 -29l-8 -35q-2 -12 -3.5 -23t-1.5 -21z" />
    <glyph glyph-name="uni044D" unicode="&#x44d;" horiz-adv-x="507" 
d="M470 304q0 -70 -24 -128t-67.5 -100.5t-103.5 -65.5t-132 -23q-91 0 -146 40l23 111q52 -39 129 -39q60 0 104.5 31t65.5 84h-207l22 102h199q-4 50 -33 76.5t-82 26.5q-73 0 -135 -38l25 119q30 15 66 23t77 8q66 0 115.5 -28t76.5 -79t27 -120z" />
    <glyph glyph-name="uni044E" unicode="&#x44e;" horiz-adv-x="801" 
d="M764 316q0 -50 -12 -98t-35.5 -89.5t-57 -73.5t-76 -50t-93.5 -18q-64 0 -109.5 26t-70.5 74.5t-25 113.5v8h-79l-44 -209h-145l110 518h145l-42 -196h74q13 44 36.5 82t56 66.5t73 44.5t88.5 16q64 0 110 -26.5t71 -74.5t25 -114zM551 414q-26 0 -46.5 -14t-35.5 -37.5
t-24.5 -51.5t-14.5 -57t-5 -54q0 -45 17.5 -70.5t50.5 -25.5q26 0 46.5 14t35.5 37t24.5 51t14.5 57t5 54q0 45 -17.5 71t-50.5 26z" />
    <glyph glyph-name="uni044F" unicode="&#x44f;" horiz-adv-x="569" 
d="M303 0l37 175h-60q-24 -28 -49.5 -58.5t-49.5 -60.5t-44 -56h-163q46 56 90.5 107.5t88.5 100.5q-34 18 -53 47t-19 68q0 61 29.5 105t84.5 67t133 23h226l-110 -518h-141zM301 275h60l31 144h-62q-48 0 -77 -20t-29 -66q0 -30 20 -44t57 -14z" />
    <glyph glyph-name="uni0451" unicode="&#x451;" horiz-adv-x="530" 
d="M428 29q-38 -22 -76.5 -32t-87.5 -10q-71 0 -121 25.5t-76.5 74t-26.5 116.5q0 55 15 104.5t43 90t65.5 70.5t83 46.5t96.5 16.5q53 0 92 -17.5t59.5 -49.5t20.5 -75q0 -93 -81.5 -140.5t-255.5 -58.5q5 -46 31.5 -67.5t77.5 -21.5q30 0 57 6t54 19t58 35zM328 425
q-32 0 -61 -19t-50.5 -51.5t-31.5 -74.5q104 6 151 29.5t47 68.5q0 23 -15 35t-40 12zM244 611q-30 0 -48.5 17t-18.5 43q0 21 10.5 39t28.5 29t42 11q31 0 49.5 -17t18.5 -43q0 -22 -10.5 -39.5t-29 -28.5t-42.5 -11zM482 611q-30 0 -48.5 17t-18.5 43q0 21 10.5 39
t28.5 29t42 11q31 0 49.5 -17t18.5 -43q0 -22 -10.5 -39.5t-29 -28.5t-42.5 -11z" />
    <glyph glyph-name="uni0452" unicode="&#x452;" horiz-adv-x="628" 
d="M474 -73q-78 -159 -222 -159q-11 0 -20 1t-16 3l24 114h8q28 0 52 22t46 74q13 30 25.5 66.5t22.5 75.5t16 76.5t6 69.5q0 37 -12 55.5t-37 18.5q-29 0 -60 -30.5t-60 -92.5l-48 -221h-145l119 557h-102l21 98h102l19 90h145l-19 -90h159l-21 -98h-159l-15 -72l-36 -134
q34 55 75.5 83.5t88.5 28.5q43 0 71.5 -22.5t43 -63t14.5 -93.5q0 -40 -6.5 -87t-18.5 -95t-27.5 -93t-33.5 -82z" />
    <glyph glyph-name="uni0453" unicode="&#x453;" horiz-adv-x="488" 
d="M237 102q49 0 96.5 13t90.5 38l-27 -128q-36 -18 -81.5 -28t-94.5 -10q-64 0 -110.5 17t-71.5 49.5t-25 79.5q0 49 22.5 83.5t70 58t123.5 39.5q39 8 61.5 16.5t32.5 19t10 26.5q0 20 -19 30t-60 10q-42 0 -86.5 -13t-78.5 -35l26 123q38 20 81 30t91 10q57 0 98.5 -17.5
t64.5 -49.5t23 -75q0 -50 -22 -84t-70 -56.5t-128 -39.5q-36 -8 -57.5 -16.5t-31 -19.5t-9.5 -29q0 -42 81 -42zM360 762h164q-56 -48 -100.5 -88.5t-79.5 -73.5h-133q38 44 76.5 85t72.5 77z" />
    <glyph glyph-name="uni0455" unicode="&#x455;" horiz-adv-x="467" 
d="M0 33l23 110q66 -48 149 -48q44 0 69.5 15t25.5 42q0 19 -14 31t-50 25q-52 19 -82.5 40t-43.5 47.5t-13 63.5q0 52 28.5 90.5t80 60t119.5 21.5q46 0 88 -11.5t77 -34.5l-23 -109q-30 23 -66 35t-74 12q-44 0 -67.5 -14.5t-23.5 -39.5q0 -13 6.5 -22t21.5 -17t42 -18
q50 -18 79.5 -39t42.5 -48t13 -63q0 -53 -28.5 -92.5t-80 -61t-121.5 -21.5q-107 0 -178 46z" />
    <glyph glyph-name="uni0456" unicode="&#x456;" horiz-adv-x="287" 
d="M222 595q-36 0 -57.5 18.5t-21.5 47.5q0 39 24.5 63t68.5 24q36 0 57.5 -18.5t21.5 -47.5q0 -39 -24.5 -63t-68.5 -24zM127 518h145l-110 -518h-145z" />
    <glyph glyph-name="uni0458" unicode="&#x458;" horiz-adv-x="287" 
d="M222 595q-36 0 -57.5 18.5t-21.5 47.5q0 39 24.5 63t68.5 24q36 0 57.5 -18.5t21.5 -47.5q0 -39 -24.5 -63t-68.5 -24zM272 518l-120 -565q-21 -98 -72.5 -145t-139.5 -47q-27 0 -51.5 4.5t-46.5 15.5l24 112q14 -8 27 -11.5t32 -3.5q66 0 84 84l118 556h145z" />
    <glyph glyph-name="uni0459" unicode="&#x459;" horiz-adv-x="832" 
d="M794 209q0 -49 -18 -90t-51.5 -70.5t-79 -45.5t-100.5 -16t-96 17.5t-64 50.5t-23 78q0 13 1.5 32t5.5 36l46 204h-107q-25 -96 -48.5 -166t-48.5 -118t-53 -76.5t-61 -41t-74 -12.5q-32 0 -54 5l24 115h10q22 0 41 12.5t37 40.5t36.5 75t39.5 116t45 163h379l-43 -192
q23 15 51.5 24t54.5 9q47 0 80.5 -18t51.5 -51.5t18 -80.5zM503 148q0 -27 15.5 -42.5t42.5 -15.5q25 0 45.5 13.5t33 36.5t12.5 52q0 32 -14.5 48t-41.5 16q-43 0 -80 -28l-8 -36q-2 -12 -3.5 -23t-1.5 -21z" />
    <glyph glyph-name="uni045A" unicode="&#x45a;" horiz-adv-x="827" 
d="M789 209q0 -49 -18 -90t-51.5 -70.5t-79 -45.5t-100.5 -16q-54 0 -95.5 17.5t-64.5 50.5t-23 78q0 13 1.5 32t5.5 36l2 8h-160l-44 -209h-145l110 518h145l-42 -196h161l44 196h141l-43 -192q23 15 51.5 24t54.5 9q47 0 80.5 -18t51.5 -51.5t18 -80.5zM498 148
q0 -27 15.5 -42.5t42.5 -15.5q25 0 45.5 13.5t33 36.5t12.5 52q0 32 -14.5 48t-41.5 16q-43 0 -80 -28l-8 -36q-2 -12 -3.5 -23t-1.5 -21z" />
    <glyph glyph-name="uni045B" unicode="&#x45b;" horiz-adv-x="623" 
d="M375 344q-70 0 -128 -123l-48 -221h-145l119 557h-102l21 98h102l19 90h145l-19 -90h159l-21 -98h-159l-15 -72l-36 -134q34 55 77 83.5t95 28.5q39 0 67 -16.5t43.5 -46.5t15.5 -72q0 -14 -1.5 -30t-5.5 -37l-56 -261h-145l55 257q2 10 3 19.5t1 18.5q0 23 -11 36
t-30 13z" />
    <glyph glyph-name="uni045C" unicode="&#x45c;" horiz-adv-x="567" 
d="M237 214h-30l-45 -214h-145l110 518h145l-41 -191h31q44 49 86 97t80 94h166q-59 -66 -117.5 -130t-115.5 -125q38 -67 73 -130.5t71 -132.5h-156q-19 38 -37 72.5l-36 69t-39 72.5zM408 762h164q-56 -48 -100.5 -88.5t-79.5 -73.5h-133q38 44 76.5 85t72.5 77z" />
    <glyph glyph-name="uni045E" unicode="&#x45e;" horiz-adv-x="530" 
d="M229 -85q-33 -54 -67 -88t-73 -50t-87 -16q-28 0 -53 6t-43 17l23 108q26 -16 65 -16q33 0 58 17.5t51 58.5q9 14 18 29.5t17 30.5q-20 122 -38 248t-36 258h150q4 -83 11 -173t15 -183q99 189 180 356h158q-43 -77 -89 -157.5t-91.5 -159.5t-88.5 -152t-80 -134z
M351 682q74 0 91 77h99q-13 -77 -64.5 -118t-134.5 -41q-49 0 -85 16.5t-56 47t-20 71.5q0 5 0.5 12.5t1.5 11.5h97q-1 -4 -1 -8v-6q0 -29 19 -46t53 -17z" />
    <glyph glyph-name="uni045F" unicode="&#x45f;" horiz-adv-x="581" 
d="M336 0q2 26 6 54.5t10 60.5q-34 -62 -79.5 -95t-101.5 -33q-39 0 -67 16.5t-43 46.5t-15 72q0 14 1 30t6 37l70 329h145l-69 -325q-2 -10 -3 -19.5t-1 -18.5q0 -23 10.5 -36t29.5 -13q67 0 124 121l62 291h145l-74 -348q-10 -50 -17 -92t-10 -78h-129zM154 -61h121
l-32 -176h-133z" />
    <glyph glyph-name="uni0490" unicode="&#x490;" horiz-adv-x="553" 
d="M26 0l151 715h319l26 123h138l-54 -254h-306l-123 -584h-151z" />
    <glyph glyph-name="uni0491" unicode="&#x491;" horiz-adv-x="428" 
d="M17 0l110 518h216l22 103h127l-46 -216h-198l-86 -405h-145z" />
    <glyph glyph-name="uni0492" unicode="&#x492;" horiz-adv-x="553" 
d="M408 283h-171l-60 -283h-151l60 283h-77l27 128h77l64 304h457l-28 -131h-306l-36 -173h171z" />
    <glyph glyph-name="uni0493" unicode="&#x493;" horiz-adv-x="428" 
d="M323 186h-122l-39 -186h-145l39 186h-56l24 110h56l47 222h343l-24 -113h-198l-23 -109h122z" />
    <glyph glyph-name="uni0496" unicode="&#x496;" horiz-adv-x="1040" 
d="M984 129l-62 -295h-138l35 166h-49q-22 54 -44 103.5t-44.5 100t-48.5 106.5h-38l-65 -310h-151l65 310h-37q-49 -56 -93.5 -107t-87 -101t-86.5 -102h-186q89 102 174.5 198t174.5 195q-42 81 -83 161t-81 161h161q32 -70 65 -140t68 -138h38l59 278h151l-59 -278h39
q65 71 124.5 139.5t118.5 138.5h179q-79 -89 -157 -175.5t-160 -174.5q29 -60 58 -118.5t57 -117.5h103z" />
    <glyph glyph-name="uni0497" unicode="&#x497;" horiz-adv-x="854" 
d="M799 111l-53 -249h-127l29 138h-34q-26 60 -51 112.5t-50 102.5h-28l-46 -215h-145l46 215h-29q-47 -51 -93.5 -103t-96.5 -112h-167q65 75 128 145.5t130 142.5q-30 55 -62 114.5t-60 115.5h147q23 -48 48 -97t49 -95h29l41 192h145l-41 -192h29q44 46 88.5 96t85.5 96
h164q-38 -41 -78 -84.5t-80 -86t-78 -81.5q20 -40 39.5 -78t38.5 -77h82z" />
    <glyph glyph-name="uni049A" unicode="&#x49a;" horiz-adv-x="736" 
d="M680 129l-62 -295h-138l35 166h-49q-46 79 -91 153t-97 155h-36l-65 -308h-151l151 715h151l-58 -277h38q72 71 138 139t131 138h186q-87 -88 -174 -175t-179 -175q38 -58 75.5 -117t74.5 -119h120z" />
    <glyph glyph-name="uni049B" unicode="&#x49b;" horiz-adv-x="589" 
d="M534 111l-53 -249h-127l29 138h-34q-19 38 -37 72.5l-36 69t-39 72.5h-30l-45 -214h-145l110 518h145l-41 -191h31q44 49 86 97t80 94h166q-59 -66 -117.5 -130t-115.5 -125q23 -39 43.5 -77t41.5 -75h88z" />
    <glyph glyph-name="uni04A2" unicode="&#x4a2;" horiz-adv-x="788" 
d="M732 129l-62 -295h-138l35 166h-103l65 309h-287l-65 -309h-151l151 715h151l-58 -275h287l58 275h151l-124 -586h90z" />
    <glyph glyph-name="uni04A3" unicode="&#x4a3;" horiz-adv-x="622" 
d="M567 111l-53 -249h-127l29 138h-94l44 209h-160l-44 -209h-145l110 518h145l-42 -196h160l42 196h145l-87 -407h77z" />
    <glyph glyph-name="uni04AE" unicode="&#x4ae;" horiz-adv-x="685" 
d="M421 271l-57 -271h-151l57 271q-42 111 -82 221.5t-77 222.5h159q22 -79 46 -157.5t49 -155.5q58 78 114.5 156.5t110.5 156.5h178q-85 -112 -171 -222t-176 -222z" />
    <glyph glyph-name="uni04AF" unicode="&#x4af;" horiz-adv-x="530" 
d="M578 518q-74 -136 -147.5 -264t-148.5 -254l-48 -226h-145l49 228q-21 121 -39.5 250.5t-34.5 265.5h150q5 -92 11.5 -181.5t13.5 -177.5q46 88 91.5 177.5t89.5 181.5h158z" />
    <glyph glyph-name="uni04B0" unicode="&#x4b0;" horiz-adv-x="685" 
d="M88 147l27 124h155q-42 111 -82 221.5t-77 222.5h159q22 -79 46 -157.5t49 -155.5q58 78 114.5 156.5t110.5 156.5h178q-85 -112 -171 -222t-176 -222h156l-27 -124h-155l-31 -147h-151l31 147h-156z" />
    <glyph glyph-name="uni04B1" unicode="&#x4b1;" horiz-adv-x="530" 
d="M382 -55h-111l-37 -171h-145l37 171h-113l23 110h113l1 2q-24 108 -45.5 223.5t-40.5 237.5h150q7 -81 15.5 -160t18.5 -156q44 77 87 156t85 160h158q-71 -122 -141.5 -236t-142.5 -227v0h111z" />
    <glyph glyph-name="uni04BA" unicode="&#x4ba;" horiz-adv-x="691" 
d="M387 378q-39 0 -76 -13t-65 -37l-69 -328h-151l151 715h151l-56 -263q22 17 49.5 30t58 20t60.5 7q94 0 144 -51.5t50 -148.5q0 -19 -2 -39t-7 -43l-48 -227h-151l48 227q4 17 5 31t1 27q0 47 -22.5 70t-70.5 23z" />
    <glyph glyph-name="uni04BB" unicode="&#x4bb;" horiz-adv-x="586" 
d="M352 412q-70 0 -128 -122l-62 -290h-145l159 745h145l-41 -192l-36 -134q34 55 77 83.5t95 28.5q38 0 66.5 -16.5t44 -46.5t15.5 -72q0 -14 -1 -30t-6 -37l-70 -329h-145l69 325q2 10 3 19.5t1 18.5q0 23 -10.5 36t-30.5 13z" />
    <glyph glyph-name="uni04D8" unicode="&#x4d8;" horiz-adv-x="734" 
d="M713 424q0 -77 -18.5 -144t-53.5 -121.5t-83.5 -93t-108 -59.5t-128.5 -21q-85 0 -144.5 30.5t-90.5 88.5t-31 142q0 49 12 112l10 49h479v11q0 86 -49 133.5t-140 47.5q-62 0 -117.5 -15t-107.5 -45l30 141q28 16 64 27t76 17t81 6q73 0 132 -21.5t101 -61.5t64.5 -96.5
t22.5 -126.5zM201 242q0 -65 34 -98.5t98 -33.5q49 0 90 23t71 65t46 99h-334q-5 -31 -5 -55z" />
    <glyph glyph-name="uni04D9" unicode="&#x4d9;" horiz-adv-x="535" 
d="M498 314q0 -55 -15.5 -104t-43.5 -89.5t-66 -70.5t-84.5 -46.5t-97.5 -16.5q-55 0 -94 18t-60 50t-21 74q0 61 35.5 103t111 66t197.5 30q-6 46 -33.5 67.5t-79.5 21.5q-47 0 -87 -11.5t-83 -38.5l26 122q38 21 78 31.5t89 10.5q72 0 123 -26t78 -74.5t27 -116.5z
M148 141q0 -25 15 -36.5t44 -11.5q34 0 63.5 18.5t51 51.5t31.5 76q-108 -6 -156.5 -29.5t-48.5 -68.5z" />
    <glyph glyph-name="uni04E8" unicode="&#x4e8;" horiz-adv-x="773" 
d="M365 -15q-69 0 -125 21t-95 60.5t-60 94.5t-21 123q0 67 16.5 131.5t48.5 121.5t79 100.5t108 68t135 24.5q69 0 125 -21t95 -60.5t60 -94.5t21 -123q0 -67 -16.5 -131.5t-48.5 -121.5t-79 -100.5t-108 -68t-135 -24.5zM445 599q-51 0 -90 -22.5t-66 -60t-43 -82.5h349
q-2 78 -41 121.5t-109 43.5zM221 290q0 -82 39 -128t111 -46q42 0 76 15.5t59.5 42.5t43.5 62t29 73h-358v-19z" />
    <glyph glyph-name="uni04E9" unicode="&#x4e9;" horiz-adv-x="571" 
d="M256 -13q-67 0 -115.5 26.5t-74.5 75.5t-26 117q0 49 12 96.5t36 89t57.5 73t77 49t95.5 17.5q67 0 115.5 -26.5t74.5 -75.5t26 -117q0 -50 -12 -97t-36 -88.5t-57.5 -73t-77 -49t-95.5 -17.5zM316 417q-28 0 -50 -14.5t-38 -38.5t-26 -52h190v4q0 49 -19.5 75t-56.5 26z
M182 202q0 -48 19 -74.5t57 -26.5q30 0 53.5 16.5t39.5 43.5t26 58h-194q-1 -9 -1 -17z" />
    <glyph glyph-name="uni1E24" unicode="&#x1e24;" horiz-adv-x="741" 
d="M460 0l65 309h-287l-65 -309h-151l151 715h151l-58 -275h287l58 275h151l-151 -715h-151zM295 -214q-32 0 -52 18t-20 46q0 23 11 42.5t30.5 31t45.5 11.5q33 0 52.5 -18t19.5 -46q0 -23 -10.5 -42.5t-30 -31t-46.5 -11.5z" />
    <glyph glyph-name="uni1E25" unicode="&#x1e25;" horiz-adv-x="578" 
d="M348 412q-70 0 -128 -122l-62 -290h-145l159 745h145l-41 -192l-36 -134q34 55 77 83.5t95 28.5q38 0 66.5 -16.5t44 -46.5t15.5 -72q0 -14 -1 -30t-6 -37l-70 -329h-145l69 325q2 10 3 19.5t1 18.5q0 23 -10.5 36t-30.5 13zM215 -212q-32 0 -51.5 18t-19.5 45
q0 23 11 42t30.5 30.5t44.5 11.5q32 0 51.5 -18t19.5 -45q0 -23 -10.5 -42t-30 -30.5t-45.5 -11.5z" />
    <glyph glyph-name="uni1E36" unicode="&#x1e36;" horiz-adv-x="561" 
d="M173 715h151l-124 -584h319l-28 -131h-469zM244 -214q-32 0 -52 18t-20 46q0 23 11 42.5t30.5 31t45.5 11.5q33 0 52.5 -18t19.5 -46q0 -23 -10.5 -42.5t-30 -31t-46.5 -11.5z" />
    <glyph glyph-name="uni1E37" unicode="&#x1e37;" horiz-adv-x="329" 
d="M189 155q-3 -13 -3 -23q0 -27 32 -27q30 0 57 18l-25 -116q-38 -16 -83 -16q-129 0 -129 109q0 24 6 54l126 591h145zM121 -212q-32 0 -51.5 18t-19.5 45q0 23 11 42t30.5 30.5t44.5 11.5q32 0 51.5 -18t19.5 -45q0 -23 -10.5 -42t-30 -30.5t-45.5 -11.5z" />
    <glyph glyph-name="Wgrave" unicode="&#x1e80;" horiz-adv-x="942" 
d="M538 0q-5 119 -9.5 239t-6.5 240q-55 -120 -111.5 -239.5t-114.5 -239.5h-158q-10 175 -16.5 354t-8.5 361h162q-5 -135 -8 -270.5t-4 -266.5q59 127 116.5 253.5t112.5 253.5h146q1 -126 3 -250t5 -248q54 129 108 262t105 266h164q-79 -182 -162 -361t-165 -354h-158z
M396 915h159q31 -30 62.5 -63t61.5 -66h-133q-31 28 -69 61t-81 68z" />
    <glyph glyph-name="wgrave" unicode="&#x1e81;" horiz-adv-x="754" 
d="M410 0q-5 83 -8 166.5t-6 167.5q-39 -83 -80 -167t-82 -167h-145q-8 128 -14 258t-10 260h149q-5 -95 -7.5 -188t-3.5 -185q41 88 80.5 175.5t78.5 177.5h135q1 -86 3 -171.5t5 -170.5q37 91 72.5 180t71.5 182h152q-59 -130 -120.5 -260t-125.5 -258h-145zM287 762h148
q23 -38 47 -78t48 -84h-117q-48 66 -126 162z" />
    <glyph glyph-name="Wacute" unicode="&#x1e82;" horiz-adv-x="942" 
d="M538 0q-5 119 -9.5 239t-6.5 240q-55 -120 -111.5 -239.5t-114.5 -239.5h-158q-10 175 -16.5 354t-8.5 361h162q-5 -135 -8 -270.5t-4 -266.5q59 127 116.5 253.5t112.5 253.5h146q1 -126 3 -250t5 -248q54 129 108 262t105 266h164q-79 -182 -162 -361t-165 -354h-158z
M636 915h175q-53 -35 -101 -68t-87 -61h-149q39 33 81.5 66.5t80.5 62.5z" />
    <glyph glyph-name="wacute" unicode="&#x1e83;" horiz-adv-x="754" 
d="M410 0q-5 83 -8 166.5t-6 167.5q-39 -83 -80 -167t-82 -167h-145q-8 128 -14 258t-10 260h149q-5 -95 -7.5 -188t-3.5 -185q41 88 80.5 175.5t78.5 177.5h135q1 -86 3 -171.5t5 -170.5q37 91 72.5 180t71.5 182h152q-59 -130 -120.5 -260t-125.5 -258h-145zM494 762h164
q-56 -48 -100.5 -88.5t-79.5 -73.5h-133q38 44 76.5 85t72.5 77z" />
    <glyph glyph-name="Wdieresis" unicode="&#x1e84;" horiz-adv-x="942" 
d="M538 0q-5 119 -9.5 239t-6.5 240q-55 -120 -111.5 -239.5t-114.5 -239.5h-158q-10 175 -16.5 354t-8.5 361h162q-5 -135 -8 -270.5t-4 -266.5q59 127 116.5 253.5t112.5 253.5h146q1 -126 3 -250t5 -248q54 129 108 262t105 266h164q-79 -182 -162 -361t-165 -354h-158z
M458 789q-31 0 -49.5 17.5t-18.5 42.5q0 22 10.5 40t28.5 29t43 11q31 0 49.5 -17.5t18.5 -42.5q0 -22 -10.5 -40t-28.5 -29t-43 -11zM712 789q-31 0 -49.5 17.5t-18.5 42.5q0 22 10.5 40t28.5 29t43 11q31 0 49.5 -17.5t18.5 -42.5q0 -22 -10.5 -40t-28.5 -29t-43 -11z" />
    <glyph glyph-name="wdieresis" unicode="&#x1e85;" horiz-adv-x="754" 
d="M410 0q-5 83 -8 166.5t-6 167.5q-39 -83 -80 -167t-82 -167h-145q-8 128 -14 258t-10 260h149q-5 -95 -7.5 -188t-3.5 -185q41 88 80.5 175.5t78.5 177.5h135q1 -86 3 -171.5t5 -170.5q37 91 72.5 180t71.5 182h152q-59 -130 -120.5 -260t-125.5 -258h-145zM328 611
q-30 0 -48.5 17t-18.5 43q0 21 10.5 39t28.5 29t42 11q31 0 49.5 -17t18.5 -43q0 -22 -10.5 -39.5t-29 -28.5t-42.5 -11zM566 611q-30 0 -48.5 17t-18.5 43q0 21 10.5 39t28.5 29t42 11q31 0 49.5 -17t18.5 -43q0 -22 -10.5 -39.5t-29 -28.5t-42.5 -11z" />
    <glyph glyph-name="uni1E9E" unicode="&#x1e9e;" horiz-adv-x="749" 
d="M701 231q0 -53 -22 -97.5t-62 -78t-93 -52t-116 -18.5q-56 0 -93.5 9t-70.5 31l26 123q20 -14 39 -23t42 -12.5t54 -3.5q41 0 73.5 15.5t51 41.5t18.5 59q0 41 -32.5 61t-107.5 27l-25 2l22 103l182 163q-53 21 -114 21q-87 0 -141 -41t-70 -121l-93 -440h-151l95 450
q29 137 123 208.5t245 71.5q69 0 135 -18t124 -53l-23 -110l-173 -156q157 -27 157 -162z" />
    <glyph glyph-name="Ygrave" unicode="&#x1ef2;" horiz-adv-x="685" 
d="M421 271l-57 -271h-151l57 271q-42 111 -82 221.5t-77 222.5h159q22 -79 46 -157.5t49 -155.5q58 78 114.5 156.5t110.5 156.5h178q-85 -112 -171 -222t-176 -222zM260 915h159q31 -30 62.5 -63t61.5 -66h-133q-31 28 -69 61t-81 68z" />
    <glyph glyph-name="ygrave" unicode="&#x1ef3;" horiz-adv-x="530" 
d="M229 -85q-33 -54 -67 -88t-73 -50t-87 -16q-28 0 -53 6t-43 17l23 108q26 -16 65 -16q33 0 58 17.5t51 58.5q9 14 18 29.5t17 30.5q-20 122 -38 248t-36 258h150q4 -83 11 -173t15 -183q99 189 180 356h158q-43 -77 -89 -157.5t-91.5 -159.5t-88.5 -152t-80 -134z
M178 762h148q23 -38 47 -78t48 -84h-117q-48 66 -126 162z" />
    <glyph glyph-name="uni2000" unicode="&#x2000;" horiz-adv-x="500" 
 />
    <glyph glyph-name="uni2001" unicode="&#x2001;" horiz-adv-x="1000" 
 />
    <glyph glyph-name="uni2002" unicode="&#x2002;" horiz-adv-x="500" 
 />
    <glyph glyph-name="uni2003" unicode="&#x2003;" horiz-adv-x="1000" 
 />
    <glyph glyph-name="uni2004" unicode="&#x2004;" horiz-adv-x="333" 
 />
    <glyph glyph-name="uni2005" unicode="&#x2005;" horiz-adv-x="250" 
 />
    <glyph glyph-name="uni2006" unicode="&#x2006;" horiz-adv-x="167" 
 />
    <glyph glyph-name="uni2007" unicode="&#x2007;" horiz-adv-x="596" 
 />
    <glyph glyph-name="uni2008" unicode="&#x2008;" horiz-adv-x="276" 
 />
    <glyph glyph-name="uni2009" unicode="&#x2009;" horiz-adv-x="200" 
 />
    <glyph glyph-name="uni200A" unicode="&#x200a;" horiz-adv-x="150" 
 />
    <glyph glyph-name="uni200B" unicode="&#x200b;" 
 />
    <glyph glyph-name="endash" unicode="&#x2013;" horiz-adv-x="500" 
d="M-8 218l25 119h500l-25 -119h-500z" />
    <glyph glyph-name="emdash" unicode="&#x2014;" horiz-adv-x="1000" 
d="M-8 218l25 119h1000l-25 -119h-1000z" />
    <glyph glyph-name="quoteleft" unicode="&#x2018;" horiz-adv-x="276" 
d="M276 516q0 -26 -11.5 -45.5t-31 -30.5t-45.5 -11q-38 0 -57.5 20t-19.5 57q0 33 15.5 71t42.5 74t61 64h117q-86 -66 -117 -138q21 -6 33.5 -22t12.5 -39z" />
    <glyph glyph-name="quoteright" unicode="&#x2019;" horiz-adv-x="276" 
d="M302 645q0 -33 -15.5 -71t-42 -74t-61.5 -64h-117q86 66 117 138q-21 6 -33.5 22t-12.5 39q0 25 11.5 45t31.5 31t45 11q38 0 57.5 -20t19.5 -57z" />
    <glyph glyph-name="quotesinglbase" unicode="&#x201a;" horiz-adv-x="276" 
d="M184 74q0 -33 -15.5 -71t-42 -74t-61.5 -64h-117q86 66 117 138q-21 6 -33.5 22t-12.5 39q0 25 11.5 45t31.5 31t45 11q38 0 57.5 -20t19.5 -57z" />
    <glyph glyph-name="quotedblleft" unicode="&#x201c;" horiz-adv-x="498" 
d="M276 516q0 -26 -11.5 -45.5t-31 -30.5t-45.5 -11q-38 0 -57.5 20t-19.5 57q0 33 15.5 71t42.5 74t61 64h117q-86 -66 -117 -138q21 -6 33.5 -22t12.5 -39zM498 516q0 -26 -11.5 -45.5t-31 -30.5t-45.5 -11q-38 0 -57.5 20t-19.5 57q0 33 15.5 71t42.5 74t61 64h117
q-86 -66 -117 -138q21 -6 33.5 -22t12.5 -39z" />
    <glyph glyph-name="quotedblright" unicode="&#x201d;" horiz-adv-x="498" 
d="M302 645q0 -33 -15.5 -71t-42 -74t-61.5 -64h-117q86 66 117 138q-21 6 -33.5 22t-12.5 39q0 25 11.5 45t31.5 31t45 11q38 0 57.5 -20t19.5 -57zM524 645q0 -33 -15.5 -71t-42 -74t-61.5 -64h-117q86 66 117 138q-21 6 -33.5 22t-12.5 39q0 25 11.5 45t31.5 31t45 11
q38 0 57.5 -20t19.5 -57z" />
    <glyph glyph-name="quotedblbase" unicode="&#x201e;" horiz-adv-x="498" 
d="M184 74q0 -33 -15.5 -71t-42 -74t-61.5 -64h-117q86 66 117 138q-21 6 -33.5 22t-12.5 39q0 25 11.5 45t31.5 31t45 11q38 0 57.5 -20t19.5 -57zM406 74q0 -33 -15.5 -71t-42 -74t-61.5 -64h-117q86 66 117 138q-21 6 -33.5 22t-12.5 39q0 25 11.5 45t31.5 31t45 11
q38 0 57.5 -20t19.5 -57z" />
    <glyph glyph-name="dagger" unicode="&#x2020;" horiz-adv-x="482" 
d="M92 -100l122 525l-156 -5l25 119l154 -5l34 211h147l-56 -211l157 5l-25 -119l-155 5l-100 -525h-147z" />
    <glyph glyph-name="daggerdbl" unicode="&#x2021;" horiz-adv-x="482" 
d="M328 322l-35 -114l157 5l-25 -119l-155 5l-31 -199h-147l53 199l-156 -5l25 119l154 -5l13 114l36 115l-156 -5l25 119l154 -5l31 199h147l-53 -199l157 5l-25 -119l-155 5z" />
    <glyph glyph-name="bullet" unicode="&#x2022;" horiz-adv-x="384" 
d="M197 132q-41 0 -74.5 19t-52.5 52t-19 75q0 41 19 74t52.5 52t74.5 19t74.5 -19t52.5 -52t19 -74q0 -42 -19 -75t-52.5 -52t-74.5 -19z" />
    <glyph glyph-name="ellipsis" unicode="&#x2026;" horiz-adv-x="1000" 
d="M120 -9q-37 0 -59.5 20.5t-22.5 52.5q0 26 12.5 48t35 35t51.5 13q37 0 59.5 -21t22.5 -52q0 -26 -12.5 -48t-34.5 -35t-52 -13zM454 -9q-37 0 -59.5 20.5t-22.5 52.5q0 26 12.5 48t35 35t51.5 13q37 0 59.5 -21t22.5 -52q0 -26 -12.5 -48t-34.5 -35t-52 -13zM788 -9
q-37 0 -59.5 20.5t-22.5 52.5q0 26 12.5 48t35 35t51.5 13q37 0 59.5 -21t22.5 -52q0 -26 -12.5 -48t-34.5 -35t-52 -13z" />
    <glyph glyph-name="perthousand" unicode="&#x2030;" horiz-adv-x="1368" 
d="M199 0l491 699h116l-491 -699h-116zM719 -10q-71 0 -110.5 41t-39.5 114q0 36 7.5 73t23 70.5t39.5 60.5t57 42.5t75 15.5q71 0 110.5 -41t39.5 -114q0 -36 -7.5 -73t-23 -70.5t-39.5 -60.5t-57 -42.5t-75 -15.5zM768 322q-20 0 -36 -12t-27.5 -31.5t-18.5 -43
t-10.5 -47.5t-3.5 -45q0 -33 12.5 -50.5t37.5 -17.5q20 0 36 12t27.5 31.5t18.5 43t10.5 47.5t3.5 45q0 33 -12.5 50.5t-37.5 17.5zM1123 -10q-71 0 -110.5 41t-39.5 114q0 36 7.5 73t23 70.5t39.5 60.5t57 42.5t75 15.5q71 0 110.5 -41t39.5 -114q0 -36 -7.5 -73t-23 -70.5
t-39.5 -60.5t-57 -42.5t-75 -15.5zM1172 322q-20 0 -36 -12t-27.5 -31.5t-18.5 -43t-10.5 -47.5t-3.5 -45q0 -33 12.5 -50.5t37.5 -17.5q20 0 36 12t27.5 31.5t18.5 43t10.5 47.5t3.5 45q0 33 -12.5 50.5t-37.5 17.5zM233 292q-71 0 -110.5 41t-39.5 114q0 36 7.5 73
t23 70.5t39.5 60.5t57 42.5t75 15.5q71 0 110.5 -41t39.5 -114q0 -36 -7.5 -73t-23 -70.5t-39.5 -60.5t-57 -42.5t-75 -15.5zM282 624q-20 0 -36 -12t-27.5 -31.5t-18.5 -43t-10.5 -47.5t-3.5 -45q0 -33 12.5 -50.5t37.5 -17.5q20 0 36 12t27.5 31.5t18.5 43t10.5 47.5
t3.5 45q0 33 -12.5 50.5t-37.5 17.5z" />
    <glyph glyph-name="minute" unicode="&#x2032;" horiz-adv-x="328" 
d="M198 438h-116l150 277h150z" />
    <glyph glyph-name="second" unicode="&#x2033;" horiz-adv-x="545" 
d="M198 438h-116l150 277h150zM415 438h-116l150 277h150z" />
    <glyph glyph-name="guilsinglleft" unicode="&#x2039;" horiz-adv-x="369" 
d="M371 472l-181 -220l92 -200h-137l-103 210l177 210h152z" />
    <glyph glyph-name="guilsinglright" unicode="&#x203a;" horiz-adv-x="369" 
d="M331 262l-177 -210h-152l181 220l-92 200h137z" />
    <glyph glyph-name="fraction" unicode="&#x2044;" horiz-adv-x="136" 
d="M-215 0l491 699h116l-491 -699h-116z" />
    <glyph glyph-name="Euro" unicode="&#x20ac;" horiz-adv-x="596" 
d="M514 20q-34 -16 -71 -24.5t-82 -8.5q-75 0 -131 28.5t-89 82t-39 128.5h-84l18 86h66q3 39 12 76h-62l18 86h72q22 51 54.5 94.5t76 75.5t97 50t116.5 18q48 0 85.5 -11t69.5 -36l-25 -117q-27 22 -57.5 32t-74.5 10t-79 -15t-62 -41t-47 -60h241l-18 -86h-258
q-10 -37 -13 -76h196l-18 -86h-176q9 -57 43.5 -87t92.5 -30q48 0 84 11t72 34z" />
    <glyph glyph-name="uni20BA" unicode="&#x20ba;" horiz-adv-x="596" 
d="M576 314q-28 -154 -124 -234t-255 -80h-165l45 209l-77 -34l22 103l77 34l16 78l-77 -35l22 103l77 34l44 207h144l-29 -135l177 79l-22 -103l-177 -79l-16 -77l177 79l-22 -103l-177 -79l-34 -158h23q85 0 138 48.5t69 142.5h144z" />
    <glyph glyph-name="uni20BD" unicode="&#x20bd;" horiz-adv-x="596" 
d="M365 108h-160l-23 -108h-144l23 108h-70l18 86h70l17 76h-71l20 92h70l72 337h204q71 0 122 -22.5t79 -64.5t28 -100q0 -75 -34.5 -129.5t-98.5 -83.5t-153 -29h-94l-17 -76h160zM307 586l-48 -224h71q68 0 105.5 35.5t37.5 100.5q0 42 -26 65t-70 23h-70z" />
    <glyph glyph-name="trademark" unicode="&#x2122;" horiz-adv-x="951" 
d="M110 715h365v-92h-128v-317h-109v317h-128v92zM719 379q-23 50 -45.5 100t-44.5 101v-274h-103v409h136q24 -60 48.5 -117t50.5 -115q25 57 49.5 114.5t48.5 117.5h132v-409h-103v274q-44 -102 -90 -201h-79z" />
    <glyph glyph-name="uni2150" unicode="&#x2150;" horiz-adv-x="964" 
d="M179 0l491 699h116l-491 -699h-116zM918 319q-48 -77 -99 -155t-109 -164h-115q56 80 108 156t102 152h-190l19 89h301zM370 699l-84 -397h-103l61 289q-28 -13 -55 -25.5t-51 -24.5l20 98q28 13 61 28t70 32h81z" />
    <glyph glyph-name="uni2151" unicode="&#x2151;" horiz-adv-x="964" 
d="M179 0l491 699h116l-491 -699h-116zM919 259q0 -59 -19 -108.5t-54 -85.5t-82.5 -55.5t-105.5 -19.5q-30 0 -53 5.5t-45 17.5l17 80q21 -11 39.5 -15.5t44.5 -4.5q53 0 92 28t55 82q-43 -41 -97 -41q-36 0 -63 14t-42 38.5t-15 57.5t13.5 61t37 49t56 33t69.5 12
q71 0 111.5 -39t40.5 -109zM691 261q0 -23 14.5 -34.5t40.5 -11.5q41 0 72 25q1 11 1 23q0 31 -15.5 49t-42.5 18q-21 0 -36.5 -9t-24.5 -25t-9 -35zM370 699l-84 -397h-103l61 289q-28 -13 -55 -25.5t-51 -24.5l20 98q28 13 61 28t70 32h81z" />
    <glyph glyph-name="onethird" unicode="&#x2153;" horiz-adv-x="964" 
d="M179 0l491 699h116l-491 -699h-116zM884 120q0 -39 -24.5 -68.5t-69 -45.5t-104.5 -16q-40 0 -72 7t-60 24l17 81q25 -16 52 -22.5t63 -6.5q44 0 69 14t25 39q0 17 -18 26t-52 9h-62l17 80h58q89 0 89 48q0 35 -71 35q-31 0 -62 -8t-59 -25l19 90q30 13 60.5 19.5
t62.5 6.5q72 0 112 -26.5t40 -73.5q0 -39 -24.5 -68t-65.5 -42q60 -19 60 -77zM370 699l-84 -397h-103l61 289q-28 -13 -55 -25.5t-51 -24.5l20 98q28 13 61 28t70 32h81z" />
    <glyph glyph-name="twothirds" unicode="&#x2154;" horiz-adv-x="964" 
d="M209 0l491 699h116l-491 -699h-116zM884 120q0 -39 -24.5 -68.5t-69 -45.5t-104.5 -16q-40 0 -72 7t-60 24l17 81q25 -16 52 -22.5t63 -6.5q44 0 69 14t25 39q0 17 -18 26t-52 9h-62l17 80h58q89 0 89 48q0 35 -71 35q-31 0 -62 -8t-59 -25l19 90q30 13 60.5 19.5
t62.5 6.5q72 0 112 -26.5t40 -73.5q0 -39 -24.5 -68t-65.5 -42q60 -19 60 -77zM393 390l-19 -88h-312l5 24q13 62 49 105t102 73q32 15 52 25.5t30.5 19t14.5 17t4 19.5q0 37 -64 37q-36 0 -64.5 -10t-59.5 -32l21 99q51 30 126 30q45 0 78 -13.5t51 -37.5t18 -57
q0 -27 -7 -48t-23.5 -38.5t-44 -34t-68.5 -34.5q-34 -15 -55 -28t-34 -28h200z" />
    <glyph glyph-name="uni2155" unicode="&#x2155;" horiz-adv-x="964" 
d="M179 0l491 699h116l-491 -699h-116zM893 141q0 -47 -25 -80.5t-71.5 -52t-110.5 -18.5q-38 0 -69.5 6.5t-59.5 21.5l17 79q25 -13 49.5 -19t59.5 -6q51 0 78.5 16t27.5 44q0 21 -22 30.5t-64 9.5q-29 0 -50.5 -2t-46.5 -9l70 236h253l-18 -87h-173l-19 -66q19 3 34 3
q66 0 103 -28t37 -78zM370 699l-84 -397h-103l61 289q-28 -13 -55 -25.5t-51 -24.5l20 98q28 13 61 28t70 32h81z" />
    <glyph glyph-name="uni2156" unicode="&#x2156;" horiz-adv-x="964" 
d="M219 0l491 699h116l-491 -699h-116zM893 141q0 -47 -25 -80.5t-71.5 -52t-110.5 -18.5q-38 0 -69.5 6.5t-59.5 21.5l17 79q25 -13 49.5 -19t59.5 -6q51 0 78.5 16t27.5 44q0 21 -22 30.5t-64 9.5q-29 0 -50.5 -2t-46.5 -9l70 236h253l-18 -87h-173l-19 -66q19 3 34 3
q66 0 103 -28t37 -78zM393 390l-19 -88h-312l5 24q13 62 49 105t102 73q32 15 52 25.5t30.5 19t14.5 17t4 19.5q0 37 -64 37q-36 0 -64.5 -10t-59.5 -32l21 99q51 30 126 30q45 0 78 -13.5t51 -37.5t18 -57q0 -27 -7 -48t-23.5 -38.5t-44 -34t-68.5 -34.5q-34 -15 -55 -28
t-34 -28h200z" />
    <glyph glyph-name="uni2157" unicode="&#x2157;" horiz-adv-x="964" 
d="M209 0l491 699h116l-491 -699h-116zM893 141q0 -47 -25 -80.5t-71.5 -52t-110.5 -18.5q-38 0 -69.5 6.5t-59.5 21.5l17 79q25 -13 49.5 -19t59.5 -6q51 0 78.5 16t27.5 44q0 21 -22 30.5t-64 9.5q-29 0 -50.5 -2t-46.5 -9l70 236h253l-18 -87h-173l-19 -66q19 3 34 3
q66 0 103 -28t37 -78zM398 422q0 -39 -24.5 -68.5t-69 -45.5t-104.5 -16q-40 0 -72 7t-60 24l17 81q25 -16 52 -22.5t63 -6.5q44 0 69 14t25 39q0 17 -18 26t-52 9h-62l17 80h58q89 0 89 48q0 35 -71 35q-31 0 -62 -8t-59 -25l19 90q30 13 60.5 19.5t62.5 6.5
q72 0 112 -26.5t40 -73.5q0 -39 -24.5 -68t-65.5 -42q60 -19 60 -77z" />
    <glyph glyph-name="uni2158" unicode="&#x2158;" horiz-adv-x="964" 
d="M214 0l491 699h116l-491 -699h-116zM893 141q0 -47 -25 -80.5t-71.5 -52t-110.5 -18.5q-38 0 -69.5 6.5t-59.5 21.5l17 79q25 -13 49.5 -19t59.5 -6q51 0 78.5 16t27.5 44q0 21 -22 30.5t-64 9.5q-29 0 -50.5 -2t-46.5 -9l70 236h253l-18 -87h-173l-19 -66q19 3 34 3
q66 0 103 -28t37 -78zM77 451q61 62 121 122.5t128 125.5h104l-53 -249h46l-16 -77h-46l-15 -71h-96l15 71h-205zM281 450l28 134q-34 -34 -67 -67.5t-66 -66.5h105z" />
    <glyph glyph-name="uni2159" unicode="&#x2159;" horiz-adv-x="964" 
d="M189 0l491 699h116l-491 -699h-116zM903 145q0 -33 -13.5 -61t-37.5 -49t-56 -33t-70 -12q-72 0 -112 39t-40 109q0 62 20.5 112t57 85t84 53.5t102.5 18.5q29 0 51.5 -5.5t44.5 -17.5l-17 -80q-20 11 -38.5 15.5t-44.5 4.5q-55 0 -94 -28t-55 -82q22 20 46 30.5t52 10.5
q36 0 63 -13.5t42 -38.5t15 -58zM674 134q0 -32 15.5 -49.5t42.5 -17.5q20 0 36.5 9t25.5 24.5t9 35.5q0 22 -14.5 34t-40.5 12q-40 0 -73 -26q-1 -10 -1 -22zM370 699l-84 -397h-103l61 289q-28 -13 -55 -25.5t-51 -24.5l20 98q28 13 61 28t70 32h81z" />
    <glyph glyph-name="uni215A" unicode="&#x215a;" horiz-adv-x="964" 
d="M209 0l491 699h116l-491 -699h-116zM903 145q0 -33 -13.5 -61t-37.5 -49t-56 -33t-70 -12q-72 0 -112 39t-40 109q0 62 20.5 112t57 85t84 53.5t102.5 18.5q29 0 51.5 -5.5t44.5 -17.5l-17 -80q-20 11 -38.5 15.5t-44.5 4.5q-55 0 -94 -28t-55 -82q22 20 46 30.5t52 10.5
q36 0 63 -13.5t42 -38.5t15 -58zM674 134q0 -32 15.5 -49.5t42.5 -17.5q20 0 36.5 9t25.5 24.5t9 35.5q0 22 -14.5 34t-40.5 12q-40 0 -73 -26q-1 -10 -1 -22zM407 443q0 -47 -25 -80.5t-71.5 -52t-110.5 -18.5q-38 0 -69.5 6.5t-59.5 21.5l17 79q25 -13 49.5 -19t59.5 -6
q51 0 78.5 16t27.5 44q0 21 -22 30.5t-64 9.5q-29 0 -50.5 -2t-46.5 -9l70 236h253l-18 -87h-173l-19 -66q19 3 34 3q66 0 103 -28t37 -78z" />
    <glyph glyph-name="oneeighth" unicode="&#x215b;" horiz-adv-x="964" 
d="M179 0l491 699h116l-491 -699h-116zM899 121q0 -39 -23 -68.5t-64.5 -46t-95.5 -16.5q-49 0 -84 13t-54.5 37.5t-19.5 57.5q0 40 26.5 69t71.5 41q-42 26 -42 73q0 37 22 65.5t61 44.5t91 16q44 0 76.5 -13t50.5 -36.5t18 -55.5q0 -36 -22.5 -62t-61.5 -37q50 -30 50 -82
zM762 237l18 -4q24 5 40 19t16 37q0 18 -14.5 29.5t-39.5 11.5q-32 0 -50.5 -14t-18.5 -36q0 -31 49 -43zM662 113q0 -21 16.5 -33.5t44.5 -12.5q35 0 55.5 15t20.5 43q0 16 -12 27.5t-37 17.5l-22 6q-30 -5 -48 -22t-18 -41zM370 699l-84 -397h-103l61 289
q-28 -13 -55 -25.5t-51 -24.5l20 98q28 13 61 28t70 32h81z" />
    <glyph glyph-name="threeeighths" unicode="&#x215c;" horiz-adv-x="964" 
d="M204 0l491 699h116l-491 -699h-116zM899 121q0 -39 -23 -68.5t-64.5 -46t-95.5 -16.5q-49 0 -84 13t-54.5 37.5t-19.5 57.5q0 40 26.5 69t71.5 41q-42 26 -42 73q0 37 22 65.5t61 44.5t91 16q44 0 76.5 -13t50.5 -36.5t18 -55.5q0 -36 -22.5 -62t-61.5 -37q50 -30 50 -82
zM762 237l18 -4q24 5 40 19t16 37q0 18 -14.5 29.5t-39.5 11.5q-32 0 -50.5 -14t-18.5 -36q0 -31 49 -43zM662 113q0 -21 16.5 -33.5t44.5 -12.5q35 0 55.5 15t20.5 43q0 16 -12 27.5t-37 17.5l-22 6q-30 -5 -48 -22t-18 -41zM398 422q0 -39 -24.5 -68.5t-69 -45.5
t-104.5 -16q-40 0 -72 7t-60 24l17 81q25 -16 52 -22.5t63 -6.5q44 0 69 14t25 39q0 17 -18 26t-52 9h-62l17 80h58q89 0 89 48q0 35 -71 35q-31 0 -62 -8t-59 -25l19 90q30 13 60.5 19.5t62.5 6.5q72 0 112 -26.5t40 -73.5q0 -39 -24.5 -68t-65.5 -42q60 -19 60 -77z" />
    <glyph glyph-name="fiveeighths" unicode="&#x215d;" horiz-adv-x="964" 
d="M204 0l491 699h116l-491 -699h-116zM899 121q0 -39 -23 -68.5t-64.5 -46t-95.5 -16.5q-49 0 -84 13t-54.5 37.5t-19.5 57.5q0 40 26.5 69t71.5 41q-42 26 -42 73q0 37 22 65.5t61 44.5t91 16q44 0 76.5 -13t50.5 -36.5t18 -55.5q0 -36 -22.5 -62t-61.5 -37q50 -30 50 -82
zM762 237l18 -4q24 5 40 19t16 37q0 18 -14.5 29.5t-39.5 11.5q-32 0 -50.5 -14t-18.5 -36q0 -31 49 -43zM662 113q0 -21 16.5 -33.5t44.5 -12.5q35 0 55.5 15t20.5 43q0 16 -12 27.5t-37 17.5l-22 6q-30 -5 -48 -22t-18 -41zM407 443q0 -47 -25 -80.5t-71.5 -52
t-110.5 -18.5q-38 0 -69.5 6.5t-59.5 21.5l17 79q25 -13 49.5 -19t59.5 -6q51 0 78.5 16t27.5 44q0 21 -22 30.5t-64 9.5q-29 0 -50.5 -2t-46.5 -9l70 236h253l-18 -87h-173l-19 -66q19 3 34 3q66 0 103 -28t37 -78z" />
    <glyph glyph-name="seveneighths" unicode="&#x215e;" horiz-adv-x="964" 
d="M179 0l491 699h116l-491 -699h-116zM899 121q0 -39 -23 -68.5t-64.5 -46t-95.5 -16.5q-49 0 -84 13t-54.5 37.5t-19.5 57.5q0 40 26.5 69t71.5 41q-42 26 -42 73q0 37 22 65.5t61 44.5t91 16q44 0 76.5 -13t50.5 -36.5t18 -55.5q0 -36 -22.5 -62t-61.5 -37q50 -30 50 -82
zM762 237l18 -4q24 5 40 19t16 37q0 18 -14.5 29.5t-39.5 11.5q-32 0 -50.5 -14t-18.5 -36q0 -31 49 -43zM662 113q0 -21 16.5 -33.5t44.5 -12.5q35 0 55.5 15t20.5 43q0 16 -12 27.5t-37 17.5l-22 6q-30 -5 -48 -22t-18 -41zM432 621q-48 -77 -99 -155t-109 -164h-115
q56 80 108 156t102 152h-190l19 89h301z" />
    <glyph glyph-name="minus" unicode="&#x2212;" horiz-adv-x="596" 
d="M550 291h-463v118h463v-118z" />
    <glyph glyph-name="uniF507" unicode="&#xf507;" horiz-adv-x="964" 
d="M204 0l491 699h116l-491 -699h-116zM918 319q-48 -77 -99 -155t-109 -164h-115q56 80 108 156t102 152h-190l19 89h301zM393 390l-19 -88h-312l5 24q13 62 49 105t102 73q32 15 52 25.5t30.5 19t14.5 17t4 19.5q0 37 -64 37q-36 0 -64.5 -10t-59.5 -32l21 99
q51 30 126 30q45 0 78 -13.5t51 -37.5t18 -57q0 -27 -7 -48t-23.5 -38.5t-44 -34t-68.5 -34.5q-34 -15 -55 -28t-34 -28h200z" />
    <glyph glyph-name="uniF508" unicode="&#xf508;" horiz-adv-x="964" 
d="M189 0l491 699h116l-491 -699h-116zM918 319q-48 -77 -99 -155t-109 -164h-115q56 80 108 156t102 152h-190l19 89h301zM398 422q0 -39 -24.5 -68.5t-69 -45.5t-104.5 -16q-40 0 -72 7t-60 24l17 81q25 -16 52 -22.5t63 -6.5q44 0 69 14t25 39q0 17 -18 26t-52 9h-62
l17 80h58q89 0 89 48q0 35 -71 35q-31 0 -62 -8t-59 -25l19 90q30 13 60.5 19.5t62.5 6.5q72 0 112 -26.5t40 -73.5q0 -39 -24.5 -68t-65.5 -42q60 -19 60 -77z" />
    <glyph glyph-name="uniF509" unicode="&#xf509;" horiz-adv-x="964" 
d="M199 0l491 699h116l-491 -699h-116zM918 319q-48 -77 -99 -155t-109 -164h-115q56 80 108 156t102 152h-190l19 89h301zM77 451q61 62 121 122.5t128 125.5h104l-53 -249h46l-16 -77h-46l-15 -71h-96l15 71h-205zM281 450l28 134q-34 -34 -67 -67.5t-66 -66.5h105z" />
    <glyph glyph-name="uniF50A" unicode="&#xf50a;" horiz-adv-x="964" 
d="M189 0l491 699h116l-491 -699h-116zM918 319q-48 -77 -99 -155t-109 -164h-115q56 80 108 156t102 152h-190l19 89h301zM407 443q0 -47 -25 -80.5t-71.5 -52t-110.5 -18.5q-38 0 -69.5 6.5t-59.5 21.5l17 79q25 -13 49.5 -19t59.5 -6q51 0 78.5 16t27.5 44q0 21 -22 30.5
t-64 9.5q-29 0 -50.5 -2t-46.5 -9l70 236h253l-18 -87h-173l-19 -66q19 3 34 3q66 0 103 -28t37 -78z" />
    <glyph glyph-name="uniF50B" unicode="&#xf50b;" horiz-adv-x="964" 
d="M194 0l491 699h116l-491 -699h-116zM918 319q-48 -77 -99 -155t-109 -164h-115q56 80 108 156t102 152h-190l19 89h301zM417 447q0 -33 -13.5 -61t-37.5 -49t-56 -33t-70 -12q-72 0 -112 39t-40 109q0 62 20.5 112t57 85t84 53.5t102.5 18.5q29 0 51.5 -5.5t44.5 -17.5
l-17 -80q-20 11 -38.5 15.5t-44.5 4.5q-55 0 -94 -28t-55 -82q22 20 46 30.5t52 10.5q36 0 63 -13.5t42 -38.5t15 -58zM188 436q0 -32 15.5 -49.5t42.5 -17.5q20 0 36.5 9t25.5 24.5t9 35.5q0 22 -14.5 34t-40.5 12q-40 0 -73 -26q-1 -10 -1 -22z" />
    <glyph glyph-name="uniF50D" unicode="&#xf50d;" horiz-adv-x="964" 
d="M209 0l491 699h116l-491 -699h-116zM919 259q0 -59 -19 -108.5t-54 -85.5t-82.5 -55.5t-105.5 -19.5q-30 0 -53 5.5t-45 17.5l17 80q21 -11 39.5 -15.5t44.5 -4.5q53 0 92 28t55 82q-43 -41 -97 -41q-36 0 -63 14t-42 38.5t-15 57.5t13.5 61t37 49t56 33t69.5 12
q71 0 111.5 -39t40.5 -109zM691 261q0 -23 14.5 -34.5t40.5 -11.5q41 0 72 25q1 11 1 23q0 31 -15.5 49t-42.5 18q-21 0 -36.5 -9t-24.5 -25t-9 -35zM393 390l-19 -88h-312l5 24q13 62 49 105t102 73q32 15 52 25.5t30.5 19t14.5 17t4 19.5q0 37 -64 37q-36 0 -64.5 -10
t-59.5 -32l21 99q51 30 126 30q45 0 78 -13.5t51 -37.5t18 -57q0 -27 -7 -48t-23.5 -38.5t-44 -34t-68.5 -34.5q-34 -15 -55 -28t-34 -28h200z" />
    <glyph glyph-name="uniF50E" unicode="&#xf50e;" horiz-adv-x="964" 
d="M209 0l491 699h116l-491 -699h-116zM919 259q0 -59 -19 -108.5t-54 -85.5t-82.5 -55.5t-105.5 -19.5q-30 0 -53 5.5t-45 17.5l17 80q21 -11 39.5 -15.5t44.5 -4.5q53 0 92 28t55 82q-43 -41 -97 -41q-36 0 -63 14t-42 38.5t-15 57.5t13.5 61t37 49t56 33t69.5 12
q71 0 111.5 -39t40.5 -109zM691 261q0 -23 14.5 -34.5t40.5 -11.5q41 0 72 25q1 11 1 23q0 31 -15.5 49t-42.5 18q-21 0 -36.5 -9t-24.5 -25t-9 -35zM77 451q61 62 121 122.5t128 125.5h104l-53 -249h46l-16 -77h-46l-15 -71h-96l15 71h-205zM281 450l28 134
q-34 -34 -67 -67.5t-66 -66.5h105z" />
    <glyph glyph-name="uniF50F" unicode="&#xf50f;" horiz-adv-x="964" 
d="M194 0l491 699h116l-491 -699h-116zM919 259q0 -59 -19 -108.5t-54 -85.5t-82.5 -55.5t-105.5 -19.5q-30 0 -53 5.5t-45 17.5l17 80q21 -11 39.5 -15.5t44.5 -4.5q53 0 92 28t55 82q-43 -41 -97 -41q-36 0 -63 14t-42 38.5t-15 57.5t13.5 61t37 49t56 33t69.5 12
q71 0 111.5 -39t40.5 -109zM691 261q0 -23 14.5 -34.5t40.5 -11.5q41 0 72 25q1 11 1 23q0 31 -15.5 49t-42.5 18q-21 0 -36.5 -9t-24.5 -25t-9 -35zM407 443q0 -47 -25 -80.5t-71.5 -52t-110.5 -18.5q-38 0 -69.5 6.5t-59.5 21.5l17 79q25 -13 49.5 -19t59.5 -6
q51 0 78.5 16t27.5 44q0 21 -22 30.5t-64 9.5q-29 0 -50.5 -2t-46.5 -9l70 236h253l-18 -87h-173l-19 -66q19 3 34 3q66 0 103 -28t37 -78z" />
    <glyph glyph-name="uniF510" unicode="&#xf510;" horiz-adv-x="964" 
d="M169 0l491 699h116l-491 -699h-116zM919 259q0 -59 -19 -108.5t-54 -85.5t-82.5 -55.5t-105.5 -19.5q-30 0 -53 5.5t-45 17.5l17 80q21 -11 39.5 -15.5t44.5 -4.5q53 0 92 28t55 82q-43 -41 -97 -41q-36 0 -63 14t-42 38.5t-15 57.5t13.5 61t37 49t56 33t69.5 12
q71 0 111.5 -39t40.5 -109zM691 261q0 -23 14.5 -34.5t40.5 -11.5q41 0 72 25q1 11 1 23q0 31 -15.5 49t-42.5 18q-21 0 -36.5 -9t-24.5 -25t-9 -35zM432 621q-48 -77 -99 -155t-109 -164h-115q56 80 108 156t102 152h-190l19 89h301z" />
    <glyph glyph-name="uniF511" unicode="&#xf511;" horiz-adv-x="964" 
d="M204 0l491 699h116l-491 -699h-116zM919 259q0 -59 -19 -108.5t-54 -85.5t-82.5 -55.5t-105.5 -19.5q-30 0 -53 5.5t-45 17.5l17 80q21 -11 39.5 -15.5t44.5 -4.5q53 0 92 28t55 82q-43 -41 -97 -41q-36 0 -63 14t-42 38.5t-15 57.5t13.5 61t37 49t56 33t69.5 12
q71 0 111.5 -39t40.5 -109zM691 261q0 -23 14.5 -34.5t40.5 -11.5q41 0 72 25q1 11 1 23q0 31 -15.5 49t-42.5 18q-21 0 -36.5 -9t-24.5 -25t-9 -35zM413 423q0 -39 -23 -68.5t-64.5 -46t-95.5 -16.5q-49 0 -84 13t-54.5 37.5t-19.5 57.5q0 40 26.5 69t71.5 41
q-42 26 -42 73q0 37 22 65.5t61 44.5t91 16q44 0 76.5 -13t50.5 -36.5t18 -55.5q0 -36 -22.5 -62t-61.5 -37q50 -30 50 -82zM276 539l18 -4q24 5 40 19t16 37q0 18 -14.5 29.5t-39.5 11.5q-32 0 -50.5 -14t-18.5 -36q0 -31 49 -43zM176 415q0 -21 16.5 -33.5t44.5 -12.5
q35 0 55.5 15t20.5 43q0 16 -12 27.5t-37 17.5l-22 6q-30 -5 -48 -22t-18 -41z" />
    <glyph glyph-name="a.smcp" unicode="&#xf605;" horiz-adv-x="613" 
d="M395 0l-12 114h-202q-30 -56 -61 -114h-165q86 148 169.5 288t166.5 273h161q26 -135 51 -274.5t47 -286.5h-155zM242 226h128q-11 96 -24 189q-27 -47 -53 -94.5t-51 -94.5z" />
    <glyph glyph-name="b.smcp" unicode="&#xf606;" horiz-adv-x="577" 
d="M522 190q0 -59 -30.5 -101.5t-87 -65.5t-133.5 -23h-255l119 561h207q64 0 110 -17t70.5 -48t24.5 -74q0 -51 -28 -86t-78 -49q38 -12 59.5 -37t21.5 -60zM404 408q0 22 -20 35t-55 13h-76l-26 -122h76q49 0 75 19.5t26 54.5zM377 183q0 25 -21.5 38.5t-60.5 13.5h-89
l-27 -130h88q53 0 81.5 20.5t28.5 57.5z" />
    <glyph glyph-name="c.smcp" unicode="&#xf607;" horiz-adv-x="538" 
d="M486 155l-29 -138q-32 -15 -68.5 -22.5t-80.5 -7.5q-82 0 -140.5 29t-90 82.5t-31.5 129.5q0 53 15.5 104t45.5 94.5t73.5 77t100 52t124.5 18.5q48 0 85.5 -10t69.5 -32l-26 -124q-27 23 -57.5 33t-74.5 10q-43 0 -76.5 -12.5t-58 -34.5t-40.5 -49t-23.5 -57t-7.5 -59
q0 -62 36 -95.5t103 -33.5q46 0 81.5 10t69.5 35z" />
    <glyph glyph-name="d.smcp" unicode="&#xf608;" horiz-adv-x="628" 
d="M593 337q0 -77 -23.5 -139t-67 -106.5t-104.5 -68t-136 -23.5h-246l119 561h208q77 0 133 -27.5t86.5 -77.5t30.5 -119zM256 441l-68 -321h71q55 0 96.5 25t64.5 70t23 106q0 58 -30 89t-85 31h-72z" />
    <glyph glyph-name="e.smcp" unicode="&#xf609;" horiz-adv-x="515" 
d="M135 561h402l-25 -117h-259l-22 -103h231l-23 -111h-231l-24 -113h272l-25 -117h-415z" />
    <glyph glyph-name="f.smcp" unicode="&#xf60a;" horiz-adv-x="487" 
d="M135 561h391l-25 -119h-247l-26 -122h219l-25 -116h-219l-43 -204h-144z" />
    <glyph glyph-name="g.smcp" unicode="&#xf60b;" horiz-adv-x="604" 
d="M501 31q-47 -23 -96 -33.5t-108 -10.5q-79 0 -135 28.5t-86 82.5t-30 129q0 52 15.5 102.5t46 94.5t75.5 78t104 53t131 19q52 0 94.5 -10t78.5 -32l-26 -124q-31 23 -66 33t-85 10q-45 0 -80.5 -12.5t-61.5 -34.5t-43 -49.5t-25 -57.5t-8 -59q0 -63 32.5 -96.5
t92.5 -33.5q18 0 34.5 2t30.5 7l21 97h-86l23 108h219z" />
    <glyph glyph-name="h.smcp" unicode="&#xf60c;" horiz-adv-x="639" 
d="M368 0l48 225h-205l-48 -225h-147l119 561h147l-44 -209h205l44 209h147l-119 -561h-147z" />
    <glyph glyph-name="i.smcp" unicode="&#xf60d;" horiz-adv-x="287" 
d="M163 0h-147l119 561h147z" />
    <glyph glyph-name="j.smcp" unicode="&#xf60e;" horiz-adv-x="443" 
d="M-33 24l24 115q24 -17 50 -23.5t56 -6.5q53 0 82.5 25.5t41.5 82.5l73 344h147l-75 -354q-24 -112 -87.5 -166t-171.5 -54q-41 0 -77 9.5t-63 27.5z" />
    <glyph glyph-name="k.smcp" unicode="&#xf60f;" horiz-adv-x="606" 
d="M239 235h-26l-50 -235h-147l119 561h147l-45 -211h30q50 50 97.5 100.5t100.5 110.5h176q-70 -75 -138.5 -145t-133.5 -135q46 -71 89.5 -140.5t85.5 -140.5h-165q-36 65 -70 122t-70 113z" />
    <glyph glyph-name="l.smcp" unicode="&#xf610;" horiz-adv-x="483" 
d="M135 561h147l-93 -438h252l-26 -123h-399z" />
    <glyph glyph-name="m.smcp" unicode="&#xf611;" horiz-adv-x="744" 
d="M290 103q-14 67 -27.5 139t-26.5 144l-82 -386h-138l119 561h179q13 -80 26.5 -158t28.5 -157q47 77 95 157t94 158h181l-119 -561h-138l80 377q-85 -141 -169 -274h-103z" />
    <glyph glyph-name="n.smcp" unicode="&#xf612;" horiz-adv-x="643" 
d="M373 0q-33 87 -69 179.5t-72 182.5l-77 -362h-139l119 561h146q35 -85 71.5 -178t70.5 -182l76 360h139l-119 -561h-146z" />
    <glyph glyph-name="o.smcp" unicode="&#xf613;" horiz-adv-x="646" 
d="M298 -13q-78 0 -134.5 30t-87 84.5t-30.5 127.5q0 56 14 107.5t41 94.5t65 75.5t86.5 50t106.5 17.5q77 0 134 -30t87.5 -84t30.5 -128q0 -56 -14 -107.5t-41 -94.5t-65 -75.5t-86.5 -50t-106.5 -17.5zM356 451q-32 0 -57.5 -13t-45 -35.5t-32 -50.5t-19 -59.5
t-6.5 -61.5q0 -55 28 -88t77 -33q32 0 57.5 13t45 35.5t32 50.5t19 59.5t6.5 61.5q0 56 -27.5 88.5t-77.5 32.5z" />
    <glyph glyph-name="p.smcp" unicode="&#xf614;" horiz-adv-x="559" 
d="M549 398q0 -68 -31 -118t-89.5 -76.5t-138.5 -26.5h-93l-38 -177h-143l119 561h199q67 0 115 -19.5t74 -56.5t26 -87zM255 451l-35 -164h66q56 0 86.5 25.5t30.5 72.5q0 31 -21.5 48.5t-59.5 17.5h-67z" />
    <glyph glyph-name="q.smcp" unicode="&#xf615;" horiz-adv-x="677" 
d="M455 0q-39 0 -78 -6.5t-79 -6.5q-78 0 -134.5 30t-87 84.5t-30.5 127.5q0 56 14 107.5t41 94.5t65 75.5t86.5 50t106.5 17.5q77 0 134 -30t87.5 -84t30.5 -128q0 -70 -25 -131t-72 -102l143 23l-26 -122h-176zM356 451q-32 0 -57.5 -13t-45 -35.5t-32 -50.5t-19 -59.5
t-6.5 -61.5q0 -55 28 -88t77 -33q32 0 57.5 13t45 35.5t32 50.5t19 59.5t6.5 61.5q0 56 -27.5 88.5t-77.5 32.5z" />
    <glyph glyph-name="r.smcp" unicode="&#xf616;" horiz-adv-x="576" 
d="M200 191l-41 -191h-143l119 561h199q69 0 118.5 -19t76 -54.5t26.5 -83.5q0 -68 -35.5 -117.5t-99.5 -74.5q23 -51 46 -104t45 -108h-153q-17 46 -35.5 95t-37.5 96h-85zM223 301h66q58 0 89 23.5t31 66.5q0 28 -23 44t-64 16h-67z" />
    <glyph glyph-name="s.smcp" unicode="&#xf617;" horiz-adv-x="515" 
d="M454 177q0 -58 -32 -100.5t-90.5 -66t-137.5 -23.5q-117 0 -194 52l25 118q37 -28 78 -41t89 -13q53 0 83.5 15t30.5 43q0 15 -6.5 25.5t-24 20t-49.5 21.5q-58 20 -91.5 42.5t-47.5 51t-14 67.5q0 55 31.5 97t89 65t134.5 23q50 0 94.5 -12t82.5 -37l-25 -117
q-65 50 -155 50q-49 0 -77.5 -13.5t-28.5 -39.5q0 -14 6.5 -24t25.5 -19.5t54 -22.5q56 -21 88.5 -43t46.5 -51t14 -68z" />
    <glyph glyph-name="t.smcp" unicode="&#xf618;" horiz-adv-x="513" 
d="M79 561h485l-26 -123h-169l-93 -438h-147l93 438h-169z" />
    <glyph glyph-name="u.smcp" unicode="&#xf619;" horiz-adv-x="628" 
d="M204 190q0 -39 23 -60t65 -21q45 0 73.5 26.5t39.5 76.5l74 349h147l-72 -339q-50 -235 -274 -235q-70 0 -119 24t-75 70t-26 111q0 17 2 33.5t7 38.5l63 297h147l-71 -335q-2 -10 -3 -18.5t-1 -17.5z" />
    <glyph glyph-name="v.smcp" unicode="&#xf61a;" horiz-adv-x="599" 
d="M654 561q-79 -138 -163 -280.5t-168 -280.5h-157q-25 136 -48.5 279t-44.5 282h155q10 -102 21 -203t24 -199q55 100 110 202t106 200h165z" />
    <glyph glyph-name="w.smcp" unicode="&#xf61b;" horiz-adv-x="788" 
d="M426 0q-3 89 -6 176t-4 170q-40 -86 -80.5 -172.5t-82.5 -173.5h-155q-8 134 -13 275.5t-6 285.5h158q-6 -103 -10 -205t-7 -199q45 98 87.5 193.5t80.5 185.5h137q-1 -85 0 -177t3 -189q37 94 75 192.5t74 198.5h162q-63 -144 -128 -285.5t-129 -275.5h-156z" />
    <glyph glyph-name="x.smcp" unicode="&#xf61c;" horiz-adv-x="575" 
d="M356 0q-18 43 -37.5 89t-42.5 95q-42 -49 -79 -95t-71 -89h-171q60 72 124 145.5t136 154.5q-31 63 -62 127t-63 134h155q15 -39 34 -81t38 -85q37 45 70 86t62 80h166q-57 -70 -116 -138t-123 -140q34 -68 68 -138t68 -145h-156z" />
    <glyph glyph-name="y.smcp" unicode="&#xf61d;" horiz-adv-x="603" 
d="M364 208l-44 -208h-147l44 208q-37 88 -73 177t-67 176h154q17 -55 36 -114t40 -118q45 57 89.5 116t86.5 116h171q-70 -88 -143 -177t-147 -176z" />
    <glyph glyph-name="z.smcp" unicode="&#xf61e;" horiz-adv-x="534" 
d="M472 120l-25 -120h-468l21 100q78 80 164 166t176 175h-254l25 120h445l-21 -100q-89 -86 -177 -173.5t-166 -167.5h280z" />
    <glyph glyph-name="ae.smcp" unicode="&#xf61f;" horiz-adv-x="849" 
d="M-49 0q104 143 209.5 284t209.5 277h501l-25 -117h-249l-22 -103h221l-23 -111h-221l-24 -113h262l-25 -117h-402l24 114h-191q-21 -28 -41 -56.5t-40 -57.5h-164zM275 226h136l46 218h-23q-41 -55 -80.5 -109t-78.5 -109z" />
    <glyph glyph-name="eng.smcp" unicode="&#xf620;" horiz-adv-x="634" 
d="M506 -37q-22 -101 -80 -151.5t-155 -50.5q-34 0 -64.5 8t-52.5 22l24 115q36 -23 85 -23q80 0 99 93l78 368q3 14 4 25t1 23q0 28 -14.5 43.5t-41.5 15.5q-45 0 -84 -34.5t-77 -111.5l-65 -305h-147l119 561h124l-19 -129q40 70 92.5 106t115.5 36q46 0 79 -18.5
t51 -52.5t18 -81q0 -15 -2 -32.5t-6 -40.5z" />
    <glyph glyph-name="oe.smcp" unicode="&#xf621;" horiz-adv-x="866" 
d="M782 0h-365q-24 -7 -49.5 -10t-50.5 -3q-84 0 -145 29t-93.5 83.5t-32.5 129.5q0 53 15.5 104t46 94.5t75.5 76.5t103 51.5t128 18.5q66 0 114 -13h360l-25 -117h-249l-22 -103h221l-23 -111h-221l-24 -113h262zM195 234q0 -61 35.5 -93.5t99.5 -32.5q20 0 39 2.5t36 7.5
l69 327q-28 8 -66 8q-55 0 -95 -19.5t-66 -51t-39 -70.5t-13 -78z" />
    <glyph glyph-name="eth.smcp" unicode="&#xf622;" horiz-adv-x="628" 
d="M593 337q0 -77 -23.5 -139t-67 -106.5t-104.5 -68t-136 -23.5h-246l52 245h-63l19 90h63l48 226h208q77 0 133 -27.5t86.5 -77.5t30.5 -119zM188 120h71q55 0 96.5 25t64.5 70t23 106q0 58 -30 89t-85 31h-72l-22 -106h107l-19 -90h-108z" />
    <glyph glyph-name="hbar.smcp" unicode="&#xf623;" horiz-adv-x="639" 
d="M368 0l43 205h-205l-43 -205h-147l86 407h-63l19 86h63l14 68h147l-14 -68h205l14 68h147l-14 -68h63l-19 -86h-63l-86 -407h-147zM233 332h205l16 75h-205z" />
    <glyph glyph-name="ij.smcp" unicode="&#xf624;" horiz-adv-x="730" 
d="M163 0h-147l119 561h147zM254 24l24 115q24 -17 50 -23.5t56 -6.5q53 0 82.5 25.5t41.5 82.5l73 344h147l-75 -354q-24 -112 -87.5 -166t-171.5 -54q-41 0 -77 9.5t-63 27.5z" />
    <glyph glyph-name="idotaccent.smcp" unicode="&#xf625;" horiz-adv-x="287" 
d="M163 0h-147l119 561h147zM230 642q-31 0 -51 18t-20 45q0 23 11 42t30 30.5t45 11.5q32 0 51.5 -18t19.5 -45q0 -23 -10.5 -42t-30 -30.5t-45.5 -11.5z" />
    <glyph glyph-name="dotlessi.smcp" unicode="&#xf626;" horiz-adv-x="287" 
d="M163 0h-147l119 561h147z" />
    <glyph glyph-name="oslash.smcp" unicode="&#xf627;" horiz-adv-x="646" 
d="M298 -13q-44 0 -82 10.5t-68 29.5l-71 -75l-59 55l71 76q-21 30 -32 66.5t-11 79.5q0 56 14 107.5t41 94.5t65 75.5t86.5 50t106.5 17.5q44 0 82 -10.5t68 -29.5l71 75l59 -55l-71 -75q21 -30 32 -67t11 -80q0 -56 -14 -107.5t-41 -94.5t-65 -75.5t-86.5 -50
t-106.5 -17.5zM196 231q0 -19 3 -36l220 238q-25 18 -63 18q-32 0 -57.5 -13t-45 -35.5t-32 -50.5t-19 -59.5t-6.5 -61.5zM461 330q0 17 -3 32l-218 -235q25 -17 61 -17q32 0 57.5 13t45 35.5t32 50.5t19 59.5t6.5 61.5z" />
    <glyph glyph-name="thorn.smcp" unicode="&#xf628;" horiz-adv-x="559" 
d="M272 91h-94l-19 -91h-143l119 561h143l-18 -86h56q67 0 115 -19.5t74 -56.5t26 -87q0 -69 -31 -118.5t-89.5 -76t-138.5 -26.5zM304 365h-68l-34 -164h66q56 0 86.5 25.5t30.5 72.5q0 31 -21.5 48.5t-59.5 17.5z" />
    <glyph glyph-name="tbar.smcp" unicode="&#xf629;" horiz-adv-x="513" 
d="M421 201h-102l-43 -201h-147l43 201h-103l19 90h103l31 147h-169l26 123h485l-26 -123h-169l-31 -147h102z" />
    <glyph glyph-name="kgreenlandic.smcp" unicode="&#xf62a;" horiz-adv-x="606" 
d="M239 235h-26l-50 -235h-147l119 561h147l-45 -211h30q50 50 97.5 100.5t100.5 110.5h176q-70 -75 -138.5 -145t-133.5 -135q46 -71 89.5 -140.5t85.5 -140.5h-165q-36 65 -70 122t-70 113z" />
    <glyph glyph-name="lslash.smcp" unicode="&#xf62b;" horiz-adv-x="483" 
d="M441 123l-26 -123h-399l39 184l-70 -33l23 106l69 33l58 271h147l-41 -194l175 83l-23 -106l-175 -83l-29 -138h252z" />
    <glyph glyph-name="ampersand.smcp" unicode="&#xf62c;" horiz-adv-x="660" 
d="M428 0q-14 15 -26 29q-38 -21 -82 -31.5t-92 -10.5q-66 0 -114.5 18t-75 50.5t-26.5 76.5q0 58 39 100t122 72q-19 29 -28 53.5t-9 49.5q0 49 24 86t67 58t99 21q48 0 83.5 -15.5t55 -44t19.5 -66.5q0 -53 -38.5 -92.5t-120.5 -70.5q20 -24 42.5 -50.5t48.5 -55.5
q30 45 45 111h123q-14 -58 -38.5 -106.5t-57.5 -84.5q20 -23 42 -47t46 -50h-148zM252 411q0 -17 6 -32.5t19 -35.5q48 16 69.5 38t21.5 54q0 21 -13 33t-36 12q-30 0 -48.5 -18.5t-18.5 -50.5zM149 153q0 -32 25.5 -50t72.5 -18q48 0 88 19q-37 41 -65.5 75t-50.5 63
q-37 -17 -53.5 -38t-16.5 -51z" />
    <glyph glyph-name="dollar.smcp" unicode="&#xf639;" horiz-adv-x="550" 
d="M473 174q0 -51 -26.5 -90t-74.5 -63.5t-113 -30.5l-19 -91h-74l19 90q-47 3 -88.5 16t-72.5 34l24 113q33 -25 74.5 -39t85.5 -15l28 131q-52 19 -83 40t-44 48t-13 64q0 49 26.5 87t74 62t110.5 30l18 84h74l-18 -84q38 -3 74.5 -15t66.5 -31l-24 -112
q-29 21 -65.5 34.5t-74.5 15.5l-26 -124q41 -16 68.5 -32t43 -33.5t22.5 -39t7 -49.5zM236 397q0 -15 6 -23.5t22 -16.5l18 87q-22 -7 -34 -19t-12 -28zM331 159q0 14 -6 23.5t-21 17.5l-20 -93q47 16 47 52z" />
    <glyph glyph-name="cent.smcp" unicode="&#xf63a;" horiz-adv-x="550" 
d="M294 53q-20 0 -38 2l-43 -98h-84l51 117q-50 21 -77 62t-27 98q0 49 19 95t56 82.5t90 58.5t121 23l42 96h84l-46 -105q27 -8 51 -23l-22 -105q-31 25 -71 30l-99 -227q9 -1 19 -1q37 0 65 7.5t56 25.5l-24 -113q-51 -25 -123 -25zM210 245q0 -36 20 -57l83 193
q-35 -11 -58 -33t-34 -49.5t-11 -53.5z" />
    <glyph glyph-name="sterling.smcp" unicode="&#xf63b;" horiz-adv-x="550" 
d="M473 111l-24 -111h-435l20 93q45 13 71.5 50.5t29.5 93.5h-85l16 76h66q-1 9 -1.5 18.5t-0.5 19.5q0 66 31 113t88.5 72.5t138.5 25.5q47 0 85 -10t71 -33l-23 -109q-26 21 -55.5 30.5t-70.5 9.5q-133 0 -133 -121v-16h153l-16 -76h-134q-3 -44 -25 -76.5t-59 -49.5h292z
" />
    <glyph glyph-name="yen.smcp" unicode="&#xf63c;" horiz-adv-x="550" 
d="M427 72h-124l-15 -72h-137l15 72h-122l15 72h122l12 56h-121l15 72h84q-26 67 -51 136t-49 141h138q10 -33 21.5 -72.5t24.5 -80.5t27 -80q29 39 59.5 80t59 80t51.5 73h151q-54 -70 -108 -139.5t-110 -137.5h84l-15 -72h-124l-12 -56h124z" />
    <glyph glyph-name="exclam.smcp" unicode="&#xf63e;" horiz-adv-x="259" 
d="M177 192h-121l65 369h147zM84 -9q-34 0 -54.5 19.5t-20.5 48.5q0 25 11 45t31.5 32.5t47.5 12.5q34 0 54.5 -19.5t20.5 -48.5q0 -24 -11.5 -44.5t-31.5 -33t-47 -12.5z" />
    <glyph glyph-name="question.smcp" unicode="&#xf63f;" horiz-adv-x="439" 
d="M69 421l26 122q33 15 72 23t79 8q59 0 102 -15.5t66 -45t23 -71.5q0 -40 -12 -69.5t-39.5 -52t-72.5 -44.5q-40 -18 -58.5 -32.5t-22.5 -36.5l-3 -15h-122l3 15q6 31 17.5 53t31 39t49.5 33q34 18 52 30t25.5 24t7.5 29q0 47 -84 47q-40 0 -72.5 -9.5t-67.5 -31.5z
M136 -9q-34 0 -54.5 19.5t-20.5 48.5q0 25 11 45t31.5 32.5t47.5 12.5q34 0 54.5 -19.5t20.5 -48.5q0 -24 -11.5 -44.5t-31.5 -33t-47 -12.5z" />
    <glyph glyph-name="ordfeminine.smcp" unicode="&#xf640;" horiz-adv-x="470" 
d="M355 306q-2 20 -4 40.5t-4 41.5h-159q-22 -40 -44 -82h-124q65 111 128.5 215.5t122.5 199.5h128q19 -101 37.5 -203.5t35.5 -211.5h-117zM234 472h103q-5 37 -10 74.5t-10 74.5q-21 -37 -42 -74.5t-41 -74.5z" />
    <glyph glyph-name="ordmasculine.smcp" unicode="&#xf641;" horiz-adv-x="486" 
d="M273 296q-55 0 -95.5 22t-63 62t-22.5 94q0 52 16.5 98.5t46.5 82.5t72.5 56t94.5 20q55 0 95.5 -22t63 -62t22.5 -94q0 -53 -16.5 -99t-46.5 -82t-72.5 -56t-94.5 -20zM318 642q-30 0 -52 -15t-36 -40t-21 -54t-7 -57q0 -42 20 -66.5t55 -24.5q30 0 52 15t36 40t21 54
t7 57q0 42 -20 66.5t-55 24.5z" />
    <glyph glyph-name="questiondown.smcp" unicode="&#xf642;" horiz-adv-x="439" 
d="M314 570q34 0 54.5 -19.5t20.5 -48.5q0 -24 -11.5 -44.5t-31.5 -33t-47 -12.5q-34 0 -54.5 19.5t-20.5 48.5q0 24 11 44.5t31.5 33t47.5 12.5zM381 140l-26 -122q-33 -15 -72 -23t-79 -8q-59 0 -102 15.5t-66 45.5t-23 71t12 70t39.5 52t72.5 44q40 18 58.5 32.5
t22.5 36.5l3 15h122l-3 -15q-6 -31 -17.5 -53t-31 -39t-49.5 -33q-34 -17 -52 -29.5t-25.5 -24.5t-7.5 -29q0 -47 84 -47q40 0 72.5 9.5t67.5 31.5z" />
    <glyph glyph-name="exclamdown.smcp" unicode="&#xf643;" horiz-adv-x="259" 
d="M186 570q34 0 54.5 -19.5t20.5 -48.5q0 -24 -11.5 -44.5t-31.5 -33t-47 -12.5q-34 0 -54.5 19.5t-20.5 48.5q0 24 11 44.5t31.5 33t47.5 12.5zM93 369h121l-65 -369h-147z" />
    <glyph glyph-name="abreve.smcp" unicode="&#xf644;" horiz-adv-x="613" 
d="M395 0l-12 114h-202q-30 -56 -61 -114h-165q86 148 169.5 288t166.5 273h161q26 -135 51 -274.5t47 -286.5h-155zM242 226h128q-11 96 -24 189q-27 -47 -53 -94.5t-51 -94.5zM398 719q69 0 85 75h98q-13 -77 -62.5 -118t-129.5 -41q-47 0 -82 16.5t-54 47t-19 71.5
q0 5 0.5 12.5t1.5 11.5h97q-1 -4 -1 -8v-6q0 -29 17 -45t49 -16z" />
    <glyph glyph-name="amacron.smcp" unicode="&#xf645;" horiz-adv-x="613" 
d="M395 0l-12 114h-202q-30 -56 -61 -114h-165q86 148 169.5 288t166.5 273h161q26 -135 51 -274.5t47 -286.5h-155zM242 226h128q-11 96 -24 189q-27 -47 -53 -94.5t-51 -94.5zM244 762h320l-20 -92h-320z" />
    <glyph glyph-name="aogonek.smcp" unicode="&#xf646;" horiz-adv-x="613" 
d="M395 0l-12 114h-202q-30 -56 -61 -114h-165q86 148 169.5 288t166.5 273h161q26 -135 51 -274.5t47 -286.5h-155zM242 226h128q-11 96 -24 189q-27 -47 -53 -94.5t-51 -94.5zM499 -151l-16 -76q-17 -6 -36 -9t-36 -3q-54 0 -84.5 23t-30.5 64q0 116 192 182l30 -30
q-61 -26 -93.5 -58.5t-32.5 -66.5q0 -40 47 -40q17 0 30 3.5t30 10.5z" />
    <glyph glyph-name="agrave.smcp" unicode="&#xf647;" horiz-adv-x="613" 
d="M395 0l-12 114h-202q-30 -56 -61 -114h-165q86 148 169.5 288t166.5 273h161q26 -135 51 -274.5t47 -286.5h-155zM242 226h128q-11 96 -24 189q-27 -47 -53 -94.5t-51 -94.5zM225 797h148q23 -38 47 -78t48 -84h-117q-48 66 -126 162z" />
    <glyph glyph-name="aacute.smcp" unicode="&#xf648;" horiz-adv-x="613" 
d="M395 0l-12 114h-202q-30 -56 -61 -114h-165q86 148 169.5 288t166.5 273h161q26 -135 51 -274.5t47 -286.5h-155zM242 226h128q-11 96 -24 189q-27 -47 -53 -94.5t-51 -94.5zM432 797h164q-56 -48 -100.5 -88.5t-79.5 -73.5h-133q38 44 76.5 85t72.5 77z" />
    <glyph glyph-name="acircumflex.smcp" unicode="&#xf649;" horiz-adv-x="613" 
d="M395 0l-12 114h-202q-30 -56 -61 -114h-165q86 148 169.5 288t166.5 273h161q26 -135 51 -274.5t47 -286.5h-155zM242 226h128q-11 96 -24 189q-27 -47 -53 -94.5t-51 -94.5zM459 635q-12 17 -27 38.5t-33 45.5q-28 -24 -52 -45.5t-43 -38.5h-125q40 40 82.5 81.5
t84.5 80.5h128q26 -40 50 -81t47 -81h-112z" />
    <glyph glyph-name="atilde.smcp" unicode="&#xf64a;" horiz-adv-x="613" 
d="M395 0l-12 114h-202q-30 -56 -61 -114h-165q86 148 169.5 288t166.5 273h161q26 -135 51 -274.5t47 -286.5h-155zM242 226h128q-11 96 -24 189q-27 -47 -53 -94.5t-51 -94.5zM385 664q-18 14 -29.5 22t-20.5 11.5t-19 3.5q-18 0 -28 -13.5t-16 -47.5h-93q24 156 141 156
q25 0 43 -6.5t39 -22.5q18 -14 29 -21.5t20 -11t19 -3.5q18 0 28 13.5t16 47.5h93q-24 -156 -141 -156q-25 0 -43 6.5t-38 21.5z" />
    <glyph glyph-name="adieresis.smcp" unicode="&#xf64b;" horiz-adv-x="613" 
d="M395 0l-12 114h-202q-30 -56 -61 -114h-165q86 148 169.5 288t166.5 273h161q26 -135 51 -274.5t47 -286.5h-155zM242 226h128q-11 96 -24 189q-27 -47 -53 -94.5t-51 -94.5zM266 646q-30 0 -48.5 17t-18.5 43q0 21 10.5 39t28.5 29t42 11q31 0 49.5 -17t18.5 -43
q0 -22 -10.5 -39.5t-29 -28.5t-42.5 -11zM504 646q-30 0 -48.5 17t-18.5 43q0 21 10.5 39t28.5 29t42 11q31 0 49.5 -17t18.5 -43q0 -22 -10.5 -39.5t-29 -28.5t-42.5 -11z" />
    <glyph glyph-name="aring.smcp" unicode="&#xf64c;" horiz-adv-x="613" 
d="M395 0l-12 114h-202q-30 -56 -61 -114h-165q86 148 169.5 288t166.5 273h161q26 -135 51 -274.5t47 -286.5h-155zM242 226h128q-11 96 -24 189q-27 -47 -53 -94.5t-51 -94.5zM386 623q-32 0 -56 12.5t-37.5 35t-13.5 52.5q0 36 17 65t46 45.5t66 16.5q32 0 56 -12.5
t37.5 -35.5t13.5 -52q0 -36 -17 -64.5t-46 -45.5t-66 -17zM405 794q-29 0 -46 -20t-17 -48q0 -22 12.5 -34.5t34.5 -12.5q29 0 46 20t17 48q0 22 -12.5 34.5t-34.5 12.5z" />
    <glyph glyph-name="cacute.smcp" unicode="&#xf64d;" horiz-adv-x="538" 
d="M486 155l-29 -138q-32 -15 -68.5 -22.5t-80.5 -7.5q-82 0 -140.5 29t-90 82.5t-31.5 129.5q0 53 15.5 104t45.5 94.5t73.5 77t100 52t124.5 18.5q48 0 85.5 -10t69.5 -32l-26 -124q-27 23 -57.5 33t-74.5 10q-43 0 -76.5 -12.5t-58 -34.5t-40.5 -49t-23.5 -57t-7.5 -59
q0 -62 36 -95.5t103 -33.5q46 0 81.5 10t69.5 35zM462 797h164q-56 -48 -100.5 -88.5t-79.5 -73.5h-133q38 44 76.5 85t72.5 77z" />
    <glyph glyph-name="ccaron.smcp" unicode="&#xf64e;" horiz-adv-x="538" 
d="M486 155l-29 -138q-32 -15 -68.5 -22.5t-80.5 -7.5q-82 0 -140.5 29t-90 82.5t-31.5 129.5q0 53 15.5 104t45.5 94.5t73.5 77t100 52t124.5 18.5q48 0 85.5 -10t69.5 -32l-26 -124q-27 23 -57.5 33t-74.5 10q-43 0 -76.5 -12.5t-58 -34.5t-40.5 -49t-23.5 -57t-7.5 -59
q0 -62 36 -95.5t103 -33.5q46 0 81.5 10t69.5 35zM637 797q-40 -40 -82.5 -81.5t-84.5 -80.5h-128q-26 40 -50 80.5t-47 81.5h112q12 -17 27 -38.5t33 -45.5q28 24 52 45.5t43 38.5h125z" />
    <glyph glyph-name="cdotaccent.smcp" unicode="&#xf64f;" horiz-adv-x="538" 
d="M486 155l-29 -138q-32 -15 -68.5 -22.5t-80.5 -7.5q-82 0 -140.5 29t-90 82.5t-31.5 129.5q0 53 15.5 104t45.5 94.5t73.5 77t100 52t124.5 18.5q48 0 85.5 -10t69.5 -32l-26 -124q-27 23 -57.5 33t-74.5 10q-43 0 -76.5 -12.5t-58 -34.5t-40.5 -49t-23.5 -57t-7.5 -59
q0 -62 36 -95.5t103 -33.5q46 0 81.5 10t69.5 35zM415 642q-31 0 -51 18t-20 45q0 23 11 42t30 30.5t45 11.5q32 0 51.5 -18t19.5 -45q0 -23 -10.5 -42t-30 -30.5t-45.5 -11.5z" />
    <glyph glyph-name="ccedilla.smcp" unicode="&#xf651;" horiz-adv-x="538" 
d="M486 155l-29 -138q-32 -15 -68.5 -22.5t-80.5 -7.5q-82 0 -140.5 29t-90 82.5t-31.5 129.5q0 53 15.5 104t45.5 94.5t73.5 77t100 52t124.5 18.5q48 0 85.5 -10t69.5 -32l-26 -124q-27 23 -57.5 33t-74.5 10q-43 0 -76.5 -12.5t-58 -34.5t-40.5 -49t-23.5 -57t-7.5 -59
q0 -62 36 -95.5t103 -33.5q46 0 81.5 10t69.5 35zM392 -127q0 -34 -18.5 -59t-52.5 -39t-79 -14q-25 0 -46 4t-40 13l15 68q16 -8 31 -11.5t37 -3.5q30 0 47 9.5t17 25.5q0 26 -47 26q-14 0 -26 -1t-26 -4l60 128h73l-34 -69h5q40 0 62 -19t22 -54z" />
    <glyph glyph-name="dcaron.smcp" unicode="&#xf652;" horiz-adv-x="628" 
d="M593 337q0 -77 -23.5 -139t-67 -106.5t-104.5 -68t-136 -23.5h-246l119 561h208q77 0 133 -27.5t86.5 -77.5t30.5 -119zM256 441l-68 -321h71q55 0 96.5 25t64.5 70t23 106q0 58 -30 89t-85 31h-72zM596 797q-40 -40 -82.5 -81.5t-84.5 -80.5h-128q-26 40 -50 80.5
t-47 81.5h112q12 -17 27 -38.5t33 -45.5q28 24 52 45.5t43 38.5h125z" />
    <glyph glyph-name="dcroat.smcp" unicode="&#xf653;" horiz-adv-x="628" 
d="M593 337q0 -77 -23.5 -139t-67 -106.5t-104.5 -68t-136 -23.5h-246l52 245h-63l19 90h63l48 226h208q77 0 133 -27.5t86.5 -77.5t30.5 -119zM188 120h71q55 0 96.5 25t64.5 70t23 106q0 58 -30 89t-85 31h-72l-22 -106h107l-19 -90h-108z" />
    <glyph glyph-name="egrave.smcp" unicode="&#xf654;" horiz-adv-x="515" 
d="M135 561h402l-25 -117h-259l-22 -103h231l-23 -111h-231l-24 -113h272l-25 -117h-415zM197 797h148q23 -38 47 -78t48 -84h-117q-48 66 -126 162z" />
    </font>
</defs>
</svg>
