<?xml version="1.0" standalone="no"?>
<!DOCTYPE svg PUBLIC "-//W3C//DTD SVG 1.1//EN" "http://www.w3.org/Graphics/SVG/1.1/DTD/svg11.dtd" >
<svg xmlns="http://www.w3.org/2000/svg" xmlns:xlink="http://www.w3.org/1999/xlink" version="1.1">
<metadata>
Created by FontForge 20190801 at Sat Nov  4 03:21:16 2017
 By Unknown
Copyright 2017 BBC. Modification of this file requires prior written permission from the BBC.
</metadata>
<defs>
<font id="BBCReithSans-MediumItalic" horiz-adv-x="0" >
  <font-face 
    font-family="BBC Reith Sans Medium"
    font-weight="500"
    font-style="italic"
    font-stretch="normal"
    units-per-em="1000"
    panose-1="2 11 7 3 2 2 4 9 2 4"
    ascent="745"
    descent="-255"
    x-height="515"
    cap-height="715"
    bbox="-230 -256 1321 992"
    underline-thickness="78"
    underline-position="-225"
    slope="-12"
    unicode-range="U+000D-FFFD"
  />
<missing-glyph horiz-adv-x="500" 
d="M0 0v715h500v-715h-500zM87 668l162 -265l162 265h-324zM278 357l168 -273v547zM221 357l-167 272v-544zM249 311l-162 -264h324z" />
    <glyph glyph-name="f_b" unicode="fb" horiz-adv-x="927" 
d="M893 355q0 -62 -16 -117.5t-45 -101t-69 -79t-88.5 -52t-102.5 -18.5q-49 0 -97 11t-90 33l151 714h119l-45 -212l-36 -135q36 63 83 96.5t101 33.5q41 0 71.5 -21t47 -60t16.5 -92zM711 431q-42 0 -80 -37t-75 -113l-39 -187q28 -13 66 -13q39 0 73 21t60 57.5
t40.5 84.5t14.5 102q0 41 -15.5 63t-44.5 22zM377 423h-125l-122 -574h-119l122 574h-84l19 92h85l7 35q22 105 77 156.5t147 51.5q28 0 53.5 -6t46.5 -18l-19 -92q-15 9 -33 14.5t-38 5.5q-47 0 -75.5 -28t-41.5 -93l-6 -26h126z" />
    <glyph glyph-name="f_j" unicode="fj" horiz-adv-x="625" 
d="M278 546l-7 -31h336l-122 -577q-19 -90 -67.5 -133.5t-128.5 -43.5q-26 0 -50.5 5.5t-43.5 15.5l19 92q15 -10 29.5 -13.5t34.5 -3.5q70 0 90 91l101 475h-217l-122 -574h-119l122 574h-84l19 92h85l8 39q22 104 74.5 154t141.5 50q25 0 49 -6t44 -17l-19 -92
q-14 9 -30 14t-34 5q-45 0 -70.5 -27.5t-38.5 -88.5zM586 741q29 0 47.5 -15.5t18.5 -41.5q0 -34 -21.5 -55t-58.5 -21q-29 0 -47.5 16t-18.5 41q0 34 21.5 55t58.5 21z" />
    <glyph glyph-name="f_k" unicode="fk" horiz-adv-x="901" 
d="M377 423h-125l-122 -574h-119l122 574h-84l19 92h85l7 35q22 105 77 156.5t147 51.5q28 0 53.5 -6t46.5 -18l-19 -92q-15 9 -33 14.5t-38 5.5q-47 0 -75.5 -28t-41.5 -93l-6 -26h126zM576 228h-31l-48 -228h-119l158 745h119l-90 -425h32q50 48 96.5 95.5t95.5 99.5h138
q-64 -66 -126 -127.5t-123 -120.5q43 -67 82 -132.5t79 -134.5h-130q-34 61 -66 116.5t-67 111.5z" />
    <glyph glyph-name="f_t" unicode="ft" horiz-adv-x="714" 
d="M407 154l57 269h-212l-122 -574h-119l122 574h-84l19 92h85l8 39q22 104 74.5 154t141.5 50q25 0 49 -6t44 -17l-19 -92q-14 9 -30 14t-34 5q-45 0 -70.5 -27.5t-38.5 -88.5l-7 -31h213l28 133l125 28l-34 -161h133l-20 -92h-133l-50 -236q-3 -16 -6 -32.5t-3 -28.5
q0 -43 46 -43q25 0 47.5 8.5t45.5 25.5l-23 -106q-25 -13 -51 -18.5t-60 -5.5q-61 0 -94.5 28.5t-33.5 82.5q0 14 1 27t5 29z" />
    <glyph glyph-name="f_h" unicode="fh" horiz-adv-x="931" 
d="M377 423h-125l-122 -574h-119l122 574h-84l19 92h85l7 35q22 105 77 156.5t147 51.5q28 0 53.5 -6t46.5 -18l-19 -92q-15 9 -33 14.5t-38 5.5q-47 0 -75.5 -28t-41.5 -93l-6 -26h126zM713 431q-43 0 -81.5 -37t-75.5 -114l-59 -280h-119l158 745h119l-46 -217l-35 -131
q36 63 83.5 97t103.5 34q38 0 66 -16t43 -46t15 -70q0 -15 -1 -30.5t-6 -35.5l-70 -330h-119l69 325q2 12 3.5 22.5t1.5 21.5q0 30 -13 46t-37 16z" />
    <glyph glyph-name="uniFB00" unicode="ff" horiz-adv-x="695" 
d="M347 -151l122 574h-217l-122 -574h-119l122 574h-84l19 92h85l8 39q22 104 74.5 154t141.5 50q25 0 49 -6t44 -17l-19 -92q-14 9 -30 14t-34 5q-45 0 -70.5 -27.5t-38.5 -88.5l-7 -31h218l7 35q22 105 77 156.5t147 51.5q28 0 53.5 -6t46.5 -18l-19 -92q-15 9 -33 14.5
t-38 5.5q-47 0 -75.5 -28t-41.5 -93l-6 -26h126l-20 -92h-125l-122 -574h-119z" />
    <glyph glyph-name="uniFB01" unicode="fi" horiz-adv-x="624" 
d="M278 546l-7 -31h335l-109 -515h-119l90 423h-216l-122 -574h-119l122 574h-84l19 92h85l8 39q22 104 74.5 154t141.5 50q25 0 49 -6t44 -17l-19 -92q-14 9 -30 14t-34 5q-45 0 -70.5 -27.5t-38.5 -88.5zM585 741q29 0 47.5 -15.5t18.5 -41.5q0 -34 -21.5 -55t-58.5 -21
q-29 0 -47.5 16t-18.5 41q0 34 21.5 55t58.5 21z" />
    <glyph glyph-name="uniFB02" unicode="fl" horiz-adv-x="675" 
d="M377 423h-125l-122 -574h-119l122 574h-84l19 92h85l7 35q22 105 77 156.5t147 51.5q28 0 53.5 -6t46.5 -18l-19 -92q-15 9 -33 14.5t-38 5.5q-47 0 -75.5 -28t-41.5 -93l-6 -26h126zM406 139l129 606h119l-130 -608q-3 -13 -3 -23q0 -30 34 -30q31 0 60 20l-21 -98
q-34 -15 -79 -15q-56 0 -85 25t-29 73q0 11 1 23t4 27z" />
    <glyph glyph-name="uniFB03" unicode="ffi" horiz-adv-x="960" 
d="M613 546l-7 -31h336l-109 -515h-118l90 423h-218l-122 -574h-119l122 574h-216l-122 -574h-119l122 574h-84l19 92h85l8 39q22 104 74.5 154t141.5 50q25 0 49 -6t44 -17l-19 -92q-14 9 -30 14t-34 5q-45 0 -70.5 -27.5t-38.5 -88.5l-7 -31h217l8 39q22 104 75 154
t141 50q26 0 50 -6t43 -17l-19 -92q-14 9 -30 14t-34 5q-45 0 -70.5 -27.5t-38.5 -88.5zM907 608q-30 0 -48 16t-18 41q0 34 21.5 55t58.5 21q29 0 47.5 -15.5t18.5 -41.5q0 -34 -21.5 -55t-58.5 -21z" />
    <glyph glyph-name="uniFB04" unicode="ffl" horiz-adv-x="1011" 
d="M742 139l129 606h119l-130 -608q-3 -13 -3 -23q0 -30 34 -30q31 0 60 20l-21 -98q-34 -15 -79 -15q-56 0 -85 25t-29 73q0 11 1 23t4 27zM347 -151l122 574h-217l-122 -574h-119l122 574h-84l19 92h85l8 39q22 104 74.5 154t141.5 50q25 0 49 -6t44 -17l-19 -92
q-14 9 -30 14t-34 5q-45 0 -70.5 -27.5t-38.5 -88.5l-7 -31h218l7 35q22 105 77 156.5t147 51.5q28 0 53.5 -6t46.5 -18l-19 -92q-15 9 -33 14.5t-38 5.5q-47 0 -75.5 -28t-41.5 -93l-6 -26h126l-20 -92h-125l-122 -574h-119z" />
    <glyph glyph-name="f_f_b" unicode="ffb" horiz-adv-x="1263" 
d="M1229 355q0 -62 -16 -117.5t-45 -101t-69 -79t-88.5 -52t-102.5 -18.5q-49 0 -97 11t-90 33l151 714h119l-45 -212l-36 -135q36 63 83 96.5t101 33.5q41 0 71.5 -21t47 -60t16.5 -92zM1047 431q-42 0 -80 -37t-75 -113l-39 -187q28 -13 66 -13q39 0 73 21t60 57.5
t40.5 84.5t14.5 102q0 41 -15.5 63t-44.5 22zM347 -151l122 574h-217l-122 -574h-119l122 574h-84l19 92h85l8 39q22 104 74.5 154t141.5 50q25 0 49 -6t44 -17l-19 -92q-14 9 -30 14t-34 5q-45 0 -70.5 -27.5t-38.5 -88.5l-7 -31h218l7 35q22 105 77 156.5t147 51.5
q28 0 53.5 -6t46.5 -18l-19 -92q-15 9 -33 14.5t-38 5.5q-47 0 -75.5 -28t-41.5 -93l-6 -26h126l-20 -92h-125l-122 -574h-119z" />
    <glyph glyph-name="f_f_h" unicode="ffh" horiz-adv-x="1267" 
d="M1049 431q-43 0 -81.5 -37t-75.5 -114l-59 -280h-119l158 745h119l-46 -217l-35 -131q36 63 83.5 97t103.5 34q38 0 66 -16t43 -46t15 -70q0 -15 -1 -30.5t-6 -35.5l-70 -330h-119l69 325q2 12 3.5 22.5t1.5 21.5q0 30 -13 46t-37 16zM347 -151l122 574h-217l-122 -574
h-119l122 574h-84l19 92h85l8 39q22 104 74.5 154t141.5 50q25 0 49 -6t44 -17l-19 -92q-14 9 -30 14t-34 5q-45 0 -70.5 -27.5t-38.5 -88.5l-7 -31h218l7 35q22 105 77 156.5t147 51.5q28 0 53.5 -6t46.5 -18l-19 -92q-15 9 -33 14.5t-38 5.5q-47 0 -75.5 -28t-41.5 -93
l-6 -26h126l-20 -92h-125l-122 -574h-119z" />
    <glyph glyph-name="f_f_j" unicode="ffj" horiz-adv-x="960" 
d="M613 546l-7 -31h336l-122 -577q-19 -90 -67 -133.5t-129 -43.5q-54 0 -94 21l20 92q14 -10 29 -13.5t35 -3.5q71 0 89 89l101 477h-217l-122 -574h-119l122 574h-216l-122 -574h-119l122 574h-84l19 92h85l8 39q22 104 74.5 154t141.5 50q25 0 49 -6t44 -17l-19 -92
q-14 9 -30 14t-34 5q-45 0 -70.5 -27.5t-38.5 -88.5l-7 -31h217l8 39q22 104 75 154t141 50q26 0 50 -6t43 -17l-19 -92q-14 9 -30 14t-34 5q-45 0 -70.5 -27.5t-38.5 -88.5zM907 608q-30 0 -48 16t-18 41q0 34 21.5 55t58.5 21q29 0 47.5 -15.5t18.5 -41.5q0 -34 -21.5 -55
t-58.5 -21z" />
    <glyph glyph-name="f_f_k" unicode="ffk" horiz-adv-x="1237" 
d="M912 228h-31l-48 -228h-119l158 745h119l-90 -425h32q50 48 96.5 95.5t95.5 99.5h138q-64 -66 -126 -127.5t-123 -120.5q43 -67 82 -132.5t79 -134.5h-130q-34 61 -66 116.5t-67 111.5zM347 -151l122 574h-217l-122 -574h-119l122 574h-84l19 92h85l8 39q22 104 74.5 154
t141.5 50q25 0 49 -6t44 -17l-19 -92q-14 9 -30 14t-34 5q-45 0 -70.5 -27.5t-38.5 -88.5l-7 -31h218l7 35q22 105 77 156.5t147 51.5q28 0 53.5 -6t46.5 -18l-19 -92q-15 9 -33 14.5t-38 5.5q-47 0 -75.5 -28t-41.5 -93l-6 -26h126l-20 -92h-125l-122 -574h-119z" />
    <glyph glyph-name="f_f_t" unicode="fft" horiz-adv-x="1050" 
d="M346 -151l122 574h-216l-122 -574h-119l122 574h-84l19 92h85l8 39q22 104 74.5 154t141.5 50q25 0 49 -6t44 -17l-19 -92q-14 9 -30 14t-34 5q-45 0 -70.5 -27.5t-38.5 -88.5l-7 -31h217l8 39q22 104 75 154t141 50q26 0 50 -6t43 -17l-19 -92q-14 9 -30 14t-34 5
q-45 0 -70.5 -27.5t-38.5 -88.5l-7 -31h214l28 133l125 28l-34 -161h133l-20 -92h-133l-50 -236q-3 -16 -6 -32.5t-3 -28.5q0 -43 46 -43q25 0 47.5 8.5t45.5 25.5l-23 -106q-25 -13 -51 -18.5t-60 -5.5q-61 0 -94.5 28.5t-33.5 82.5q0 14 1 27t5 29l57 269h-213l-122 -574
h-119z" />
    <glyph glyph-name=".notdef" horiz-adv-x="500" 
d="M0 0v715h500v-715h-500zM87 668l162 -265l162 265h-324zM278 357l168 -273v547zM221 357l-167 272v-544zM249 311l-162 -264h324z" />
    <glyph glyph-name="uni0000" 
 />
    <glyph glyph-name="uni0000" 
 />
    <glyph glyph-name="uni000D" unicode="&#xd;" horiz-adv-x="226" 
 />
    <glyph glyph-name="space" unicode=" " horiz-adv-x="226" 
 />
    <glyph glyph-name="exclam" unicode="!" horiz-adv-x="265" 
d="M175 218h-101l93 497h125zM86 -9q-31 0 -50 17.5t-19 45.5q0 24 10.5 43t29.5 30t45 11q31 0 50 -17.5t19 -45.5q0 -23 -10.5 -42.5t-29.5 -30.5t-45 -11z" />
    <glyph glyph-name="quotedbl" unicode="&#x22;" horiz-adv-x="381" 
d="M367 451h-93l48 264h109zM189 451h-93l48 264h109z" />
    <glyph glyph-name="numbersign" unicode="#" horiz-adv-x="596" 
d="M254 0l64 178h-124l-64 -178h-94l64 178h-82l17 82h94l66 182h-92l17 82h104l63 175h94l-63 -175h124l63 175h94l-63 -175h82l-17 -82h-94l-66 -182h93l-17 -82h-105l-64 -178h-94zM223 260h124l66 182h-124z" />
    <glyph glyph-name="dollar" unicode="$" horiz-adv-x="596" 
d="M533 210q0 -63 -31 -110.5t-87.5 -76.5t-131.5 -34l-21 -101h-72l22 102q-107 9 -182 64l21 100q42 -32 85.5 -49t95.5 -19l48 228q-60 26 -95 52.5t-50 58t-15 74.5q0 60 30 105.5t85 73.5t129 33l20 95h72l-20 -96q87 -10 159 -59l-21 -99q-72 56 -159 62l-45 -214
q61 -26 97 -53t51 -59.5t15 -77.5zM240 511q0 -27 14 -45t51 -36l38 181q-49 -9 -76 -35t-27 -65zM412 197q0 29 -14.5 48t-51.5 39l-41 -194q50 9 78.5 37.5t28.5 69.5z" />
    <glyph glyph-name="percent" unicode="%" horiz-adv-x="964" 
d="M207 0l490 699h101l-490 -699h-101zM286 709q69 0 107 -40.5t38 -112.5q0 -35 -7.5 -72t-22.5 -71.5t-38.5 -61.5t-56 -43t-74.5 -16q-69 0 -107 40.5t-38 112.5q0 35 7.5 72t22.5 71.5t38.5 61.5t56 43t74.5 16zM284 636q-23 0 -41 -13t-31 -34t-21 -47t-12 -52t-4 -48
q0 -38 15.5 -57.5t43.5 -19.5q23 0 41 13t31 34t21 47t12 52t4 48q0 37 -15.5 57t-43.5 20zM772 407q69 0 107 -40.5t38 -112.5q0 -35 -7.5 -72t-22.5 -71.5t-38.5 -61.5t-56 -43t-74.5 -16q-69 0 -107 40.5t-38 112.5q0 35 7.5 72t22.5 71.5t38.5 61.5t56 43t74.5 16z
M770 334q-23 0 -41 -13t-31 -34t-21 -47t-12 -52t-4 -48q0 -38 15.5 -57.5t43.5 -19.5q23 0 41 13t31 34t21 47t12 52t4 48q0 37 -15.5 57t-43.5 20z" />
    <glyph glyph-name="ampersand" unicode="&#x26;" horiz-adv-x="718" 
d="M496 0q-18 23 -34 45q-43 -28 -93.5 -43t-107.5 -15q-71 0 -123.5 22t-81.5 61.5t-29 94.5q0 76 45.5 130.5t143.5 93.5q-20 34 -30.5 68t-10.5 68q0 45 15 82.5t42.5 64t65 41t82.5 14.5q51 0 88.5 -18t57.5 -51t20 -78q0 -72 -47 -125t-145 -93q27 -37 58 -78.5
t68 -90.5q46 68 68 172h107q-16 -77 -45 -140.5t-70 -110.5q42 -54 89 -114h-133zM278 529q0 -25 7 -49t25 -54q69 25 101 59.5t32 85.5q0 31 -19 49.5t-51 18.5q-43 0 -69 -29.5t-26 -80.5zM145 183q0 -48 35.5 -75t94.5 -27q74 0 131 38q-50 68 -85 117t-63 88
q-60 -26 -86.5 -59.5t-26.5 -81.5z" />
    <glyph glyph-name="quotesingle" unicode="'" horiz-adv-x="203" 
d="M189 451h-93l48 264h109z" />
    <glyph glyph-name="parenleft" unicode="(" horiz-adv-x="323" 
d="M215 -163h-114q-29 72 -42.5 144t-13.5 151q0 112 27 221.5t78.5 212t127.5 192.5h133q-77 -86 -131.5 -191.5t-83 -222t-28.5 -238.5q0 -74 11.5 -141.5t35.5 -127.5z" />
    <glyph glyph-name="parenright" unicode=")" horiz-adv-x="323" 
d="M126 758h114q28 -72 42 -144t14 -151q0 -113 -27 -222t-79 -211t-127 -193h-133q78 87 132 192t82.5 222t28.5 238q0 74 -11.5 141.5t-35.5 127.5z" />
    <glyph glyph-name="asterisk" unicode="*" horiz-adv-x="420" 
d="M422 414l-71 -50l-78 120l-78 -120l-71 50l90 107l-119 30l28 83l114 -48l-10 129h92l-10 -129l114 48l28 -83l-119 -30z" />
    <glyph glyph-name="plus" unicode="+" horiz-adv-x="596" 
d="M267 114v187h-178v98h178v186h103v-186h178v-98h-178v-187h-103z" />
    <glyph glyph-name="comma" unicode="," horiz-adv-x="260" 
d="M169 62q0 -25 -9.5 -53.5t-26 -56.5t-39 -54t-49.5 -46h-107q91 72 121 145q-22 4 -35 20t-13 39q0 24 11 42.5t30 29t44 10.5q35 0 54 -20t19 -56z" />
    <glyph glyph-name="hyphen" unicode="-" horiz-adv-x="371" 
d="M37 224l21 102h284l-21 -102h-284z" />
    <glyph glyph-name="period" unicode="." horiz-adv-x="260" 
d="M98 138q31 0 50.5 -17.5t19.5 -45.5q0 -23 -11 -42.5t-30 -30.5t-45 -11q-31 0 -50.5 17.5t-19.5 45.5q0 24 11 43t30 30t45 11z" />
    <glyph glyph-name="slash" unicode="/" horiz-adv-x="489" 
d="M-73 -163l526 921h128l-526 -921h-128z" />
    <glyph glyph-name="zero" unicode="0" horiz-adv-x="596" 
d="M370 712q68 0 114.5 -29t71 -84.5t24.5 -133.5q0 -45 -7.5 -98t-23.5 -106.5t-41 -102.5t-59.5 -87.5t-79.5 -61t-102 -22.5q-67 0 -114 29.5t-71.5 84.5t-24.5 133q0 46 7.5 98.5t23.5 106t41 102.5t59.5 87.5t80 61t101.5 22.5zM271 88q33 0 60 19t47.5 52t36 73.5
t25 83.5t14.5 84t5 73q0 67 -23.5 102.5t-69.5 35.5q-33 0 -60 -19t-47.5 -52t-36 -73.5t-25 -83.5t-14.5 -84t-5 -73q0 -67 23.5 -102.5t69.5 -35.5z" />
    <glyph glyph-name="one" unicode="1" horiz-adv-x="596" 
d="M477 699l-148 -699h-120l120 567q-45 -22 -88.5 -44t-85.5 -44l25 118q46 25 96.5 50t107.5 52h93z" />
    <glyph glyph-name="two" unicode="2" horiz-adv-x="596" 
d="M489 104l-22 -104h-451l4 22q12 57 30.5 102.5t47.5 83t72 71t104 65.5q40 21 71.5 40t53 39t33 44.5t11.5 55.5t-15 50.5t-39.5 28t-53.5 8.5q-58 0 -105 -19t-92 -54l25 121q43 27 91 40.5t105 13.5q63 0 110.5 -22t74 -63t26.5 -97q0 -40 -10 -73t-34 -61.5t-66 -58
t-107 -64.5q-54 -29 -91.5 -55t-62 -53.5t-38.5 -60.5h328z" />
    <glyph glyph-name="three" unicode="3" horiz-adv-x="596" 
d="M514 215q0 -51 -20.5 -93t-59 -72.5t-92 -46.5t-118.5 -16q-61 0 -108.5 12.5t-91.5 40.5l21 100q27 -19 54 -30.5t57.5 -17t69.5 -5.5q50 0 87.5 16.5t58 46.5t20.5 70q0 45 -31 69.5t-88 24.5h-100l20 95h98q49 0 85.5 14.5t56.5 41.5t20 64q0 40 -30.5 61.5
t-88.5 21.5q-51 0 -97.5 -13t-90.5 -42l24 111q44 21 91 32.5t95 11.5q68 0 116.5 -20t74.5 -57.5t26 -89.5q0 -46 -19.5 -84t-55.5 -65t-83 -39q49 -18 74 -54t25 -88z" />
    <glyph glyph-name="four" unicode="4" horiz-adv-x="596" 
d="M342 145h-324l19 93q67 76 134 151.5t136 152t143 157.5h124l-97 -460h76l-20 -94h-76l-31 -145h-115zM362 239l64 301q-68 -76 -135 -151.5t-131 -149.5h202z" />
    <glyph glyph-name="five" unicode="5" horiz-adv-x="596" 
d="M530 245q0 -79 -37 -137t-105 -89.5t-162 -31.5q-62 0 -110.5 12.5t-90.5 39.5l21 98q26 -19 53 -30t57 -16t69 -5q57 0 98.5 17.5t63.5 50.5t22 79q0 101 -147 101q-30 0 -55 -1.5t-49 -5t-50 -9.5l113 381h374l-22 -104h-274l-51 -173q35 6 69 6q67 0 115 -21.5
t73 -62.5t25 -99z" />
    <glyph glyph-name="six" unicode="6" horiz-adv-x="596" 
d="M554 251q0 -56 -20 -104t-55.5 -84t-83.5 -56t-104 -20q-71 0 -121.5 29t-77 84.5t-26.5 132.5q0 27 3 57t10 63q25 113 79.5 193.5t132.5 123t174 42.5q47 0 82 -9.5t68 -29.5l-20 -96q-22 13 -42.5 20.5t-42.5 11t-50 3.5q-93 0 -158 -61.5t-97 -175.5q71 62 160 62
q58 0 100.5 -23t65.5 -65t23 -98zM184 232q0 -72 29.5 -111.5t83.5 -39.5q40 0 71.5 21t49.5 57t18 81q0 50 -28.5 78t-78.5 28q-80 0 -142 -57q-2 -15 -2.5 -29.5t-0.5 -27.5z" />
    <glyph glyph-name="seven" unicode="7" horiz-adv-x="596" 
d="M602 611q-94 -157 -187 -308.5t-189 -302.5h-135q97 147 191 295t188 300h-335l22 104h464z" />
    <glyph glyph-name="eight" unicode="8" horiz-adv-x="596" 
d="M547 212q0 -51 -19.5 -92t-55.5 -71t-86 -46t-111 -16q-71 0 -124.5 22.5t-82.5 62.5t-29 95q0 50 21 90.5t59.5 69.5t92.5 43q-40 22 -60.5 56t-20.5 76q0 47 18.5 85.5t52.5 66.5t80.5 43t103.5 15q66 0 114.5 -21.5t75.5 -60t27 -90.5q0 -65 -38.5 -113t-106.5 -70
q89 -54 89 -145zM335 409l38 -10q33 8 58.5 25.5t40 43.5t14.5 59q0 41 -28.5 66t-78.5 25q-40 0 -69.5 -14.5t-46 -40.5t-16.5 -62q0 -32 22 -56t66 -36zM161 183q0 -31 15 -53.5t42.5 -35.5t64.5 -13q45 0 77.5 16t50.5 45.5t18 70.5q0 78 -97 105l-30 9q-44 -7 -75.5 -27
t-48.5 -50t-17 -67z" />
    <glyph glyph-name="nine" unicode="9" horiz-adv-x="596" 
d="M562 346q-26 -113 -79.5 -193.5t-130 -123t-171.5 -42.5q-47 0 -82 9t-69 29l21 96q22 -13 42 -20t42 -10.5t50 -3.5q93 0 157 61.5t95 176.5q-72 -63 -159 -63q-58 0 -100 23t-65.5 64.5t-23.5 97.5t20 104.5t55.5 84.5t83.5 56t103 20q71 0 121.5 -29t77 -84.5
t26.5 -133.5q0 -26 -3 -56.5t-11 -62.5zM207 458q0 -50 28.5 -77.5t77.5 -27.5q79 0 141 57q2 15 3 29.5t1 27.5q0 72 -30 111.5t-84 39.5q-38 0 -69.5 -21t-49.5 -57t-18 -82z" />
    <glyph glyph-name="colon" unicode=":" horiz-adv-x="260" 
d="M179 524q31 0 50.5 -17.5t19.5 -45.5q0 -23 -11 -42.5t-30 -30.5t-45 -11q-31 0 -50.5 17.5t-19.5 45.5q0 24 11 43t30 30t45 11zM98 138q31 0 50.5 -17.5t19.5 -45.5q0 -23 -11 -42.5t-30 -30.5t-45 -11q-31 0 -50.5 17.5t-19.5 45.5q0 24 11 43t30 30t45 11z" />
    <glyph glyph-name="semicolon" unicode=";" horiz-adv-x="260" 
d="M169 62q0 -25 -9.5 -53.5t-26 -56.5t-39 -54t-49.5 -46h-107q91 72 121 145q-22 4 -35 20t-13 39q0 24 11 42.5t30 29t44 10.5q35 0 54 -20t19 -56zM179 524q31 0 50.5 -17.5t19.5 -45.5q0 -23 -11 -42.5t-30 -30.5t-45 -11q-31 0 -50.5 17.5t-19.5 45.5q0 24 11 43
t30 30t45 11z" />
    <glyph glyph-name="less" unicode="&#x3c;" horiz-adv-x="596" 
d="M548 209v-107l-459 204v88l459 203v-105l-336 -142z" />
    <glyph glyph-name="equal" unicode="=" horiz-adv-x="596" 
d="M548 415h-459v98h459v-98zM548 187h-459v98h459v-98z" />
    <glyph glyph-name="greater" unicode="&#x3e;" horiz-adv-x="596" 
d="M548 306l-459 -204v107l336 141l-336 142v105l459 -203v-88z" />
    <glyph glyph-name="question" unicode="?" horiz-adv-x="507" 
d="M259 218h-105l4 18q7 32 16.5 56t23.5 42.5t33.5 34.5t47.5 32q36 21 60 38t37.5 33t19 34.5t5.5 41.5q0 41 -31.5 63.5t-89.5 22.5q-46 0 -86 -12t-83 -38l22 107q37 19 81.5 29t89.5 10q68 0 116.5 -20t75 -58t26.5 -90q0 -37 -8 -67t-27 -55.5t-49.5 -49t-75.5 -47.5
q-34 -19 -53.5 -34.5t-30 -32.5t-15.5 -40zM168 -9q-31 0 -50 17.5t-19 45.5q0 24 10.5 43t29.5 30t45 11q31 0 50 -17.5t19 -45.5q0 -23 -10.5 -42.5t-29.5 -30.5t-45 -11z" />
    <glyph glyph-name="at" unicode="@" horiz-adv-x="934" 
d="M662 -173q-60 -27 -122 -40t-127 -13q-121 0 -206.5 42t-130.5 120.5t-45 190.5q0 81 19 155t53.5 138.5t83 116.5t108.5 90t128.5 58t143.5 20q77 0 140 -22t108 -62.5t69 -97.5t24 -126q0 -66 -13.5 -124t-38.5 -106t-59.5 -82.5t-77 -53.5t-90.5 -19q-50 0 -79.5 24
t-29.5 67v14q-67 -105 -153 -105q-33 0 -57.5 16.5t-38 47t-13.5 70.5q0 52 15 100t41.5 88.5t62.5 70.5t78.5 47t89.5 17q38 0 76 -10.5t72 -35.5l-70 -231q-5 -15 -8 -29.5t-3 -28.5q0 -42 39 -42q36 0 67 23.5t55 64.5t37 95.5t13 117.5q0 73 -31.5 125.5t-89.5 80.5
t-139 28q-74 0 -141 -25t-123 -71t-97 -108t-63.5 -136.5t-22.5 -156.5q0 -89 35 -151t102.5 -94.5t163.5 -32.5q73 0 136 15t128 49zM363 157q0 -28 11.5 -44.5t32.5 -16.5q30 0 57.5 24t58.5 79l54 176q-21 9 -48 9q-33 0 -62.5 -18.5t-53 -50t-37 -72.5t-13.5 -86z" />
    <glyph glyph-name="A" unicode="A" horiz-adv-x="696" 
d="M501 0q-11 89 -22 175h-287q-24 -44 -47.5 -87.5t-47.5 -87.5h-139q106 188 211 365.5t210 349.5h132q33 -180 62.5 -358.5t56.5 -356.5h-129zM250 279h216q-11 77 -22 153.5t-22 150.5q-44 -75 -87 -151t-85 -153z" />
    <glyph glyph-name="B" unicode="B" horiz-adv-x="655" 
d="M602 241q0 -75 -35.5 -129t-102 -83t-157.5 -29h-278l151 715h230q68 0 118.5 -20.5t77.5 -57.5t27 -88q0 -67 -35 -113t-99 -66q48 -16 75.5 -49.5t27.5 -79.5zM280 620l-44 -207h119q73 0 114.5 32.5t41.5 91.5q0 39 -30 61t-83 22h-118zM217 321l-48 -226h135
q83 0 128.5 35.5t45.5 100.5q0 43 -33.5 66.5t-93.5 23.5h-134z" />
    <glyph glyph-name="C" unicode="C" horiz-adv-x="652" 
d="M492 730q44 0 79 -6t65 -19.5t58 -34.5l-23 -110q-25 22 -52 36t-59 20t-72 6q-59 0 -106 -19.5t-82 -53t-57.5 -76t-34 -89t-11.5 -90.5q0 -97 50.5 -149.5t143.5 -52.5q41 0 75 6.5t65.5 21t63.5 38.5l-27 -127q-83 -46 -194 -46q-94 0 -163 35t-106 102t-37 162
q0 66 18 130.5t52.5 121.5t86 100.5t118.5 68.5t149 25z" />
    <glyph glyph-name="D" unicode="D" horiz-adv-x="729" 
d="M29 0l151 715h231q90 0 155.5 -34t101.5 -97t36 -149q0 -99 -29 -179t-83 -137t-129.5 -88t-168.5 -31h-265zM575 421q0 90 -46 139t-131 49h-116l-107 -504h116q65 0 117.5 22.5t89.5 64.5t57 100t20 129z" />
    <glyph glyph-name="E" unicode="E" horiz-adv-x="591" 
d="M180 715h455l-22 -105h-331l-40 -188h295l-22 -104h-295l-45 -214h348l-22 -104h-472z" />
    <glyph glyph-name="F" unicode="F" horiz-adv-x="554" 
d="M180 715h441l-22 -105h-317l-43 -206h280l-23 -105h-280l-63 -299h-124z" />
    <glyph glyph-name="G" unicode="G" horiz-adv-x="720" 
d="M610 44q-55 -30 -112.5 -44.5t-123.5 -14.5q-96 0 -164.5 36t-105 102.5t-36.5 160.5q0 66 18.5 130.5t54.5 121.5t88.5 100.5t121.5 68.5t154 25q70 0 121.5 -14t97.5 -46l-23 -110q-27 22 -56.5 35.5t-64.5 20t-79 6.5q-62 0 -111 -19.5t-85.5 -53t-60 -75.5
t-35.5 -88.5t-12 -91.5q0 -97 51 -150t145 -53q34 0 62 5.5t53 17.5l37 174h-132l21 99h249z" />
    <glyph glyph-name="H" unicode="H" horiz-adv-x="738" 
d="M477 0l68 320h-324l-68 -320h-124l151 715h124l-61 -287h324l61 287h124l-151 -715h-124z" />
    <glyph glyph-name="I" unicode="I" horiz-adv-x="290" 
d="M180 715h124l-151 -715h-124z" />
    <glyph glyph-name="J" unicode="J" horiz-adv-x="485" 
d="M124 -15q-42 0 -83 11.5t-71 31.5l22 103q30 -20 60.5 -29.5t68.5 -9.5q65 0 102.5 35t53.5 109l101 479h124l-103 -488q-26 -124 -93.5 -183t-181.5 -59z" />
    <glyph glyph-name="K" unicode="K" horiz-adv-x="676" 
d="M255 320h-34l-68 -320h-124l151 715h124l-61 -290h36q82 74 156 145.5t148 144.5h155q-92 -87 -184.5 -174.5t-189.5 -174.5q64 -91 125.5 -181t124.5 -185h-145q-52 82 -104 160t-110 160z" />
    <glyph glyph-name="L" unicode="L" horiz-adv-x="556" 
d="M180 715h124l-128 -608h331l-23 -107h-455z" />
    <glyph glyph-name="M" unicode="M" horiz-adv-x="862" 
d="M354 135q-25 99 -48.5 198t-45.5 200l-113 -533h-118l151 715h145q24 -119 49.5 -234.5t52.5 -229.5q76 114 151.5 229t151.5 235h146l-151 -715h-118l110 520q-64 -97 -129 -193t-131 -192h-103z" />
    <glyph glyph-name="N" unicode="N" horiz-adv-x="737" 
d="M475 0q-52 137 -106 274.5t-107 265.5l-114 -540h-119l151 715h125q55 -133 108 -266.5t106 -270.5l113 537h119l-151 -715h-125z" />
    <glyph glyph-name="O" unicode="O" horiz-adv-x="771" 
d="M362 -15q-68 0 -122 21t-92.5 60t-59 93.5t-20.5 122.5q0 66 16 131t48 122t78.5 101t107 69t134.5 25q68 0 122 -21t92.5 -60t59 -94t20.5 -123q0 -66 -16 -130.5t-48 -121.5t-78.5 -101t-107 -69t-134.5 -25zM446 622q-50 0 -90 -20t-70 -54t-49.5 -77.5t-29.5 -90.5
t-10 -92q0 -61 20 -105t58.5 -67.5t92.5 -23.5q50 0 90 20t70 54.5t49.5 77.5t29.5 90.5t10 92.5q0 61 -20.5 104.5t-58.5 67t-92 23.5z" />
    <glyph glyph-name="P" unicode="P" horiz-adv-x="628" 
d="M636 523q0 -83 -37 -143t-105.5 -92t-164.5 -32h-123l-54 -256h-123l151 715h212q75 0 129.5 -23.5t84.5 -66.5t30 -102zM282 616l-55 -262h99q88 0 136 41t48 117q0 50 -34 77t-95 27h-99z" />
    <glyph glyph-name="Q" unicode="Q" horiz-adv-x="797" 
d="M530 0q-30 0 -57 -4t-54 -7.5t-57 -3.5q-68 0 -122 21t-92.5 60t-59 93.5t-20.5 122.5q0 66 16 131t48 122t78.5 101t107 69t134.5 25q68 0 122 -21t92.5 -60t59 -94t20.5 -123q0 -67 -18 -132.5t-54 -121t-88 -93.5l189 23l-23 -108h-222zM446 622q-50 0 -90 -20
t-70 -54t-49.5 -77.5t-29.5 -90.5t-10 -92q0 -61 20 -105t58.5 -67.5t92.5 -23.5q50 0 90 20t70 54.5t49.5 77.5t29.5 90.5t10 92.5q0 61 -20.5 104.5t-58.5 67t-92 23.5z" />
    <glyph glyph-name="R" unicode="R" horiz-adv-x="646" 
d="M210 274l-58 -274h-123l151 715h217q77 0 132.5 -23t86 -65.5t30.5 -102.5q0 -57 -21.5 -103t-61.5 -79t-97 -50q29 -71 57 -143.5t55 -148.5h-131q-23 70 -47.5 137.5t-50.5 136.5h-12h-127zM282 616l-51 -244h102q36 0 69 7.5t59 25t41 45.5t15 69q0 35 -17 56.5
t-46.5 31t-67.5 9.5h-104z" />
    <glyph glyph-name="S" unicode="S" horiz-adv-x="599" 
d="M233 523q0 -17 5.5 -30.5t19.5 -25.5t38 -24.5t61 -28.5q51 -22 86 -42.5t56 -43.5t30.5 -51t9.5 -64q0 -51 -21 -93t-59.5 -72.5t-92 -46.5t-119.5 -16q-68 0 -127.5 17t-106.5 51l23 105q46 -37 97.5 -54t112.5 -17q78 0 122 30.5t44 83.5q0 25 -10.5 43t-35.5 34.5
t-69 34.5q-54 22 -90.5 43t-58 43.5t-31 49.5t-9.5 61q0 49 20.5 89.5t58 69.5t90.5 45t117 16q58 0 110.5 -16t98.5 -47l-22 -103q-42 32 -89 47.5t-102 15.5q-74 0 -115.5 -28t-41.5 -76z" />
    <glyph glyph-name="T" unicode="T" horiz-adv-x="598" 
d="M114 715h563l-23 -108h-219l-128 -607h-124l128 607h-220z" />
    <glyph glyph-name="U" unicode="U" horiz-adv-x="727" 
d="M92 313l85 402h124l-91 -431q-4 -16 -5.5 -29.5t-1.5 -26.5q0 -64 36.5 -100t105.5 -36q71 0 116.5 43t62.5 125l96 455h124l-96 -455q-29 -136 -108.5 -205.5t-203.5 -69.5q-81 0 -138 28.5t-87 82.5t-30 129q0 19 3 40t8 48z" />
    <glyph glyph-name="V" unicode="V" horiz-adv-x="681" 
d="M766 715q-100 -180 -204 -358.5t-210 -356.5h-132q-32 178 -59.5 357t-51.5 358h129q16 -145 34 -289t38 -288q82 144 161 288t156 289h139z" />
    <glyph glyph-name="W" unicode="W" horiz-adv-x="924" 
d="M542 0q-7 127 -13 255t-10 256q-60 -128 -121 -255.5t-124 -255.5h-130q-24 349 -30 715h132q-4 -144 -3.5 -287.5t3.5 -282.5q64 136 126.5 270.5t122.5 269.5h121q3 -135 7 -267t9 -265q61 137 121 278.5t116 283.5h135q-80 -182 -163.5 -361t-168.5 -354h-130z" />
    <glyph glyph-name="X" unicode="X" horiz-adv-x="645" 
d="M445 0q-26 66 -54.5 135.5t-60.5 142.5q-59 -69 -114 -138t-108 -140h-152q79 96 157.5 189t163.5 189q-42 88 -80 172t-71 165h135q23 -62 49 -125t55 -130q50 60 100.5 124t100.5 131h147q-75 -93 -148 -180t-148 -172q46 -98 86.5 -186.5t77.5 -176.5h-136z" />
    <glyph glyph-name="Y" unicode="Y" horiz-adv-x="663" 
d="M397 275l-58 -275h-124l58 275q-43 109 -83 219t-78 221h130q26 -84 53 -168t56 -167q64 83 126.5 167.5t122.5 167.5h145q-85 -111 -172 -221t-176 -219z" />
    <glyph glyph-name="Z" unicode="Z" horiz-adv-x="617" 
d="M546 105l-23 -105h-538l19 89q119 135 237 265t235 256h-346l22 105h509l-19 -89q-119 -128 -238.5 -259t-235.5 -262h378z" />
    <glyph glyph-name="bracketleft" unicode="[" horiz-adv-x="336" 
d="M-4 -163l195 921h233l-21 -96h-115l-155 -729h116l-21 -96h-232z" />
    <glyph glyph-name="backslash" unicode="\" horiz-adv-x="489" 
d="M273 -163l-152 921h113l152 -921h-113z" />
    <glyph glyph-name="bracketright" unicode="]" horiz-adv-x="336" 
d="M359 758l-195 -921h-233l21 96h115l155 729h-116l21 96h232z" />
    <glyph glyph-name="asciicircum" unicode="^" horiz-adv-x="596" 
d="M450 312l-142 280l-141 -280h-108l206 393h89l206 -393h-110z" />
    <glyph glyph-name="underscore" unicode="_" horiz-adv-x="500" 
d="M-87 -155l20 94h500l-20 -94h-500z" />
    <glyph glyph-name="grave" unicode="`" horiz-adv-x="500" 
d="M232 761h123q23 -37 47 -77.5t47 -83.5h-97q-25 35 -55 75t-65 86z" />
    <glyph glyph-name="a" unicode="a" horiz-adv-x="561" 
d="M337 0q2 28 7 59.5t12 68.5q-37 -68 -85.5 -104.5t-103.5 -36.5q-41 0 -71 21t-46 60.5t-16 92.5q0 61 16 116.5t45 101t68.5 79t87.5 52t101 18.5q49 0 96 -11t89 -33l-67 -316q-10 -50 -17 -91t-10 -77h-106zM156 170q0 -42 15 -64t42 -22q41 0 78.5 36t72.5 110
l41 191q-27 13 -63 13q-39 0 -72.5 -21t-59 -57t-40 -84t-14.5 -102z" />
    <glyph glyph-name="b" unicode="b" horiz-adv-x="568" 
d="M534 355q0 -62 -16 -117.5t-45 -101t-69 -79t-88.5 -52t-102.5 -18.5q-49 0 -97 11t-90 33l151 714h119l-45 -212l-36 -135q36 63 83 96.5t101 33.5q41 0 71.5 -21t47 -60t16.5 -92zM352 431q-42 0 -80 -37t-75 -113l-39 -187q28 -13 66 -13q39 0 73 21t60 57.5
t40.5 84.5t14.5 102q0 41 -15.5 63t-44.5 22z" />
    <glyph glyph-name="c" unicode="c" horiz-adv-x="472" 
d="M269 83q40 0 74.5 13.5t72.5 44.5l-25 -116q-34 -19 -69.5 -28.5t-79.5 -9.5q-63 0 -107.5 25t-68.5 72.5t-24 114.5q0 53 14 101.5t40 90t63.5 72.5t84 48t100.5 17q43 0 76.5 -10t60.5 -32l-20 -96q-22 22 -49.5 32t-65.5 10q-43 0 -77 -18.5t-58 -50.5t-36.5 -72
t-12.5 -83q0 -62 27 -93.5t80 -31.5z" />
    <glyph glyph-name="d" unicode="d" horiz-adv-x="567" 
d="M343 0q2 28 7 60t12 68q-37 -68 -86.5 -104.5t-105.5 -36.5q-42 0 -72.5 21t-47 60.5t-16.5 92.5q0 61 16 116.5t45 101t69 79t88.5 52t102.5 18.5q39 0 77 -10l47 227h119l-122 -577q-10 -50 -17 -91t-10 -77h-106zM156 170q0 -42 16 -64t44 -22q42 0 80 36t74 110
l41 191q-28 13 -66 13q-39 0 -73.5 -21t-60.5 -57t-40.5 -84t-14.5 -102z" />
    <glyph glyph-name="e" unicode="e" horiz-adv-x="519" 
d="M416 31q-38 -23 -76.5 -33.5t-85.5 -10.5q-66 0 -113.5 25t-73 72.5t-25.5 113.5q0 55 15 104.5t42 91t64 71.5t82 46.5t94 16.5q50 0 86.5 -16.5t56.5 -47t20 -71.5q0 -93 -84.5 -141t-262.5 -58q3 -57 32 -85t85 -28q30 0 57 6.5t54 20.5t57 36zM327 440
q-39 0 -72.5 -22t-57.5 -60t-35 -86q121 6 176 32.5t55 79.5q0 27 -17.5 41.5t-48.5 14.5z" />
    <glyph glyph-name="f" unicode="f" horiz-adv-x="359" 
d="M377 423h-125l-122 -574h-119l122 574h-84l19 92h85l7 35q22 105 77 156.5t147 51.5q28 0 53.5 -6t46.5 -18l-19 -92q-15 9 -33 14.5t-38 5.5q-47 0 -75.5 -28t-41.5 -93l-6 -26h126z" />
    <glyph glyph-name="g" unicode="g" horiz-adv-x="569" 
d="M443 1q-24 -116 -96.5 -178t-185.5 -62q-54 0 -96.5 11.5t-78.5 37.5l20 97q34 -27 69 -38.5t80 -11.5q68 0 112 38t59 111l8 38l28 95q-36 -64 -84.5 -98t-104.5 -34q-41 0 -72 20.5t-47.5 58t-16.5 89.5q0 59 16 112t45 97t69 76.5t88.5 50t102.5 17.5q101 0 187 -44z
M159 184q0 -39 16 -59.5t45 -20.5q42 0 80.5 35t76.5 107l37 175q-29 13 -66 13q-39 0 -73.5 -19.5t-60.5 -54t-40.5 -80t-14.5 -96.5z" />
    <glyph glyph-name="h" unicode="h" horiz-adv-x="572" 
d="M354 431q-43 0 -81.5 -37t-75.5 -114l-59 -280h-119l158 745h119l-46 -217l-35 -131q36 63 83.5 97t103.5 34q38 0 66 -16t43 -46t15 -70q0 -15 -1 -30.5t-6 -35.5l-70 -330h-119l69 325q2 12 3.5 22.5t1.5 21.5q0 30 -13 46t-37 16z" />
    <glyph glyph-name="i" unicode="i" horiz-adv-x="265" 
d="M225 741q29 0 47.5 -15.5t18.5 -41.5q0 -34 -21.5 -55t-58.5 -21q-29 0 -47.5 16t-18.5 41q0 34 21.5 55t58.5 21zM128 515h119l-109 -515h-119z" />
    <glyph glyph-name="j" unicode="j" horiz-adv-x="265" 
d="M225 741q29 0 47.5 -15.5t18.5 -41.5q0 -34 -21.5 -55t-58.5 -21q-29 0 -47.5 16t-18.5 41q0 34 21.5 55t58.5 21zM128 515h119l-122 -577q-19 -90 -67.5 -133.5t-128.5 -43.5q-26 0 -50.5 5.5t-43.5 15.5l19 92q15 -10 29.5 -13.5t34.5 -3.5q70 0 90 91z" />
    <glyph glyph-name="k" unicode="k" horiz-adv-x="542" 
d="M217 228h-31l-48 -228h-119l158 745h119l-90 -425h32q50 48 96.5 95.5t95.5 99.5h138q-64 -66 -126 -127.5t-123 -120.5q43 -67 82 -132.5t79 -134.5h-130q-34 61 -66 116.5t-67 111.5z" />
    <glyph glyph-name="l" unicode="l" horiz-adv-x="315" 
d="M46 139l129 606h119l-130 -608q-3 -13 -3 -23q0 -30 34 -30q31 0 60 20l-21 -98q-34 -15 -79 -15q-56 0 -85 25t-29 73q0 11 1 23t4 27z" />
    <glyph glyph-name="m" unicode="m" horiz-adv-x="853" 
d="M344 431q-40 0 -76 -36.5t-71 -113.5l-59 -281h-119l74 350q11 50 17.5 89.5t9.5 75.5h106q-2 -28 -6.5 -58.5t-11.5 -66.5q35 66 81.5 102t102.5 36q52 0 84 -33t35 -91q35 60 80 92t97 32q36 0 63 -16t41.5 -46t14.5 -70q0 -15 -1.5 -30.5t-5.5 -35.5l-70 -330h-119
l69 325q3 12 4 22.5t1 21.5q0 30 -11.5 46t-33.5 16q-40 0 -76 -37t-71 -115l-59 -279h-119l69 325q2 12 3.5 22.5t1.5 21.5q0 30 -11.5 46t-33.5 16z" />
    <glyph glyph-name="n" unicode="n" horiz-adv-x="572" 
d="M354 431q-43 0 -81.5 -37t-75.5 -114l-59 -280h-119l74 350q11 50 17.5 89.5t9.5 75.5h106q-2 -28 -7 -60t-12 -68q37 68 87 104.5t108 36.5q38 0 66 -16t43 -46t15 -70q0 -15 -1 -30.5t-6 -35.5l-70 -330h-119l69 325q2 12 3.5 22.5t1.5 21.5q0 30 -13 46t-37 16z" />
    <glyph glyph-name="o" unicode="o" horiz-adv-x="564" 
d="M317 528q64 0 110.5 -26t71.5 -74t25 -114q0 -48 -12 -95t-35 -89t-56 -74t-76.5 -50.5t-95.5 -18.5q-64 0 -110.5 26t-71.5 74t-25 114q0 48 12 95t35 89t56 74t76.5 50.5t95.5 18.5zM252 83q31 0 55.5 14.5t43 39t30 55t17.5 63t6 61.5q0 55 -23.5 85.5t-66.5 30.5
q-31 0 -55.5 -14.5t-43 -39t-30 -55t-17.5 -63t-6 -61.5q0 -55 23.5 -85.5t66.5 -30.5z" />
    <glyph glyph-name="p" unicode="p" horiz-adv-x="568" 
d="M213 -13q-39 0 -76 10l-47 -223h-119l122 576q11 50 17.5 89.5t9.5 75.5h106q-2 -28 -7 -59.5t-11 -67.5q37 68 86 104t105 36q41 0 71.5 -21t47 -60t16.5 -93q0 -61 -16 -116.5t-45 -101t-69 -79t-88.5 -52t-102.5 -18.5zM352 431q-42 0 -80 -37t-75 -113l-39 -187
q14 -7 31 -10t35 -3q39 0 73 20.5t60 57.5t40.5 84.5t14.5 101.5q0 42 -15.5 64t-44.5 22z" />
    <glyph glyph-name="q" unicode="q" horiz-adv-x="567" 
d="M543 484l-150 -710h-119l44 208l37 136q-36 -63 -83.5 -97t-101.5 -34q-42 0 -72.5 21t-47 60t-16.5 92q0 62 16 117.5t45 101t69 79t88.5 52t102.5 18.5q49 0 97 -11t91 -33zM156 169q0 -41 16 -63t44 -22q42 0 80 36t74 111l41 190q-29 13 -66 13q-39 0 -73.5 -21
t-60.5 -57.5t-40.5 -84.5t-14.5 -102z" />
    <glyph glyph-name="r" unicode="r" horiz-adv-x="393" 
d="M352 408q-45 0 -84 -40t-78 -122l-52 -246h-119l74 350q11 50 17.5 89.5t9.5 75.5h106q-3 -35 -9.5 -74t-15.5 -87q32 82 77 126t99 44q18 0 31 -3t28 -9l-26 -120q-14 8 -27.5 12t-30.5 4z" />
    <glyph glyph-name="s" unicode="s" horiz-adv-x="458" 
d="M1 34l20 93q65 -50 150 -50q49 0 78.5 18.5t29.5 52.5q0 16 -6.5 27t-22.5 20.5t-44 20.5q-52 20 -82 41t-43 46t-13 60q0 49 27 86.5t76 58t114 20.5q44 0 84.5 -12t75.5 -34l-20 -92q-29 24 -65 36t-75 12q-49 0 -76 -17.5t-27 -48.5q0 -14 6.5 -25t24 -21t49.5 -22
q49 -19 78 -39.5t41.5 -46.5t12.5 -62q0 -50 -27 -88.5t-76.5 -59.5t-115.5 -21q-51 0 -95.5 12t-78.5 35z" />
    <glyph glyph-name="t" unicode="t" horiz-adv-x="389" 
d="M315 11q-25 -13 -51 -18.5t-60 -5.5q-63 0 -95.5 29t-32.5 86q0 12 2.5 28.5t5.5 31.5l55 261h-90l19 92h91l28 133l125 28l-34 -161h133l-20 -92h-133l-50 -236q-4 -18 -6.5 -35.5t-2.5 -25.5q0 -43 46 -43q24 0 46.5 8.5t46.5 25.5z" />
    <glyph glyph-name="u" unicode="u" horiz-adv-x="568" 
d="M343 0q2 28 7 59.5t12 67.5q-37 -67 -85.5 -103.5t-105.5 -36.5q-37 0 -65 16t-43 45.5t-15 70.5q0 15 1 31t6 35l70 330h119l-69 -326q-2 -12 -3.5 -22.5t-1.5 -20.5q0 -30 12.5 -46t36.5 -16q41 0 78.5 37t74.5 113l59 281h119l-74 -349q-10 -50 -17 -90t-10 -76h-106z
" />
    <glyph glyph-name="v" unicode="v" horiz-adv-x="511" 
d="M558 515q-74 -136 -147 -263t-149 -252h-122q-22 121 -41 250t-35 265h121q8 -102 17 -201t21 -196q53 97 104.5 196.5t101.5 200.5h129z" />
    <glyph glyph-name="w" unicode="w" horiz-adv-x="735" 
d="M413 0q-7 89 -12 178.5t-9 179.5q-43 -90 -88 -179.5t-91 -178.5h-118q-10 127 -17.5 256t-12.5 259h121q-2 -101 -2 -200t2 -198q46 95 89.5 188.5t87.5 189.5h113q3 -92 6.5 -183.5t8.5 -182.5q43 97 83.5 192t80.5 194h125q-59 -130 -121.5 -258.5t-126.5 -256.5h-119
z" />
    <glyph glyph-name="x" unicode="x" horiz-adv-x="504" 
d="M319 0q-19 48 -39 92.5t-41 89.5q-38 -45 -75.5 -90.5t-73.5 -91.5h-136q59 68 118.5 135t119.5 132q-31 64 -59 125.5t-54 122.5h121q17 -47 34 -89.5t35 -84.5q36 43 70 87t66 87h131q-53 -65 -108 -129.5t-112 -128.5q34 -67 65 -130.5t61 -126.5h-123z" />
    <glyph glyph-name="y" unicode="y" horiz-adv-x="511" 
d="M201 -92q-31 -52 -63 -84.5t-68 -47.5t-78 -15q-53 0 -85 20l19 90q24 -15 60 -15q32 0 57 19t54 62q11 18 22.5 37t23.5 40q-22 122 -41.5 247t-37.5 254h121q8 -92 18.5 -188t22.5 -195q55 100 105.5 196t97.5 187h129q-34 -61 -72 -126.5t-77 -131.5t-76.5 -129
t-71 -119t-60.5 -101z" />
    <glyph glyph-name="z" unicode="z" horiz-adv-x="465" 
d="M397 92l-20 -92h-397l17 80q76 83 156 168.5t166 174.5h-238l20 92h378l-17 -81q-87 -89 -167.5 -174t-155.5 -168h258z" />
    <glyph glyph-name="braceleft" unicode="{" horiz-adv-x="324" 
d="M237 -67l-21 -96h-49q-41 0 -72 15.5t-47.5 43.5t-16.5 67q0 33 8.5 63.5t19.5 59t19.5 56t8.5 55.5q0 54 -62 54l19 92q41 0 64 22t33 68q5 25 6 50t3 52.5t9 58.5q13 58 38 94.5t65 53t98 16.5h52l-21 -96h-27q-27 0 -45 -11t-29 -30t-17 -43q-7 -28 -10 -58.5t-6 -60
t-8 -53.5q-9 -40 -38 -69.5t-69 -40.5q30 -9 47 -31.5t17 -53.5q0 -24 -9 -50.5t-20 -55.5t-20 -58t-9 -57t14.5 -42.5t46.5 -14.5h28z" />
    <glyph glyph-name="bar" unicode="|" horiz-adv-x="297" 
d="M-12 -226l208 983h117l-208 -983h-117z" />
    <glyph glyph-name="braceright" unicode="}" horiz-adv-x="324" 
d="M183 0q-13 -58 -38 -94t-65 -52.5t-98 -16.5h-52l21 96h27q32 0 51 14t29 38t16 53q4 25 7 52t5 52.5t7 46.5q8 40 37.5 69t70.5 40q-30 10 -47.5 32t-17.5 53q0 24 9 51t20 55.5t20 57.5t9 57t-14.5 43t-46.5 15h-28l21 96h49q41 0 72 -15.5t47.5 -44t16.5 -66.5
q0 -34 -8.5 -64.5t-19.5 -59t-19.5 -56t-8.5 -54.5q0 -28 15.5 -41.5t46.5 -13.5l-19 -92q-41 0 -64 -21.5t-33 -67.5q-5 -24 -6 -49.5t-3 -53t-9 -59.5z" />
    <glyph glyph-name="asciitilde" unicode="~" horiz-adv-x="596" 
d="M337 394q27 -19 42.5 -29t26 -13.5t22.5 -3.5q26 0 38.5 24t13.5 73h83q0 -193 -131 -193q-20 0 -39.5 5t-41.5 17t-51 32q-27 19 -42.5 29t-26 13.5t-22.5 3.5q-27 0 -39.5 -24t-13.5 -73h-83q0 193 132 193q20 0 39.5 -5t41.5 -17t51 -32z" />
    <glyph glyph-name="uni00A0" unicode="&#xa0;" horiz-adv-x="226" 
 />
    <glyph glyph-name="exclamdown" unicode="&#xa1;" horiz-adv-x="265" 
d="M179 524q31 0 50 -17.5t19 -45.5q0 -23 -10.5 -42.5t-30 -30.5t-44.5 -11q-31 0 -50 17.5t-19 45.5q0 24 10.5 43t30 30t44.5 11zM90 297h101l-93 -497h-125z" />
    <glyph glyph-name="cent" unicode="&#xa2;" horiz-adv-x="596" 
d="M305 79q-20 0 -38 2l-50 -117h-86l60 141q-47 25 -72 72.5t-25 114.5q0 52 14.5 101t42 90.5t66 72.5t86.5 48t104 17h5l49 115h86l-54 -126q34 -11 62 -31l-20 -96q-17 15 -36.5 24.5t-43.5 13.5l-147 -345q11 -1 24 -1q44 0 80.5 13.5t77.5 44.5l-25 -116
q-36 -19 -74.5 -28.5t-85.5 -9.5zM213 301q0 -56 25 -88l131 308q-36 -8 -65 -29t-49.5 -51t-31 -66t-10.5 -74z" />
    <glyph glyph-name="sterling" unicode="&#xa3;" horiz-adv-x="596" 
d="M510 102l-21 -102h-467l18 86q62 25 95.5 83.5t33.5 140.5v1h-100l17 80h78q-1 12 -1.5 24t-0.5 24q0 85 33.5 146.5t96 94t151.5 32.5q50 0 91.5 -12t77.5 -38l-21 -100q-32 26 -65.5 37.5t-80.5 11.5q-84 0 -126 -48.5t-42 -141.5v-14.5t1 -15.5h185l-17 -80h-164v-1
q0 -73 -29 -126.5t-80 -81.5h337z" />
    <glyph glyph-name="currency" unicode="&#xa4;" horiz-adv-x="596" 
d="M603 90l-63 -52l-94 104q-27 -15 -59.5 -23t-68.5 -8t-68 8t-59 23l-94 -104l-64 52l96 104q-24 30 -37.5 69.5t-13.5 86.5t13 86t37 69l-95 103l63 52l94 -104q27 15 59.5 23t68.5 8t68 -8t59 -23l94 104l64 -52l-96 -104q24 -30 37.5 -69.5t13.5 -86.5t-13 -86t-37 -69
zM318 206q41 0 71 17.5t46.5 49.5t16.5 75q0 44 -16.5 76t-47 50t-70.5 18q-41 0 -71 -17.5t-46.5 -49.5t-16.5 -75q0 -44 16.5 -76t47 -50t70.5 -18z" />
    <glyph glyph-name="yen" unicode="&#xa5;" horiz-adv-x="596" 
d="M493 115h-166l-24 -115h-119l24 115h-165l16 75h165l18 86h-165l16 75h120q-32 86 -63 175t-59 173h122q14 -48 31 -103.5t35 -113.5t36 -114q42 55 85 112.5t83.5 113t75.5 105.5h134q-63 -84 -132 -173t-138 -175h120l-16 -75h-166l-18 -86h166z" />
    <glyph glyph-name="brokenbar" unicode="&#xa6;" horiz-adv-x="297" 
d="M113 367l83 390h117l-83 -390h-117zM-12 -226l87 409h117l-87 -409h-117z" />
    <glyph glyph-name="section" unicode="&#xa7;" horiz-adv-x="527" 
d="M405 6q0 -54 -29.5 -94.5t-81.5 -63.5t-122 -23q-54 0 -102 12t-86 36l19 90q35 -26 76.5 -38.5t88.5 -12.5q56 0 89 22t33 62q0 18 -5.5 30.5t-19 23.5t-37.5 25l-80 47q-39 22 -61.5 43t-31.5 44t-9 52q0 60 42 104.5t118 66.5q-26 18 -41 36.5t-21.5 40t-6.5 48.5
q0 52 28 91t78.5 60.5t116.5 21.5q91 0 167 -47l-19 -89q-32 25 -70 37t-78 12q-52 0 -81 -20t-29 -56q0 -17 5 -29.5t18.5 -24t37.5 -25.5l79 -46q40 -24 63 -44.5t32 -43.5t9 -53q0 -60 -40.5 -105t-113.5 -69q24 -17 38 -34t20.5 -38t6.5 -49zM219 201l63 -37
q47 16 73.5 45.5t26.5 68.5q0 19 -5.5 32.5t-19 25.5t-37.5 27l-55 32q-50 -14 -78.5 -43t-28.5 -68q0 -18 5.5 -31.5t19 -26t36.5 -25.5z" />
    <glyph glyph-name="dieresis" unicode="&#xa8;" horiz-adv-x="500" 
d="M218 618q-26 0 -42.5 15t-16.5 38q0 20 9.5 36t25.5 25.5t37 9.5q26 0 42.5 -15t16.5 -38q0 -20 -9 -36t-25.5 -25.5t-37.5 -9.5zM451 618q-26 0 -43 15t-17 38q0 20 9.5 36t25.5 25.5t37 9.5q26 0 43 -15t17 -38q0 -20 -9.5 -36t-25.5 -25.5t-37 -9.5z" />
    <glyph glyph-name="copyright" unicode="&#xa9;" horiz-adv-x="873" 
d="M459 -15q-88 0 -159 26t-122 75t-78 117.5t-27 153.5q0 84 27 153t78 118t122 75.5t159 26.5t159 -26t122 -75t78 -117.5t27 -153.5q0 -84 -27 -153t-78 -118t-122 -75.5t-159 -26.5zM459 57q70 0 126.5 20.5t96.5 60t61.5 95t21.5 124.5t-21 125t-61 95t-96.5 60
t-127.5 21t-127.5 -21t-96.5 -60t-61 -95t-21 -125t21.5 -124.5t61.5 -95t96.5 -60t126.5 -20.5zM609 262v-87q-27 -17 -60.5 -25.5t-68.5 -8.5q-68 0 -117 25.5t-75 74t-26 116.5q0 66 27 114.5t76.5 75t116.5 26.5q34 0 64.5 -7.5t56.5 -24.5v-89q-23 17 -50 26.5t-57 9.5
q-62 0 -96 -35t-34 -96q0 -62 34.5 -96.5t94.5 -34.5q31 0 59 8.5t55 27.5z" />
    <glyph glyph-name="ordfeminine" unicode="&#xaa;" horiz-adv-x="455" 
d="M322 306q2 22 5.5 46.5t8.5 51.5q-29 -52 -67 -80t-81 -28q-32 0 -54.5 16t-35 45t-12.5 69q0 57 19 106.5t52 86.5t77.5 58t95.5 21q75 0 141 -32l-50 -236q-9 -43 -13.5 -70.5t-6.5 -53.5h-79zM176 433q0 -29 12 -46t34 -17q32 0 61.5 26.5t58.5 81.5l30 140
q-21 9 -49 9q-30 0 -57 -15t-47 -42t-31.5 -62t-11.5 -75z" />
    <glyph glyph-name="guillemotleft" unicode="&#xab;" horiz-adv-x="575" 
d="M572 472l-180 -219l91 -201h-112l-102 210l178 210h125zM348 472l-180 -219l91 -201h-112l-102 210l178 210h125z" />
    <glyph glyph-name="logicalnot" unicode="&#xac;" horiz-adv-x="596" 
d="M445 165v186h-356v98h459v-284h-103z" />
    <glyph glyph-name="registered" unicode="&#xae;" horiz-adv-x="531" 
d="M320 730q68 0 117.5 -26.5t77 -75t27.5 -114.5t-27.5 -115t-77.5 -76t-117 -27q-68 0 -117.5 26.5t-77 75t-27.5 114.5t27.5 115t77.5 76t117 27zM320 341q53 0 91.5 20.5t59.5 58.5t21 92q0 55 -21 93.5t-60 59t-91 20.5q-53 0 -91.5 -20.5t-59.5 -59t-21 -93.5
q0 -54 20.5 -92t59 -58.5t92.5 -20.5zM281 479v-76h-55v220h95q47 0 72 -18.5t25 -53.5q0 -42 -39 -61q13 -20 27.5 -42.5t27.5 -44.5h-65q-10 20 -21 38.5t-23 37.5h-4h-40zM281 581v-60h36q43 0 43 30t-43 30h-36z" />
    <glyph glyph-name="macron" unicode="&#xaf;" horiz-adv-x="500" 
d="M192 719h315l-17 -78h-315z" />
    <glyph glyph-name="degree" unicode="&#xb0;" horiz-adv-x="452" 
d="M285 712q55 0 96.5 -23t64.5 -64t23 -94t-23 -92.5t-64.5 -62t-96.5 -22.5t-96.5 23t-64.5 64t-23 94t23 92.5t64.5 62t96.5 22.5zM285 429q45 0 70.5 28t25.5 74q0 48 -25.5 77t-70.5 29t-70.5 -28t-25.5 -74q0 -48 25.5 -77t70.5 -29z" />
    <glyph glyph-name="plusminus" unicode="&#xb1;" horiz-adv-x="596" 
d="M267 156v187h-178v98h178v186h103v-186h178v-98h-178v-187h-103zM548 0h-459v98h459v-98z" />
    <glyph glyph-name="acute" unicode="&#xb4;" horiz-adv-x="500" 
d="M346 761h139q-50 -44 -94 -85t-81 -76h-112q38 43 76 84t72 77z" />
    <glyph glyph-name="paragraph" unicode="&#xb6;" horiz-adv-x="666" 
d="M291 -150h-109l95 450q-89 2 -137.5 47t-48.5 123q0 118 76.5 181.5t222.5 63.5h289l-183 -865h-109l163 772h-96z" />
    <glyph glyph-name="cedilla" unicode="&#xb8;" horiz-adv-x="500" 
d="M269 -134q0 -32 -17.5 -55.5t-49.5 -36.5t-74 -13q-25 0 -45 4t-38 13l13 59q16 -8 31 -11.5t37 -3.5q31 0 48 10.5t17 28.5q0 29 -48 29q-14 0 -26 -1t-25 -4l61 130h65l-37 -76h6q39 0 60.5 -19.5t21.5 -53.5z" />
    <glyph glyph-name="ordmasculine" unicode="&#xba;" horiz-adv-x="453" 
d="M305 698q49 0 85 -19.5t55.5 -55t19.5 -84.5q0 -45 -14 -88t-41 -78t-67 -56t-92 -21q-49 0 -85 19.5t-55.5 55t-19.5 84.5q0 45 14 88t41 78t67 56t92 21zM301 625q-31 0 -53.5 -15.5t-37.5 -41t-22 -54.5t-7 -56q0 -41 19 -65t55 -24q31 0 53.5 15.5t37.5 41t22 54.5
t7 56q0 41 -19 65t-55 24z" />
    <glyph glyph-name="guillemotright" unicode="&#xbb;" horiz-adv-x="575" 
d="M533 262l-178 -210h-125l180 219l-91 201h112zM309 262l-178 -210h-125l180 219l-91 201h112z" />
    <glyph glyph-name="onequarter" unicode="&#xbc;" horiz-adv-x="964" 
d="M212 0l490 699h101l-490 -699h-101zM364 699l-84 -397h-88l64 302q-30 -14 -58.5 -28.5t-55.5 -28.5l18 85q60 31 137 67h67zM759 76h-208l15 67q62 64 123.5 126t130.5 128h90l-54 -253h49l-14 -68h-49l-17 -76h-83zM773 144l32 151l-76 -76t-74 -75h118z" />
    <glyph glyph-name="onehalf" unicode="&#xbd;" horiz-adv-x="964" 
d="M187 0l490 699h101l-490 -699h-101zM364 699l-84 -397h-88l64 302q-30 -14 -58.5 -28.5t-55.5 -28.5l18 85q60 31 137 67h67zM874 76l-17 -76h-304l4 19q9 42 27 74t49.5 57.5t78.5 47.5q34 16 55 27.5t32 21t15 19.5t4 23q0 21 -18 32.5t-52 11.5q-36 0 -64 -10t-60 -33
l18 86q52 31 124 31q44 0 75.5 -13t49 -36.5t17.5 -55.5q0 -27 -6.5 -47.5t-22.5 -37.5t-43.5 -34t-69.5 -36q-41 -19 -65 -35t-37 -36h210z" />
    <glyph glyph-name="threequarters" unicode="&#xbe;" horiz-adv-x="964" 
d="M232 0l490 699h101l-490 -699h-101zM759 76h-208l15 67q62 64 123.5 126t130.5 128h90l-54 -253h49l-14 -68h-49l-17 -76h-83zM773 144l32 151l-76 -76t-74 -75h118zM393 423q0 -39 -24.5 -68.5t-67.5 -46t-101 -16.5q-40 0 -71.5 7t-57.5 24l15 71q25 -16 51 -23t63 -7
q47 0 75.5 17t28.5 46q0 21 -20.5 32t-58.5 11h-59l15 69h56q47 0 72.5 15.5t25.5 41.5q0 41 -76 41q-65 0 -120 -32l16 78q60 26 120 26q71 0 109.5 -26t38.5 -73q0 -39 -26 -67.5t-70 -40.5q66 -19 66 -79z" />
    <glyph glyph-name="questiondown" unicode="&#xbf;" horiz-adv-x="507" 
d="M339 524q31 0 50 -17.5t19 -45.5q0 -23 -10.5 -42.5t-30 -30.5t-44.5 -11q-31 0 -50 17.5t-19 45.5q0 24 10.5 43t30 30t44.5 11zM248 297h105l-4 -18q-7 -32 -16.5 -56t-23.5 -42.5t-33.5 -34.5t-47.5 -32q-36 -21 -60 -38t-37.5 -33t-19 -34.5t-5.5 -41.5
q0 -41 31 -63.5t90 -22.5q46 0 86 12t83 38l-22 -107q-37 -19 -81.5 -29t-89.5 -10q-67 0 -116 20t-75.5 57.5t-26.5 90.5q0 37 8 67t27 55.5t49.5 49t75.5 47.5q33 18 53 34t30.5 33t15.5 40z" />
    <glyph glyph-name="Agrave" unicode="&#xc0;" horiz-adv-x="696" 
d="M501 0q-11 89 -22 175h-287q-24 -44 -47.5 -87.5t-47.5 -87.5h-139q106 188 211 365.5t210 349.5h132q33 -180 62.5 -358.5t56.5 -356.5h-129zM250 279h216q-11 77 -22 153.5t-22 150.5q-44 -75 -87 -151t-85 -153zM288 914h135q58 -58 122 -128h-111q-31 28 -68 61
t-78 67z" />
    <glyph glyph-name="Aacute" unicode="&#xc1;" horiz-adv-x="696" 
d="M501 0q-11 89 -22 175h-287q-24 -44 -47.5 -87.5t-47.5 -87.5h-139q106 188 211 365.5t210 349.5h132q33 -180 62.5 -358.5t56.5 -356.5h-129zM250 279h216q-11 77 -22 153.5t-22 150.5q-44 -75 -87 -151t-85 -153zM517 914h150q-51 -34 -98.5 -66.5t-87.5 -61.5h-125
q39 33 81 66t80 62z" />
    <glyph glyph-name="Acircumflex" unicode="&#xc2;" horiz-adv-x="696" 
d="M501 0q-11 89 -22 175h-287q-24 -44 -47.5 -87.5t-47.5 -87.5h-139q106 188 211 365.5t210 349.5h132q33 -180 62.5 -358.5t56.5 -356.5h-129zM250 279h216q-11 77 -22 153.5t-22 150.5q-44 -75 -87 -151t-85 -153zM539 786q-15 15 -32.5 32t-37.5 36q-27 -19 -51.5 -36
t-45.5 -32h-122q43 34 86.5 67t83.5 61h112q28 -28 58 -61t59 -67h-110z" />
    <glyph glyph-name="Atilde" unicode="&#xc3;" horiz-adv-x="696" 
d="M501 0q-11 89 -22 175h-287q-24 -44 -47.5 -87.5t-47.5 -87.5h-139q106 188 211 365.5t210 349.5h132q33 -180 62.5 -358.5t56.5 -356.5h-129zM250 279h216q-11 77 -22 153.5t-22 150.5q-44 -75 -87 -151t-85 -153zM538 787q-24 0 -43.5 7t-36.5 19q-19 14 -30.5 21.5
t-20 10t-19.5 2.5q-21 0 -32 -13.5t-16 -42.5h-81q11 68 44.5 101t88.5 33q23 0 43 -7.5t37 -19.5q19 -14 30.5 -21t20 -9.5t19.5 -2.5q21 0 32 13.5t16 42.5h81q-11 -68 -44.5 -101t-88.5 -33z" />
    <glyph glyph-name="Adieresis" unicode="&#xc4;" horiz-adv-x="696" 
d="M501 0q-11 89 -22 175h-287q-24 -44 -47.5 -87.5t-47.5 -87.5h-139q106 188 211 365.5t210 349.5h132q33 -180 62.5 -358.5t56.5 -356.5h-129zM250 279h216q-11 77 -22 153.5t-22 150.5q-44 -75 -87 -151t-85 -153zM332 793q-26 0 -43 15.5t-17 38.5q0 20 9.5 36t26 25.5
t37.5 9.5q26 0 43 -15t17 -38q0 -20 -9.5 -36.5t-26 -26t-37.5 -9.5zM584 793q-26 0 -43 15.5t-17 38.5q0 20 9.5 36t26 25.5t37.5 9.5q26 0 43 -15t17 -38q0 -20 -9.5 -36.5t-26 -26t-37.5 -9.5z" />
    <glyph glyph-name="Aring" unicode="&#xc5;" horiz-adv-x="696" 
d="M501 0q-11 89 -22 175h-287q-24 -44 -47.5 -87.5t-47.5 -87.5h-139q106 188 211 365.5t210 349.5h132q33 -180 62.5 -358.5t56.5 -356.5h-129zM250 279h216q-11 77 -22 153.5t-22 150.5q-44 -75 -87 -151t-85 -153zM462 774q-33 0 -57.5 12t-38 34t-13.5 50
q0 35 16.5 62.5t45 43.5t64.5 16q33 0 57.5 -12t38 -34t13.5 -50q0 -35 -16.5 -62.5t-44.5 -43.5t-65 -16zM477 941q-29 0 -47.5 -18t-18.5 -47q0 -23 14 -37t39 -14q30 0 48 18t18 48q0 23 -14 36.5t-39 13.5z" />
    <glyph glyph-name="AE" unicode="&#xc6;" horiz-adv-x="1009" 
d="M-48 0q132 174 272 353t285 362h544l-22 -105h-318l-40 -188h282l-22 -104h-282l-45 -214h335l-22 -104h-457l37 175h-272q-65 -87 -130 -175h-145zM306 279h215l70 331h-30q-133 -170 -255 -331z" />
    <glyph glyph-name="Ccedilla" unicode="&#xc7;" horiz-adv-x="652" 
d="M492 730q44 0 79 -6t65 -19.5t58 -34.5l-23 -110q-25 22 -52 36t-59 20t-72 6q-59 0 -106 -19.5t-82 -53t-57.5 -76t-34 -89t-11.5 -90.5q0 -97 50.5 -149.5t143.5 -52.5q41 0 75 6.5t65.5 21t63.5 38.5l-27 -127q-83 -46 -194 -46q-94 0 -163 35t-106 102t-37 162
q0 66 18 130.5t52.5 121.5t86 100.5t118.5 68.5t149 25zM464 -134q0 -32 -18 -55.5t-51 -36.5t-76 -13q-25 0 -47 4t-40 13l13 61q16 -8 32.5 -11.5t39.5 -3.5q31 0 49 10t18 27q0 28 -50 28q-14 0 -28 -1t-27 -4l61 131h67l-36 -75h7q41 0 63.5 -19.5t22.5 -54.5z" />
    <glyph glyph-name="Egrave" unicode="&#xc8;" horiz-adv-x="591" 
d="M180 715h455l-22 -105h-331l-40 -188h295l-22 -104h-295l-45 -214h348l-22 -104h-472zM260 914h135q58 -58 122 -128h-111q-31 28 -68 61t-78 67z" />
    <glyph glyph-name="Eacute" unicode="&#xc9;" horiz-adv-x="591" 
d="M180 715h455l-22 -105h-331l-40 -188h295l-22 -104h-295l-45 -214h348l-22 -104h-472zM489 914h150q-51 -34 -98.5 -66.5t-87.5 -61.5h-125q39 33 81 66t80 62z" />
    <glyph glyph-name="Ecircumflex" unicode="&#xca;" horiz-adv-x="591" 
d="M180 715h455l-22 -105h-331l-40 -188h295l-22 -104h-295l-45 -214h348l-22 -104h-472zM511 786q-15 15 -32.5 32t-37.5 36q-27 -19 -51.5 -36t-45.5 -32h-122q43 34 86.5 67t83.5 61h112q28 -28 58 -61t59 -67h-110z" />
    <glyph glyph-name="Edieresis" unicode="&#xcb;" horiz-adv-x="591" 
d="M180 715h455l-22 -105h-331l-40 -188h295l-22 -104h-295l-45 -214h348l-22 -104h-472zM304 793q-26 0 -43 15.5t-17 38.5q0 20 9.5 36t26 25.5t37.5 9.5q26 0 43 -15t17 -38q0 -20 -9.5 -36.5t-26 -26t-37.5 -9.5zM556 793q-26 0 -43 15.5t-17 38.5q0 20 9.5 36t26 25.5
t37.5 9.5q26 0 43 -15t17 -38q0 -20 -9.5 -36.5t-26 -26t-37.5 -9.5z" />
    <glyph glyph-name="Igrave" unicode="&#xcc;" horiz-adv-x="290" 
d="M180 715h124l-151 -715h-124zM90 914h135q58 -58 122 -128h-111q-31 28 -68 61t-78 67z" />
    <glyph glyph-name="Iacute" unicode="&#xcd;" horiz-adv-x="290" 
d="M180 715h124l-151 -715h-124zM319 914h150q-51 -34 -98.5 -66.5t-87.5 -61.5h-125q39 33 81 66t80 62z" />
    <glyph glyph-name="Icircumflex" unicode="&#xce;" horiz-adv-x="290" 
d="M180 715h124l-151 -715h-124zM341 786q-15 15 -32.5 32t-37.5 36q-27 -19 -51.5 -36t-45.5 -32h-122q43 34 86.5 67t83.5 61h112q28 -28 58 -61t59 -67h-110z" />
    <glyph glyph-name="Idieresis" unicode="&#xcf;" horiz-adv-x="290" 
d="M180 715h124l-151 -715h-124zM134 793q-26 0 -43 15.5t-17 38.5q0 20 9.5 36t26 25.5t37.5 9.5q26 0 43 -15t17 -38q0 -20 -9.5 -36.5t-26 -26t-37.5 -9.5zM386 793q-26 0 -43 15.5t-17 38.5q0 20 9.5 36t26 25.5t37.5 9.5q26 0 43 -15t17 -38q0 -20 -9.5 -36.5t-26 -26
t-37.5 -9.5z" />
    <glyph glyph-name="Eth" unicode="&#xd0;" horiz-adv-x="729" 
d="M704 435q0 -99 -29 -179t-83 -137t-129.5 -88t-168.5 -31h-265l69 328h-79l20 92h79l62 295h231q90 0 155.5 -34t101.5 -97t36 -149zM175 105h116q65 0 117.5 22.5t89.5 64.5t57 100t20 129q0 90 -46 139t-131 49h-116l-40 -189h157l-20 -92h-157z" />
    <glyph glyph-name="Ntilde" unicode="&#xd1;" horiz-adv-x="737" 
d="M475 0q-52 137 -106 274.5t-107 265.5l-114 -540h-119l151 715h125q55 -133 108 -266.5t106 -270.5l113 537h119l-151 -715h-125zM565 787q-24 0 -43.5 7t-36.5 19q-19 14 -30.5 21.5t-20 10t-19.5 2.5q-21 0 -32 -13.5t-16 -42.5h-81q11 68 44.5 101t88.5 33
q23 0 43 -7.5t37 -19.5q19 -14 30.5 -21t20 -9.5t19.5 -2.5q21 0 32 13.5t16 42.5h81q-11 -68 -44.5 -101t-88.5 -33z" />
    <glyph glyph-name="Ograve" unicode="&#xd2;" horiz-adv-x="771" 
d="M362 -15q-68 0 -122 21t-92.5 60t-59 93.5t-20.5 122.5q0 66 16 131t48 122t78.5 101t107 69t134.5 25q68 0 122 -21t92.5 -60t59 -94t20.5 -123q0 -66 -16 -130.5t-48 -121.5t-78.5 -101t-107 -69t-134.5 -25zM446 622q-50 0 -90 -20t-70 -54t-49.5 -77.5t-29.5 -90.5
t-10 -92q0 -61 20 -105t58.5 -67.5t92.5 -23.5q50 0 90 20t70 54.5t49.5 77.5t29.5 90.5t10 92.5q0 61 -20.5 104.5t-58.5 67t-92 23.5zM320 914h135q58 -58 122 -128h-111q-31 28 -68 61t-78 67z" />
    <glyph glyph-name="Oacute" unicode="&#xd3;" horiz-adv-x="771" 
d="M362 -15q-68 0 -122 21t-92.5 60t-59 93.5t-20.5 122.5q0 66 16 131t48 122t78.5 101t107 69t134.5 25q68 0 122 -21t92.5 -60t59 -94t20.5 -123q0 -66 -16 -130.5t-48 -121.5t-78.5 -101t-107 -69t-134.5 -25zM446 622q-50 0 -90 -20t-70 -54t-49.5 -77.5t-29.5 -90.5
t-10 -92q0 -61 20 -105t58.5 -67.5t92.5 -23.5q50 0 90 20t70 54.5t49.5 77.5t29.5 90.5t10 92.5q0 61 -20.5 104.5t-58.5 67t-92 23.5zM549 914h150q-51 -34 -98.5 -66.5t-87.5 -61.5h-125q39 33 81 66t80 62z" />
    <glyph glyph-name="Ocircumflex" unicode="&#xd4;" horiz-adv-x="771" 
d="M362 -15q-68 0 -122 21t-92.5 60t-59 93.5t-20.5 122.5q0 66 16 131t48 122t78.5 101t107 69t134.5 25q68 0 122 -21t92.5 -60t59 -94t20.5 -123q0 -66 -16 -130.5t-48 -121.5t-78.5 -101t-107 -69t-134.5 -25zM446 622q-50 0 -90 -20t-70 -54t-49.5 -77.5t-29.5 -90.5
t-10 -92q0 -61 20 -105t58.5 -67.5t92.5 -23.5q50 0 90 20t70 54.5t49.5 77.5t29.5 90.5t10 92.5q0 61 -20.5 104.5t-58.5 67t-92 23.5zM571 786q-15 15 -32.5 32t-37.5 36q-27 -19 -51.5 -36t-45.5 -32h-122q43 34 86.5 67t83.5 61h112q28 -28 58 -61t59 -67h-110z" />
    <glyph glyph-name="Otilde" unicode="&#xd5;" horiz-adv-x="771" 
d="M362 -15q-68 0 -122 21t-92.5 60t-59 93.5t-20.5 122.5q0 66 16 131t48 122t78.5 101t107 69t134.5 25q68 0 122 -21t92.5 -60t59 -94t20.5 -123q0 -66 -16 -130.5t-48 -121.5t-78.5 -101t-107 -69t-134.5 -25zM446 622q-50 0 -90 -20t-70 -54t-49.5 -77.5t-29.5 -90.5
t-10 -92q0 -61 20 -105t58.5 -67.5t92.5 -23.5q50 0 90 20t70 54.5t49.5 77.5t29.5 90.5t10 92.5q0 61 -20.5 104.5t-58.5 67t-92 23.5zM570 787q-24 0 -43.5 7t-36.5 19q-19 14 -30.5 21.5t-20 10t-19.5 2.5q-21 0 -32 -13.5t-16 -42.5h-81q11 68 44.5 101t88.5 33
q23 0 43 -7.5t37 -19.5q19 -14 30.5 -21t20 -9.5t19.5 -2.5q21 0 32 13.5t16 42.5h81q-11 -68 -44.5 -101t-88.5 -33z" />
    <glyph glyph-name="Odieresis" unicode="&#xd6;" horiz-adv-x="771" 
d="M362 -15q-68 0 -122 21t-92.5 60t-59 93.5t-20.5 122.5q0 66 16 131t48 122t78.5 101t107 69t134.5 25q68 0 122 -21t92.5 -60t59 -94t20.5 -123q0 -66 -16 -130.5t-48 -121.5t-78.5 -101t-107 -69t-134.5 -25zM446 622q-50 0 -90 -20t-70 -54t-49.5 -77.5t-29.5 -90.5
t-10 -92q0 -61 20 -105t58.5 -67.5t92.5 -23.5q50 0 90 20t70 54.5t49.5 77.5t29.5 90.5t10 92.5q0 61 -20.5 104.5t-58.5 67t-92 23.5zM364 793q-26 0 -43 15.5t-17 38.5q0 20 9.5 36t26 25.5t37.5 9.5q26 0 43 -15t17 -38q0 -20 -9.5 -36.5t-26 -26t-37.5 -9.5zM616 793
q-26 0 -43 15.5t-17 38.5q0 20 9.5 36t26 25.5t37.5 9.5q26 0 43 -15t17 -38q0 -20 -9.5 -36.5t-26 -26t-37.5 -9.5z" />
    <glyph glyph-name="multiply" unicode="&#xd7;" horiz-adv-x="596" 
d="M550 187l-68 -69l-164 164l-164 -164l-67 69l163 163l-163 164l67 68l164 -164l164 164l68 -68l-164 -164z" />
    <glyph glyph-name="Oslash" unicode="&#xd8;" horiz-adv-x="771" 
d="M362 -15q-54 0 -100 14t-82 40l-78 -87l-64 57l82 92q-25 36 -38.5 82t-13.5 99q0 66 16 131t48 122t78.5 101t107 69t134.5 25q53 0 98.5 -13.5t81.5 -39.5l77 86l64 -57l-80 -90q25 -37 39 -83.5t14 -100.5q0 -66 -16 -130.5t-48 -121.5t-78.5 -101t-107 -69
t-134.5 -25zM197 288q0 -51 13 -89l344 390q-42 33 -108 33q-50 0 -90 -20t-70 -54t-49.5 -77.5t-29.5 -90.5t-10 -92zM617 427q0 52 -14 91l-345 -392q42 -34 110 -34q50 0 90 20t70 54.5t49.5 77.5t29.5 90.5t10 92.5z" />
    <glyph glyph-name="Ugrave" unicode="&#xd9;" horiz-adv-x="727" 
d="M92 313l85 402h124l-91 -431q-4 -16 -5.5 -29.5t-1.5 -26.5q0 -64 36.5 -100t105.5 -36q71 0 116.5 43t62.5 125l96 455h124l-96 -455q-29 -136 -108.5 -205.5t-203.5 -69.5q-81 0 -138 28.5t-87 82.5t-30 129q0 19 3 40t8 48zM304 914h135q58 -58 122 -128h-111
q-31 28 -68 61t-78 67z" />
    <glyph glyph-name="Uacute" unicode="&#xda;" horiz-adv-x="727" 
d="M92 313l85 402h124l-91 -431q-4 -16 -5.5 -29.5t-1.5 -26.5q0 -64 36.5 -100t105.5 -36q71 0 116.5 43t62.5 125l96 455h124l-96 -455q-29 -136 -108.5 -205.5t-203.5 -69.5q-81 0 -138 28.5t-87 82.5t-30 129q0 19 3 40t8 48zM533 914h150q-51 -34 -98.5 -66.5
t-87.5 -61.5h-125q39 33 81 66t80 62z" />
    <glyph glyph-name="Ucircumflex" unicode="&#xdb;" horiz-adv-x="727" 
d="M92 313l85 402h124l-91 -431q-4 -16 -5.5 -29.5t-1.5 -26.5q0 -64 36.5 -100t105.5 -36q71 0 116.5 43t62.5 125l96 455h124l-96 -455q-29 -136 -108.5 -205.5t-203.5 -69.5q-81 0 -138 28.5t-87 82.5t-30 129q0 19 3 40t8 48zM555 786q-15 15 -32.5 32t-37.5 36
q-27 -19 -51.5 -36t-45.5 -32h-122q43 34 86.5 67t83.5 61h112q28 -28 58 -61t59 -67h-110z" />
    <glyph glyph-name="Udieresis" unicode="&#xdc;" horiz-adv-x="727" 
d="M92 313l85 402h124l-91 -431q-4 -16 -5.5 -29.5t-1.5 -26.5q0 -64 36.5 -100t105.5 -36q71 0 116.5 43t62.5 125l96 455h124l-96 -455q-29 -136 -108.5 -205.5t-203.5 -69.5q-81 0 -138 28.5t-87 82.5t-30 129q0 19 3 40t8 48zM348 793q-26 0 -43 15.5t-17 38.5
q0 20 9.5 36t26 25.5t37.5 9.5q26 0 43 -15t17 -38q0 -20 -9.5 -36.5t-26 -26t-37.5 -9.5zM600 793q-26 0 -43 15.5t-17 38.5q0 20 9.5 36t26 25.5t37.5 9.5q26 0 43 -15t17 -38q0 -20 -9.5 -36.5t-26 -26t-37.5 -9.5z" />
    <glyph glyph-name="Yacute" unicode="&#xdd;" horiz-adv-x="663" 
d="M397 275l-58 -275h-124l58 275q-43 109 -83 219t-78 221h130q26 -84 53 -168t56 -167q64 83 126.5 167.5t122.5 167.5h145q-85 -111 -172 -221t-176 -219zM499 914h150q-51 -34 -98.5 -66.5t-87.5 -61.5h-125q39 33 81 66t80 62z" />
    <glyph glyph-name="Thorn" unicode="&#xde;" horiz-adv-x="628" 
d="M303 134h-123l-28 -134h-123l151 715h123l-26 -122h89q75 0 129.5 -23.5t84.5 -66.5t30 -102q0 -83 -37 -143t-105.5 -92t-164.5 -32zM355 494h-99l-55 -262h99q88 0 136 41t48 117q0 50 -34 77t-95 27z" />
    <glyph glyph-name="germandbls" unicode="&#xdf;" horiz-adv-x="615" 
d="M579 611q0 -35 -10.5 -62t-34 -51t-63.5 -51q-22 -15 -35 -26t-19 -21t-6 -24q0 -10 5 -19.5t18.5 -22t38.5 -32.5q42 -32 60 -64.5t18 -75.5q0 -52 -25.5 -91.5t-71.5 -61.5t-108 -22q-93 0 -149 40l20 94q25 -21 56 -30.5t68 -9.5q43 0 68.5 20t25.5 55q0 25 -13 42.5
t-43 39.5q-29 22 -46.5 41t-25 39.5t-7.5 44.5q0 41 24.5 72.5t75.5 65.5q36 23 51 44t15 50q0 31 -22.5 49t-60.5 18q-54 0 -88.5 -41t-53.5 -130l-136 -642h-119l143 675q25 116 92 175t171 59q55 0 97 -19t66 -52t24 -76z" />
    <glyph glyph-name="agrave" unicode="&#xe0;" horiz-adv-x="561" 
d="M337 0q2 28 7 59.5t12 68.5q-37 -68 -85.5 -104.5t-103.5 -36.5q-41 0 -71 21t-46 60.5t-16 92.5q0 61 16 116.5t45 101t68.5 79t87.5 52t101 18.5q49 0 96 -11t89 -33l-67 -316q-10 -50 -17 -91t-10 -77h-106zM156 170q0 -42 15 -64t42 -22q41 0 78.5 36t72.5 110
l41 191q-27 13 -63 13q-39 0 -72.5 -21t-59 -57t-40 -84t-14.5 -102zM224 761h123q23 -37 47 -77.5t47 -83.5h-97q-25 35 -55 75t-65 86z" />
    <glyph glyph-name="aacute" unicode="&#xe1;" horiz-adv-x="561" 
d="M337 0q2 28 7 59.5t12 68.5q-37 -68 -85.5 -104.5t-103.5 -36.5q-41 0 -71 21t-46 60.5t-16 92.5q0 61 16 116.5t45 101t68.5 79t87.5 52t101 18.5q49 0 96 -11t89 -33l-67 -316q-10 -50 -17 -91t-10 -77h-106zM156 170q0 -42 15 -64t42 -22q41 0 78.5 36t72.5 110
l41 191q-27 13 -63 13q-39 0 -72.5 -21t-59 -57t-40 -84t-14.5 -102zM422 761h139q-50 -44 -94 -85t-81 -76h-112q38 43 76 84t72 77z" />
    <glyph glyph-name="acircumflex" unicode="&#xe2;" horiz-adv-x="561" 
d="M337 0q2 28 7 59.5t12 68.5q-37 -68 -85.5 -104.5t-103.5 -36.5q-41 0 -71 21t-46 60.5t-16 92.5q0 61 16 116.5t45 101t68.5 79t87.5 52t101 18.5q49 0 96 -11t89 -33l-67 -316q-10 -50 -17 -91t-10 -77h-106zM156 170q0 -42 15 -64t42 -22q41 0 78.5 36t72.5 110
l41 191q-27 13 -63 13q-39 0 -72.5 -21t-59 -57t-40 -84t-14.5 -102zM447 600q-27 42 -64 93q-29 -26 -55.5 -49t-48.5 -44h-106q37 38 79.5 79t86.5 82h107q26 -42 50 -82.5t45 -78.5h-94z" />
    <glyph glyph-name="atilde" unicode="&#xe3;" horiz-adv-x="561" 
d="M337 0q2 28 7 59.5t12 68.5q-37 -68 -85.5 -104.5t-103.5 -36.5q-41 0 -71 21t-46 60.5t-16 92.5q0 61 16 116.5t45 101t68.5 79t87.5 52t101 18.5q49 0 96 -11t89 -33l-67 -316q-10 -50 -17 -91t-10 -77h-106zM156 170q0 -42 15 -64t42 -22q41 0 78.5 36t72.5 110
l41 191q-27 13 -63 13q-39 0 -72.5 -21t-59 -57t-40 -84t-14.5 -102zM363 640q-24 20 -37 28.5t-27 8.5q-20 0 -31.5 -15.5t-18.5 -53.5h-80q24 149 134 149q25 0 43 -8t41 -28t36 -28.5t27 -8.5q20 0 31.5 16t18.5 53h80q-24 -149 -134 -149q-25 0 -42.5 8t-40.5 28z" />
    <glyph glyph-name="adieresis" unicode="&#xe4;" horiz-adv-x="561" 
d="M337 0q2 28 7 59.5t12 68.5q-37 -68 -85.5 -104.5t-103.5 -36.5q-41 0 -71 21t-46 60.5t-16 92.5q0 61 16 116.5t45 101t68.5 79t87.5 52t101 18.5q49 0 96 -11t89 -33l-67 -316q-10 -50 -17 -91t-10 -77h-106zM156 170q0 -42 15 -64t42 -22q41 0 78.5 36t72.5 110
l41 191q-27 13 -63 13q-39 0 -72.5 -21t-59 -57t-40 -84t-14.5 -102zM252 618q-26 0 -42.5 15t-16.5 38q0 20 9.5 36t25.5 25.5t37 9.5q26 0 42.5 -15t16.5 -38q0 -20 -9 -36t-25.5 -25.5t-37.5 -9.5zM485 618q-26 0 -43 15t-17 38q0 20 9.5 36t25.5 25.5t37 9.5
q26 0 43 -15t17 -38q0 -20 -9.5 -36t-25.5 -25.5t-37 -9.5z" />
    <glyph glyph-name="aring" unicode="&#xe5;" horiz-adv-x="561" 
d="M337 0q2 28 7 59.5t12 68.5q-37 -68 -85.5 -104.5t-103.5 -36.5q-41 0 -71 21t-46 60.5t-16 92.5q0 61 16 116.5t45 101t68.5 79t87.5 52t101 18.5q49 0 96 -11t89 -33l-67 -316q-10 -50 -17 -91t-10 -77h-106zM156 170q0 -42 15 -64t42 -22q41 0 78.5 36t72.5 110
l41 191q-27 13 -63 13q-39 0 -72.5 -21t-59 -57t-40 -84t-14.5 -102zM368 588q-31 0 -54.5 12.5t-37 34t-13.5 50.5q0 35 16.5 63.5t45.5 45t65 16.5q30 0 53.5 -12.5t37 -34t13.5 -50.5q0 -35 -16.5 -63.5t-45 -45t-64.5 -16.5zM387 760q-30 0 -48.5 -20.5t-18.5 -50.5
q0 -23 14 -37t36 -14q31 0 49 21t18 51q0 23 -13.5 36.5t-36.5 13.5z" />
    <glyph glyph-name="ae" unicode="&#xe6;" horiz-adv-x="846" 
d="M743 31q-37 -23 -76 -33.5t-86 -10.5q-85 0 -138.5 41t-67.5 116q-40 -76 -93.5 -116.5t-114.5 -40.5q-41 0 -71 21t-46 60.5t-16 92.5q0 61 16 116.5t45 101t68.5 79t87.5 52t101 18.5q95 0 163 -46q33 22 71.5 34t80.5 12q49 0 85.5 -16.5t56.5 -47t20 -71.5
q0 -93 -84 -141t-262 -58q3 -57 32 -85t84 -28q31 0 57.5 6.5t53.5 20.5t57 36zM655 440q-39 0 -72.5 -22t-57.5 -60t-35 -86q120 6 175 32.5t55 79.5q0 27 -17.5 41.5t-47.5 14.5zM156 170q0 -42 15 -64t42 -22q44 0 83.5 41t77.5 125q6 43 21 81.5t38 70.5q-33 32 -91 32
q-39 0 -72.5 -21t-59 -57t-40 -84t-14.5 -102z" />
    <glyph glyph-name="ccedilla" unicode="&#xe7;" horiz-adv-x="472" 
d="M269 83q40 0 74.5 13.5t72.5 44.5l-25 -116q-34 -19 -69.5 -28.5t-79.5 -9.5q-63 0 -107.5 25t-68.5 72.5t-24 114.5q0 53 14 101.5t40 90t63.5 72.5t84 48t100.5 17q43 0 76.5 -10t60.5 -32l-20 -96q-22 22 -49.5 32t-65.5 10q-43 0 -77 -18.5t-58 -50.5t-36.5 -72
t-12.5 -83q0 -62 27 -93.5t80 -31.5zM333 -134q0 -32 -17.5 -55.5t-49.5 -36.5t-74 -13q-25 0 -45 4t-38 13l13 59q16 -8 31 -11.5t37 -3.5q31 0 48 10.5t17 28.5q0 29 -48 29q-14 0 -26 -1t-25 -4l61 130h65l-37 -76h6q39 0 60.5 -19.5t21.5 -53.5z" />
    <glyph glyph-name="egrave" unicode="&#xe8;" horiz-adv-x="519" 
d="M416 31q-38 -23 -76.5 -33.5t-85.5 -10.5q-66 0 -113.5 25t-73 72.5t-25.5 113.5q0 55 15 104.5t42 91t64 71.5t82 46.5t94 16.5q50 0 86.5 -16.5t56.5 -47t20 -71.5q0 -93 -84.5 -141t-262.5 -58q3 -57 32 -85t85 -28q30 0 57 6.5t54 20.5t57 36zM327 440
q-39 0 -72.5 -22t-57.5 -60t-35 -86q121 6 176 32.5t55 79.5q0 27 -17.5 41.5t-48.5 14.5zM216 761h123q23 -37 47 -77.5t47 -83.5h-97q-25 35 -55 75t-65 86z" />
    <glyph glyph-name="eacute" unicode="&#xe9;" horiz-adv-x="519" 
d="M416 31q-38 -23 -76.5 -33.5t-85.5 -10.5q-66 0 -113.5 25t-73 72.5t-25.5 113.5q0 55 15 104.5t42 91t64 71.5t82 46.5t94 16.5q50 0 86.5 -16.5t56.5 -47t20 -71.5q0 -93 -84.5 -141t-262.5 -58q3 -57 32 -85t85 -28q30 0 57 6.5t54 20.5t57 36zM327 440
q-39 0 -72.5 -22t-57.5 -60t-35 -86q121 6 176 32.5t55 79.5q0 27 -17.5 41.5t-48.5 14.5zM414 761h139q-50 -44 -94 -85t-81 -76h-112q38 43 76 84t72 77z" />
    <glyph glyph-name="ecircumflex" unicode="&#xea;" horiz-adv-x="519" 
d="M416 31q-38 -23 -76.5 -33.5t-85.5 -10.5q-66 0 -113.5 25t-73 72.5t-25.5 113.5q0 55 15 104.5t42 91t64 71.5t82 46.5t94 16.5q50 0 86.5 -16.5t56.5 -47t20 -71.5q0 -93 -84.5 -141t-262.5 -58q3 -57 32 -85t85 -28q30 0 57 6.5t54 20.5t57 36zM327 440
q-39 0 -72.5 -22t-57.5 -60t-35 -86q121 6 176 32.5t55 79.5q0 27 -17.5 41.5t-48.5 14.5zM439 600q-27 42 -64 93q-29 -26 -55.5 -49t-48.5 -44h-106q37 38 79.5 79t86.5 82h107q26 -42 50 -82.5t45 -78.5h-94z" />
    <glyph glyph-name="edieresis" unicode="&#xeb;" horiz-adv-x="519" 
d="M416 31q-38 -23 -76.5 -33.5t-85.5 -10.5q-66 0 -113.5 25t-73 72.5t-25.5 113.5q0 55 15 104.5t42 91t64 71.5t82 46.5t94 16.5q50 0 86.5 -16.5t56.5 -47t20 -71.5q0 -93 -84.5 -141t-262.5 -58q3 -57 32 -85t85 -28q30 0 57 6.5t54 20.5t57 36zM327 440
q-39 0 -72.5 -22t-57.5 -60t-35 -86q121 6 176 32.5t55 79.5q0 27 -17.5 41.5t-48.5 14.5zM244 618q-26 0 -42.5 15t-16.5 38q0 20 9.5 36t25.5 25.5t37 9.5q26 0 42.5 -15t16.5 -38q0 -20 -9 -36t-25.5 -25.5t-37.5 -9.5zM477 618q-26 0 -43 15t-17 38q0 20 9.5 36
t25.5 25.5t37 9.5q26 0 43 -15t17 -38q0 -20 -9.5 -36t-25.5 -25.5t-37 -9.5z" />
    <glyph glyph-name="igrave" unicode="&#xec;" horiz-adv-x="265" 
d="M128 515h119l-109 -515h-119zM66 761h123q23 -37 47 -77.5t47 -83.5h-97q-25 35 -55 75t-65 86z" />
    <glyph glyph-name="iacute" unicode="&#xed;" horiz-adv-x="265" 
d="M128 515h119l-109 -515h-119zM264 761h139q-50 -44 -94 -85t-81 -76h-112q38 43 76 84t72 77z" />
    <glyph glyph-name="icircumflex" unicode="&#xee;" horiz-adv-x="265" 
d="M128 515h119l-109 -515h-119zM289 600q-27 42 -64 93q-29 -26 -55.5 -49t-48.5 -44h-106q37 38 79.5 79t86.5 82h107q26 -42 50 -82.5t45 -78.5h-94z" />
    <glyph glyph-name="idieresis" unicode="&#xef;" horiz-adv-x="265" 
d="M128 515h119l-109 -515h-119zM94 618q-26 0 -42.5 15t-16.5 38q0 20 9.5 36t25.5 25.5t37 9.5q26 0 42.5 -15t16.5 -38q0 -20 -9 -36t-25.5 -25.5t-37.5 -9.5zM327 618q-26 0 -43 15t-17 38q0 20 9.5 36t25.5 25.5t37 9.5q26 0 43 -15t17 -38q0 -20 -9.5 -36t-25.5 -25.5
t-37 -9.5z" />
    <glyph glyph-name="eth" unicode="&#xf0;" horiz-adv-x="564" 
d="M524 336q0 -49 -10.5 -99t-32.5 -95t-55 -80t-77.5 -55t-100.5 -20q-62 0 -108.5 25.5t-72 72.5t-25.5 111q0 57 17.5 109.5t50 93t78.5 64t103 23.5q63 0 104 -42q-14 72 -48 138l-135 -55l-26 68l122 50q-38 53 -90 100h130q29 -30 54 -63l127 52l26 -68l-112 -45
q39 -67 60 -139.5t21 -145.5zM162 197q0 -54 24 -84t68 -30q32 0 57 15.5t42.5 42.5t28.5 60.5t16.5 70.5t5.5 72v8q-37 42 -97 42q-36 0 -63 -17t-45 -45.5t-27.5 -63.5t-9.5 -71z" />
    <glyph glyph-name="ntilde" unicode="&#xf1;" horiz-adv-x="572" 
d="M354 431q-43 0 -81.5 -37t-75.5 -114l-59 -280h-119l74 350q11 50 17.5 89.5t9.5 75.5h106q-2 -28 -7 -60t-12 -68q37 68 87 104.5t108 36.5q38 0 66 -16t43 -46t15 -70q0 -15 -1 -30.5t-6 -35.5l-70 -330h-119l69 325q2 12 3.5 22.5t1.5 21.5q0 30 -13 46t-37 16z
M363 640q-24 20 -37 28.5t-27 8.5q-20 0 -31.5 -15.5t-18.5 -53.5h-80q24 149 134 149q25 0 43 -8t41 -28t36 -28.5t27 -8.5q20 0 31.5 16t18.5 53h80q-24 -149 -134 -149q-25 0 -42.5 8t-40.5 28z" />
    <glyph glyph-name="ograve" unicode="&#xf2;" horiz-adv-x="564" 
d="M317 528q64 0 110.5 -26t71.5 -74t25 -114q0 -48 -12 -95t-35 -89t-56 -74t-76.5 -50.5t-95.5 -18.5q-64 0 -110.5 26t-71.5 74t-25 114q0 48 12 95t35 89t56 74t76.5 50.5t95.5 18.5zM252 83q31 0 55.5 14.5t43 39t30 55t17.5 63t6 61.5q0 55 -23.5 85.5t-66.5 30.5
q-31 0 -55.5 -14.5t-43 -39t-30 -55t-17.5 -63t-6 -61.5q0 -55 23.5 -85.5t66.5 -30.5zM207 761h123q23 -37 47 -77.5t47 -83.5h-97q-25 35 -55 75t-65 86z" />
    <glyph glyph-name="oacute" unicode="&#xf3;" horiz-adv-x="564" 
d="M317 528q64 0 110.5 -26t71.5 -74t25 -114q0 -48 -12 -95t-35 -89t-56 -74t-76.5 -50.5t-95.5 -18.5q-64 0 -110.5 26t-71.5 74t-25 114q0 48 12 95t35 89t56 74t76.5 50.5t95.5 18.5zM252 83q31 0 55.5 14.5t43 39t30 55t17.5 63t6 61.5q0 55 -23.5 85.5t-66.5 30.5
q-31 0 -55.5 -14.5t-43 -39t-30 -55t-17.5 -63t-6 -61.5q0 -55 23.5 -85.5t66.5 -30.5zM405 761h139q-50 -44 -94 -85t-81 -76h-112q38 43 76 84t72 77z" />
    <glyph glyph-name="ocircumflex" unicode="&#xf4;" horiz-adv-x="564" 
d="M317 528q64 0 110.5 -26t71.5 -74t25 -114q0 -48 -12 -95t-35 -89t-56 -74t-76.5 -50.5t-95.5 -18.5q-64 0 -110.5 26t-71.5 74t-25 114q0 48 12 95t35 89t56 74t76.5 50.5t95.5 18.5zM252 83q31 0 55.5 14.5t43 39t30 55t17.5 63t6 61.5q0 55 -23.5 85.5t-66.5 30.5
q-31 0 -55.5 -14.5t-43 -39t-30 -55t-17.5 -63t-6 -61.5q0 -55 23.5 -85.5t66.5 -30.5zM430 600q-27 42 -64 93q-29 -26 -55.5 -49t-48.5 -44h-106q37 38 79.5 79t86.5 82h107q26 -42 50 -82.5t45 -78.5h-94z" />
    <glyph glyph-name="otilde" unicode="&#xf5;" horiz-adv-x="564" 
d="M317 528q64 0 110.5 -26t71.5 -74t25 -114q0 -48 -12 -95t-35 -89t-56 -74t-76.5 -50.5t-95.5 -18.5q-64 0 -110.5 26t-71.5 74t-25 114q0 48 12 95t35 89t56 74t76.5 50.5t95.5 18.5zM252 83q31 0 55.5 14.5t43 39t30 55t17.5 63t6 61.5q0 55 -23.5 85.5t-66.5 30.5
q-31 0 -55.5 -14.5t-43 -39t-30 -55t-17.5 -63t-6 -61.5q0 -55 23.5 -85.5t66.5 -30.5zM346 640q-24 20 -37 28.5t-27 8.5q-20 0 -31.5 -15.5t-18.5 -53.5h-80q24 149 134 149q25 0 43 -8t41 -28t36 -28.5t27 -8.5q20 0 31.5 16t18.5 53h80q-24 -149 -134 -149
q-25 0 -42.5 8t-40.5 28z" />
    <glyph glyph-name="odieresis" unicode="&#xf6;" horiz-adv-x="564" 
d="M317 528q64 0 110.5 -26t71.5 -74t25 -114q0 -48 -12 -95t-35 -89t-56 -74t-76.5 -50.5t-95.5 -18.5q-64 0 -110.5 26t-71.5 74t-25 114q0 48 12 95t35 89t56 74t76.5 50.5t95.5 18.5zM252 83q31 0 55.5 14.5t43 39t30 55t17.5 63t6 61.5q0 55 -23.5 85.5t-66.5 30.5
q-31 0 -55.5 -14.5t-43 -39t-30 -55t-17.5 -63t-6 -61.5q0 -55 23.5 -85.5t66.5 -30.5zM235 618q-26 0 -42.5 15t-16.5 38q0 20 9.5 36t25.5 25.5t37 9.5q26 0 42.5 -15t16.5 -38q0 -20 -9 -36t-25.5 -25.5t-37.5 -9.5zM468 618q-26 0 -43 15t-17 38q0 20 9.5 36t25.5 25.5
t37 9.5q26 0 43 -15t17 -38q0 -20 -9.5 -36t-25.5 -25.5t-37 -9.5z" />
    <glyph glyph-name="divide" unicode="&#xf7;" horiz-adv-x="596" 
d="M318 475q-33 0 -53 19.5t-20 50.5t20 50.5t53 19.5q34 0 54 -19.5t20 -50.5t-20 -50.5t-54 -19.5zM89 301v98h459v-98h-459zM318 84q-33 0 -53 19.5t-20 50.5q0 32 20 51t53 19q34 0 54 -19t20 -51q0 -31 -20 -50.5t-54 -19.5z" />
    <glyph glyph-name="oslash" unicode="&#xf8;" horiz-adv-x="564" 
d="M249 -13q-37 0 -68.5 9t-56.5 27l-53 -60l-52 48l56 63q-16 25 -24.5 57t-8.5 70q0 48 12 95t35 89t56 74t76.5 50.5t95.5 18.5q37 0 69 -9.5t57 -26.5l53 60l52 -47l-57 -64q16 -25 24.5 -57t8.5 -70q0 -48 -12 -95t-35 -89t-56 -74t-76.5 -50.5t-95.5 -18.5zM162 199
q0 -15 2 -28l208 241q-22 20 -58 20q-31 0 -55.5 -14.5t-43 -39t-30 -55t-17.5 -63t-6 -61.5zM404 316q0 15 -2 28l-208 -241q22 -20 58 -20q31 0 55.5 14.5t43 39t30 55t17.5 63t6 61.5z" />
    <glyph glyph-name="ugrave" unicode="&#xf9;" horiz-adv-x="568" 
d="M343 0q2 28 7 59.5t12 67.5q-37 -67 -85.5 -103.5t-105.5 -36.5q-37 0 -65 16t-43 45.5t-15 70.5q0 15 1 31t6 35l70 330h119l-69 -326q-2 -12 -3.5 -22.5t-1.5 -20.5q0 -30 12.5 -46t36.5 -16q41 0 78.5 37t74.5 113l59 281h119l-74 -349q-10 -50 -17 -90t-10 -76h-106z
M212 761h123q23 -37 47 -77.5t47 -83.5h-97q-25 35 -55 75t-65 86z" />
    <glyph glyph-name="uacute" unicode="&#xfa;" horiz-adv-x="568" 
d="M343 0q2 28 7 59.5t12 67.5q-37 -67 -85.5 -103.5t-105.5 -36.5q-37 0 -65 16t-43 45.5t-15 70.5q0 15 1 31t6 35l70 330h119l-69 -326q-2 -12 -3.5 -22.5t-1.5 -20.5q0 -30 12.5 -46t36.5 -16q41 0 78.5 37t74.5 113l59 281h119l-74 -349q-10 -50 -17 -90t-10 -76h-106z
M410 761h139q-50 -44 -94 -85t-81 -76h-112q38 43 76 84t72 77z" />
    <glyph glyph-name="ucircumflex" unicode="&#xfb;" horiz-adv-x="568" 
d="M343 0q2 28 7 59.5t12 67.5q-37 -67 -85.5 -103.5t-105.5 -36.5q-37 0 -65 16t-43 45.5t-15 70.5q0 15 1 31t6 35l70 330h119l-69 -326q-2 -12 -3.5 -22.5t-1.5 -20.5q0 -30 12.5 -46t36.5 -16q41 0 78.5 37t74.5 113l59 281h119l-74 -349q-10 -50 -17 -90t-10 -76h-106z
M435 600q-27 42 -64 93q-29 -26 -55.5 -49t-48.5 -44h-106q37 38 79.5 79t86.5 82h107q26 -42 50 -82.5t45 -78.5h-94z" />
    <glyph glyph-name="udieresis" unicode="&#xfc;" horiz-adv-x="568" 
d="M343 0q2 28 7 59.5t12 67.5q-37 -67 -85.5 -103.5t-105.5 -36.5q-37 0 -65 16t-43 45.5t-15 70.5q0 15 1 31t6 35l70 330h119l-69 -326q-2 -12 -3.5 -22.5t-1.5 -20.5q0 -30 12.5 -46t36.5 -16q41 0 78.5 37t74.5 113l59 281h119l-74 -349q-10 -50 -17 -90t-10 -76h-106z
M240 618q-26 0 -42.5 15t-16.5 38q0 20 9.5 36t25.5 25.5t37 9.5q26 0 42.5 -15t16.5 -38q0 -20 -9 -36t-25.5 -25.5t-37.5 -9.5zM473 618q-26 0 -43 15t-17 38q0 20 9.5 36t25.5 25.5t37 9.5q26 0 43 -15t17 -38q0 -20 -9.5 -36t-25.5 -25.5t-37 -9.5z" />
    <glyph glyph-name="yacute" unicode="&#xfd;" horiz-adv-x="511" 
d="M201 -92q-31 -52 -63 -84.5t-68 -47.5t-78 -15q-53 0 -85 20l19 90q24 -15 60 -15q32 0 57 19t54 62q11 18 22.5 37t23.5 40q-22 122 -41.5 247t-37.5 254h121q8 -92 18.5 -188t22.5 -195q55 100 105.5 196t97.5 187h129q-34 -61 -72 -126.5t-77 -131.5t-76.5 -129
t-71 -119t-60.5 -101zM384 761h139q-50 -44 -94 -85t-81 -76h-112q38 43 76 84t72 77z" />
    <glyph glyph-name="thorn" unicode="&#xfe;" horiz-adv-x="568" 
d="M213 -13q-39 0 -76 10l-47 -223h-119l206 971h119l-45 -212l-37 -135q36 63 83.5 96.5t101.5 33.5q41 0 71.5 -21t47 -60t16.5 -93q0 -61 -16 -116.5t-45 -101t-69 -79t-88.5 -52t-102.5 -18.5zM352 431q-42 0 -80 -37t-75 -113l-39 -187q14 -7 31 -10t35 -3
q39 0 73 20.5t60 57.5t40.5 84.5t14.5 101.5q0 42 -15.5 64t-44.5 22z" />
    <glyph glyph-name="ydieresis" unicode="&#xff;" horiz-adv-x="511" 
d="M201 -92q-31 -52 -63 -84.5t-68 -47.5t-78 -15q-53 0 -85 20l19 90q24 -15 60 -15q32 0 57 19t54 62q11 18 22.5 37t23.5 40q-22 122 -41.5 247t-37.5 254h121q8 -92 18.5 -188t22.5 -195q55 100 105.5 196t97.5 187h129q-34 -61 -72 -126.5t-77 -131.5t-76.5 -129
t-71 -119t-60.5 -101zM214 618q-26 0 -42.5 15t-16.5 38q0 20 9.5 36t25.5 25.5t37 9.5q26 0 42.5 -15t16.5 -38q0 -20 -9 -36t-25.5 -25.5t-37.5 -9.5zM447 618q-26 0 -43 15t-17 38q0 20 9.5 36t25.5 25.5t37 9.5q26 0 43 -15t17 -38q0 -20 -9.5 -36t-25.5 -25.5t-37 -9.5
z" />
    <glyph glyph-name="Amacron" unicode="&#x100;" horiz-adv-x="696" 
d="M501 0q-11 89 -22 175h-287q-24 -44 -47.5 -87.5t-47.5 -87.5h-139q106 188 211 365.5t210 349.5h132q33 -180 62.5 -358.5t56.5 -356.5h-129zM250 279h216q-11 77 -22 153.5t-22 150.5q-44 -75 -87 -151t-85 -153zM302 889h340l-17 -79h-340z" />
    <glyph glyph-name="amacron" unicode="&#x101;" horiz-adv-x="561" 
d="M337 0q2 28 7 59.5t12 68.5q-37 -68 -85.5 -104.5t-103.5 -36.5q-41 0 -71 21t-46 60.5t-16 92.5q0 61 16 116.5t45 101t68.5 79t87.5 52t101 18.5q49 0 96 -11t89 -33l-67 -316q-10 -50 -17 -91t-10 -77h-106zM156 170q0 -42 15 -64t42 -22q41 0 78.5 36t72.5 110
l41 191q-27 13 -63 13q-39 0 -72.5 -21t-59 -57t-40 -84t-14.5 -102zM226 719h315l-17 -78h-315z" />
    <glyph glyph-name="Abreve" unicode="&#x102;" horiz-adv-x="696" 
d="M501 0q-11 89 -22 175h-287q-24 -44 -47.5 -87.5t-47.5 -87.5h-139q106 188 211 365.5t210 349.5h132q33 -180 62.5 -358.5t56.5 -356.5h-129zM250 279h216q-11 77 -22 153.5t-22 150.5q-44 -75 -87 -151t-85 -153zM468 858q40 0 63 16.5t32 48.5h84q-10 -65 -59.5 -101
t-127.5 -36q-47 0 -81 14t-52.5 40t-18.5 62q0 4 0.5 10.5t1.5 10.5h83q-1 -4 -1 -7v-5q0 -25 19.5 -39t56.5 -14z" />
    <glyph glyph-name="abreve" unicode="&#x103;" horiz-adv-x="561" 
d="M337 0q2 28 7 59.5t12 68.5q-37 -68 -85.5 -104.5t-103.5 -36.5q-41 0 -71 21t-46 60.5t-16 92.5q0 61 16 116.5t45 101t68.5 79t87.5 52t101 18.5q49 0 96 -11t89 -33l-67 -316q-10 -50 -17 -91t-10 -77h-106zM156 170q0 -42 15 -64t42 -22q41 0 78.5 36t72.5 110
l41 191q-27 13 -63 13q-39 0 -72.5 -21t-59 -57t-40 -84t-14.5 -102zM379 674q75 0 91 82h83q-12 -74 -59 -114t-123 -40q-45 0 -78 16.5t-51 46t-18 68.5q0 13 2 23h82q-1 -4 -1 -8v-6q0 -32 18.5 -50t53.5 -18z" />
    <glyph glyph-name="Aogonek" unicode="&#x104;" horiz-adv-x="696" 
d="M501 0q-11 89 -22 175h-287q-24 -44 -47.5 -87.5t-47.5 -87.5h-139q106 188 211 365.5t210 349.5h132q33 -180 62.5 -358.5t56.5 -356.5h-129zM250 279h216q-11 77 -22 153.5t-22 150.5q-44 -75 -87 -151t-85 -153zM390 -155q0 57 49 103t144 81l28 -29q-66 -29 -101 -63
t-35 -70q0 -40 52 -40q17 0 32 3.5t32 11.5l-15 -69q-16 -6 -35 -9t-36 -3q-54 0 -84.5 22t-30.5 62z" />
    <glyph glyph-name="aogonek" unicode="&#x105;" horiz-adv-x="561" 
d="M337 0q2 28 7 59.5t12 68.5q-37 -68 -85.5 -104.5t-103.5 -36.5q-41 0 -71 21t-46 60.5t-16 92.5q0 61 16 116.5t45 101t68.5 79t87.5 52t101 18.5q49 0 96 -11t89 -33l-67 -316q-10 -50 -17 -91t-10 -77h-106zM156 170q0 -42 15 -64t42 -22q41 0 78.5 36t72.5 110
l41 191q-27 13 -63 13q-39 0 -72.5 -21t-59 -57t-40 -84t-14.5 -102zM411 -161l-14 -66q-16 -6 -34 -9t-34 -3q-52 0 -81 22t-29 62q0 57 47 103t138 80l28 -28q-62 -28 -95.5 -62.5t-33.5 -70.5q0 -42 48 -42q17 0 30 3.5t30 10.5z" />
    <glyph glyph-name="Cacute" unicode="&#x106;" horiz-adv-x="652" 
d="M492 730q44 0 79 -6t65 -19.5t58 -34.5l-23 -110q-25 22 -52 36t-59 20t-72 6q-59 0 -106 -19.5t-82 -53t-57.5 -76t-34 -89t-11.5 -90.5q0 -97 50.5 -149.5t143.5 -52.5q41 0 75 6.5t65.5 21t63.5 38.5l-27 -127q-83 -46 -194 -46q-94 0 -163 35t-106 102t-37 162
q0 66 18 130.5t52.5 121.5t86 100.5t118.5 68.5t149 25zM570 914h150q-51 -34 -98.5 -66.5t-87.5 -61.5h-125q39 33 81 66t80 62z" />
    <glyph glyph-name="cacute" unicode="&#x107;" horiz-adv-x="472" 
d="M269 83q40 0 74.5 13.5t72.5 44.5l-25 -116q-34 -19 -69.5 -28.5t-79.5 -9.5q-63 0 -107.5 25t-68.5 72.5t-24 114.5q0 53 14 101.5t40 90t63.5 72.5t84 48t100.5 17q43 0 76.5 -10t60.5 -32l-20 -96q-22 22 -49.5 32t-65.5 10q-43 0 -77 -18.5t-58 -50.5t-36.5 -72
t-12.5 -83q0 -62 27 -93.5t80 -31.5zM414 761h139q-50 -44 -94 -85t-81 -76h-112q38 43 76 84t72 77z" />
    <glyph glyph-name="Cdotaccent" unicode="&#x10a;" horiz-adv-x="652" 
d="M492 730q44 0 79 -6t65 -19.5t58 -34.5l-23 -110q-25 22 -52 36t-59 20t-72 6q-59 0 -106 -19.5t-82 -53t-57.5 -76t-34 -89t-11.5 -90.5q0 -97 50.5 -149.5t143.5 -52.5q41 0 75 6.5t65.5 21t63.5 38.5l-27 -127q-83 -46 -194 -46q-94 0 -163 35t-106 102t-37 162
q0 66 18 130.5t52.5 121.5t86 100.5t118.5 68.5t149 25zM511 792q-29 0 -46.5 16t-17.5 41q0 21 10 38t27.5 27.5t39.5 10.5q28 0 46 -16t18 -41q0 -22 -9.5 -39t-27 -27t-40.5 -10z" />
    <glyph glyph-name="cdotaccent" unicode="&#x10b;" horiz-adv-x="472" 
d="M269 83q40 0 74.5 13.5t72.5 44.5l-25 -116q-34 -19 -69.5 -28.5t-79.5 -9.5q-63 0 -107.5 25t-68.5 72.5t-24 114.5q0 53 14 101.5t40 90t63.5 72.5t84 48t100.5 17q43 0 76.5 -10t60.5 -32l-20 -96q-22 22 -49.5 32t-65.5 10q-43 0 -77 -18.5t-58 -50.5t-36.5 -72
t-12.5 -83q0 -62 27 -93.5t80 -31.5zM359 615q-28 0 -45.5 15.5t-17.5 40.5q0 21 10 38t27 26.5t40 9.5q28 0 45.5 -15.5t17.5 -40.5q0 -21 -10 -38t-27 -26.5t-40 -9.5z" />
    <glyph glyph-name="Ccaron" unicode="&#x10c;" horiz-adv-x="652" 
d="M492 730q44 0 79 -6t65 -19.5t58 -34.5l-23 -110q-25 22 -52 36t-59 20t-72 6q-59 0 -106 -19.5t-82 -53t-57.5 -76t-34 -89t-11.5 -90.5q0 -97 50.5 -149.5t143.5 -52.5q41 0 75 6.5t65.5 21t63.5 38.5l-27 -127q-83 -46 -194 -46q-94 0 -163 35t-106 102t-37 162
q0 66 18 130.5t52.5 121.5t86 100.5t118.5 68.5t149 25zM730 914q-44 -34 -87 -67t-83 -61h-113q-28 28 -57.5 61t-58.5 67h110q15 -15 32 -32.5t37 -35.5q28 18 52.5 35.5l45.5 32.5h122z" />
    <glyph glyph-name="ccaron" unicode="&#x10d;" horiz-adv-x="472" 
d="M269 83q40 0 74.5 13.5t72.5 44.5l-25 -116q-34 -19 -69.5 -28.5t-79.5 -9.5q-63 0 -107.5 25t-68.5 72.5t-24 114.5q0 53 14 101.5t40 90t63.5 72.5t84 48t100.5 17q43 0 76.5 -10t60.5 -32l-20 -96q-22 22 -49.5 32t-65.5 10q-43 0 -77 -18.5t-58 -50.5t-36.5 -72
t-12.5 -83q0 -62 27 -93.5t80 -31.5zM568 761q-37 -38 -79 -79t-86 -82h-107q-26 41 -50 82t-46 79h94q14 -20 30 -43.5t34 -49.5q30 26 56 49.5t48 43.5h106z" />
    <glyph glyph-name="Dcaron" unicode="&#x10e;" horiz-adv-x="729" 
d="M29 0l151 715h231q90 0 155.5 -34t101.5 -97t36 -149q0 -99 -29 -179t-83 -137t-129.5 -88t-168.5 -31h-265zM575 421q0 90 -46 139t-131 49h-116l-107 -504h116q65 0 117.5 22.5t89.5 64.5t57 100t20 129zM659 914q-44 -34 -87 -67t-83 -61h-113q-28 28 -57.5 61
t-58.5 67h110q15 -15 32 -32.5t37 -35.5q28 18 52.5 35.5l45.5 32.5h122z" />
    <glyph glyph-name="dcaron" unicode="&#x10f;" horiz-adv-x="567" 
d="M343 0q2 28 7 60t12 68q-37 -68 -86.5 -104.5t-105.5 -36.5q-42 0 -72.5 21t-47 60.5t-16.5 92.5q0 61 16 116.5t45 101t69 79t88.5 52t102.5 18.5q39 0 77 -10l47 227h119l-122 -577q-10 -50 -17 -91t-10 -77h-106zM156 170q0 -42 16 -64t44 -22q42 0 80 36t74 110
l41 191q-28 13 -66 13q-39 0 -73.5 -21t-60.5 -57t-40.5 -84t-14.5 -102zM708 555h-80q15 45 27.5 90.5t25.5 99.5h97q-17 -59 -34 -104t-36 -86z" />
    <glyph glyph-name="Dcroat" unicode="&#x110;" horiz-adv-x="729" 
d="M704 435q0 -99 -29 -179t-83 -137t-129.5 -88t-168.5 -31h-265l69 328h-79l20 92h79l62 295h231q90 0 155.5 -34t101.5 -97t36 -149zM175 105h116q65 0 117.5 22.5t89.5 64.5t57 100t20 129q0 90 -46 139t-131 49h-116l-40 -189h157l-20 -92h-157z" />
    <glyph glyph-name="dcroat" unicode="&#x111;" horiz-adv-x="567" 
d="M343 0q2 28 7 60t12 68q-37 -68 -86.5 -104.5t-105.5 -36.5q-42 0 -72.5 21t-47 59.5t-16.5 90.5q0 60 16 114t45 98.5t69 77t88.5 50.5t102.5 18q38 0 74 -9l17 82h-162l17 77h161l17 79h119l-17 -79h68l-17 -77h-67l-89 -421q-10 -50 -17 -91t-10 -77h-106zM156 167
q0 -41 16 -62t44 -21q42 0 80 36t74 110l38 179q-28 12 -64 12q-39 0 -73 -20t-60 -55t-40.5 -81t-14.5 -98z" />
    <glyph glyph-name="Emacron" unicode="&#x112;" horiz-adv-x="591" 
d="M180 715h455l-22 -105h-331l-40 -188h295l-22 -104h-295l-45 -214h348l-22 -104h-472zM274 889h340l-17 -79h-340z" />
    <glyph glyph-name="emacron" unicode="&#x113;" horiz-adv-x="519" 
d="M416 31q-38 -23 -76.5 -33.5t-85.5 -10.5q-66 0 -113.5 25t-73 72.5t-25.5 113.5q0 55 15 104.5t42 91t64 71.5t82 46.5t94 16.5q50 0 86.5 -16.5t56.5 -47t20 -71.5q0 -93 -84.5 -141t-262.5 -58q3 -57 32 -85t85 -28q30 0 57 6.5t54 20.5t57 36zM327 440
q-39 0 -72.5 -22t-57.5 -60t-35 -86q121 6 176 32.5t55 79.5q0 27 -17.5 41.5t-48.5 14.5zM218 719h315l-17 -78h-315z" />
    <glyph glyph-name="Edotaccent" unicode="&#x116;" horiz-adv-x="591" 
d="M180 715h455l-22 -105h-331l-40 -188h295l-22 -104h-295l-45 -214h348l-22 -104h-472zM430 792q-29 0 -46.5 16t-17.5 41q0 21 10 38t27.5 27.5t39.5 10.5q28 0 46 -16t18 -41q0 -22 -9.5 -39t-27 -27t-40.5 -10z" />
    <glyph glyph-name="edotaccent" unicode="&#x117;" horiz-adv-x="519" 
d="M416 31q-38 -23 -76.5 -33.5t-85.5 -10.5q-66 0 -113.5 25t-73 72.5t-25.5 113.5q0 55 15 104.5t42 91t64 71.5t82 46.5t94 16.5q50 0 86.5 -16.5t56.5 -47t20 -71.5q0 -93 -84.5 -141t-262.5 -58q3 -57 32 -85t85 -28q30 0 57 6.5t54 20.5t57 36zM327 440
q-39 0 -72.5 -22t-57.5 -60t-35 -86q121 6 176 32.5t55 79.5q0 27 -17.5 41.5t-48.5 14.5zM359 615q-28 0 -45.5 15.5t-17.5 40.5q0 21 10 38t27 26.5t40 9.5q28 0 45.5 -15.5t17.5 -40.5q0 -21 -10 -38t-27 -26.5t-40 -9.5z" />
    <glyph glyph-name="Eogonek" unicode="&#x118;" horiz-adv-x="591" 
d="M180 715h455l-22 -105h-331l-40 -188h295l-22 -104h-295l-45 -214h348l-22 -104h-472zM261 -155q0 57 49 103t144 81l28 -29q-66 -29 -101 -63t-35 -70q0 -40 52 -40q17 0 32 3.5t32 11.5l-15 -69q-16 -6 -35 -9t-36 -3q-54 0 -84.5 22t-30.5 62z" />
    <glyph glyph-name="eogonek" unicode="&#x119;" horiz-adv-x="519" 
d="M416 31q-38 -23 -76.5 -33.5t-85.5 -10.5q-66 0 -113.5 25t-73 72.5t-25.5 113.5q0 55 15 104.5t42 91t64 71.5t82 46.5t94 16.5q50 0 86.5 -16.5t56.5 -47t20 -71.5q0 -93 -84.5 -141t-262.5 -58q3 -57 32 -85t85 -28q30 0 57 6.5t54 20.5t57 36zM327 440
q-39 0 -72.5 -22t-57.5 -60t-35 -86q121 6 176 32.5t55 79.5q0 27 -17.5 41.5t-48.5 14.5zM157 -153q0 63 53.5 113t157.5 88l28 -28q-75 -32 -115 -71t-40 -80q0 -44 48 -44q17 0 30 3.5t30 10.5l-14 -66q-16 -6 -34 -9t-34 -3q-52 0 -81 22.5t-29 63.5z" />
    <glyph glyph-name="Ecaron" unicode="&#x11a;" horiz-adv-x="591" 
d="M180 715h455l-22 -105h-331l-40 -188h295l-22 -104h-295l-45 -214h348l-22 -104h-472zM649 914q-44 -34 -87 -67t-83 -61h-113q-28 28 -57.5 61t-58.5 67h110q15 -15 32 -32.5t37 -35.5q28 18 52.5 35.5l45.5 32.5h122z" />
    <glyph glyph-name="ecaron" unicode="&#x11b;" horiz-adv-x="519" 
d="M416 31q-38 -23 -76.5 -33.5t-85.5 -10.5q-66 0 -113.5 25t-73 72.5t-25.5 113.5q0 55 15 104.5t42 91t64 71.5t82 46.5t94 16.5q50 0 86.5 -16.5t56.5 -47t20 -71.5q0 -93 -84.5 -141t-262.5 -58q3 -57 32 -85t85 -28q30 0 57 6.5t54 20.5t57 36zM327 440
q-39 0 -72.5 -22t-57.5 -60t-35 -86q121 6 176 32.5t55 79.5q0 27 -17.5 41.5t-48.5 14.5zM568 761q-37 -38 -79 -79t-86 -82h-107q-26 41 -50 82t-46 79h94q14 -20 30 -43.5t34 -49.5q30 26 56 49.5t48 43.5h106z" />
    <glyph glyph-name="Gbreve" unicode="&#x11e;" horiz-adv-x="720" 
d="M610 44q-55 -30 -112.5 -44.5t-123.5 -14.5q-96 0 -164.5 36t-105 102.5t-36.5 160.5q0 66 18.5 130.5t54.5 121.5t88.5 100.5t121.5 68.5t154 25q70 0 121.5 -14t97.5 -46l-23 -110q-27 22 -56.5 35.5t-64.5 20t-79 6.5q-62 0 -111 -19.5t-85.5 -53t-60 -75.5
t-35.5 -88.5t-12 -91.5q0 -97 51 -150t145 -53q34 0 62 5.5t53 17.5l37 174h-132l21 99h249zM533 858q40 0 63 16.5t32 48.5h84q-10 -65 -59.5 -101t-127.5 -36q-47 0 -81 14t-52.5 40t-18.5 62q0 4 0.5 10.5t1.5 10.5h83q-1 -4 -1 -7v-5q0 -25 19.5 -39t56.5 -14z" />
    <glyph glyph-name="gbreve" unicode="&#x11f;" horiz-adv-x="569" 
d="M443 1q-24 -116 -96.5 -178t-185.5 -62q-54 0 -96.5 11.5t-78.5 37.5l20 97q34 -27 69 -38.5t80 -11.5q68 0 112 38t59 111l8 38l28 95q-36 -64 -84.5 -98t-104.5 -34q-41 0 -72 20.5t-47.5 58t-16.5 89.5q0 59 16 112t45 97t69 76.5t88.5 50t102.5 17.5q101 0 187 -44z
M159 184q0 -39 16 -59.5t45 -20.5q42 0 80.5 35t76.5 107l37 175q-29 13 -66 13q-39 0 -73.5 -19.5t-60.5 -54t-40.5 -80t-14.5 -96.5zM386 674q75 0 91 82h83q-12 -74 -59 -114t-123 -40q-45 0 -78 16.5t-51 46t-18 68.5q0 13 2 23h82q-1 -4 -1 -8v-6q0 -32 18.5 -50
t53.5 -18z" />
    <glyph glyph-name="Gdotaccent" unicode="&#x120;" horiz-adv-x="720" 
d="M610 44q-55 -30 -112.5 -44.5t-123.5 -14.5q-96 0 -164.5 36t-105 102.5t-36.5 160.5q0 66 18.5 130.5t54.5 121.5t88.5 100.5t121.5 68.5t154 25q70 0 121.5 -14t97.5 -46l-23 -110q-27 22 -56.5 35.5t-64.5 20t-79 6.5q-62 0 -111 -19.5t-85.5 -53t-60 -75.5
t-35.5 -88.5t-12 -91.5q0 -97 51 -150t145 -53q34 0 62 5.5t53 17.5l37 174h-132l21 99h249zM523 792q-29 0 -46.5 16t-17.5 41q0 21 10 38t27.5 27.5t39.5 10.5q28 0 46 -16t18 -41q0 -22 -9.5 -39t-27 -27t-40.5 -10z" />
    <glyph glyph-name="gdotaccent" unicode="&#x121;" horiz-adv-x="569" 
d="M443 1q-24 -116 -96.5 -178t-185.5 -62q-54 0 -96.5 11.5t-78.5 37.5l20 97q34 -27 69 -38.5t80 -11.5q68 0 112 38t59 111l8 38l28 95q-36 -64 -84.5 -98t-104.5 -34q-41 0 -72 20.5t-47.5 58t-16.5 89.5q0 59 16 112t45 97t69 76.5t88.5 50t102.5 17.5q101 0 187 -44z
M159 184q0 -39 16 -59.5t45 -20.5q42 0 80.5 35t76.5 107l37 175q-29 13 -66 13q-39 0 -73.5 -19.5t-60.5 -54t-40.5 -80t-14.5 -96.5zM374 615q-28 0 -45.5 15.5t-17.5 40.5q0 21 10 38t27 26.5t40 9.5q28 0 45.5 -15.5t17.5 -40.5q0 -21 -10 -38t-27 -26.5t-40 -9.5z" />
    <glyph glyph-name="Hbar" unicode="&#x126;" horiz-adv-x="738" 
d="M477 0l63 300h-324l-63 -300h-124l109 514h-79l19 89h78l24 112h124l-24 -112h324l24 112h124l-24 -112h80l-19 -89h-79l-109 -514h-124zM239 408h324l23 106h-324z" />
    <glyph glyph-name="hbar" unicode="&#x127;" horiz-adv-x="572" 
d="M352 419q-43 0 -81.5 -37t-75.5 -115l-57 -267h-119l125 589h-67l16 77h67l17 79h119l-17 -79h162l-16 -77h-162l-15 -73l-35 -131q36 63 83.5 97t103.5 34q38 0 66 -16t43 -46t15 -70q0 -15 -1 -30.5t-6 -35.5l-68 -318h-119l67 313q2 12 3.5 22.5t1.5 21.5q0 30 -13 46
t-37 16z" />
    <glyph glyph-name="Itilde" unicode="&#x128;" horiz-adv-x="290" 
d="M180 715h124l-151 -715h-124zM340 787q-24 0 -43.5 7t-36.5 19q-19 14 -30.5 21.5t-20 10t-19.5 2.5q-21 0 -32 -13.5t-16 -42.5h-81q11 68 44.5 101t88.5 33q23 0 43 -7.5t37 -19.5q19 -14 30.5 -21t20 -9.5t19.5 -2.5q21 0 32 13.5t16 42.5h81q-11 -68 -44.5 -101
t-88.5 -33z" />
    <glyph glyph-name="itilde" unicode="&#x129;" horiz-adv-x="265" 
d="M128 515h119l-109 -515h-119zM205 640q-24 20 -37 28.5t-27 8.5q-20 0 -31.5 -15.5t-18.5 -53.5h-80q24 149 134 149q25 0 43 -8t41 -28t36 -28.5t27 -8.5q20 0 31.5 16t18.5 53h80q-24 -149 -134 -149q-25 0 -42.5 8t-40.5 28z" />
    <glyph glyph-name="Imacron" unicode="&#x12a;" horiz-adv-x="290" 
d="M180 715h124l-151 -715h-124zM104 889h340l-17 -79h-340z" />
    <glyph glyph-name="imacron" unicode="&#x12b;" horiz-adv-x="265" 
d="M128 515h119l-109 -515h-119zM68 719h315l-17 -78h-315z" />
    <glyph glyph-name="Iogonek" unicode="&#x12e;" horiz-adv-x="290" 
d="M180 715h124l-151 -715h-124zM-81 -155q0 57 49 103t144 81l28 -29q-66 -29 -101 -63t-35 -70q0 -40 52 -40q17 0 32 3.5t32 11.5l-15 -69q-16 -6 -35 -9t-36 -3q-54 0 -84.5 22t-30.5 62z" />
    <glyph glyph-name="iogonek" unicode="&#x12f;" horiz-adv-x="265" 
d="M225 741q29 0 47.5 -15.5t18.5 -41.5q0 -34 -21.5 -55t-58.5 -21q-29 0 -47.5 16t-18.5 41q0 34 21.5 55t58.5 21zM128 515h119l-109 -515h-119zM103 -161l-14 -66q-16 -6 -34 -9t-34 -3q-52 0 -81 22t-29 62q0 57 47 103t138 80l28 -28q-62 -28 -95.5 -62.5t-33.5 -70.5
q0 -42 48 -42q17 0 30 3.5t30 10.5z" />
    <glyph glyph-name="Idotaccent" unicode="&#x130;" horiz-adv-x="290" 
d="M180 715h124l-151 -715h-124zM260 792q-29 0 -46.5 16t-17.5 41q0 21 10 38t27.5 27.5t39.5 10.5q28 0 46 -16t18 -41q0 -22 -9.5 -39t-27 -27t-40.5 -10z" />
    <glyph glyph-name="dotlessi" unicode="&#x131;" horiz-adv-x="265" 
d="M128 515h119l-109 -515h-119z" />
    <glyph glyph-name="IJ" unicode="&#x132;" horiz-adv-x="776" 
d="M180 715h124l-151 -715h-124zM415 -15q-42 0 -83 11.5t-71 31.5l22 103q30 -20 60.5 -29.5t68.5 -9.5q65 0 102.5 35t53.5 109l101 479h124l-103 -488q-26 -124 -93.5 -183t-181.5 -59z" />
    <glyph glyph-name="ij" unicode="&#x133;" horiz-adv-x="530" 
d="M225 741q29 0 47.5 -15.5t18.5 -41.5q0 -34 -21.5 -55t-58.5 -21q-29 0 -47.5 16t-18.5 41q0 34 21.5 55t58.5 21zM128 515h119l-109 -515h-119zM490 741q29 0 47.5 -15.5t18.5 -41.5q0 -34 -21.5 -55t-58.5 -21q-29 0 -47.5 16t-18.5 41q0 34 21.5 55t58.5 21zM393 515
h119l-122 -577q-19 -90 -67.5 -133.5t-128.5 -43.5q-26 0 -50.5 5.5t-43.5 15.5l19 92q15 -10 29.5 -13.5t34.5 -3.5q70 0 90 91z" />
    <glyph glyph-name="kgreenlandic" unicode="&#x138;" horiz-adv-x="542" 
d="M215 217h-31l-46 -217h-119l110 515h118l-44 -206h33q46 48 96.5 101t97.5 105h138q-62 -67 -127 -134t-124 -127q29 -43 55 -83.5t52.5 -82t55.5 -88.5h-130q-24 40 -45.5 75.5t-43 70t-46.5 71.5z" />
    <glyph glyph-name="Lacute" unicode="&#x139;" horiz-adv-x="556" 
d="M180 715h124l-128 -608h331l-23 -107h-455zM319 914h150q-51 -34 -98.5 -66.5t-87.5 -61.5h-125q39 33 81 66t80 62z" />
    <glyph glyph-name="lacute" unicode="&#x13a;" horiz-adv-x="315" 
d="M46 139l129 606h119l-130 -608q-3 -13 -3 -23q0 -30 34 -30q31 0 60 20l-21 -98q-34 -15 -79 -15q-56 0 -85 25t-29 73q0 11 1 23t4 27zM311 951h150q-51 -34 -98.5 -66.5t-87.5 -61.5h-125q39 33 81 66t80 62z" />
    <glyph glyph-name="Lcaron" unicode="&#x13d;" horiz-adv-x="556" 
d="M180 715h124l-128 -608h331l-23 -107h-455zM464 525h-80q15 45 27.5 90.5t25.5 99.5h97q-17 -59 -34 -104t-36 -86z" />
    <glyph glyph-name="lcaron" unicode="&#x13e;" horiz-adv-x="315" 
d="M46 139l129 606h119l-130 -608q-3 -13 -3 -23q0 -30 34 -30q31 0 60 20l-21 -98q-34 -15 -79 -15q-56 0 -85 25t-29 73q0 11 1 23t4 27zM404 555h-80q15 45 27.5 90.5t25.5 99.5h97q-17 -59 -34 -104t-36 -86z" />
    <glyph glyph-name="Ldot" unicode="&#x13f;" horiz-adv-x="556" 
d="M180 715h124l-128 -608h331l-23 -107h-455zM446 329q-30 0 -49 17.5t-19 44.5q0 23 10.5 41t29.5 29t43 11q31 0 49.5 -17t18.5 -44q0 -23 -10.5 -41.5t-29 -29.5t-43.5 -11z" />
    <glyph glyph-name="ldot" unicode="&#x140;" horiz-adv-x="411" 
d="M46 139l129 606h119l-130 -608q-3 -13 -3 -23q0 -30 34 -30q31 0 60 20l-21 -98q-34 -15 -79 -15q-56 0 -85 25t-29 73q0 11 1 23t4 27zM356 320q-30 0 -48.5 17t-18.5 44q0 23 10.5 41t29 28.5t42.5 10.5q30 0 48.5 -17t18.5 -43q0 -23 -10.5 -41t-28.5 -29t-43 -11z
" />
    <glyph glyph-name="Lslash" unicode="&#x141;" horiz-adv-x="556" 
d="M507 107l-23 -107h-455l50 239l-87 -43l23 108l87 43l78 368h124l-63 -300l233 114l-23 -109l-233 -114l-42 -199h331z" />
    <glyph glyph-name="lslash" unicode="&#x142;" horiz-adv-x="315" 
d="M234 6q-34 -15 -79 -15q-56 0 -85 25t-29 73q0 11 1 23t4 27l37 176l-72 -28l20 91l72 28l72 339h119l-62 -289l106 41l-20 -91l-105 -41l-49 -228q-3 -13 -3 -23q0 -30 34 -30q31 0 60 20z" />
    <glyph glyph-name="Nacute" unicode="&#x143;" horiz-adv-x="737" 
d="M475 0q-52 137 -106 274.5t-107 265.5l-114 -540h-119l151 715h125q55 -133 108 -266.5t106 -270.5l113 537h119l-151 -715h-125zM544 914h150q-51 -34 -98.5 -66.5t-87.5 -61.5h-125q39 33 81 66t80 62z" />
    <glyph glyph-name="nacute" unicode="&#x144;" horiz-adv-x="572" 
d="M354 431q-43 0 -81.5 -37t-75.5 -114l-59 -280h-119l74 350q11 50 17.5 89.5t9.5 75.5h106q-2 -28 -7 -60t-12 -68q37 68 87 104.5t108 36.5q38 0 66 -16t43 -46t15 -70q0 -15 -1 -30.5t-6 -35.5l-70 -330h-119l69 325q2 12 3.5 22.5t1.5 21.5q0 30 -13 46t-37 16z
M422 761h139q-50 -44 -94 -85t-81 -76h-112q38 43 76 84t72 77z" />
    <glyph glyph-name="Ncaron" unicode="&#x147;" horiz-adv-x="737" 
d="M475 0q-52 137 -106 274.5t-107 265.5l-114 -540h-119l151 715h125q55 -133 108 -266.5t106 -270.5l113 537h119l-151 -715h-125zM704 914q-44 -34 -87 -67t-83 -61h-113q-28 28 -57.5 61t-58.5 67h110q15 -15 32 -32.5t37 -35.5q28 18 52.5 35.5l45.5 32.5h122z" />
    <glyph glyph-name="ncaron" unicode="&#x148;" horiz-adv-x="572" 
d="M354 431q-43 0 -81.5 -37t-75.5 -114l-59 -280h-119l74 350q11 50 17.5 89.5t9.5 75.5h106q-2 -28 -7 -60t-12 -68q37 68 87 104.5t108 36.5q38 0 66 -16t43 -46t15 -70q0 -15 -1 -30.5t-6 -35.5l-70 -330h-119l69 325q2 12 3.5 22.5t1.5 21.5q0 30 -13 46t-37 16z
M576 761q-37 -38 -79 -79t-86 -82h-107q-26 41 -50 82t-46 79h94q14 -20 30 -43.5t34 -49.5q30 26 56 49.5t48 43.5h106z" />
    <glyph glyph-name="Eng" unicode="&#x14a;" horiz-adv-x="734" 
d="M600 -2q-26 -122 -90 -179.5t-172 -57.5q-40 0 -77 9.5t-69 29.5l22 103q27 -18 56 -26.5t64 -8.5q58 0 93.5 34t50.5 105l94 446q4 20 6.5 35.5t2.5 31.5q0 49 -25 76t-70 27q-66 0 -127.5 -53.5t-119.5 -164.5l-86 -405h-124l151 715h102l-28 -180q53 95 122.5 145
t150.5 50q55 0 96 -22.5t63 -64t22 -96.5q0 -39 -12 -94z" />
    <glyph glyph-name="eng" unicode="&#x14b;" horiz-adv-x="573" 
d="M436 -62q-19 -90 -67.5 -133.5t-128.5 -43.5q-26 0 -50 5.5t-44 15.5l19 92q15 -10 29.5 -13.5t34.5 -3.5q70 0 90 91l80 377q2 12 3.5 22.5t1.5 21.5q0 30 -13 46t-37 16q-43 0 -81.5 -37t-75.5 -114l-59 -280h-119l74 350q11 50 17.5 89.5t9.5 75.5h106q-2 -28 -7 -60
t-12 -68q37 68 87 104.5t108 36.5q38 0 66 -16t43 -46t15 -70q0 -15 -1 -30.5t-6 -35.5z" />
    <glyph glyph-name="Ohungarumlaut" unicode="&#x150;" horiz-adv-x="771" 
d="M362 -15q-68 0 -122 21t-92.5 60t-59 93.5t-20.5 122.5q0 66 16 131t48 122t78.5 101t107 69t134.5 25q68 0 122 -21t92.5 -60t59 -94t20.5 -123q0 -66 -16 -130.5t-48 -121.5t-78.5 -101t-107 -69t-134.5 -25zM446 622q-50 0 -90 -20t-70 -54t-49.5 -77.5t-29.5 -90.5
t-10 -92q0 -61 20 -105t58.5 -67.5t92.5 -23.5q50 0 90 20t70 54.5t49.5 77.5t29.5 90.5t10 92.5q0 61 -20.5 104.5t-58.5 67t-92 23.5zM479 914h141q-50 -34 -97.5 -66.5t-87.5 -61.5h-118q40 33 81.5 66t80.5 62zM692 914h141q-50 -34 -97 -66.5t-88 -61.5h-118
q40 33 81.5 66t80.5 62z" />
    <glyph glyph-name="ohungarumlaut" unicode="&#x151;" horiz-adv-x="564" 
d="M317 528q64 0 110.5 -26t71.5 -74t25 -114q0 -48 -12 -95t-35 -89t-56 -74t-76.5 -50.5t-95.5 -18.5q-64 0 -110.5 26t-71.5 74t-25 114q0 48 12 95t35 89t56 74t76.5 50.5t95.5 18.5zM252 83q31 0 55.5 14.5t43 39t30 55t17.5 63t6 61.5q0 55 -23.5 85.5t-66.5 30.5
q-31 0 -55.5 -14.5t-43 -39t-30 -55t-17.5 -63t-6 -61.5q0 -55 23.5 -85.5t66.5 -30.5zM340 761h130q-50 -44 -94 -85t-81 -76h-104q38 43 76 84t73 77zM540 761h130q-50 -44 -94 -85t-81 -76h-104q38 43 76 84t73 77z" />
    <glyph glyph-name="OE" unicode="&#x152;" horiz-adv-x="1030" 
d="M940 0h-428q-58 -15 -120 -15q-100 0 -172.5 36t-112 103t-39.5 160q0 70 19 135.5t56.5 121.5t92.5 98.5t126 66.5t157 24q40 0 73 -3.5t62 -11.5h420l-22 -105h-318l-40 -188h282l-22 -104h-282l-45 -214h335zM197 289q0 -63 24.5 -107t70.5 -67.5t110 -23.5
q54 0 103 14l107 506q-21 7 -44.5 10t-54.5 3q-64 0 -114.5 -19t-88.5 -52t-63 -75.5t-37.5 -91t-12.5 -97.5z" />
    <glyph glyph-name="oe" unicode="&#x153;" horiz-adv-x="871" 
d="M768 31q-38 -23 -76.5 -33.5t-85.5 -10.5q-61 0 -105.5 23.5t-68.5 67.5q-34 -42 -80.5 -66.5t-102.5 -24.5q-64 0 -110.5 26t-71.5 74t-25 114q0 48 12 95t35 89t56 74t76.5 50.5t95.5 18.5q61 0 104.5 -25t66.5 -72q39 46 91.5 71.5t112.5 25.5q50 0 86 -16.5t56 -47
t20 -71.5q0 -93 -84 -141t-262 -58q3 -57 32 -85t84 -28q30 0 57 6.5t54 20.5t57 36zM680 440q-39 0 -72.5 -22t-57.5 -60t-35 -86q120 6 175 32.5t55 79.5q0 27 -17.5 41.5t-47.5 14.5zM252 83q31 0 55.5 14.5t43 39t30 55t17.5 63t6 61.5q0 55 -23.5 85.5t-66.5 30.5
q-31 0 -55.5 -14.5t-43 -39t-30 -55t-17.5 -63t-6 -61.5q0 -55 23.5 -85.5t66.5 -30.5z" />
    <glyph glyph-name="Racute" unicode="&#x154;" horiz-adv-x="646" 
d="M210 274l-58 -274h-123l151 715h217q77 0 132.5 -23t86 -65.5t30.5 -102.5q0 -57 -21.5 -103t-61.5 -79t-97 -50q29 -71 57 -143.5t55 -148.5h-131q-23 70 -47.5 137.5t-50.5 136.5h-12h-127zM282 616l-51 -244h102q36 0 69 7.5t59 25t41 45.5t15 69q0 35 -17 56.5
t-46.5 31t-67.5 9.5h-104zM487 914h150q-51 -34 -98.5 -66.5t-87.5 -61.5h-125q39 33 81 66t80 62z" />
    <glyph glyph-name="racute" unicode="&#x155;" horiz-adv-x="393" 
d="M352 408q-45 0 -84 -40t-78 -122l-52 -246h-119l74 350q11 50 17.5 89.5t9.5 75.5h106q-3 -35 -9.5 -74t-15.5 -87q32 82 77 126t99 44q18 0 31 -3t28 -9l-26 -120q-14 8 -27.5 12t-30.5 4zM365 761h139q-50 -44 -94 -85t-81 -76h-112q38 43 76 84t72 77z" />
    <glyph glyph-name="Rcaron" unicode="&#x158;" horiz-adv-x="646" 
d="M210 274l-58 -274h-123l151 715h217q77 0 132.5 -23t86 -65.5t30.5 -102.5q0 -57 -21.5 -103t-61.5 -79t-97 -50q29 -71 57 -143.5t55 -148.5h-131q-23 70 -47.5 137.5t-50.5 136.5h-12h-127zM282 616l-51 -244h102q36 0 69 7.5t59 25t41 45.5t15 69q0 35 -17 56.5
t-46.5 31t-67.5 9.5h-104zM647 914q-44 -34 -87 -67t-83 -61h-113q-28 28 -57.5 61t-58.5 67h110q15 -15 32 -32.5t37 -35.5q28 18 52.5 35.5l45.5 32.5h122z" />
    <glyph glyph-name="rcaron" unicode="&#x159;" horiz-adv-x="393" 
d="M352 408q-45 0 -84 -40t-78 -122l-52 -246h-119l74 350q11 50 17.5 89.5t9.5 75.5h106q-3 -35 -9.5 -74t-15.5 -87q32 82 77 126t99 44q18 0 31 -3t28 -9l-26 -120q-14 8 -27.5 12t-30.5 4zM519 761q-37 -38 -79 -79t-86 -82h-107q-26 41 -50 82t-46 79h94
q14 -20 30 -43.5t34 -49.5q30 26 56 49.5t48 43.5h106z" />
    <glyph glyph-name="Sacute" unicode="&#x15a;" horiz-adv-x="599" 
d="M233 523q0 -17 5.5 -30.5t19.5 -25.5t38 -24.5t61 -28.5q51 -22 86 -42.5t56 -43.5t30.5 -51t9.5 -64q0 -51 -21 -93t-59.5 -72.5t-92 -46.5t-119.5 -16q-68 0 -127.5 17t-106.5 51l23 105q46 -37 97.5 -54t112.5 -17q78 0 122 30.5t44 83.5q0 25 -10.5 43t-35.5 34.5
t-69 34.5q-54 22 -90.5 43t-58 43.5t-31 49.5t-9.5 61q0 49 20.5 89.5t58 69.5t90.5 45t117 16q58 0 110.5 -16t98.5 -47l-22 -103q-42 32 -89 47.5t-102 15.5q-74 0 -115.5 -28t-41.5 -76zM485 914h150q-51 -34 -98.5 -66.5t-87.5 -61.5h-125q39 33 81 66t80 62z" />
    <glyph glyph-name="sacute" unicode="&#x15b;" horiz-adv-x="458" 
d="M1 34l20 93q65 -50 150 -50q49 0 78.5 18.5t29.5 52.5q0 16 -6.5 27t-22.5 20.5t-44 20.5q-52 20 -82 41t-43 46t-13 60q0 49 27 86.5t76 58t114 20.5q44 0 84.5 -12t75.5 -34l-20 -92q-29 24 -65 36t-75 12q-49 0 -76 -17.5t-27 -48.5q0 -14 6.5 -25t24 -21t49.5 -22
q49 -19 78 -39.5t41.5 -46.5t12.5 -62q0 -50 -27 -88.5t-76.5 -59.5t-115.5 -21q-51 0 -95.5 12t-78.5 35zM363 761h139q-50 -44 -94 -85t-81 -76h-112q38 43 76 84t72 77z" />
    <glyph glyph-name="Scedilla" unicode="&#x15e;" horiz-adv-x="599" 
d="M233 523q0 -17 5.5 -30.5t19.5 -25.5t38 -24.5t61 -28.5q51 -22 86 -42.5t56 -43.5t30.5 -51t9.5 -64q0 -51 -21 -93t-59.5 -72.5t-92 -46.5t-119.5 -16q-68 0 -127.5 17t-106.5 51l23 105q46 -37 97.5 -54t112.5 -17q78 0 122 30.5t44 83.5q0 25 -10.5 43t-35.5 34.5
t-69 34.5q-54 22 -90.5 43t-58 43.5t-31 49.5t-9.5 61q0 49 20.5 89.5t58 69.5t90.5 45t117 16q58 0 110.5 -16t98.5 -47l-22 -103q-42 32 -89 47.5t-102 15.5q-74 0 -115.5 -28t-41.5 -76zM357 -134q0 -32 -18 -55.5t-51 -36.5t-76 -13q-25 0 -47 4t-40 13l13 61
q16 -8 32.5 -11.5t39.5 -3.5q31 0 49 10t18 27q0 28 -50 28q-14 0 -28 -1t-27 -4l61 131h67l-36 -75h7q41 0 63.5 -19.5t22.5 -54.5z" />
    <glyph glyph-name="scedilla" unicode="&#x15f;" horiz-adv-x="458" 
d="M1 34l20 93q65 -50 150 -50q49 0 78.5 18.5t29.5 52.5q0 16 -6.5 27t-22.5 20.5t-44 20.5q-52 20 -82 41t-43 46t-13 60q0 49 27 86.5t76 58t114 20.5q44 0 84.5 -12t75.5 -34l-20 -92q-29 24 -65 36t-75 12q-49 0 -76 -17.5t-27 -48.5q0 -14 6.5 -25t24 -21t49.5 -22
q49 -19 78 -39.5t41.5 -46.5t12.5 -62q0 -50 -27 -88.5t-76.5 -59.5t-115.5 -21q-51 0 -95.5 12t-78.5 35zM280 -134q0 -32 -17.5 -55.5t-49.5 -36.5t-74 -13q-25 0 -45 4t-38 13l13 59q16 -8 31 -11.5t37 -3.5q31 0 48 10.5t17 28.5q0 29 -48 29q-14 0 -26 -1t-25 -4
l61 130h65l-37 -76h6q39 0 60.5 -19.5t21.5 -53.5z" />
    <glyph glyph-name="Scaron" unicode="&#x160;" horiz-adv-x="599" 
d="M233 523q0 -17 5.5 -30.5t19.5 -25.5t38 -24.5t61 -28.5q51 -22 86 -42.5t56 -43.5t30.5 -51t9.5 -64q0 -51 -21 -93t-59.5 -72.5t-92 -46.5t-119.5 -16q-68 0 -127.5 17t-106.5 51l23 105q46 -37 97.5 -54t112.5 -17q78 0 122 30.5t44 83.5q0 25 -10.5 43t-35.5 34.5
t-69 34.5q-54 22 -90.5 43t-58 43.5t-31 49.5t-9.5 61q0 49 20.5 89.5t58 69.5t90.5 45t117 16q58 0 110.5 -16t98.5 -47l-22 -103q-42 32 -89 47.5t-102 15.5q-74 0 -115.5 -28t-41.5 -76zM645 914q-44 -34 -87 -67t-83 -61h-113q-28 28 -57.5 61t-58.5 67h110
q15 -15 32 -32.5t37 -35.5q28 18 52.5 35.5l45.5 32.5h122z" />
    <glyph glyph-name="scaron" unicode="&#x161;" horiz-adv-x="458" 
d="M1 34l20 93q65 -50 150 -50q49 0 78.5 18.5t29.5 52.5q0 16 -6.5 27t-22.5 20.5t-44 20.5q-52 20 -82 41t-43 46t-13 60q0 49 27 86.5t76 58t114 20.5q44 0 84.5 -12t75.5 -34l-20 -92q-29 24 -65 36t-75 12q-49 0 -76 -17.5t-27 -48.5q0 -14 6.5 -25t24 -21t49.5 -22
q49 -19 78 -39.5t41.5 -46.5t12.5 -62q0 -50 -27 -88.5t-76.5 -59.5t-115.5 -21q-51 0 -95.5 12t-78.5 35zM517 761q-37 -38 -79 -79t-86 -82h-107q-26 41 -50 82t-46 79h94q14 -20 30 -43.5t34 -49.5q30 26 56 49.5t48 43.5h106z" />
    <glyph glyph-name="uni0162" unicode="&#x162;" horiz-adv-x="598" 
d="M114 715h563l-23 -108h-219l-128 -607h-124l128 607h-220zM346 -134q0 -32 -18 -55.5t-51 -36.5t-76 -13q-25 0 -47 4t-40 13l13 61q16 -8 32.5 -11.5t39.5 -3.5q31 0 49 10t18 27q0 28 -50 28q-14 0 -28 -1t-27 -4l61 131h67l-36 -75h7q41 0 63.5 -19.5t22.5 -54.5z" />
    <glyph glyph-name="uni0163" unicode="&#x163;" horiz-adv-x="389" 
d="M315 11q-25 -13 -51 -18.5t-60 -5.5q-63 0 -95.5 29t-32.5 86q0 12 2.5 28.5t5.5 31.5l55 261h-90l19 92h91l28 133l125 28l-34 -161h133l-20 -92h-133l-50 -236q-4 -18 -6.5 -35.5t-2.5 -25.5q0 -43 46 -43q24 0 46.5 8.5t46.5 25.5zM292 -134q0 -32 -17.5 -55.5
t-49.5 -36.5t-74 -13q-25 0 -45 4t-38 13l13 59q16 -8 31 -11.5t37 -3.5q31 0 48 10.5t17 28.5q0 29 -48 29q-14 0 -26 -1t-25 -4l61 130h65l-37 -76h6q39 0 60.5 -19.5t21.5 -53.5z" />
    <glyph glyph-name="Tcaron" unicode="&#x164;" horiz-adv-x="598" 
d="M114 715h563l-23 -108h-219l-128 -607h-124l128 607h-220zM628 914q-44 -34 -87 -67t-83 -61h-113q-28 28 -57.5 61t-58.5 67h110q15 -15 32 -32.5t37 -35.5q28 18 52.5 35.5l45.5 32.5h122z" />
    <glyph glyph-name="tcaron" unicode="&#x165;" horiz-adv-x="389" 
d="M315 11q-25 -13 -51 -18.5t-60 -5.5q-63 0 -95.5 29t-32.5 86q0 12 2.5 28.5t5.5 31.5l55 261h-90l19 92h91l28 133l125 28l-34 -161h133l-20 -92h-133l-50 -236q-4 -18 -6.5 -35.5t-2.5 -25.5q0 -43 46 -43q24 0 46.5 8.5t46.5 25.5zM437 565h-80q14 43 25.5 85.5
t23.5 94.5h98q-17 -56 -32.5 -99t-34.5 -81z" />
    <glyph glyph-name="Tbar" unicode="&#x166;" horiz-adv-x="598" 
d="M494 286h-127l-60 -286h-124l60 286h-126l19 92h127l48 229h-220l23 108h563l-23 -108h-219l-48 -229h126z" />
    <glyph glyph-name="tbar" unicode="&#x167;" horiz-adv-x="389" 
d="M315 11q-25 -13 -51 -18.5t-60 -5.5q-62 0 -95 28.5t-33 82.5q0 14 1 27t5 29l16 74h-90l16 77h90l25 118h-90l20 92h90l28 133l125 28l-34 -161h133l-20 -92h-133l-25 -118h133l-16 -77h-133l-9 -41q-3 -16 -6 -32.5t-3 -28.5q0 -43 46 -43q25 0 47.5 8.5t45.5 25.5z
" />
    <glyph glyph-name="Utilde" unicode="&#x168;" horiz-adv-x="727" 
d="M92 313l85 402h124l-91 -431q-4 -16 -5.5 -29.5t-1.5 -26.5q0 -64 36.5 -100t105.5 -36q71 0 116.5 43t62.5 125l96 455h124l-96 -455q-29 -136 -108.5 -205.5t-203.5 -69.5q-81 0 -138 28.5t-87 82.5t-30 129q0 19 3 40t8 48zM554 787q-24 0 -43.5 7t-36.5 19
q-19 14 -30.5 21.5t-20 10t-19.5 2.5q-21 0 -32 -13.5t-16 -42.5h-81q11 68 44.5 101t88.5 33q23 0 43 -7.5t37 -19.5q19 -14 30.5 -21t20 -9.5t19.5 -2.5q21 0 32 13.5t16 42.5h81q-11 -68 -44.5 -101t-88.5 -33z" />
    <glyph glyph-name="utilde" unicode="&#x169;" horiz-adv-x="568" 
d="M343 0q2 28 7 59.5t12 67.5q-37 -67 -85.5 -103.5t-105.5 -36.5q-37 0 -65 16t-43 45.5t-15 70.5q0 15 1 31t6 35l70 330h119l-69 -326q-2 -12 -3.5 -22.5t-1.5 -20.5q0 -30 12.5 -46t36.5 -16q41 0 78.5 37t74.5 113l59 281h119l-74 -349q-10 -50 -17 -90t-10 -76h-106z
M351 640q-24 20 -37 28.5t-27 8.5q-20 0 -31.5 -15.5t-18.5 -53.5h-80q24 149 134 149q25 0 43 -8t41 -28t36 -28.5t27 -8.5q20 0 31.5 16t18.5 53h80q-24 -149 -134 -149q-25 0 -42.5 8t-40.5 28z" />
    <glyph glyph-name="Umacron" unicode="&#x16a;" horiz-adv-x="727" 
d="M92 313l85 402h124l-91 -431q-4 -16 -5.5 -29.5t-1.5 -26.5q0 -64 36.5 -100t105.5 -36q71 0 116.5 43t62.5 125l96 455h124l-96 -455q-29 -136 -108.5 -205.5t-203.5 -69.5q-81 0 -138 28.5t-87 82.5t-30 129q0 19 3 40t8 48zM318 889h340l-17 -79h-340z" />
    <glyph glyph-name="umacron" unicode="&#x16b;" horiz-adv-x="568" 
d="M343 0q2 28 7 59.5t12 67.5q-37 -67 -85.5 -103.5t-105.5 -36.5q-37 0 -65 16t-43 45.5t-15 70.5q0 15 1 31t6 35l70 330h119l-69 -326q-2 -12 -3.5 -22.5t-1.5 -20.5q0 -30 12.5 -46t36.5 -16q41 0 78.5 37t74.5 113l59 281h119l-74 -349q-10 -50 -17 -90t-10 -76h-106z
M214 719h315l-17 -78h-315z" />
    <glyph glyph-name="Uring" unicode="&#x16e;" horiz-adv-x="727" 
d="M92 313l85 402h124l-91 -431q-4 -16 -5.5 -29.5t-1.5 -26.5q0 -64 36.5 -100t105.5 -36q71 0 116.5 43t62.5 125l96 455h124l-96 -455q-29 -136 -108.5 -205.5t-203.5 -69.5q-81 0 -138 28.5t-87 82.5t-30 129q0 19 3 40t8 48zM478 774q-33 0 -57.5 12t-38 34t-13.5 50
q0 35 16.5 62.5t45 43.5t64.5 16q33 0 57.5 -12t38 -34t13.5 -50q0 -35 -16.5 -62.5t-44.5 -43.5t-65 -16zM493 941q-29 0 -47.5 -18t-18.5 -47q0 -23 14 -37t39 -14q30 0 48 18t18 48q0 23 -14 36.5t-39 13.5z" />
    <glyph glyph-name="uring" unicode="&#x16f;" horiz-adv-x="568" 
d="M343 0q2 28 7 59.5t12 67.5q-37 -67 -85.5 -103.5t-105.5 -36.5q-37 0 -65 16t-43 45.5t-15 70.5q0 15 1 31t6 35l70 330h119l-69 -326q-2 -12 -3.5 -22.5t-1.5 -20.5q0 -30 12.5 -46t36.5 -16q41 0 78.5 37t74.5 113l59 281h119l-74 -349q-10 -50 -17 -90t-10 -76h-106z
M356 588q-31 0 -54.5 12.5t-37 34t-13.5 50.5q0 35 16.5 63.5t45.5 45t65 16.5q30 0 53.5 -12.5t37 -34t13.5 -50.5q0 -35 -16.5 -63.5t-45 -45t-64.5 -16.5zM375 760q-30 0 -48.5 -20.5t-18.5 -50.5q0 -23 14 -37t36 -14q31 0 49 21t18 51q0 23 -13.5 36.5t-36.5 13.5z" />
    <glyph glyph-name="Uhungarumlaut" unicode="&#x170;" horiz-adv-x="727" 
d="M92 313l85 402h124l-91 -431q-4 -16 -5.5 -29.5t-1.5 -26.5q0 -64 36.5 -100t105.5 -36q71 0 116.5 43t62.5 125l96 455h124l-96 -455q-29 -136 -108.5 -205.5t-203.5 -69.5q-81 0 -138 28.5t-87 82.5t-30 129q0 19 3 40t8 48zM463 914h141q-50 -34 -97.5 -66.5
t-87.5 -61.5h-118q40 33 81.5 66t80.5 62zM676 914h141q-50 -34 -97 -66.5t-88 -61.5h-118q40 33 81.5 66t80.5 62z" />
    <glyph glyph-name="uhungarumlaut" unicode="&#x171;" horiz-adv-x="568" 
d="M343 0q2 28 7 59.5t12 67.5q-37 -67 -85.5 -103.5t-105.5 -36.5q-37 0 -65 16t-43 45.5t-15 70.5q0 15 1 31t6 35l70 330h119l-69 -326q-2 -12 -3.5 -22.5t-1.5 -20.5q0 -30 12.5 -46t36.5 -16q41 0 78.5 37t74.5 113l59 281h119l-74 -349q-10 -50 -17 -90t-10 -76h-106z
M345 761h130q-50 -44 -94 -85t-81 -76h-104q38 43 76 84t73 77zM545 761h130q-50 -44 -94 -85t-81 -76h-104q38 43 76 84t73 77z" />
    <glyph glyph-name="Uogonek" unicode="&#x172;" horiz-adv-x="727" 
d="M92 313l85 402h124l-91 -431q-4 -16 -5.5 -29.5t-1.5 -26.5q0 -64 36.5 -100t105.5 -36q71 0 116.5 43t62.5 125l96 455h124l-96 -455q-29 -136 -108.5 -205.5t-203.5 -69.5q-81 0 -138 28.5t-87 82.5t-30 129q0 19 3 40t8 48zM240 -153q0 63 55.5 113.5t162.5 88.5
l28 -29q-78 -33 -119.5 -71.5t-41.5 -79.5q0 -42 52 -42q17 0 32 3.5t32 11.5l-15 -69q-16 -6 -35.5 -9t-35.5 -3q-54 0 -84.5 22.5t-30.5 63.5z" />
    <glyph glyph-name="uogonek" unicode="&#x173;" horiz-adv-x="568" 
d="M343 0q2 28 7 59.5t12 67.5q-37 -67 -85.5 -103.5t-105.5 -36.5q-37 0 -65 16t-43 45.5t-15 70.5q0 15 1 31t6 35l70 330h119l-69 -326q-2 -12 -3.5 -22.5t-1.5 -20.5q0 -30 12.5 -46t36.5 -16q41 0 78.5 37t74.5 113l59 281h119l-74 -349q-10 -50 -17 -90t-10 -76h-106z
M417 -161l-14 -66q-16 -6 -34 -9t-34 -3q-52 0 -81 22t-29 62q0 57 47 103t138 80l28 -28q-62 -28 -95.5 -62.5t-33.5 -70.5q0 -42 48 -42q17 0 30 3.5t30 10.5z" />
    <glyph glyph-name="Wcircumflex" unicode="&#x174;" horiz-adv-x="924" 
d="M542 0q-7 127 -13 255t-10 256q-60 -128 -121 -255.5t-124 -255.5h-130q-24 349 -30 715h132q-4 -144 -3.5 -287.5t3.5 -282.5q64 136 126.5 270.5t122.5 269.5h121q3 -135 7 -267t9 -265q61 137 121 278.5t116 283.5h135q-80 -182 -163.5 -361t-168.5 -354h-130z
M656 786q-15 15 -32.5 32t-37.5 36q-27 -19 -51.5 -36t-45.5 -32h-122q43 34 86.5 67t83.5 61h112q28 -28 58 -61t59 -67h-110z" />
    <glyph glyph-name="wcircumflex" unicode="&#x175;" horiz-adv-x="735" 
d="M413 0q-7 89 -12 178.5t-9 179.5q-43 -90 -88 -179.5t-91 -178.5h-118q-10 127 -17.5 256t-12.5 259h121q-2 -101 -2 -200t2 -198q46 95 89.5 188.5t87.5 189.5h113q3 -92 6.5 -183.5t8.5 -182.5q43 97 83.5 192t80.5 194h125q-59 -130 -121.5 -258.5t-126.5 -256.5h-119
zM520 600q-27 42 -64 93q-29 -26 -55.5 -49t-48.5 -44h-106q37 38 79.5 79t86.5 82h107q26 -42 50 -82.5t45 -78.5h-94z" />
    <glyph glyph-name="Ycircumflex" unicode="&#x176;" horiz-adv-x="663" 
d="M397 275l-58 -275h-124l58 275q-43 109 -83 219t-78 221h130q26 -84 53 -168t56 -167q64 83 126.5 167.5t122.5 167.5h145q-85 -111 -172 -221t-176 -219zM521 786q-15 15 -32.5 32t-37.5 36q-27 -19 -51.5 -36t-45.5 -32h-122q43 34 86.5 67t83.5 61h112q28 -28 58 -61
t59 -67h-110z" />
    <glyph glyph-name="ycircumflex" unicode="&#x177;" horiz-adv-x="511" 
d="M201 -92q-31 -52 -63 -84.5t-68 -47.5t-78 -15q-53 0 -85 20l19 90q24 -15 60 -15q32 0 57 19t54 62q11 18 22.5 37t23.5 40q-22 122 -41.5 247t-37.5 254h121q8 -92 18.5 -188t22.5 -195q55 100 105.5 196t97.5 187h129q-34 -61 -72 -126.5t-77 -131.5t-76.5 -129
t-71 -119t-60.5 -101zM409 600q-27 42 -64 93q-29 -26 -55.5 -49t-48.5 -44h-106q37 38 79.5 79t86.5 82h107q26 -42 50 -82.5t45 -78.5h-94z" />
    <glyph glyph-name="Ydieresis" unicode="&#x178;" horiz-adv-x="663" 
d="M397 275l-58 -275h-124l58 275q-43 109 -83 219t-78 221h130q26 -84 53 -168t56 -167q64 83 126.5 167.5t122.5 167.5h145q-85 -111 -172 -221t-176 -219zM314 793q-26 0 -43 15.5t-17 38.5q0 20 9.5 36t26 25.5t37.5 9.5q26 0 43 -15t17 -38q0 -20 -9.5 -36.5t-26 -26
t-37.5 -9.5zM566 793q-26 0 -43 15.5t-17 38.5q0 20 9.5 36t26 25.5t37.5 9.5q26 0 43 -15t17 -38q0 -20 -9.5 -36.5t-26 -26t-37.5 -9.5z" />
    <glyph glyph-name="Zacute" unicode="&#x179;" horiz-adv-x="617" 
d="M546 105l-23 -105h-538l19 89q119 135 237 265t235 256h-346l22 105h509l-19 -89q-119 -128 -238.5 -259t-235.5 -262h378zM479 914h150q-51 -34 -98.5 -66.5t-87.5 -61.5h-125q39 33 81 66t80 62z" />
    <glyph glyph-name="zacute" unicode="&#x17a;" horiz-adv-x="465" 
d="M397 92l-20 -92h-397l17 80q76 83 156 168.5t166 174.5h-238l20 92h378l-17 -81q-87 -89 -167.5 -174t-155.5 -168h258zM364 761h139q-50 -44 -94 -85t-81 -76h-112q38 43 76 84t72 77z" />
    <glyph glyph-name="Zdotaccent" unicode="&#x17b;" horiz-adv-x="617" 
d="M546 105l-23 -105h-538l19 89q119 135 237 265t235 256h-346l22 105h509l-19 -89q-119 -128 -238.5 -259t-235.5 -262h378zM420 792q-29 0 -46.5 16t-17.5 41q0 21 10 38t27.5 27.5t39.5 10.5q28 0 46 -16t18 -41q0 -22 -9.5 -39t-27 -27t-40.5 -10z" />
    <glyph glyph-name="zdotaccent" unicode="&#x17c;" horiz-adv-x="465" 
d="M397 92l-20 -92h-397l17 80q76 83 156 168.5t166 174.5h-238l20 92h378l-17 -81q-87 -89 -167.5 -174t-155.5 -168h258zM309 615q-28 0 -45.5 15.5t-17.5 40.5q0 21 10 38t27 26.5t40 9.5q28 0 45.5 -15.5t17.5 -40.5q0 -21 -10 -38t-27 -26.5t-40 -9.5z" />
    <glyph glyph-name="Zcaron" unicode="&#x17d;" horiz-adv-x="617" 
d="M546 105l-23 -105h-538l19 89q119 135 237 265t235 256h-346l22 105h509l-19 -89q-119 -128 -238.5 -259t-235.5 -262h378zM639 914q-44 -34 -87 -67t-83 -61h-113q-28 28 -57.5 61t-58.5 67h110q15 -15 32 -32.5t37 -35.5q28 18 52.5 35.5l45.5 32.5h122z" />
    <glyph glyph-name="zcaron" unicode="&#x17e;" horiz-adv-x="465" 
d="M397 92l-20 -92h-397l17 80q76 83 156 168.5t166 174.5h-238l20 92h378l-17 -81q-87 -89 -167.5 -174t-155.5 -168h258zM518 761q-37 -38 -79 -79t-86 -82h-107q-26 41 -50 82t-46 79h94q14 -20 30 -43.5t34 -49.5q30 26 56 49.5t48 43.5h106z" />
    <glyph glyph-name="uni0237" unicode="&#x237;" horiz-adv-x="265" 
d="M128 515h119l-122 -577q-19 -90 -67.5 -133.5t-128.5 -43.5q-26 0 -50.5 5.5t-43.5 15.5l19 92q15 -10 29.5 -13.5t34.5 -3.5q70 0 90 91z" />
    <glyph glyph-name="circumflex" unicode="&#x2c6;" horiz-adv-x="500" 
d="M413 600q-27 42 -64 93q-29 -26 -55.5 -49t-48.5 -44h-106q37 38 79.5 79t86.5 82h107q26 -42 50 -82.5t45 -78.5h-94z" />
    <glyph glyph-name="caron" unicode="&#x2c7;" horiz-adv-x="500" 
d="M542 761q-37 -38 -79 -79t-86 -82h-107q-26 41 -50 82t-46 79h94q14 -20 30 -43.5t34 -49.5q30 26 56 49.5t48 43.5h106z" />
    <glyph glyph-name="breve" unicode="&#x2d8;" horiz-adv-x="500" 
d="M345 674q75 0 91 82h83q-12 -74 -59 -114t-123 -40q-45 0 -78 16.5t-51 46t-18 68.5q0 13 2 23h82q-1 -4 -1 -8v-6q0 -32 18.5 -50t53.5 -18z" />
    <glyph glyph-name="dotaccent" unicode="&#x2d9;" horiz-adv-x="500" 
d="M333 615q-28 0 -45.5 15.5t-17.5 40.5q0 21 10 38t27 26.5t40 9.5q28 0 45.5 -15.5t17.5 -40.5q0 -21 -10 -38t-27 -26.5t-40 -9.5z" />
    <glyph glyph-name="ring" unicode="&#x2da;" horiz-adv-x="500" 
d="M334 588q-31 0 -54.5 12.5t-37 34t-13.5 50.5q0 35 16.5 63.5t45.5 45t65 16.5q30 0 53.5 -12.5t37 -34t13.5 -50.5q0 -35 -16.5 -63.5t-45 -45t-64.5 -16.5zM353 760q-30 0 -48.5 -20.5t-18.5 -50.5q0 -23 14 -37t36 -14q31 0 49 21t18 51q0 23 -13.5 36.5t-36.5 13.5z
" />
    <glyph glyph-name="ogonek" unicode="&#x2db;" horiz-adv-x="500" 
d="M259 -161l-14 -66q-16 -6 -34 -9t-34 -3q-52 0 -81 22t-29 62q0 57 47 103t138 80l28 -28q-62 -28 -95.5 -62.5t-33.5 -70.5q0 -42 48 -42q17 0 30 3.5t30 10.5z" />
    <glyph glyph-name="tilde" unicode="&#x2dc;" horiz-adv-x="500" 
d="M329 640q-24 20 -37 28.5t-27 8.5q-20 0 -31.5 -15.5t-18.5 -53.5h-80q24 149 134 149q25 0 43 -8t41 -28t36 -28.5t27 -8.5q20 0 31.5 16t18.5 53h80q-24 -149 -134 -149q-25 0 -42.5 8t-40.5 28z" />
    <glyph glyph-name="hungarumlaut" unicode="&#x2dd;" horiz-adv-x="500" 
d="M250 761h130q-50 -44 -94 -85t-81 -76h-104q38 43 76 84t73 77zM450 761h130q-50 -44 -94 -85t-81 -76h-104q38 43 76 84t73 77z" />
    <glyph glyph-name="gravecomb" unicode="&#x300;" 
d="M-60 761h123q23 -37 47 -77.5t47 -83.5h-97q-25 35 -55 75t-65 86z" />
    <glyph glyph-name="acutecomb" unicode="&#x301;" 
d="M138 761h139q-50 -44 -94 -85t-81 -76h-112q38 43 76 84t72 77z" />
    <glyph glyph-name="uni0302" unicode="&#x302;" 
d="M163 600q-27 42 -64 93q-29 -26 -55.5 -49t-48.5 -44h-106q37 38 79.5 79t86.5 82h107q26 -42 50 -82.5t45 -78.5h-94z" />
    <glyph glyph-name="tildecomb" unicode="&#x303;" 
d="M79 640q-24 20 -37 28.5t-27 8.5q-20 0 -31.5 -15.5t-18.5 -53.5h-80q24 149 134 149q25 0 43 -8t41 -28t36 -28.5t27 -8.5q20 0 31.5 16t18.5 53h80q-24 -149 -134 -149q-25 0 -42.5 8t-40.5 28z" />
    <glyph glyph-name="uni0304" unicode="&#x304;" 
d="M-58 719h315l-17 -78h-315z" />
    <glyph glyph-name="uni0306" unicode="&#x306;" 
d="M95 674q75 0 91 82h83q-12 -74 -59 -114t-123 -40q-45 0 -78 16.5t-51 46t-18 68.5q0 13 2 23h82q-1 -4 -1 -8v-6q0 -32 18.5 -50t53.5 -18z" />
    <glyph glyph-name="uni0307" unicode="&#x307;" 
d="M83 615q-28 0 -45.5 15.5t-17.5 40.5q0 21 10 38t27 26.5t40 9.5q28 0 45.5 -15.5t17.5 -40.5q0 -21 -10 -38t-27 -26.5t-40 -9.5z" />
    <glyph glyph-name="uni0308" unicode="&#x308;" 
d="M-32 618q-26 0 -42.5 15t-16.5 38q0 20 9.5 36t25.5 25.5t37 9.5q26 0 42.5 -15t16.5 -38q0 -20 -9 -36t-25.5 -25.5t-37.5 -9.5zM201 618q-26 0 -43 15t-17 38q0 20 9.5 36t25.5 25.5t37 9.5q26 0 43 -15t17 -38q0 -20 -9.5 -36t-25.5 -25.5t-37 -9.5z" />
    <glyph glyph-name="dotbelowcomb" unicode="&#x323;" 
d="M-88 -196q-28 0 -45.5 15.5t-17.5 40.5q0 21 10 38t27.5 27t39.5 10q28 0 45.5 -15.5t17.5 -40.5q0 -21 -10 -38t-27.5 -27t-39.5 -10z" />
    <glyph glyph-name="uni1E24" unicode="&#x1e24;" horiz-adv-x="738" 
d="M477 0l68 320h-324l-68 -320h-124l151 715h124l-61 -287h324l61 287h124l-151 -715h-124zM296 -198q-28 0 -46 16t-18 41q0 21 10 38t27.5 27.5t40.5 10.5q28 0 46 -16t18 -41q0 -22 -10 -39t-27.5 -27t-40.5 -10z" />
    <glyph glyph-name="uni1E25" unicode="&#x1e25;" horiz-adv-x="572" 
d="M354 431q-43 0 -81.5 -37t-75.5 -114l-59 -280h-119l158 745h119l-46 -217l-35 -131q36 63 83.5 97t103.5 34q38 0 66 -16t43 -46t15 -70q0 -15 -1 -30.5t-6 -35.5l-70 -330h-119l69 325q2 12 3.5 22.5t1.5 21.5q0 30 -13 46t-37 16zM215 -196q-28 0 -45.5 15.5
t-17.5 40.5q0 21 10 38t27.5 27t39.5 10q28 0 45.5 -15.5t17.5 -40.5q0 -21 -10 -38t-27.5 -27t-39.5 -10z" />
    <glyph glyph-name="uni1E36" unicode="&#x1e36;" horiz-adv-x="556" 
d="M180 715h124l-128 -608h331l-23 -107h-455zM248 -198q-28 0 -46 16t-18 41q0 21 10 38t27.5 27.5t40.5 10.5q28 0 46 -16t18 -41q0 -22 -10 -39t-27.5 -27t-40.5 -10z" />
    <glyph glyph-name="uni1E37" unicode="&#x1e37;" horiz-adv-x="315" 
d="M46 139l129 606h119l-130 -608q-3 -13 -3 -23q0 -30 34 -30q31 0 60 20l-21 -98q-34 -15 -79 -15q-56 0 -85 25t-29 73q0 11 1 23t4 27zM112 -196q-28 0 -45.5 15.5t-17.5 40.5q0 21 10 38t27.5 27t39.5 10q28 0 45.5 -15.5t17.5 -40.5q0 -21 -10 -38t-27.5 -27
t-39.5 -10z" />
    <glyph glyph-name="Wgrave" unicode="&#x1e80;" horiz-adv-x="924" 
d="M542 0q-7 127 -13 255t-10 256q-60 -128 -121 -255.5t-124 -255.5h-130q-24 349 -30 715h132q-4 -144 -3.5 -287.5t3.5 -282.5q64 136 126.5 270.5t122.5 269.5h121q3 -135 7 -267t9 -265q61 137 121 278.5t116 283.5h135q-80 -182 -163.5 -361t-168.5 -354h-130z
M405 914h135q58 -58 122 -128h-111q-31 28 -68 61t-78 67z" />
    <glyph glyph-name="wgrave" unicode="&#x1e81;" horiz-adv-x="735" 
d="M413 0q-7 89 -12 178.5t-9 179.5q-43 -90 -88 -179.5t-91 -178.5h-118q-10 127 -17.5 256t-12.5 259h121q-2 -101 -2 -200t2 -198q46 95 89.5 188.5t87.5 189.5h113q3 -92 6.5 -183.5t8.5 -182.5q43 97 83.5 192t80.5 194h125q-59 -130 -121.5 -258.5t-126.5 -256.5h-119
zM297 761h123q23 -37 47 -77.5t47 -83.5h-97q-25 35 -55 75t-65 86z" />
    <glyph glyph-name="Wacute" unicode="&#x1e82;" horiz-adv-x="924" 
d="M542 0q-7 127 -13 255t-10 256q-60 -128 -121 -255.5t-124 -255.5h-130q-24 349 -30 715h132q-4 -144 -3.5 -287.5t3.5 -282.5q64 136 126.5 270.5t122.5 269.5h121q3 -135 7 -267t9 -265q61 137 121 278.5t116 283.5h135q-80 -182 -163.5 -361t-168.5 -354h-130z
M634 914h150q-51 -34 -98.5 -66.5t-87.5 -61.5h-125q39 33 81 66t80 62z" />
    <glyph glyph-name="wacute" unicode="&#x1e83;" horiz-adv-x="735" 
d="M413 0q-7 89 -12 178.5t-9 179.5q-43 -90 -88 -179.5t-91 -178.5h-118q-10 127 -17.5 256t-12.5 259h121q-2 -101 -2 -200t2 -198q46 95 89.5 188.5t87.5 189.5h113q3 -92 6.5 -183.5t8.5 -182.5q43 97 83.5 192t80.5 194h125q-59 -130 -121.5 -258.5t-126.5 -256.5h-119
zM495 761h139q-50 -44 -94 -85t-81 -76h-112q38 43 76 84t72 77z" />
    <glyph glyph-name="Wdieresis" unicode="&#x1e84;" horiz-adv-x="924" 
d="M542 0q-7 127 -13 255t-10 256q-60 -128 -121 -255.5t-124 -255.5h-130q-24 349 -30 715h132q-4 -144 -3.5 -287.5t3.5 -282.5q64 136 126.5 270.5t122.5 269.5h121q3 -135 7 -267t9 -265q61 137 121 278.5t116 283.5h135q-80 -182 -163.5 -361t-168.5 -354h-130z
M449 793q-26 0 -43 15.5t-17 38.5q0 20 9.5 36t26 25.5t37.5 9.5q26 0 43 -15t17 -38q0 -20 -9.5 -36.5t-26 -26t-37.5 -9.5zM701 793q-26 0 -43 15.5t-17 38.5q0 20 9.5 36t26 25.5t37.5 9.5q26 0 43 -15t17 -38q0 -20 -9.5 -36.5t-26 -26t-37.5 -9.5z" />
    <glyph glyph-name="wdieresis" unicode="&#x1e85;" horiz-adv-x="735" 
d="M413 0q-7 89 -12 178.5t-9 179.5q-43 -90 -88 -179.5t-91 -178.5h-118q-10 127 -17.5 256t-12.5 259h121q-2 -101 -2 -200t2 -198q46 95 89.5 188.5t87.5 189.5h113q3 -92 6.5 -183.5t8.5 -182.5q43 97 83.5 192t80.5 194h125q-59 -130 -121.5 -258.5t-126.5 -256.5h-119
zM325 618q-26 0 -42.5 15t-16.5 38q0 20 9.5 36t25.5 25.5t37 9.5q26 0 42.5 -15t16.5 -38q0 -20 -9 -36t-25.5 -25.5t-37.5 -9.5zM558 618q-26 0 -43 15t-17 38q0 20 9.5 36t25.5 25.5t37 9.5q26 0 43 -15t17 -38q0 -20 -9.5 -36t-25.5 -25.5t-37 -9.5z" />
    <glyph glyph-name="uni1E9E" unicode="&#x1e9e;" horiz-adv-x="744" 
d="M692 229q0 -52 -21.5 -96.5t-60.5 -77.5t-91.5 -51.5t-113.5 -18.5q-38 0 -67.5 4.5t-53.5 14t-47 24.5l22 103q21 -16 42.5 -25.5t47 -14t57.5 -4.5q46 0 82 18t57 49t21 69q0 47 -35.5 71t-114.5 30l-25 2l19 87l198 184q-62 28 -135 28q-95 0 -152.5 -44.5
t-75.5 -130.5l-95 -450h-124l97 460q29 134 119.5 202t236.5 68q136 0 252 -70l-19 -93l-186 -174q166 -26 166 -164z" />
    <glyph glyph-name="Ygrave" unicode="&#x1ef2;" horiz-adv-x="663" 
d="M397 275l-58 -275h-124l58 275q-43 109 -83 219t-78 221h130q26 -84 53 -168t56 -167q64 83 126.5 167.5t122.5 167.5h145q-85 -111 -172 -221t-176 -219zM270 914h135q58 -58 122 -128h-111q-31 28 -68 61t-78 67z" />
    <glyph glyph-name="ygrave" unicode="&#x1ef3;" horiz-adv-x="511" 
d="M201 -92q-31 -52 -63 -84.5t-68 -47.5t-78 -15q-53 0 -85 20l19 90q24 -15 60 -15q32 0 57 19t54 62q11 18 22.5 37t23.5 40q-22 122 -41.5 247t-37.5 254h121q8 -92 18.5 -188t22.5 -195q55 100 105.5 196t97.5 187h129q-34 -61 -72 -126.5t-77 -131.5t-76.5 -129
t-71 -119t-60.5 -101zM186 761h123q23 -37 47 -77.5t47 -83.5h-97q-25 35 -55 75t-65 86z" />
    <glyph glyph-name="uni2000" unicode="&#x2000;" horiz-adv-x="500" 
 />
    <glyph glyph-name="uni2001" unicode="&#x2001;" horiz-adv-x="1000" 
 />
    <glyph glyph-name="uni2002" unicode="&#x2002;" horiz-adv-x="500" 
 />
    <glyph glyph-name="uni2003" unicode="&#x2003;" horiz-adv-x="1000" 
 />
    <glyph glyph-name="uni2004" unicode="&#x2004;" horiz-adv-x="333" 
 />
    <glyph glyph-name="uni2005" unicode="&#x2005;" horiz-adv-x="250" 
 />
    <glyph glyph-name="uni2006" unicode="&#x2006;" horiz-adv-x="167" 
 />
    <glyph glyph-name="uni2007" unicode="&#x2007;" horiz-adv-x="596" 
 />
    <glyph glyph-name="uni2008" unicode="&#x2008;" horiz-adv-x="260" 
 />
    <glyph glyph-name="uni2009" unicode="&#x2009;" horiz-adv-x="200" 
 />
    <glyph glyph-name="uni200A" unicode="&#x200a;" horiz-adv-x="150" 
 />
    <glyph glyph-name="uni200B" unicode="&#x200b;" 
 />
    <glyph glyph-name="endash" unicode="&#x2013;" horiz-adv-x="500" 
d="M-7 224l22 102h500l-22 -102h-500z" />
    <glyph glyph-name="emdash" unicode="&#x2014;" horiz-adv-x="1000" 
d="M-7 224l22 102h1000l-22 -102h-1000z" />
    <glyph glyph-name="quoteleft" unicode="&#x2018;" horiz-adv-x="260" 
d="M259 522q0 -22 -10 -39.5t-27.5 -27.5t-39.5 -10q-34 0 -51.5 18.5t-17.5 50.5t15 68.5t41.5 71t58.5 61.5h102q-85 -66 -115 -138q20 -4 32 -18.5t12 -36.5z" />
    <glyph glyph-name="quoteright" unicode="&#x2019;" horiz-adv-x="260" 
d="M287 653q0 -32 -15 -68.5t-41.5 -71.5t-58.5 -61h-102q85 66 115 138q-20 4 -32 18.5t-12 36.5t10 39.5t27.5 27.5t39.5 10q34 0 51.5 -18.5t17.5 -50.5z" />
    <glyph glyph-name="quotesinglbase" unicode="&#x201a;" horiz-adv-x="260" 
d="M172 63q0 -32 -15 -68.5t-41.5 -71.5t-58.5 -61h-102q85 66 115 138q-20 4 -32 18.5t-12 36.5t10 39.5t27.5 27.5t39.5 10q34 0 51.5 -18.5t17.5 -50.5z" />
    <glyph glyph-name="quotedblleft" unicode="&#x201c;" horiz-adv-x="464" 
d="M463 522q0 -22 -10 -39.5t-27.5 -27.5t-39.5 -10q-34 0 -51.5 18.5t-17.5 50.5t15 68.5t41.5 71t58.5 61.5h102q-85 -66 -115 -138q20 -4 32 -18.5t12 -36.5zM259 522q0 -22 -10 -39.5t-27.5 -27.5t-39.5 -10q-34 0 -51.5 18.5t-17.5 50.5t15 68.5t41.5 71t58.5 61.5h102
q-85 -66 -115 -138q20 -4 32 -18.5t12 -36.5z" />
    <glyph glyph-name="quotedblright" unicode="&#x201d;" horiz-adv-x="464" 
d="M491 653q0 -32 -15 -68.5t-41.5 -71.5t-58.5 -61h-102q85 66 115 138q-20 4 -32 18.5t-12 36.5t10 39.5t27.5 27.5t39.5 10q34 0 51.5 -18.5t17.5 -50.5zM287 653q0 -32 -15 -68.5t-41.5 -71.5t-58.5 -61h-102q85 66 115 138q-20 4 -32 18.5t-12 36.5t10 39.5t27.5 27.5
t39.5 10q34 0 51.5 -18.5t17.5 -50.5z" />
    <glyph glyph-name="quotedblbase" unicode="&#x201e;" horiz-adv-x="464" 
d="M376 63q0 -32 -15 -68.5t-41.5 -71.5t-58.5 -61h-102q85 66 115 138q-20 4 -32 18.5t-12 36.5t10 39.5t27.5 27.5t39.5 10q34 0 51.5 -18.5t17.5 -50.5zM172 63q0 -32 -15 -68.5t-41.5 -71.5t-58.5 -61h-102q85 66 115 138q-20 4 -32 18.5t-12 36.5t10 39.5t27.5 27.5
t39.5 10q34 0 51.5 -18.5t17.5 -50.5z" />
    <glyph glyph-name="dagger" unicode="&#x2020;" horiz-adv-x="471" 
d="M99 -100l124 540l-160 -5l21 99l158 -5l36 216h122l-55 -216l161 5l-21 -99l-159 5l-105 -540h-122z" />
    <glyph glyph-name="daggerdbl" unicode="&#x2021;" horiz-adv-x="471" 
d="M310 322l-36 -126l160 5l-21 -99l-158 5l-34 -207h-122l53 207l-161 -5l21 99l159 -5l17 126l37 127l-160 -5l21 99l158 -5l34 207h122l-53 -207l161 5l-21 -99l-159 5z" />
    <glyph glyph-name="bullet" unicode="&#x2022;" horiz-adv-x="369" 
d="M189 137q-39 0 -70.5 18t-49.5 49.5t-18 70.5t18 70t49.5 49.5t70.5 18.5t70 -18.5t49.5 -49.5t18.5 -70t-18.5 -70.5t-49.5 -49.5t-70 -18z" />
    <glyph glyph-name="ellipsis" unicode="&#x2026;" horiz-adv-x="1000" 
d="M467 138q31 0 50.5 -17.5t19.5 -45.5q0 -23 -11 -42.5t-30 -30.5t-45 -11q-31 0 -50.5 17.5t-19.5 45.5q0 24 11 43t30 30t45 11zM801 138q31 0 50.5 -17.5t19.5 -45.5q0 -23 -11 -42.5t-30 -30.5t-45 -11q-31 0 -50.5 17.5t-19.5 45.5q0 24 11 43t30 30t45 11zM133 138
q31 0 50.5 -17.5t19.5 -45.5q0 -23 -11 -42.5t-30 -30.5t-45 -11q-31 0 -50.5 17.5t-19.5 45.5q0 24 11 43t30 30t45 11z" />
    <glyph glyph-name="perthousand" unicode="&#x2030;" horiz-adv-x="1368" 
d="M207 0l490 699h101l-490 -699h-101zM1176 407q69 0 107 -40.5t38 -112.5q0 -35 -7.5 -72t-22.5 -71.5t-38.5 -61.5t-56 -43t-74.5 -16q-69 0 -107 40.5t-38 112.5q0 35 7.5 72t22.5 71.5t38.5 61.5t56 43t74.5 16zM1174 334q-23 0 -41 -13t-31 -34t-21 -47t-12 -52
t-4 -48q0 -38 15.5 -57.5t43.5 -19.5q23 0 41 13t31 34t21 47t12 52t4 48q0 37 -15.5 57t-43.5 20zM286 709q69 0 107 -40.5t38 -112.5q0 -35 -7.5 -72t-22.5 -71.5t-38.5 -61.5t-56 -43t-74.5 -16q-69 0 -107 40.5t-38 112.5q0 35 7.5 72t22.5 71.5t38.5 61.5t56 43
t74.5 16zM284 636q-23 0 -41 -13t-31 -34t-21 -47t-12 -52t-4 -48q0 -38 15.5 -57.5t43.5 -19.5q23 0 41 13t31 34t21 47t12 52t4 48q0 37 -15.5 57t-43.5 20zM772 407q69 0 107 -40.5t38 -112.5q0 -35 -7.5 -72t-22.5 -71.5t-38.5 -61.5t-56 -43t-74.5 -16q-69 0 -107 40.5
t-38 112.5q0 35 7.5 72t22.5 71.5t38.5 61.5t56 43t74.5 16zM770 334q-23 0 -41 -13t-31 -34t-21 -47t-12 -52t-4 -48q0 -38 15.5 -57.5t43.5 -19.5q23 0 41 13t31 34t21 47t12 52t4 48q0 37 -15.5 57t-43.5 20z" />
    <glyph glyph-name="minute" unicode="&#x2032;" horiz-adv-x="313" 
d="M189 451h-100l146 264h128z" />
    <glyph glyph-name="second" unicode="&#x2033;" horiz-adv-x="511" 
d="M387 451h-100l146 264h128zM189 451h-100l146 264h128z" />
    <glyph glyph-name="guilsinglleft" unicode="&#x2039;" horiz-adv-x="351" 
d="M348 472l-180 -219l91 -201h-112l-102 210l178 210h125z" />
    <glyph glyph-name="guilsinglright" unicode="&#x203a;" horiz-adv-x="351" 
d="M309 262l-178 -210h-125l180 219l-91 201h112z" />
    <glyph glyph-name="fraction" unicode="&#x2044;" horiz-adv-x="136" 
d="M-207 0l490 699h101l-490 -699h-101z" />
    <glyph glyph-name="Euro" unicode="&#x20ac;" horiz-adv-x="596" 
d="M510 21q-34 -17 -71.5 -25.5t-82.5 -8.5q-74 0 -128.5 29.5t-85.5 84t-36 131.5h-84l16 75h69q4 44 14 86h-65l16 75h73q21 52 52.5 96.5t74 77.5t95 51.5t114.5 18.5q49 0 86 -11t70 -37l-21 -97q-27 24 -59.5 34.5t-77.5 10.5q-50 0 -89.5 -19t-69.5 -51.5t-51 -73.5
h262l-16 -75h-274q-12 -42 -15 -86h211l-16 -75h-195q8 -70 45.5 -107.5t102.5 -37.5q32 0 59 4.5t51 15t50 27.5z" />
    <glyph glyph-name="trademark" unicode="&#x2122;" horiz-adv-x="932" 
d="M111 715h355v-78h-132v-327h-91v327h-132v78zM707 382q-27 53 -53 107.5t-51 108.5v-288h-86v405h111q28 -64 57 -126.5t59 -124.5q30 61 59 124t57 127h107v-405h-86v288q-25 -55 -51.5 -108.5t-52.5 -107.5h-70z" />
    <glyph glyph-name="uni2150" unicode="&#x2150;" horiz-adv-x="964" 
d="M187 0l490 699h101l-490 -699h-101zM364 699l-84 -397h-88l64 302q-30 -14 -58.5 -28.5t-55.5 -28.5l18 85q60 31 137 67h67zM918 330q-51 -82 -103.5 -163t-110.5 -167h-100q57 82 110 161t105 160h-198l17 76h294z" />
    <glyph glyph-name="uni2151" unicode="&#x2151;" horiz-adv-x="964" 
d="M187 0l490 699h101l-490 -699h-101zM364 699l-84 -397h-88l64 302q-30 -14 -58.5 -28.5t-55.5 -28.5l18 85q60 31 137 67h67zM915 262q0 -61 -19 -111t-53.5 -86t-81 -55.5t-101.5 -19.5q-29 0 -52 5t-45 18l14 70q21 -11 40.5 -16t45.5 -5q57 0 98 32t57 91
q-45 -43 -102 -43q-37 0 -64.5 13.5t-42.5 38t-15 58.5q0 33 13 61t36.5 49t55 33t67.5 12q70 0 109.5 -38.5t39.5 -106.5zM681 260q0 -26 16.5 -39.5t45.5 -13.5q47 0 84 30q1 13 1 27q0 35 -17.5 56t-48.5 21q-24 0 -42 -11t-28.5 -29.5t-10.5 -40.5z" />
    <glyph glyph-name="onethird" unicode="&#x2153;" horiz-adv-x="964" 
d="M192 0l490 699h101l-490 -699h-101zM364 699l-84 -397h-88l64 302q-30 -14 -58.5 -28.5t-55.5 -28.5l18 85q60 31 137 67h67zM879 121q0 -39 -24.5 -68.5t-67.5 -46t-101 -16.5q-40 0 -71.5 7t-57.5 24l15 71q25 -16 51 -23t63 -7q47 0 75.5 17t28.5 46q0 21 -20.5 32
t-58.5 11h-59l15 69h56q47 0 72.5 15.5t25.5 41.5q0 41 -76 41q-65 0 -120 -32l16 78q60 26 120 26q71 0 109.5 -26t38.5 -73q0 -39 -26 -67.5t-70 -40.5q66 -19 66 -79z" />
    <glyph glyph-name="twothirds" unicode="&#x2154;" horiz-adv-x="964" 
d="M217 0l490 699h101l-490 -699h-101zM388 378l-17 -76h-304l4 19q9 42 27 74t49.5 57.5t78.5 47.5q34 16 55 27.5t32 21t15 19.5t4 23q0 21 -18 32.5t-52 11.5q-36 0 -64 -10t-60 -33l18 86q52 31 124 31q44 0 75.5 -13t49 -36.5t17.5 -55.5q0 -27 -6.5 -47.5t-22.5 -37.5
t-43.5 -34t-69.5 -36q-41 -19 -65 -35t-37 -36h210zM879 121q0 -39 -24.5 -68.5t-67.5 -46t-101 -16.5q-40 0 -71.5 7t-57.5 24l15 71q25 -16 51 -23t63 -7q47 0 75.5 17t28.5 46q0 21 -20.5 32t-58.5 11h-59l15 69h56q47 0 72.5 15.5t25.5 41.5q0 41 -76 41q-65 0 -120 -32
l16 78q60 26 120 26q71 0 109.5 -26t38.5 -73q0 -39 -26 -67.5t-70 -40.5q66 -19 66 -79z" />
    <glyph glyph-name="uni2155" unicode="&#x2155;" horiz-adv-x="964" 
d="M192 0l490 699h101l-490 -699h-101zM364 699l-84 -397h-88l64 302q-30 -14 -58.5 -28.5t-55.5 -28.5l18 85q60 31 137 67h67zM888 139q0 -46 -24.5 -79.5t-69.5 -51.5t-107 -18q-38 0 -69 6.5t-58 22.5l14 68q25 -14 50 -20.5t61 -6.5q54 0 84 19t30 53q0 25 -23.5 36
t-68.5 11q-29 0 -50.5 -2.5t-46.5 -9.5l69 230h246l-16 -76h-175l-24 -78q20 3 37 3q67 0 104 -28t37 -79z" />
    <glyph glyph-name="uni2156" unicode="&#x2156;" horiz-adv-x="964" 
d="M227 0l490 699h101l-490 -699h-101zM388 378l-17 -76h-304l4 19q9 42 27 74t49.5 57.5t78.5 47.5q34 16 55 27.5t32 21t15 19.5t4 23q0 21 -18 32.5t-52 11.5q-36 0 -64 -10t-60 -33l18 86q52 31 124 31q44 0 75.5 -13t49 -36.5t17.5 -55.5q0 -27 -6.5 -47.5t-22.5 -37.5
t-43.5 -34t-69.5 -36q-41 -19 -65 -35t-37 -36h210zM888 139q0 -46 -24.5 -79.5t-69.5 -51.5t-107 -18q-38 0 -69 6.5t-58 22.5l14 68q25 -14 50 -20.5t61 -6.5q54 0 84 19t30 53q0 25 -23.5 36t-68.5 11q-29 0 -50.5 -2.5t-46.5 -9.5l69 230h246l-16 -76h-175l-24 -78
q20 3 37 3q67 0 104 -28t37 -79z" />
    <glyph glyph-name="uni2157" unicode="&#x2157;" horiz-adv-x="964" 
d="M217 0l490 699h101l-490 -699h-101zM888 139q0 -46 -24.5 -79.5t-69.5 -51.5t-107 -18q-38 0 -69 6.5t-58 22.5l14 68q25 -14 50 -20.5t61 -6.5q54 0 84 19t30 53q0 25 -23.5 36t-68.5 11q-29 0 -50.5 -2.5t-46.5 -9.5l69 230h246l-16 -76h-175l-24 -78q20 3 37 3
q67 0 104 -28t37 -79zM393 423q0 -39 -24.5 -68.5t-67.5 -46t-101 -16.5q-40 0 -71.5 7t-57.5 24l15 71q25 -16 51 -23t63 -7q47 0 75.5 17t28.5 46q0 21 -20.5 32t-58.5 11h-59l15 69h56q47 0 72.5 15.5t25.5 41.5q0 41 -76 41q-65 0 -120 -32l16 78q60 26 120 26
q71 0 109.5 -26t38.5 -73q0 -39 -26 -67.5t-70 -40.5q66 -19 66 -79z" />
    <glyph glyph-name="uni2158" unicode="&#x2158;" horiz-adv-x="964" 
d="M219 0l490 699h101l-490 -699h-101zM888 139q0 -46 -24.5 -79.5t-69.5 -51.5t-107 -18q-38 0 -69 6.5t-58 22.5l14 68q25 -14 50 -20.5t61 -6.5q54 0 84 19t30 53q0 25 -23.5 36t-68.5 11q-29 0 -50.5 -2.5t-46.5 -9.5l69 230h246l-16 -76h-175l-24 -78q20 3 37 3
q67 0 104 -28t37 -79zM273 378h-208l15 67q62 64 123.5 126t130.5 128h90l-54 -253h49l-14 -68h-49l-17 -76h-83zM287 446l32 151l-76 -76t-74 -75h118z" />
    <glyph glyph-name="uni2159" unicode="&#x2159;" horiz-adv-x="964" 
d="M192 0l490 699h101l-490 -699h-101zM364 699l-84 -397h-88l64 302q-30 -14 -58.5 -28.5t-55.5 -28.5l18 85q60 31 137 67h67zM901 144q0 -33 -13 -61t-36.5 -49t-55 -32.5t-68.5 -11.5q-70 0 -109.5 38.5t-39.5 106.5q0 62 20 112.5t55.5 86t82.5 54.5t101 19
q28 0 50 -5.5t44 -17.5l-14 -69q-21 11 -39 15.5t-45 4.5q-58 0 -99.5 -32t-58.5 -91q23 21 49 32t54 11q37 0 64.5 -14t42.5 -38.5t15 -58.5zM666 133q0 -35 17.5 -55.5t48.5 -20.5q24 0 42.5 10.5t29 28.5t10.5 41q0 25 -16.5 39t-45.5 14q-47 0 -85 -31q-1 -13 -1 -26z
" />
    <glyph glyph-name="uni215A" unicode="&#x215a;" horiz-adv-x="964" 
d="M217 0l490 699h101l-490 -699h-101zM901 144q0 -33 -13 -61t-36.5 -49t-55 -32.5t-68.5 -11.5q-70 0 -109.5 38.5t-39.5 106.5q0 62 20 112.5t55.5 86t82.5 54.5t101 19q28 0 50 -5.5t44 -17.5l-14 -69q-21 11 -39 15.5t-45 4.5q-58 0 -99.5 -32t-58.5 -91q23 21 49 32
t54 11q37 0 64.5 -14t42.5 -38.5t15 -58.5zM666 133q0 -35 17.5 -55.5t48.5 -20.5q24 0 42.5 10.5t29 28.5t10.5 41q0 25 -16.5 39t-45.5 14q-47 0 -85 -31q-1 -13 -1 -26zM402 441q0 -46 -24.5 -79.5t-69.5 -51.5t-107 -18q-38 0 -69 6.5t-58 22.5l14 68q25 -14 50 -20.5
t61 -6.5q54 0 84 19t30 53q0 25 -23.5 36t-68.5 11q-29 0 -50.5 -2.5t-46.5 -9.5l69 230h246l-16 -76h-175l-24 -78q20 3 37 3q67 0 104 -28t37 -79z" />
    <glyph glyph-name="oneeighth" unicode="&#x215b;" horiz-adv-x="964" 
d="M187 0l490 699h101l-490 -699h-101zM364 699l-84 -397h-88l64 302q-30 -14 -58.5 -28.5t-55.5 -28.5l18 85q60 31 137 67h67zM896 120q0 -40 -22.5 -69t-62.5 -45t-93 -16q-47 0 -82 13t-54 37.5t-19 57.5q0 41 27 70t72 41q-44 26 -44 75q0 36 21 64t59 43.5t88 15.5
q43 0 75 -13t49.5 -36.5t17.5 -55.5q0 -36 -22.5 -62t-62.5 -36q53 -30 53 -84zM763 234l19 -4q27 5 44.5 21.5t17.5 40.5q0 22 -17 35t-46 13q-35 0 -56 -15t-21 -41q0 -37 59 -50zM653 110q0 -24 19 -38.5t52 -14.5q40 0 63 17t23 48q0 36 -58 51l-28 7q-33 -5 -52 -24
t-19 -46z" />
    <glyph glyph-name="threeeighths" unicode="&#x215c;" horiz-adv-x="964" 
d="M209 0l490 699h101l-490 -699h-101zM896 120q0 -40 -22.5 -69t-62.5 -45t-93 -16q-47 0 -82 13t-54 37.5t-19 57.5q0 41 27 70t72 41q-44 26 -44 75q0 36 21 64t59 43.5t88 15.5q43 0 75 -13t49.5 -36.5t17.5 -55.5q0 -36 -22.5 -62t-62.5 -36q53 -30 53 -84zM763 234
l19 -4q27 5 44.5 21.5t17.5 40.5q0 22 -17 35t-46 13q-35 0 -56 -15t-21 -41q0 -37 59 -50zM653 110q0 -24 19 -38.5t52 -14.5q40 0 63 17t23 48q0 36 -58 51l-28 7q-33 -5 -52 -24t-19 -46zM393 423q0 -39 -24.5 -68.5t-67.5 -46t-101 -16.5q-40 0 -71.5 7t-57.5 24l15 71
q25 -16 51 -23t63 -7q47 0 75.5 17t28.5 46q0 21 -20.5 32t-58.5 11h-59l15 69h56q47 0 72.5 15.5t25.5 41.5q0 41 -76 41q-65 0 -120 -32l16 78q60 26 120 26q71 0 109.5 -26t38.5 -73q0 -39 -26 -67.5t-70 -40.5q66 -19 66 -79z" />
    <glyph glyph-name="fiveeighths" unicode="&#x215d;" horiz-adv-x="964" 
d="M209 0l490 699h101l-490 -699h-101zM402 441q0 -46 -24.5 -79.5t-69.5 -51.5t-107 -18q-38 0 -69 6.5t-58 22.5l14 68q25 -14 50 -20.5t61 -6.5q54 0 84 19t30 53q0 25 -23.5 36t-68.5 11q-29 0 -50.5 -2.5t-46.5 -9.5l69 230h246l-16 -76h-175l-24 -78q20 3 37 3
q67 0 104 -28t37 -79zM896 120q0 -40 -22.5 -69t-62.5 -45t-93 -16q-47 0 -82 13t-54 37.5t-19 57.5q0 41 27 70t72 41q-44 26 -44 75q0 36 21 64t59 43.5t88 15.5q43 0 75 -13t49.5 -36.5t17.5 -55.5q0 -36 -22.5 -62t-62.5 -36q53 -30 53 -84zM763 234l19 -4
q27 5 44.5 21.5t17.5 40.5q0 22 -17 35t-46 13q-35 0 -56 -15t-21 -41q0 -37 59 -50zM653 110q0 -24 19 -38.5t52 -14.5q40 0 63 17t23 48q0 36 -58 51l-28 7q-33 -5 -52 -24t-19 -46z" />
    <glyph glyph-name="seveneighths" unicode="&#x215e;" horiz-adv-x="964" 
d="M187 0l490 699h101l-490 -699h-101zM896 120q0 -40 -22.5 -69t-62.5 -45t-93 -16q-47 0 -82 13t-54 37.5t-19 57.5q0 41 27 70t72 41q-44 26 -44 75q0 36 21 64t59 43.5t88 15.5q43 0 75 -13t49.5 -36.5t17.5 -55.5q0 -36 -22.5 -62t-62.5 -36q53 -30 53 -84zM763 234
l19 -4q27 5 44.5 21.5t17.5 40.5q0 22 -17 35t-46 13q-35 0 -56 -15t-21 -41q0 -37 59 -50zM653 110q0 -24 19 -38.5t52 -14.5q40 0 63 17t23 48q0 36 -58 51l-28 7q-33 -5 -52 -24t-19 -46zM432 632q-51 -82 -103.5 -163t-110.5 -167h-100q57 82 110 161t105 160h-198
l17 76h294z" />
    <glyph glyph-name="minus" unicode="&#x2212;" horiz-adv-x="596" 
d="M548 301h-459v98h459v-98z" />
    <glyph glyph-name="uniF507" unicode="&#xf507;" horiz-adv-x="964" 
d="M209 0l490 699h101l-490 -699h-101zM388 378l-17 -76h-304l4 19q9 42 27 74t49.5 57.5t78.5 47.5q34 16 55 27.5t32 21t15 19.5t4 23q0 21 -18 32.5t-52 11.5q-36 0 -64 -10t-60 -33l18 86q52 31 124 31q44 0 75.5 -13t49 -36.5t17.5 -55.5q0 -27 -6.5 -47.5t-22.5 -37.5
t-43.5 -34t-69.5 -36q-41 -19 -65 -35t-37 -36h210zM918 330q-51 -82 -103.5 -163t-110.5 -167h-100q57 82 110 161t105 160h-198l17 76h294z" />
    <glyph glyph-name="uniF508" unicode="&#xf508;" horiz-adv-x="964" 
d="M199 0l490 699h101l-490 -699h-101zM918 330q-51 -82 -103.5 -163t-110.5 -167h-100q57 82 110 161t105 160h-198l17 76h294zM393 423q0 -39 -24.5 -68.5t-67.5 -46t-101 -16.5q-40 0 -71.5 7t-57.5 24l15 71q25 -16 51 -23t63 -7q47 0 75.5 17t28.5 46q0 21 -20.5 32
t-58.5 11h-59l15 69h56q47 0 72.5 15.5t25.5 41.5q0 41 -76 41q-65 0 -120 -32l16 78q60 26 120 26q71 0 109.5 -26t38.5 -73q0 -39 -26 -67.5t-70 -40.5q66 -19 66 -79z" />
    <glyph glyph-name="uniF509" unicode="&#xf509;" horiz-adv-x="964" 
d="M207 0l490 699h101l-490 -699h-101zM273 378h-208l15 67q62 64 123.5 126t130.5 128h90l-54 -253h49l-14 -68h-49l-17 -76h-83zM287 446l32 151l-76 -76t-74 -75h118zM918 330q-51 -82 -103.5 -163t-110.5 -167h-100q57 82 110 161t105 160h-198l17 76h294z" />
    <glyph glyph-name="uniF50A" unicode="&#xf50a;" horiz-adv-x="964" 
d="M199 0l490 699h101l-490 -699h-101zM402 441q0 -46 -24.5 -79.5t-69.5 -51.5t-107 -18q-38 0 -69 6.5t-58 22.5l14 68q25 -14 50 -20.5t61 -6.5q54 0 84 19t30 53q0 25 -23.5 36t-68.5 11q-29 0 -50.5 -2.5t-46.5 -9.5l69 230h246l-16 -76h-175l-24 -78q20 3 37 3
q67 0 104 -28t37 -79zM918 330q-51 -82 -103.5 -163t-110.5 -167h-100q57 82 110 161t105 160h-198l17 76h294z" />
    <glyph glyph-name="uniF50B" unicode="&#xf50b;" horiz-adv-x="964" 
d="M202 0l490 699h101l-490 -699h-101zM415 446q0 -33 -13 -61t-36.5 -49t-55 -32.5t-68.5 -11.5q-70 0 -109.5 38.5t-39.5 106.5q0 62 20 112.5t55.5 86t82.5 54.5t101 19q28 0 50 -5.5t44 -17.5l-14 -69q-21 11 -39 15.5t-45 4.5q-58 0 -99.5 -32t-58.5 -91q23 21 49 32
t54 11q37 0 64.5 -14t42.5 -38.5t15 -58.5zM180 435q0 -35 17.5 -55.5t48.5 -20.5q24 0 42.5 10.5t29 28.5t10.5 41q0 25 -16.5 39t-45.5 14q-47 0 -85 -31q-1 -13 -1 -26zM918 330q-51 -82 -103.5 -163t-110.5 -167h-100q57 82 110 161t105 160h-198l17 76h294z" />
    <glyph glyph-name="uniF50D" unicode="&#xf50d;" horiz-adv-x="964" 
d="M217 0l490 699h101l-490 -699h-101zM388 378l-17 -76h-304l4 19q9 42 27 74t49.5 57.5t78.5 47.5q34 16 55 27.5t32 21t15 19.5t4 23q0 21 -18 32.5t-52 11.5q-36 0 -64 -10t-60 -33l18 86q52 31 124 31q44 0 75.5 -13t49 -36.5t17.5 -55.5q0 -27 -6.5 -47.5t-22.5 -37.5
t-43.5 -34t-69.5 -36q-41 -19 -65 -35t-37 -36h210zM915 262q0 -61 -19 -111t-53.5 -86t-81 -55.5t-101.5 -19.5q-29 0 -52 5t-45 18l14 70q21 -11 40.5 -16t45.5 -5q57 0 98 32t57 91q-45 -43 -102 -43q-37 0 -64.5 13.5t-42.5 38t-15 58.5q0 33 13 61t36.5 49t55 33
t67.5 12q70 0 109.5 -38.5t39.5 -106.5zM681 260q0 -26 16.5 -39.5t45.5 -13.5q47 0 84 30q1 13 1 27q0 35 -17.5 56t-48.5 21q-24 0 -42 -11t-28.5 -29.5t-10.5 -40.5z" />
    <glyph glyph-name="uniF50E" unicode="&#xf50e;" horiz-adv-x="964" 
d="M212 0l490 699h101l-490 -699h-101zM273 378h-208l15 67q62 64 123.5 126t130.5 128h90l-54 -253h49l-14 -68h-49l-17 -76h-83zM287 446l32 151l-76 -76t-74 -75h118zM915 262q0 -61 -19 -111t-53.5 -86t-81 -55.5t-101.5 -19.5q-29 0 -52 5t-45 18l14 70
q21 -11 40.5 -16t45.5 -5q57 0 98 32t57 91q-45 -43 -102 -43q-37 0 -64.5 13.5t-42.5 38t-15 58.5q0 33 13 61t36.5 49t55 33t67.5 12q70 0 109.5 -38.5t39.5 -106.5zM681 260q0 -26 16.5 -39.5t45.5 -13.5q47 0 84 30q1 13 1 27q0 35 -17.5 56t-48.5 21q-24 0 -42 -11
t-28.5 -29.5t-10.5 -40.5z" />
    <glyph glyph-name="uniF50F" unicode="&#xf50f;" horiz-adv-x="964" 
d="M204 0l490 699h101l-490 -699h-101zM402 441q0 -46 -24.5 -79.5t-69.5 -51.5t-107 -18q-38 0 -69 6.5t-58 22.5l14 68q25 -14 50 -20.5t61 -6.5q54 0 84 19t30 53q0 25 -23.5 36t-68.5 11q-29 0 -50.5 -2.5t-46.5 -9.5l69 230h246l-16 -76h-175l-24 -78q20 3 37 3
q67 0 104 -28t37 -79zM915 262q0 -61 -19 -111t-53.5 -86t-81 -55.5t-101.5 -19.5q-29 0 -52 5t-45 18l14 70q21 -11 40.5 -16t45.5 -5q57 0 98 32t57 91q-45 -43 -102 -43q-37 0 -64.5 13.5t-42.5 38t-15 58.5q0 33 13 61t36.5 49t55 33t67.5 12q70 0 109.5 -38.5
t39.5 -106.5zM681 260q0 -26 16.5 -39.5t45.5 -13.5q47 0 84 30q1 13 1 27q0 35 -17.5 56t-48.5 21q-24 0 -42 -11t-28.5 -29.5t-10.5 -40.5z" />
    <glyph glyph-name="uniF510" unicode="&#xf510;" horiz-adv-x="964" 
d="M182 0l490 699h101l-490 -699h-101zM915 262q0 -61 -19 -111t-53.5 -86t-81 -55.5t-101.5 -19.5q-29 0 -52 5t-45 18l14 70q21 -11 40.5 -16t45.5 -5q57 0 98 32t57 91q-45 -43 -102 -43q-37 0 -64.5 13.5t-42.5 38t-15 58.5q0 33 13 61t36.5 49t55 33t67.5 12
q70 0 109.5 -38.5t39.5 -106.5zM681 260q0 -26 16.5 -39.5t45.5 -13.5q47 0 84 30q1 13 1 27q0 35 -17.5 56t-48.5 21q-24 0 -42 -11t-28.5 -29.5t-10.5 -40.5zM432 632q-51 -82 -103.5 -163t-110.5 -167h-100q57 82 110 161t105 160h-198l17 76h294z" />
    <glyph glyph-name="uniF511" unicode="&#xf511;" horiz-adv-x="964" 
d="M209 0l490 699h101l-490 -699h-101zM915 262q0 -61 -19 -111t-53.5 -86t-81 -55.5t-101.5 -19.5q-29 0 -52 5t-45 18l14 70q21 -11 40.5 -16t45.5 -5q57 0 98 32t57 91q-45 -43 -102 -43q-37 0 -64.5 13.5t-42.5 38t-15 58.5q0 33 13 61t36.5 49t55 33t67.5 12
q70 0 109.5 -38.5t39.5 -106.5zM681 260q0 -26 16.5 -39.5t45.5 -13.5q47 0 84 30q1 13 1 27q0 35 -17.5 56t-48.5 21q-24 0 -42 -11t-28.5 -29.5t-10.5 -40.5zM410 422q0 -40 -22.5 -69t-62.5 -45t-93 -16q-47 0 -82 13t-54 37.5t-19 57.5q0 41 27 70t72 41q-44 26 -44 75
q0 36 21 64t59 43.5t88 15.5q43 0 75 -13t49.5 -36.5t17.5 -55.5q0 -36 -22.5 -62t-62.5 -36q53 -30 53 -84zM277 536l19 -4q27 5 44.5 21.5t17.5 40.5q0 22 -17 35t-46 13q-35 0 -56 -15t-21 -41q0 -37 59 -50zM167 412q0 -24 19 -38.5t52 -14.5q40 0 63 17t23 48
q0 36 -58 51l-28 7q-33 -5 -52 -24t-19 -46z" />
    <glyph glyph-name="a.smcp" unicode="&#xf605;" horiz-adv-x="590" 
d="M400 0q-8 65 -17 128h-221q-35 -63 -71 -128h-135q86 147 171.5 286.5t168.5 271.5h128q28 -136 53.5 -275t48.5 -283h-126zM215 221h156l-16 108t-17 107q-31 -54 -62 -107.5t-61 -107.5z" />
    <glyph glyph-name="b.smcp" unicode="&#xf606;" horiz-adv-x="568" 
d="M509 187q0 -58 -30 -100t-84.5 -64.5t-130.5 -22.5h-241l118 558h200q59 0 102.5 -16t67 -46t23.5 -71q0 -52 -29 -87.5t-81 -49.5q40 -12 62.5 -38t22.5 -63zM416 414q0 26 -23 41t-63 15h-93l-30 -143h92q56 0 86.5 22.5t30.5 64.5zM390 181q0 29 -25 45.5t-71 16.5
h-105l-32 -155h104q61 0 95 24.5t34 68.5z" />
    <glyph glyph-name="c.smcp" unicode="&#xf607;" horiz-adv-x="538" 
d="M480 139l-25 -119q-34 -16 -70.5 -24.5t-82.5 -8.5q-79 0 -135.5 28.5t-87 81.5t-30.5 128q0 53 15 104t44.5 94.5t72 77t97 52t120.5 18.5q49 0 86.5 -10.5t71.5 -33.5l-22 -105q-29 26 -61 36.5t-78 10.5q-45 0 -81 -14t-62.5 -37.5t-44.5 -54t-26.5 -64t-8.5 -65.5
q0 -70 39.5 -107.5t110.5 -37.5q47 0 83.5 11t74.5 39z" />
    <glyph glyph-name="d.smcp" unicode="&#xf608;" horiz-adv-x="622" 
d="M583 338q0 -77 -23.5 -139.5t-67 -107t-104.5 -68t-136 -23.5h-229l118 558h198q75 0 130 -27t84.5 -76t29.5 -117zM241 460l-76 -362h84q63 0 110.5 28t74 79t26.5 120q0 65 -35 100t-98 35h-86z" />
    <glyph glyph-name="e.smcp" unicode="&#xf609;" horiz-adv-x="510" 
d="M141 558h388l-21 -98h-269l-27 -127h241l-20 -95h-241l-29 -140h281l-21 -98h-400z" />
    <glyph glyph-name="f.smcp" unicode="&#xf60a;" horiz-adv-x="482" 
d="M141 558h377l-21 -98h-258l-31 -145h230l-21 -98h-229l-46 -217h-119z" />
    <glyph glyph-name="g.smcp" unicode="&#xf60b;" horiz-adv-x="603" 
d="M495 32q-45 -23 -94 -34t-104 -11q-77 0 -133 28.5t-85.5 81.5t-29.5 127q0 51 15 101.5t45 94.5t74 78t101.5 53.5t127.5 19.5q52 0 94 -10.5t78 -33.5l-22 -105q-32 26 -68 36.5t-86 10.5q-48 0 -86 -14t-66 -38t-47 -54.5t-28 -64t-9 -65.5q0 -71 37.5 -109t105.5 -38
q24 0 44.5 3.5t39.5 11.5l25 118h-100l20 92h210z" />
    <glyph glyph-name="h.smcp" unicode="&#xf60c;" horiz-adv-x="636" 
d="M384 0l50 236h-240l-50 -236h-121l118 558h121l-46 -218h240l46 218h121l-118 -558h-121z" />
    <glyph glyph-name="i.smcp" unicode="&#xf60d;" horiz-adv-x="275" 
d="M144 0h-121l118 558h121z" />
    <glyph glyph-name="k.smcp" unicode="&#xf60f;" horiz-adv-x="586" 
d="M224 243h-29l-51 -243h-121l118 558h121l-46 -219h31q40 36 77 71t73.5 71.5l76.5 76.5h147q-72 -70 -146 -140t-146 -135q50 -70 98.5 -140.5t96.5 -142.5h-137q-41 64 -80 123t-83 120z" />
    <glyph glyph-name="l.smcp" unicode="&#xf610;" horiz-adv-x="477" 
d="M141 558h121l-96 -456h263l-22 -102h-384z" />
    <glyph glyph-name="m.smcp" unicode="&#xf611;" horiz-adv-x="735" 
d="M291 104q-17 72 -34.5 151t-33.5 156l-87 -411h-113l118 558h145q16 -84 34 -170t38 -172q35 54 72.5 111.5t74.5 116t72 114.5h145l-118 -558h-113l84 399q-48 -75 -97.5 -150t-95.5 -145h-91z" />
    <glyph glyph-name="n.smcp" unicode="&#xf612;" horiz-adv-x="638" 
d="M387 0q-25 64 -53 131.5t-56.5 135t-56.5 131.5l-84 -398h-114l118 558h120q28 -64 57 -132t56.5 -135t52.5 -129l84 396h114l-118 -558h-120z" />
    <glyph glyph-name="o.smcp" unicode="&#xf613;" horiz-adv-x="640" 
d="M357 571q75 0 129.5 -29.5t84.5 -83.5t30 -126q0 -55 -13.5 -106t-40 -94t-64 -76t-85.5 -51t-105 -18q-75 0 -129.5 29.5t-84.5 83.5t-30 126q0 55 13.5 106t40 94t64 76t85.5 51t105 18zM355 469q-36 0 -65 -14t-51 -38t-37 -55t-22.5 -65.5t-7.5 -68.5
q0 -64 32.5 -101.5t90.5 -37.5q36 0 65 14t51 38t37 55t22.5 65.5t7.5 68.5q0 64 -32.5 101.5t-90.5 37.5z" />
    <glyph glyph-name="p.smcp" unicode="&#xf614;" horiz-adv-x="552" 
d="M540 402q0 -66 -31 -114.5t-88 -74.5t-137 -26h-103l-40 -187h-118l118 558h191q64 0 110.5 -19t72 -54t25.5 -83zM240 466l-40 -187h81q67 0 103 29t36 83q0 35 -26.5 55t-72.5 20h-81z" />
    <glyph glyph-name="q.smcp" unicode="&#xf615;" horiz-adv-x="669" 
d="M443 0q-37 0 -74 -6.5t-76 -6.5q-75 0 -129.5 29.5t-84.5 83.5t-30 126q0 55 13.5 106t40 94t64 76t85.5 51t105 18q75 0 129.5 -29.5t84.5 -83.5t30 -126q0 -50 -13 -97t-38.5 -86t-61.5 -67l156 19l-22 -101h-179zM355 469q-36 0 -65 -14t-51 -38t-37 -55t-22.5 -65.5
t-7.5 -68.5q0 -64 32.5 -101.5t90.5 -37.5q36 0 65 14t51 38t37 55t22.5 65.5t7.5 68.5q0 64 -32.5 101.5t-90.5 37.5z" />
    <glyph glyph-name="r.smcp" unicode="&#xf616;" horiz-adv-x="563" 
d="M184 202l-43 -202h-118l118 558h192q65 0 113 -18.5t73.5 -52t25.5 -79.5q0 -70 -38 -119t-106 -71q24 -52 48.5 -107.5t46.5 -110.5h-126q-18 48 -39 100t-42 102h-1h-104zM240 466l-37 -172h82q67 0 103.5 27t36.5 76q0 32 -27 50.5t-76 18.5h-82z" />
    <glyph glyph-name="s.smcp" unicode="&#xf617;" horiz-adv-x="507" 
d="M192 -13q-114 0 -190 52l21 99q37 -28 78 -41t90 -13q59 0 94 19t35 53q0 18 -7.5 31.5t-27 25t-55.5 25.5q-58 21 -91 43t-47 49.5t-14 64.5q0 53 30.5 92.5t85.5 61.5t128 22q48 0 91 -12t81 -37l-21 -97q-34 25 -71.5 37t-83.5 12q-56 0 -88 -17t-32 -49
q0 -17 7.5 -29t28 -23.5t61.5 -26.5q55 -21 87 -43t45.5 -50t13.5 -67q0 -55 -31 -96t-87 -63.5t-131 -22.5z" />
    <glyph glyph-name="t.smcp" unicode="&#xf618;" horiz-adv-x="507" 
d="M80 558h477l-22 -102h-178l-97 -456h-121l97 456h-178z" />
    <glyph glyph-name="u.smcp" unicode="&#xf619;" horiz-adv-x="625" 
d="M184 185q0 -47 26.5 -72t76.5 -25q107 0 133 121l74 349h121l-72 -340q-24 -115 -91 -173t-174 -58q-67 0 -114.5 23.5t-73 68t-25.5 106.5q0 17 2 32.5t6 33.5l65 307h121l-70 -331q-3 -12 -4 -21.5t-1 -20.5z" />
    <glyph glyph-name="v.smcp" unicode="&#xf61a;" horiz-adv-x="577" 
d="M631 558q-53 -91 -108.5 -185t-112 -188t-113.5 -185h-127q-18 90 -34.5 183.5t-32 188t-29.5 186.5h126q12 -106 26.5 -214.5t30.5 -213.5q61 106 122 215t117 213h135z" />
    <glyph glyph-name="w.smcp" unicode="&#xf61b;" horiz-adv-x="769" 
d="M429 0q-5 95 -9.5 191t-7.5 188q-43 -94 -89 -189.5t-93 -189.5h-126q-9 134 -15.5 276t-8.5 282h128q-4 -110 -5.5 -219t-0.5 -211q49 104 96 206.5t89 198.5h116q1 -92 3.5 -191.5t6.5 -201.5q43 99 86.5 205t85.5 213h133q-63 -140 -130 -282t-132 -276h-127z" />
    <glyph glyph-name="x.smcp" unicode="&#xf61c;" horiz-adv-x="555" 
d="M361 0q-19 45 -41.5 96t-49.5 107q-46 -52 -88.5 -103t-82.5 -100h-143q57 68 120.5 140t141.5 157q-32 62 -63 126t-64 135h129q18 -43 39 -90t43 -93q42 48 80 93.5t72 89.5h139q-55 -66 -113.5 -132.5t-127.5 -142.5q35 -68 69.5 -137.5t69.5 -145.5h-130z" />
    <glyph glyph-name="y.smcp" unicode="&#xf61d;" horiz-adv-x="586" 
d="M344 210l-45 -210h-121l44 210q-39 88 -75.5 176.5t-68.5 171.5h127q20 -59 43 -122.5t48 -126.5q51 61 101 124.5t97 124.5h142q-70 -86 -143.5 -174t-148.5 -174z" />
    <glyph glyph-name="z.smcp" unicode="&#xf61e;" horiz-adv-x="525" 
d="M456 100l-21 -100h-453l18 84q56 59 117 121.5t124.5 126.5t126.5 126h-276l22 100h430l-18 -84q-62 -61 -125.5 -124.5t-125.5 -127t-119 -122.5h300z" />
    <glyph glyph-name="ae.smcp" unicode="&#xf61f;" horiz-adv-x="834" 
d="M-49 0q106 140 213 280t216 278h473l-21 -98h-258l-27 -127h230l-20 -95h-230l-29 -140h270l-21 -98h-387l27 128h-206q-23 -32 -46.5 -64t-47.5 -64h-136zM251 221h156l50 239h-25q-46 -60 -91.5 -119.5t-89.5 -119.5z" />
    <glyph glyph-name="oe.smcp" unicode="&#xf621;" horiz-adv-x="863" 
d="M776 0h-360q-24 -7 -50 -10t-51 -3q-83 0 -142.5 28.5t-91.5 82.5t-32 128q0 54 15.5 104.5t46 94t75 76.5t102 51.5t127.5 18.5q65 0 113 -13h354l-21 -98h-258l-27 -127h230l-20 -95h-230l-29 -140h270zM172 230q0 -68 40 -105.5t113 -37.5q22 0 44 3t41 9l76 362
q-31 10 -76 10q-60 0 -104.5 -20.5t-74.5 -55.5t-44.5 -78t-14.5 -87z" />
    <glyph glyph-name="eth.smcp" unicode="&#xf622;" horiz-adv-x="622" 
d="M583 338q0 -77 -23.5 -139.5t-67 -107t-104.5 -68t-136 -23.5h-229l53 249h-67l17 82h67l48 227h198q75 0 130 -27t84.5 -76t29.5 -117zM165 98h84q63 0 110.5 28t74 79t26.5 120q0 65 -35 100t-98 35h-86l-27 -129h120l-17 -82h-120z" />
    <glyph glyph-name="hbar.smcp" unicode="&#xf623;" horiz-adv-x="636" 
d="M384 0l46 218h-240l-46 -218h-121l85 403h-66l17 79h66l16 76h121l-16 -76h240l16 76h121l-16 -76h67l-17 -79h-67l-85 -403h-121zM212 322h240l17 81h-240z" />
    <glyph glyph-name="ij.smcp" unicode="&#xf624;" horiz-adv-x="712" 
d="M144 0h-121l118 558h121zM242 24l21 96q25 -17 52.5 -24.5t59.5 -7.5q55 0 87 28.5t46 91.5l74 350h121l-76 -358q-23 -108 -84 -160.5t-163 -52.5q-38 0 -75 10t-63 27z" />
    <glyph glyph-name="dotlessi.smcp" unicode="&#xf626;" horiz-adv-x="275" 
d="M144 0h-121l118 558h121z" />
    <glyph glyph-name="oslash.smcp" unicode="&#xf627;" horiz-adv-x="640" 
d="M293 -13q-43 0 -80.5 11t-67.5 31l-68 -74l-55 52l69 75q-20 29 -31 65.5t-11 78.5q0 55 13.5 106t40 94t64 76t85.5 51t105 18q43 0 80.5 -11t67.5 -31l68 74l55 -52l-70 -74q21 -29 32 -66t11 -79q0 -55 -13.5 -106t-40 -94t-64 -76t-85.5 -51t-105 -18zM172 228
q0 -31 7 -56l252 275q-30 22 -76 22q-36 0 -65 -14t-51 -38t-37 -55t-22.5 -65.5t-7.5 -68.5zM478 330q0 30 -7 54l-250 -274q29 -21 74 -21q36 0 65 14t51 38t37 55t22.5 65.5t7.5 68.5z" />
    <glyph glyph-name="thorn.smcp" unicode="&#xf628;" horiz-adv-x="552" 
d="M265 96h-104l-20 -96h-118l118 558h118l-19 -91h73q64 0 110.5 -19t72 -54t25.5 -83q0 -66 -31 -114.5t-88.5 -74.5t-136.5 -26zM302 375h-82l-39 -187h81q67 0 103 29t36 83q0 35 -26.5 55t-72.5 20z" />
    <glyph glyph-name="tbar.smcp" unicode="&#xf629;" horiz-adv-x="507" 
d="M418 216h-112l-46 -216h-121l46 216h-113l18 81h112l34 159h-178l22 102h477l-22 -102h-178l-34 -159h113z" />
    <glyph glyph-name="kgreenlandic.smcp" unicode="&#xf62a;" horiz-adv-x="586" 
d="M224 243h-29l-51 -243h-121l118 558h121l-46 -219h31q40 36 77 71t73.5 71.5l76.5 76.5h147q-72 -70 -146 -140t-146 -135q50 -70 98.5 -140.5t96.5 -142.5h-137q-41 64 -80 123t-83 120z" />
    <glyph glyph-name="lslash.smcp" unicode="&#xf62b;" horiz-adv-x="477" 
d="M429 102l-22 -102h-384l40 188l-74 -35l20 96l74 35l58 274h121l-44 -210l183 87l-20 -96l-183 -87l-32 -150h263z" />
    <glyph glyph-name="exclam.smcp" unicode="&#xf63e;" horiz-adv-x="248" 
d="M159 182h-100l68 376h122zM77 -9q-29 0 -47 17t-18 43q0 22 10 40t28 28.5t42 10.5q29 0 47 -16.5t18 -42.5q0 -23 -10 -41t-28 -28.5t-42 -10.5z" />
    <glyph glyph-name="question.smcp" unicode="&#xf63f;" horiz-adv-x="443" 
d="M76 434l22 103q33 17 72.5 25.5t80.5 8.5q57 0 99 -15.5t64.5 -45t22.5 -70.5q0 -39 -12.5 -67.5t-40.5 -51.5t-76 -46q-43 -19 -63.5 -36.5t-24.5 -41.5l-3 -15h-102l3 15q6 31 18.5 54t34 41t54.5 35q37 19 57 32.5t28 28t8 33.5q0 57 -94 57q-42 0 -76.5 -10.5
t-71.5 -33.5zM135 -9q-29 0 -47 17t-18 43q0 22 10 40t28 28.5t41 10.5q29 0 47 -16.5t18 -42.5q0 -23 -10 -41t-28 -28.5t-41 -10.5z" />
    <glyph glyph-name="ordfeminine.smcp" unicode="&#xf640;" horiz-adv-x="456" 
d="M359 306q-5 45 -11 91h-173q-26 -45 -51 -91h-103q65 110 128.5 214t123.5 199h107q21 -101 40 -204t37 -209h-98zM216 469h122q-11 80 -26 166q-24 -41 -48.5 -83t-47.5 -83z" />
    <glyph glyph-name="ordmasculine.smcp" unicode="&#xf641;" horiz-adv-x="484" 
d="M321 729q53 0 93 -21.5t61.5 -61.5t21.5 -94q0 -51 -15.5 -97t-45 -82t-71 -56.5t-93.5 -20.5q-54 0 -93.5 21.5t-61 61.5t-21.5 94q0 51 15.5 97t45 82t71 56.5t93.5 20.5zM275 372q33 0 57 16t40 42.5t24 57.5t8 62q0 48 -23 75.5t-63 27.5q-33 0 -57 -16t-40 -42.5
t-24 -57.5t-8 -62q0 -48 23 -75.5t63 -27.5z" />
    <glyph glyph-name="questiondown.smcp" unicode="&#xf642;" horiz-adv-x="443" 
d="M319 567q29 0 47 -17t18 -43q0 -22 -10 -40t-28 -28.5t-41 -10.5q-29 0 -47 16.5t-18 42.5q0 23 10 41t28 28.5t41 10.5zM378 124l-22 -103q-33 -17 -72.5 -25.5t-80.5 -8.5q-57 0 -99 15.5t-64.5 45t-22.5 70.5q0 39 12.5 67.5t40.5 51.5t76 46q43 19 63.5 36.5
t24.5 41.5l3 15h102l-3 -15q-6 -31 -18.5 -54t-34 -41t-54.5 -35q-37 -19 -57 -32.5t-28 -28t-8 -33.5q0 -57 94 -57q42 0 76.5 10.5t71.5 33.5z" />
    <glyph glyph-name="exclamdown.smcp" unicode="&#xf643;" horiz-adv-x="248" 
d="M181 567q29 0 47 -17t18 -43q0 -22 -10 -40t-28 -28.5t-42 -10.5q-29 0 -47 16.5t-18 42.5q0 23 10 41t28 28.5t42 10.5zM99 376h100l-68 -376h-122z" />
    <glyph glyph-name="dcroat.smcp" unicode="&#xf653;" horiz-adv-x="622" 
d="M583 338q0 -77 -23.5 -139.5t-67 -107t-104.5 -68t-136 -23.5h-229l53 249h-67l17 82h67l48 227h198q75 0 130 -27t84.5 -76t29.5 -117zM165 98h84q63 0 110.5 28t74 79t26.5 120q0 65 -35 100t-98 35h-86l-27 -129h120l-17 -82h-120z" />
    <glyph glyph-name="ldot.smcp" unicode="&#xf66f;" horiz-adv-x="477" 
d="M141 558h121l-96 -456h263l-22 -102h-384zM383 250q-30 0 -48.5 17t-18.5 43q0 22 10.5 40.5t28.5 29.5t43 11q30 0 48.5 -17t18.5 -44q0 -22 -10.5 -40.5t-29 -29t-42.5 -10.5z" />
    <glyph glyph-name="percent.smcp" unicode="&#xf69e;" horiz-adv-x="798" 
d="M337 433q0 -35 -9.5 -71t-29 -66.5t-49.5 -49t-72 -18.5q-55 0 -86.5 32.5t-31.5 88.5q0 35 9.5 71t29 66.5t49.5 49t72 18.5q55 0 86.5 -32.5t31.5 -88.5zM163 0l383 546h97l-383 -546h-97zM143 349q0 -54 37 -54q19 0 33 14t22.5 35.5t13 45.5t4.5 43q0 54 -37 54
q-19 0 -33 -14t-22.5 -35.5t-13 -45.5t-4.5 -43zM746 197q0 -35 -9.5 -71t-29 -66.5t-49.5 -49t-72 -18.5q-56 0 -87 32.5t-31 88.5q0 35 9.5 71t29 66.5t49.5 49t72 18.5q56 0 87 -32.5t31 -88.5zM552 113q0 -54 37 -54q19 0 33 14t22.5 35.5t13 45.5t4.5 43q0 54 -37 54
q-19 0 -33 -14t-22.5 -35.5t-13 -45.5t-4.5 -43z" />
    <glyph glyph-name="perthousand.smcp" unicode="&#xf69f;" horiz-adv-x="1125" 
d="M337 433q0 -35 -9.5 -71t-29 -66.5t-49.5 -49t-72 -18.5q-55 0 -86.5 32.5t-31.5 88.5q0 35 9.5 71t29 66.5t49.5 49t72 18.5q55 0 86.5 -32.5t31.5 -88.5zM163 0l383 546h97l-383 -546h-97zM143 349q0 -54 37 -54q19 0 33 14t22.5 35.5t13 45.5t4.5 43q0 54 -37 54
q-19 0 -33 -14t-22.5 -35.5t-13 -45.5t-4.5 -43zM746 197q0 -35 -9.5 -71t-29 -66.5t-49.5 -49t-72 -18.5q-56 0 -87 32.5t-31 88.5q0 35 9.5 71t29 66.5t49.5 49t72 18.5q56 0 87 -32.5t31 -88.5zM1073 197q0 -35 -9.5 -71t-29 -66.5t-49.5 -49t-72 -18.5q-55 0 -86.5 32.5
t-31.5 88.5q0 35 9.5 71t29 66.5t49.5 49t72 18.5q55 0 86.5 -32.5t31.5 -88.5zM552 113q0 -54 37 -54q19 0 33 14t22.5 35.5t13 45.5t4.5 43q0 54 -37 54q-19 0 -33 -14t-22.5 -35.5t-13 -45.5t-4.5 -43zM879 113q0 -54 37 -54q19 0 33 14t22.5 35.5t13 45.5t4.5 43
q0 54 -37 54q-19 0 -33 -14t-22.5 -35.5t-13 -45.5t-4.5 -43z" />
    <glyph glyph-name="quoteleft.smcp" unicode="&#xf6aa;" horiz-adv-x="260" 
d="M227 372q0 -22 -10 -39t-27.5 -26.5t-39.5 -9.5q-34 0 -51.5 17.5t-17.5 49.5q0 31 15 66.5t41 68.5t58 59h102q-84 -62 -114 -133q20 -5 32 -18.5t12 -34.5z" />
    <glyph glyph-name="quoteright.smcp" unicode="&#xf6ab;" horiz-adv-x="260" 
d="M254 498q0 -31 -15 -66.5t-41 -68.5t-58 -59h-102q84 62 114 133q-20 5 -32 18.5t-12 34.5q0 22 10 39t27.5 26.5t39.5 9.5q34 0 51.5 -17.5t17.5 -49.5z" />
    <glyph glyph-name="quotedblleft.smcp" unicode="&#xf6ac;" horiz-adv-x="464" 
d="M431 372q0 -22 -10 -39t-27.5 -26.5t-39.5 -9.5q-34 0 -51.5 17.5t-17.5 49.5q0 31 15 66.5t41 68.5t58 59h102q-84 -62 -114 -133q20 -5 32 -18.5t12 -34.5zM227 372q0 -22 -10 -39t-27.5 -26.5t-39.5 -9.5q-34 0 -51.5 17.5t-17.5 49.5q0 31 15 66.5t41 68.5t58 59h102
q-84 -62 -114 -133q20 -5 32 -18.5t12 -34.5z" />
    <glyph glyph-name="quotedblright.smcp" unicode="&#xf6ad;" horiz-adv-x="464" 
d="M458 498q0 -31 -15 -66.5t-41 -68.5t-58 -59h-102q84 62 114 133q-20 5 -32 18.5t-12 34.5q0 22 10 39t27.5 26.5t39.5 9.5q34 0 51.5 -17.5t17.5 -49.5zM254 498q0 -31 -15 -66.5t-41 -68.5t-58 -59h-102q84 62 114 133q-20 5 -32 18.5t-12 34.5q0 22 10 39t27.5 26.5
t39.5 9.5q34 0 51.5 -17.5t17.5 -49.5z" />
    <glyph glyph-name="uniFEFF" unicode="&#xfeff;" 
 />
    <glyph glyph-name="uniFFFD" unicode="&#xfffd;" horiz-adv-x="1000" 
d="M500 828l475 -475l-475 -474l-475 474zM436 227v-13h105v13q0 15 6 28t19.5 25.5t36.5 28.5q35 25 56.5 49t31.5 51t10 61q0 48 -24.5 84t-69.5 55.5t-108 19.5q-84 0 -158 -38v-100q37 20 69.5 30t70.5 10q44 0 70 -19.5t26 -52.5q0 -19 -5.5 -33t-21.5 -29t-45 -39
q-27 -22 -42 -40.5t-21 -40t-6 -50.5zM490 19q34 0 53 20.5t19 48.5q0 32 -19 52t-53 20q-35 0 -55 -20t-20 -52q0 -28 20 -48.5t55 -20.5z" />
    <glyph glyph-name="zero.pnum" horiz-adv-x="584" 
d="M363 712q68 0 114.5 -29t71 -84.5t24.5 -133.5q0 -45 -7.5 -98t-23.5 -106.5t-41 -102.5t-59.5 -87.5t-79.5 -61t-102 -22.5q-67 0 -114 29.5t-71.5 84.5t-24.5 133q0 46 7.5 98.5t23.5 106t41 102.5t59.5 87.5t80 61t101.5 22.5zM264 88q33 0 60 19t47.5 52t36 73.5
t25 83.5t14.5 84t5 73q0 67 -23.5 102.5t-69.5 35.5q-33 0 -60 -19t-47.5 -52t-36 -73.5t-25 -83.5t-14.5 -84t-5 -73q0 -67 23.5 -102.5t69.5 -35.5z" />
    <glyph glyph-name="one.pnum" horiz-adv-x="393" 
d="M390 699l-148 -699h-120l120 567q-45 -22 -88.5 -44t-85.5 -44l25 118q46 25 96.5 50t107.5 52h93z" />
    <glyph glyph-name="two.pnum" horiz-adv-x="523" 
d="M448 104l-22 -104h-451l4 22q12 57 30.5 102.5t47.5 83t72 71t104 65.5q40 21 71.5 40t53 39t33 44.5t11.5 55.5t-15 50.5t-39.5 28t-53.5 8.5q-58 0 -105 -19t-92 -54l25 121q43 27 91 40.5t105 13.5q63 0 110.5 -22t74 -63t26.5 -97q0 -40 -10 -73t-34 -61.5t-66 -58
t-107 -64.5q-54 -29 -91.5 -55t-62 -53.5t-38.5 -60.5h328z" />
    <glyph glyph-name="three.pnum" horiz-adv-x="537" 
d="M477 215q0 -51 -20.5 -93t-59 -72.5t-92 -46.5t-118.5 -16q-61 0 -108.5 12.5t-91.5 40.5l21 100q27 -19 54 -30.5t57.5 -17t69.5 -5.5q50 0 87.5 16.5t58 46.5t20.5 70q0 45 -31 69.5t-88 24.5h-100l20 95h98q49 0 85.5 14.5t56.5 41.5t20 64q0 40 -30.5 61.5
t-88.5 21.5q-51 0 -97.5 -13t-90.5 -42l24 111q44 21 91 32.5t95 11.5q68 0 116.5 -20t74.5 -57.5t26 -89.5q0 -46 -19.5 -84t-55.5 -65t-83 -39q49 -18 74 -54t25 -88z" />
    <glyph glyph-name="four.pnum" horiz-adv-x="574" 
d="M327 145h-324l19 93q67 76 134 151.5t136 152t143 157.5h124l-97 -460h76l-20 -94h-76l-31 -145h-115zM347 239l64 301q-68 -76 -135 -151.5t-131 -149.5h202z" />
    <glyph glyph-name="five.pnum" horiz-adv-x="553" 
d="M501 245q0 -79 -37 -137t-105 -89.5t-162 -31.5q-62 0 -110.5 12.5t-90.5 39.5l21 98q26 -19 53 -30t57 -16t69 -5q57 0 98.5 17.5t63.5 50.5t22 79q0 101 -147 101q-30 0 -55 -1.5t-49 -5t-50 -9.5l113 381h374l-22 -104h-274l-51 -173q35 6 69 6q67 0 115 -21.5
t73 -62.5t25 -99z" />
    <glyph glyph-name="six.pnum" horiz-adv-x="588" 
d="M543 251q0 -56 -20 -104t-55.5 -84t-83.5 -56t-104 -20q-71 0 -121.5 29t-77 84.5t-26.5 132.5q0 27 3 57t10 63q25 113 79.5 193.5t132.5 123t174 42.5q47 0 82 -9.5t68 -29.5l-20 -96q-22 13 -42.5 20.5t-42.5 11t-50 3.5q-93 0 -158 -61.5t-97 -175.5q71 62 160 62
q58 0 100.5 -23t65.5 -65t23 -98zM173 232q0 -72 29.5 -111.5t83.5 -39.5q40 0 71.5 21t49.5 57t18 81q0 50 -28.5 78t-78.5 28q-80 0 -142 -57q-2 -15 -2.5 -29.5t-0.5 -27.5z" />
    <glyph glyph-name="seven.pnum" horiz-adv-x="503" 
d="M555 611q-94 -157 -187 -308.5t-189 -302.5h-135q97 147 191 295t188 300h-335l22 104h464z" />
    <glyph glyph-name="eight.pnum" horiz-adv-x="599" 
d="M539 212q0 -51 -19.5 -92t-55.5 -71t-86 -46t-111 -16q-71 0 -124.5 22.5t-82.5 62.5t-29 95q0 50 21 90.5t59.5 69.5t92.5 43q-40 22 -60.5 56t-20.5 76q0 47 18.5 85.5t52.5 66.5t80.5 43t103.5 15q66 0 114.5 -21.5t75.5 -60t27 -90.5q0 -65 -38.5 -113t-106.5 -70
q89 -54 89 -145zM327 409l38 -10q33 8 58.5 25.5t40 43.5t14.5 59q0 41 -28.5 66t-78.5 25q-40 0 -69.5 -14.5t-46 -40.5t-16.5 -62q0 -32 22 -56t66 -36zM153 183q0 -31 15 -53.5t42.5 -35.5t64.5 -13q45 0 77.5 16t50.5 45.5t18 70.5q0 78 -97 105l-30 9q-44 -7 -75.5 -27
t-48.5 -50t-17 -67z" />
    <glyph glyph-name="nine.pnum" horiz-adv-x="586" 
d="M557 346q-26 -113 -79.5 -193.5t-130 -123t-171.5 -42.5q-47 0 -82 9t-69 29l21 96q22 -13 42 -20t42 -10.5t50 -3.5q93 0 157 61.5t95 176.5q-72 -63 -159 -63q-58 0 -100 23t-65.5 64.5t-23.5 97.5t20 104.5t55.5 84.5t83.5 56t103 20q71 0 121.5 -29t77 -84.5
t26.5 -133.5q0 -26 -3 -56.5t-11 -62.5zM202 458q0 -50 28.5 -77.5t77.5 -27.5q79 0 141 57q2 15 3 29.5t1 27.5q0 72 -30 111.5t-84 39.5q-38 0 -69.5 -21t-49.5 -57t-18 -82z" />
    <glyph glyph-name="zero.dnom" horiz-adv-x="414" 
d="M222 407q69 0 107 -40.5t38 -112.5q0 -35 -7.5 -72t-22.5 -71.5t-38.5 -61.5t-56 -43t-74.5 -16q-69 0 -107 40.5t-38 112.5q0 35 7.5 72t22.5 71.5t38.5 61.5t56 43t74.5 16zM220 334q-23 0 -41 -13t-31 -34t-21 -47t-12 -52t-4 -48q0 -38 15.5 -57.5t43.5 -19.5
q23 0 41 13t31 34t21 47t12 52t4 48q0 37 -15.5 57t-43.5 20z" />
    <glyph glyph-name="one.dnom" horiz-adv-x="414" 
d="M300 397l-84 -397h-88l64 302q-30 -14 -58.5 -28.5t-55.5 -28.5l18 85q60 31 137 67h67z" />
    <glyph glyph-name="two.dnom" horiz-adv-x="414" 
d="M324 76l-17 -76h-304l4 19q9 42 27 74t49.5 57.5t78.5 47.5q34 16 55 27.5t32 21t15 19.5t4 23q0 21 -18 32.5t-52 11.5q-36 0 -64 -10t-60 -33l18 86q52 31 124 31q44 0 75.5 -13t49 -36.5t17.5 -55.5q0 -27 -6.5 -47.5t-22.5 -37.5t-43.5 -34t-69.5 -36
q-41 -19 -65 -35t-37 -36h210z" />
    <glyph glyph-name="three.dnom" horiz-adv-x="414" 
d="M329 121q0 -39 -24.5 -68.5t-67.5 -46t-101 -16.5q-40 0 -71.5 7t-57.5 24l15 71q25 -16 51 -23t63 -7q47 0 75.5 17t28.5 46q0 21 -20.5 32t-58.5 11h-59l15 69h56q47 0 72.5 15.5t25.5 41.5q0 41 -76 41q-65 0 -120 -32l16 78q60 26 120 26q71 0 109.5 -26t38.5 -73
q0 -39 -26 -67.5t-70 -40.5q66 -19 66 -79z" />
    <glyph glyph-name="four.dnom" horiz-adv-x="414" 
d="M209 76h-208l15 67q62 64 123.5 126t130.5 128h90l-54 -253h49l-14 -68h-49l-17 -76h-83zM223 144l32 151l-76 -76t-74 -75h118z" />
    <glyph glyph-name="five.dnom" horiz-adv-x="414" 
d="M338 139q0 -46 -24.5 -79.5t-69.5 -51.5t-107 -18q-38 0 -69 6.5t-58 22.5l14 68q25 -14 50 -20.5t61 -6.5q54 0 84 19t30 53q0 25 -23.5 36t-68.5 11q-29 0 -50.5 -2.5t-46.5 -9.5l69 230h246l-16 -76h-175l-24 -78q20 3 37 3q67 0 104 -28t37 -79z" />
    <glyph glyph-name="six.dnom" horiz-adv-x="414" 
d="M351 144q0 -33 -13 -61t-36.5 -49t-55 -32.5t-68.5 -11.5q-70 0 -109.5 38.5t-39.5 106.5q0 62 20 112.5t55.5 86t82.5 54.5t101 19q28 0 50 -5.5t44 -17.5l-14 -69q-21 11 -39 15.5t-45 4.5q-58 0 -99.5 -32t-58.5 -91q23 21 49 32t54 11q37 0 64.5 -14t42.5 -38.5
t15 -58.5zM116 133q0 -35 17.5 -55.5t48.5 -20.5q24 0 42.5 10.5t29 28.5t10.5 41q0 25 -16.5 39t-45.5 14q-47 0 -85 -31q-1 -13 -1 -26z" />
    <glyph glyph-name="seven.dnom" horiz-adv-x="414" 
d="M368 330q-51 -82 -103.5 -163t-110.5 -167h-100q57 82 110 161t105 160h-198l17 76h294z" />
    <glyph glyph-name="eight.dnom" horiz-adv-x="414" 
d="M346 120q0 -40 -22.5 -69t-62.5 -45t-93 -16q-47 0 -82 13t-54 37.5t-19 57.5q0 41 27 70t72 41q-44 26 -44 75q0 36 21 64t59 43.5t88 15.5q43 0 75 -13t49.5 -36.5t17.5 -55.5q0 -36 -22.5 -62t-62.5 -36q53 -30 53 -84zM213 234l19 -4q27 5 44.5 21.5t17.5 40.5
q0 22 -17 35t-46 13q-35 0 -56 -15t-21 -41q0 -37 59 -50zM103 110q0 -24 19 -38.5t52 -14.5q40 0 63 17t23 48q0 36 -58 51l-28 7q-33 -5 -52 -24t-19 -46z" />
    <glyph glyph-name="nine.dnom" horiz-adv-x="414" 
d="M365 262q0 -61 -19 -111t-53.5 -86t-81 -55.5t-101.5 -19.5q-29 0 -52 5t-45 18l14 70q21 -11 40.5 -16t45.5 -5q57 0 98 32t57 91q-45 -43 -102 -43q-37 0 -64.5 13.5t-42.5 38t-15 58.5q0 33 13 61t36.5 49t55 33t67.5 12q70 0 109.5 -38.5t39.5 -106.5zM131 260
q0 -26 16.5 -39.5t45.5 -13.5q47 0 84 30q1 13 1 27q0 35 -17.5 56t-48.5 21q-24 0 -42 -11t-28.5 -29.5t-10.5 -40.5z" />
    <glyph glyph-name="zero.numr" horiz-adv-x="414" 
d="M286 709q69 0 107 -40.5t38 -112.5q0 -35 -7.5 -72t-22.5 -71.5t-38.5 -61.5t-56 -43t-74.5 -16q-69 0 -107 40.5t-38 112.5q0 35 7.5 72t22.5 71.5t38.5 61.5t56 43t74.5 16zM284 636q-23 0 -41 -13t-31 -34t-21 -47t-12 -52t-4 -48q0 -38 15.5 -57.5t43.5 -19.5
q23 0 41 13t31 34t21 47t12 52t4 48q0 37 -15.5 57t-43.5 20z" />
    <glyph glyph-name="one.numr" horiz-adv-x="414" 
d="M364 699l-84 -397h-88l64 302q-30 -14 -58.5 -28.5t-55.5 -28.5l18 85q60 31 137 67h67z" />
    <glyph glyph-name="two.numr" horiz-adv-x="414" 
d="M388 378l-17 -76h-304l4 19q9 42 27 74t49.5 57.5t78.5 47.5q34 16 55 27.5t32 21t15 19.5t4 23q0 21 -18 32.5t-52 11.5q-36 0 -64 -10t-60 -33l18 86q52 31 124 31q44 0 75.5 -13t49 -36.5t17.5 -55.5q0 -27 -6.5 -47.5t-22.5 -37.5t-43.5 -34t-69.5 -36
q-41 -19 -65 -35t-37 -36h210z" />
    <glyph glyph-name="three.numr" horiz-adv-x="414" 
d="M393 423q0 -39 -24.5 -68.5t-67.5 -46t-101 -16.5q-40 0 -71.5 7t-57.5 24l15 71q25 -16 51 -23t63 -7q47 0 75.5 17t28.5 46q0 21 -20.5 32t-58.5 11h-59l15 69h56q47 0 72.5 15.5t25.5 41.5q0 41 -76 41q-65 0 -120 -32l16 78q60 26 120 26q71 0 109.5 -26t38.5 -73
q0 -39 -26 -67.5t-70 -40.5q66 -19 66 -79z" />
    <glyph glyph-name="four.numr" horiz-adv-x="414" 
d="M273 378h-208l15 67q62 64 123.5 126t130.5 128h90l-54 -253h49l-14 -68h-49l-17 -76h-83zM287 446l32 151l-76 -76t-74 -75h118z" />
    <glyph glyph-name="five.numr" horiz-adv-x="414" 
d="M402 441q0 -46 -24.5 -79.5t-69.5 -51.5t-107 -18q-38 0 -69 6.5t-58 22.5l14 68q25 -14 50 -20.5t61 -6.5q54 0 84 19t30 53q0 25 -23.5 36t-68.5 11q-29 0 -50.5 -2.5t-46.5 -9.5l69 230h246l-16 -76h-175l-24 -78q20 3 37 3q67 0 104 -28t37 -79z" />
    <glyph glyph-name="six.numr" horiz-adv-x="414" 
d="M415 446q0 -33 -13 -61t-36.5 -49t-55 -32.5t-68.5 -11.5q-70 0 -109.5 38.5t-39.5 106.5q0 62 20 112.5t55.5 86t82.5 54.5t101 19q28 0 50 -5.5t44 -17.5l-14 -69q-21 11 -39 15.5t-45 4.5q-58 0 -99.5 -32t-58.5 -91q23 21 49 32t54 11q37 0 64.5 -14t42.5 -38.5
t15 -58.5zM180 435q0 -35 17.5 -55.5t48.5 -20.5q24 0 42.5 10.5t29 28.5t10.5 41q0 25 -16.5 39t-45.5 14q-47 0 -85 -31q-1 -13 -1 -26z" />
    <glyph glyph-name="seven.numr" horiz-adv-x="414" 
d="M432 632q-51 -82 -103.5 -163t-110.5 -167h-100q57 82 110 161t105 160h-198l17 76h294z" />
    <glyph glyph-name="eight.numr" horiz-adv-x="414" 
d="M410 422q0 -40 -22.5 -69t-62.5 -45t-93 -16q-47 0 -82 13t-54 37.5t-19 57.5q0 41 27 70t72 41q-44 26 -44 75q0 36 21 64t59 43.5t88 15.5q43 0 75 -13t49.5 -36.5t17.5 -55.5q0 -36 -22.5 -62t-62.5 -36q53 -30 53 -84zM277 536l19 -4q27 5 44.5 21.5t17.5 40.5
q0 22 -17 35t-46 13q-35 0 -56 -15t-21 -41q0 -37 59 -50zM167 412q0 -24 19 -38.5t52 -14.5q40 0 63 17t23 48q0 36 -58 51l-28 7q-33 -5 -52 -24t-19 -46z" />
    <glyph glyph-name="nine.numr" horiz-adv-x="414" 
d="M429 564q0 -61 -19 -111t-53.5 -86t-81 -55.5t-101.5 -19.5q-29 0 -52 5t-45 18l14 70q21 -11 40.5 -16t45.5 -5q57 0 98 32t57 91q-45 -43 -102 -43q-37 0 -64.5 13.5t-42.5 38t-15 58.5q0 33 13 61t36.5 49t55 33t67.5 12q70 0 109.5 -38.5t39.5 -106.5zM195 562
q0 -26 16.5 -39.5t45.5 -13.5q47 0 84 30q1 13 1 27q0 35 -17.5 56t-48.5 21q-24 0 -42 -11t-28.5 -29.5t-10.5 -40.5z" />
    <glyph glyph-name="uni20BA" horiz-adv-x="596" 
d="M572 312q-29 -154 -126 -233t-256 -79h-149l45 210l-80 -36l19 91l80 36l19 88l-81 -37l21 91l79 36l47 220h119l-34 -160l192 87l-19 -91l-192 -87l-19 -88l193 87l-19 -91l-193 -87l-36 -168h27q101 0 163 53.5t81 157.5h119z" />
    <glyph glyph-name="uni20BD" horiz-adv-x="596" 
d="M361 113h-172l-24 -113h-119l24 113h-73l16 75h73l18 86h-73l17 81h73l73 344h197q69 0 119 -22.5t77.5 -63.5t27.5 -96q0 -75 -34 -129.5t-97.5 -84t-152.5 -29.5h-108l-18 -86h172zM293 604l-53 -249h87q79 0 123 39t44 111q0 47 -30.5 73t-83.5 26h-87z" />
    <glyph glyph-name="dollar.smcp" horiz-adv-x="550" 
d="M467 167q0 -49 -26 -87t-73.5 -61.5t-110.5 -28.5l-19 -90h-70l19 89q-46 3 -87 16t-72 34l20 95q67 -50 158 -54l34 159q-51 20 -80.5 40.5t-42 46t-12.5 61.5q0 46 25.5 82t71 59t106.5 29l17 82h70l-17 -81q38 -4 74.5 -15.5t66.5 -31.5l-20 -94q-64 46 -141 50
l-31 -148q41 -16 68 -31.5t42.5 -33t22.5 -39t7 -48.5zM220 399q0 -19 9 -30t34 -23l24 115q-31 -7 -49 -23t-18 -39zM347 158q0 23 -12 34.5t-30 20.5l-27 -127q29 8 49 25t20 47z" />
    <glyph glyph-name="cent.smcp" horiz-adv-x="550" 
d="M288 53q-23 0 -45 3l-43 -99h-78l52 118q-46 21 -70.5 60.5t-24.5 95.5q0 51 20 98t56.5 83t87.5 57t114 21l42 96h77l-45 -104q30 -7 57 -25l-19 -90q-17 13 -35 21t-40 11l-112 -256q12 -1 26 -1q38 0 67.5 8t58.5 28l-21 -99q-52 -26 -125 -26zM191 240q0 -44 25 -69
l99 225q-40 -10 -67.5 -34t-42 -56t-14.5 -66z" />
    <glyph glyph-name="sterling.smcp" horiz-adv-x="550" 
d="M464 92l-19 -92h-426l17 77q48 17 75 59t29 103h-85l14 68h68q-1 10 -1.5 20.5t-0.5 20.5q0 66 30 113t85.5 72.5t134.5 25.5q46 0 83.5 -10.5t68.5 -33.5l-19 -91q-27 22 -57.5 32.5t-71.5 10.5q-72 0 -108.5 -34.5t-36.5 -102.5v-11.5t1 -11.5h164l-14 -68h-148
q-2 -51 -25.5 -89t-64.5 -58h307z" />
    <glyph glyph-name="yen.smcp" horiz-adv-x="550" 
d="M422 77h-129l-16 -77h-114l16 77h-129l14 66h129l13 61h-128l14 66h93q-27 67 -53 135.5t-52 140.5h115q11 -35 24.5 -76t29 -83.5t30.5 -82.5q32 41 65 83.5t64 83t57 75.5h127q-55 -70 -110 -138.5t-113 -137.5h94l-14 -66h-129l-13 -61h129z" />
    <glyph glyph-name="Euro.smcp" horiz-adv-x="550" 
d="M464 17q-31 -15 -64.5 -22.5t-75.5 -7.5q-65 0 -114 22.5t-77.5 64.5t-34.5 102h-77l14 66h64q3 31 10 61h-61l14 66h71q25 54 66.5 97t98.5 68t130 25q43 0 75 -9.5t60 -30.5l-19 -91q-24 22 -51.5 31t-65.5 9q-61 0 -104 -28t-69 -71h215l-14 -66h-230q-9 -30 -13 -61
h181l-14 -66h-165q9 -47 42 -72.5t88 -25.5q44 0 77 10t64 32z" />
    <glyph glyph-name="uni20BA.smcp" horiz-adv-x="550" 
d="M511 252q-25 -124 -108.5 -188t-220.5 -64h-138l33 157l-71 -32l16 78l72 32l15 71l-72 -32l17 77l71 32l35 163h114l-22 -106l168 75l-16 -79l-169 -75l-15 -71l169 75l-17 -78l-168 -75l-25 -116h21q82 0 132 40t64 116h115z" />
    <glyph glyph-name="uni20BD.smcp" horiz-adv-x="550" 
d="M317 82h-137l-17 -82h-115l17 82h-64l14 66h64l13 61h-65l16 75h65l56 262h178q62 0 106.5 -17.5t69 -50t24.5 -76.5q0 -60 -29.5 -103.5t-84 -66.5t-129.5 -23h-92l-13 -61h137zM260 457l-37 -173h72q63 0 97 27t34 77q0 32 -25.5 50.5t-69.5 18.5h-71z" />
    <glyph glyph-name="currency.smcp" horiz-adv-x="550" 
d="M515 72l-62 -52l-76 83q-44 -21 -98 -21t-98 21l-76 -83l-62 52l77 80q-19 24 -29.5 54.5t-10.5 66.5t10 66t29 54l-76 80l62 52l76 -83q44 21 98 21t98 -21l76 83l62 -52l-76 -81q19 -23 29 -53.5t10 -66.5t-10 -66.5t-29 -53.5zM279 171q29 0 51 12.5t34 35.5t12 53
t-12 53t-34 36t-51 13q-30 0 -51.5 -13t-33.5 -35.5t-12 -52.5t12 -53t33.5 -36t51.5 -13z" />
    <glyph glyph-name="hyphen.case" horiz-adv-x="371" 
d="M55 311l21 102h284l-21 -102h-284z" />
    <glyph glyph-name="endash.case" horiz-adv-x="500" 
d="M11 311l22 102h500l-22 -102h-500z" />
    <glyph glyph-name="emdash.case" horiz-adv-x="1000" 
d="M11 311l22 102h1000l-22 -102h-1000z" />
    <glyph glyph-name="parenleft.case" horiz-adv-x="323" 
d="M228 -103h-114q-29 72 -42.5 144t-13.5 151q0 112 27 221.5t78.5 212t127.5 192.5h133q-77 -86 -131.5 -191.5t-83 -222t-28.5 -238.5q0 -74 11.5 -141.5t35.5 -127.5z" />
    <glyph glyph-name="parenright.case" horiz-adv-x="323" 
d="M139 818h114q28 -72 42 -144t14 -151q0 -113 -27 -222t-79 -211t-127 -193h-133q78 87 132 192t82.5 222t28.5 238q0 74 -11.5 141.5t-35.5 127.5z" />
    <glyph glyph-name="slash.case" horiz-adv-x="489" 
d="M-60 -103l526 921h128l-526 -921h-128z" />
    <glyph glyph-name="backslash.case" horiz-adv-x="489" 
d="M286 -103l-152 921h113l152 -921h-113z" />
    <glyph glyph-name="bracketleft.case" horiz-adv-x="336" 
d="M9 -103l195 921h233l-21 -96h-115l-155 -729h116l-21 -96h-232z" />
    <glyph glyph-name="bracketright.case" horiz-adv-x="336" 
d="M372 818l-195 -921h-233l21 96h115l155 729h-116l21 96h232z" />
    <glyph glyph-name="braceleft.case" horiz-adv-x="324" 
d="M250 -7l-21 -96h-49q-41 0 -72 15.5t-47.5 43.5t-16.5 67q0 33 8.5 63.5t19.5 59t19.5 56t8.5 55.5q0 54 -62 54l19 92q41 0 64 22t33 68q5 25 6 50t3 52.5t9 58.5q13 58 38 94.5t65 53t98 16.5h52l-21 -96h-27q-27 0 -45 -11t-29 -30t-17 -43q-7 -28 -10 -58.5t-6 -60
t-8 -53.5q-9 -40 -38 -69.5t-69 -40.5q30 -9 47 -31.5t17 -53.5q0 -24 -9 -50.5t-20 -55.5t-20 -58t-9 -57t14.5 -42.5t46.5 -14.5h28z" />
    <glyph glyph-name="braceright.case" horiz-adv-x="324" 
d="M196 60q-13 -58 -38 -94t-65 -52.5t-98 -16.5h-52l21 96h27q32 0 51 14t29 38t16 53q4 25 7 52t5 52.5t7 46.5q8 40 37.5 69t70.5 40q-30 10 -47.5 32t-17.5 53q0 24 9 51t20 55.5t20 57.5t9 57t-14.5 43t-46.5 15h-28l21 96h49q41 0 72 -15.5t47.5 -44t16.5 -66.5
q0 -34 -8.5 -64.5t-19.5 -59t-19.5 -56t-8.5 -54.5q0 -28 15.5 -41.5t46.5 -13.5l-19 -92q-41 0 -64 -21.5t-33 -67.5q-5 -24 -6 -49.5t-3 -53t-9 -59.5z" />
    <glyph glyph-name="bullet.case" horiz-adv-x="369" 
d="M207 224q-39 0 -70.5 18t-49.5 49.5t-18 70.5t18 70t49.5 49.5t70.5 18.5t70 -18.5t49.5 -49.5t18.5 -70t-18.5 -70.5t-49.5 -49.5t-70 -18z" />
    <glyph glyph-name="guilsinglleft.case" horiz-adv-x="351" 
d="M366 559l-180 -219l91 -201h-112l-102 210l178 210h125z" />
    <glyph glyph-name="guilsinglright.case" horiz-adv-x="351" 
d="M327 349l-178 -210h-125l180 219l-91 201h112z" />
    <glyph glyph-name="guillemotleft.case" horiz-adv-x="575" 
d="M590 559l-180 -219l91 -201h-112l-102 210l178 210h125zM366 559l-180 -219l91 -201h-112l-102 210l178 210h125z" />
    <glyph glyph-name="guillemotright.case" horiz-adv-x="575" 
d="M551 349l-178 -210h-125l180 219l-91 201h112zM327 349l-178 -210h-125l180 219l-91 201h112z" />
    <glyph glyph-name="at.case" horiz-adv-x="934" 
d="M687 -55q-60 -27 -122 -40t-127 -13q-121 0 -206.5 42t-130.5 120.5t-45 190.5q0 81 19 155t53.5 138.5t83 116.5t108.5 90t128.5 58t143.5 20q77 0 140 -22t108 -62.5t69 -97.5t24 -126q0 -66 -13.5 -124t-38.5 -106t-59.5 -82.5t-77 -53.5t-90.5 -19q-50 0 -79.5 24
t-29.5 67v14q-67 -105 -153 -105q-33 0 -57.5 16.5t-38 47t-13.5 70.5q0 52 15 100t41.5 88.5t62.5 70.5t78.5 47t89.5 17q38 0 76 -10.5t72 -35.5l-70 -231q-5 -15 -8 -29.5t-3 -28.5q0 -42 39 -42q36 0 67 23.5t55 64.5t37 95.5t13 117.5q0 73 -31.5 125.5t-89.5 80.5
t-139 28q-74 0 -141 -25t-123 -71t-97 -108t-63.5 -136.5t-22.5 -156.5q0 -89 35 -151t102.5 -94.5t163.5 -32.5q73 0 136 15t128 49zM388 275q0 -28 11.5 -44.5t32.5 -16.5q30 0 57.5 24t58.5 79l54 176q-21 9 -48 9q-33 0 -62.5 -18.5t-53 -50t-37 -72.5t-13.5 -86z" />
    <glyph glyph-name="plus.alt" horiz-adv-x="838" 
d="M383 0v303h-292v110h292v302h117v-302h292v-110h-292v-303h-117z" />
    <glyph glyph-name="parenleft.smcp" horiz-adv-x="292" 
d="M39 149q0 88 21.5 173.5t62.5 165.5t102 150h131q-62 -67 -105.5 -149t-66 -173.5t-22.5 -186.5q0 -59 10 -111t32 -98h-114q-26 56 -38.5 112t-12.5 117z" />
    <glyph glyph-name="parenright.smcp" horiz-adv-x="292" 
d="M263 409q0 -88 -21.5 -173.5t-62.5 -165.5t-102 -150h-131q62 67 105.5 149t66 173.5t22.5 186.5q0 59 -10 111t-32 98h114q26 -56 38.5 -112t12.5 -117z" />
    <glyph glyph-name="slash.smcp" horiz-adv-x="419" 
d="M-57 -80l417 718h127l-417 -718h-127z" />
    <glyph glyph-name="backslash.smcp" horiz-adv-x="419" 
d="M222 -80l-127 718h113l127 -718h-113z" />
    <glyph glyph-name="bracketleft.smcp" horiz-adv-x="312" 
d="M7 -80l152 718h215l-19 -92h-101l-114 -535h101l-19 -91h-215z" />
    <glyph glyph-name="bracketright.smcp" horiz-adv-x="312" 
d="M315 638l-152 -718h-215l19 92h101l114 535h-101l19 91h215z" />
    <glyph glyph-name="braceleft.smcp" horiz-adv-x="291" 
d="M220 11l-19 -91h-32q-66 0 -101 26t-35 74q0 24 6 46.5t14.5 43.5t14.5 42t6 42q0 22 -13.5 31.5t-40.5 9.5l18 87q30 0 46.5 11.5t24 31t10.5 44t5 51t7 52.5q25 126 183 126h39l-19 -91h-21q-35 0 -51 -17t-22 -45q-5 -22 -6.5 -48.5t-5.5 -52.5q-6 -37 -29 -66
t-63 -39q26 -8 40 -26t14 -42q0 -19 -6 -39t-14.5 -40t-14.5 -40.5t-6 -41.5q0 -20 12 -29.5t38 -9.5h21z" />
    <glyph glyph-name="braceright.smcp" horiz-adv-x="291" 
d="M170 45q-13 -63 -60 -94t-124 -31h-39l19 91h21q36 0 52 17.5t22 46.5q5 22 6.5 47t5.5 51q5 38 28 66.5t64 39.5q-27 7 -40.5 25t-13.5 43q0 19 6 38.5t14.5 39.5t14.5 40.5t6 41.5q0 20 -12 30t-38 10h-22l19 91h32q66 0 101 -26t35 -74q0 -24 -6 -46.5t-14 -44
t-14 -42.5t-6 -42q0 -22 13 -31.5t41 -9.5l-19 -87q-26 0 -41.5 -8.5t-24 -23.5t-12.5 -35q-5 -27 -6 -59.5t-8 -63.5z" />
    <glyph glyph-name="ampersand.smcp" horiz-adv-x="639" 
d="M427 0q-8 8 -15 16.5t-14 15.5q-38 -22 -82.5 -33.5t-93.5 -11.5q-63 0 -109.5 17.5t-72 49.5t-25.5 75q0 59 38.5 100.5t122.5 72.5q-20 31 -29.5 57t-9.5 49q0 48 23.5 84t64.5 56.5t94 20.5q45 0 78.5 -15.5t52 -42.5t18.5 -64q0 -55 -39.5 -95.5t-123.5 -70.5
q21 -27 47.5 -57.5t56.5 -64.5q37 50 55 125h104q-14 -59 -39 -107.5t-59 -85.5q20 -22 40.5 -44.5t42.5 -46.5h-126zM235 411q0 -15 8 -34t24 -43q54 18 78.5 43.5t24.5 61.5q0 23 -15 36.5t-42 13.5q-35 0 -56.5 -21t-21.5 -57zM129 147q0 -35 28.5 -55t78.5 -20
q58 0 104 25q-39 44 -71 81.5t-55 68.5q-46 -18 -65.5 -42t-19.5 -58z" />
    <glyph glyph-name="asterisk.smcp" horiz-adv-x="363" 
d="M343 310l-64 -48l-63 97l-62 -97l-65 48l73 83l-97 24l25 76l93 -38l-9 103h85l-9 -103l93 38l25 -76l-97 -24z" />
    <glyph glyph-name="at.smcp" horiz-adv-x="771" 
d="M549 -45q-49 -20 -97 -29.5t-98 -9.5q-100 0 -170.5 33t-108 94.5t-37.5 149.5q0 75 21.5 142.5t61.5 123.5t94 97t119 63.5t138 22.5q63 0 114.5 -17.5t88.5 -50t57 -77.5t20 -100q0 -64 -17 -118t-48.5 -94.5t-73.5 -63t-92 -22.5q-41 0 -63 20.5t-22 54.5v7
q-54 -82 -122 -82q-41 0 -65.5 29.5t-24.5 78.5q0 51 18.5 96.5t51 80.5t74.5 55t89 20q31 0 62 -9t57 -27l-55 -179q-5 -16 -7 -26t-2 -21q0 -30 29 -30q27 0 51 17.5t41.5 48.5t27.5 72t10 88q0 55 -24 95t-69.5 61t-109.5 21q-58 0 -110.5 -18.5t-96 -53t-75 -81
t-49 -103t-17.5 -118.5q0 -99 61 -154t177 -55q58 0 107 11.5t101 35.5zM313 216q0 -21 8.5 -33t24.5 -12q26 0 47.5 19t42.5 56l42 134q-14 6 -35 6q-25 0 -48.5 -13.5t-42 -37.5t-29 -54.5t-10.5 -64.5z" />
    <glyph glyph-name="j.smcp" horiz-adv-x="438" 
d="M-32 24l21 96q25 -17 52.5 -24.5t59.5 -7.5q55 0 87 28.5t46 91.5l74 350h121l-76 -358q-23 -108 -84 -160.5t-163 -52.5q-38 0 -75 10t-63 27z" />
    <glyph glyph-name="periodcentered.loclCAT" horiz-adv-x="260" 
d="M151 320q-30 0 -48.5 17t-18.5 44q0 23 10.5 41t29 28.5t42.5 10.5q30 0 48.5 -17t18.5 -43q0 -23 -10.5 -41t-28.5 -29t-43 -11z" />
    <glyph glyph-name="periodcentered.loclCAT.cap" horiz-adv-x="260" 
d="M153 329q-30 0 -49 17.5t-19 44.5q0 23 10.5 41t29.5 29t43 11q31 0 49.5 -17t18.5 -44q0 -23 -10.5 -41.5t-29 -29.5t-43.5 -11z" />
    <glyph glyph-name="periodcentered.loclCAT.smcp" horiz-adv-x="260" 
d="M137 250q-30 0 -48.5 17t-18.5 43q0 22 10.5 40.5t28.5 29.5t43 11q30 0 48.5 -17t18.5 -44q0 -22 -10.5 -40.5t-29 -29t-42.5 -10.5z" />
    <glyph glyph-name="uni0237.smcp" horiz-adv-x="438" 
d="M-32 24l21 96q25 -17 52.5 -24.5t59.5 -7.5q55 0 87 28.5t46 91.5l74 350h121l-76 -358q-23 -108 -84 -160.5t-163 -52.5q-38 0 -75 10t-63 27z" />
    <glyph glyph-name="IJacute" horiz-adv-x="776" 
d="M180 715h124l-151 -715h-124zM415 -15q-42 0 -83 11.5t-71 31.5l22 103q30 -20 60.5 -29.5t68.5 -9.5q65 0 102.5 35t53.5 109l101 479h124l-103 -488q-26 -124 -93.5 -183t-181.5 -59zM808 914h150q-51 -34 -98.5 -66.5t-87.5 -61.5h-125q39 33 81 66t80 62zM319 914
h150q-51 -34 -98.5 -66.5t-87.5 -61.5h-125q39 33 81 66t80 62z" />
    <glyph glyph-name="ijacute" horiz-adv-x="530" 
d="M128 515h119l-109 -515h-119zM393 515h119l-122 -577q-19 -90 -67.5 -133.5t-128.5 -43.5q-26 0 -50.5 5.5t-43.5 15.5l19 92q15 -10 29.5 -13.5t34.5 -3.5q70 0 90 91zM529 761h139q-50 -44 -94 -85t-81 -76h-112q38 43 76 84t72 77zM264 761h139q-50 -44 -94 -85
t-81 -76h-112q38 43 76 84t72 77z" />
    <glyph glyph-name="ijacute.smcp" horiz-adv-x="712" 
d="M144 0h-121l118 558h121zM242 24l21 96q25 -17 52.5 -24.5t59.5 -7.5q55 0 87 28.5t46 91.5l74 350h121l-76 -358q-23 -108 -84 -160.5t-163 -52.5q-38 0 -75 10t-63 27zM720 796h139q-50 -44 -94 -85t-81 -76h-112q38 43 76 84t72 77zM278 796h139q-50 -44 -94 -85
t-81 -76h-112q38 43 76 84t72 77z" />
    <glyph glyph-name="uni1E9E.smcp" horiz-adv-x="631" 
d="M573 181q0 -41 -17 -76.5t-48 -62t-73 -41t-91 -14.5q-45 0 -76.5 7.5t-58.5 26.5l20 95q23 -18 47.5 -25t60.5 -7q33 0 59 12t41.5 33t15.5 47q0 24 -14.5 38.5t-44 22t-75.5 10.5l16 73l151 134q-45 18 -97 18q-73 0 -119 -37t-61 -109l-69 -326h-120l70 331
q25 117 103 178.5t202 61.5q56 0 108 -15t100 -44l-18 -82l-136 -122q124 -22 124 -127z" />
    <glyph glyph-name="eng.smcp" horiz-adv-x="632" 
d="M496 -38q-22 -101 -79 -151t-152 -50q-35 0 -67 8.5t-55 23.5l20 96q21 -13 45 -20t53 -7q37 0 60.5 15t38 45.5t24.5 77.5l73 346q6 28 6 53q0 34 -17.5 52t-49.5 18q-35 0 -66.5 -17.5t-62 -54.5t-61.5 -97l-63 -300h-120l118 558h102l-22 -140q42 75 97.5 114
t120.5 39q45 0 78.5 -18t51.5 -50.5t18 -78.5q0 -16 -2.5 -34t-6.5 -40z" />
    <glyph glyph-name="uni0327" 
d="M36 -134q0 -32 -17.5 -55.5t-49.5 -36.5t-74 -13q-25 0 -45 4t-38 13l13 59q16 -8 31 -11.5t37 -3.5q31 0 48 10.5t17 28.5q0 29 -48 29q-14 0 -26 -1t-25 -4l61 130h65l-37 -76h6q39 0 60.5 -19.5t21.5 -53.5z" />
    <glyph glyph-name="uni0327.cap" 
d="M44 -134q0 -32 -18 -55.5t-51 -36.5t-76 -13q-25 0 -47 4t-40 13l13 61q16 -8 32.5 -11.5t39.5 -3.5q31 0 49 10t18 27q0 28 -50 28q-14 0 -28 -1t-27 -4l61 131h67l-36 -75h7q41 0 63.5 -19.5t22.5 -54.5z" />
    <glyph glyph-name="uni0326" 
d="M-18 -118q0 -22 -10 -46t-28.5 -48t-42.5 -44h-87q58 46 78 92q-14 3 -22.5 14t-8.5 27q0 25 17.5 41.5t45.5 16.5t43 -14t15 -39z" />
    <glyph glyph-name="uni0326.cap" 
d="M-17 -119q0 -21 -10.5 -45.5t-28.5 -48t-42 -43.5h-89q57 45 78 90q-14 4 -22.5 15t-8.5 27q0 26 17.5 42.5t46.5 16.5q28 0 43.5 -14t15.5 -40z" />
    <glyph glyph-name="uni0312" 
d="M149 662q0 -28 -18.5 -45t-48.5 -17q-28 0 -44 15t-16 43q0 24 12 50.5t33 53t48 47.5h89q-65 -48 -89 -103q15 -3 24.5 -15t9.5 -29z" />
    <glyph glyph-name="uni0328" 
d="M-33 -161l-14 -66q-16 -6 -34 -9t-34 -3q-52 0 -81 22t-29 62q0 57 47 103t138 80l28 -28q-62 -28 -95.5 -62.5t-33.5 -70.5q0 -42 48 -42q17 0 30 3.5t30 10.5z" />
    <glyph glyph-name="uni0328.cap" 
d="M-230 -155q0 57 49 103t144 81l28 -29q-66 -29 -101 -63t-35 -70q0 -40 52 -40q17 0 32 3.5t32 11.5l-15 -69q-16 -6 -35 -9t-36 -3q-54 0 -84.5 22t-30.5 62z" />
    <glyph glyph-name="uni0328.round" 
d="M-215 -153q0 63 53.5 113t157.5 88l28 -28q-75 -32 -115 -71t-40 -80q0 -44 48 -44q17 0 30 3.5t30 10.5l-14 -66q-16 -6 -34 -9t-34 -3q-52 0 -81 22.5t-29 63.5z" />
    <glyph glyph-name="uni0328.round.cap" 
d="M-217 -153q0 63 55.5 113.5t162.5 88.5l28 -29q-78 -33 -119.5 -71.5t-41.5 -79.5q0 -42 52 -42q17 0 32 3.5t32 11.5l-15 -69q-16 -6 -35.5 -9t-35.5 -3q-54 0 -84.5 22.5t-30.5 63.5z" />
    <glyph glyph-name="uni0122" horiz-adv-x="720" 
d="M610 44q-55 -30 -112.5 -44.5t-123.5 -14.5q-96 0 -164.5 36t-105 102.5t-36.5 160.5q0 66 18.5 130.5t54.5 121.5t88.5 100.5t121.5 68.5t154 25q70 0 121.5 -14t97.5 -46l-23 -110q-27 22 -56.5 35.5t-64.5 20t-79 6.5q-62 0 -111 -19.5t-85.5 -53t-60 -75.5
t-35.5 -88.5t-12 -91.5q0 -97 51 -150t145 -53q34 0 62 5.5t53 17.5l37 174h-132l21 99h249zM413 -119q0 -21 -10.5 -45.5t-28.5 -48t-42 -43.5h-89q57 45 78 90q-14 4 -22.5 15t-8.5 27q0 26 17.5 42.5t46.5 16.5q28 0 43.5 -14t15.5 -40z" />
    <glyph glyph-name="uni0136" horiz-adv-x="676" 
d="M255 320h-34l-68 -320h-124l151 715h124l-61 -290h36q82 74 156 145.5t148 144.5h155q-92 -87 -184.5 -174.5t-189.5 -174.5q64 -91 125.5 -181t124.5 -185h-145q-52 82 -104 160t-110 160zM354 -119q0 -21 -10.5 -45.5t-28.5 -48t-42 -43.5h-89q57 45 78 90
q-14 4 -22.5 15t-8.5 27q0 26 17.5 42.5t46.5 16.5q28 0 43.5 -14t15.5 -40z" />
    <glyph glyph-name="uni013B" horiz-adv-x="556" 
d="M180 715h124l-128 -608h331l-23 -107h-455zM319 -119q0 -21 -10.5 -45.5t-28.5 -48t-42 -43.5h-89q57 45 78 90q-14 4 -22.5 15t-8.5 27q0 26 17.5 42.5t46.5 16.5q28 0 43.5 -14t15.5 -40z" />
    <glyph glyph-name="uni0145" horiz-adv-x="737" 
d="M475 0q-52 137 -106 274.5t-107 265.5l-114 -540h-119l151 715h125q55 -133 108 -266.5t106 -270.5l113 537h119l-151 -715h-125zM367 -119q0 -21 -10.5 -45.5t-28.5 -48t-42 -43.5h-89q57 45 78 90q-14 4 -22.5 15t-8.5 27q0 26 17.5 42.5t46.5 16.5q28 0 43.5 -14
t15.5 -40z" />
    <glyph glyph-name="uni0218" horiz-adv-x="599" 
d="M233 523q0 -17 5.5 -30.5t19.5 -25.5t38 -24.5t61 -28.5q51 -22 86 -42.5t56 -43.5t30.5 -51t9.5 -64q0 -51 -21 -93t-59.5 -72.5t-92 -46.5t-119.5 -16q-68 0 -127.5 17t-106.5 51l23 105q46 -37 97.5 -54t112.5 -17q78 0 122 30.5t44 83.5q0 25 -10.5 43t-35.5 34.5
t-69 34.5q-54 22 -90.5 43t-58 43.5t-31 49.5t-9.5 61q0 49 20.5 89.5t58 69.5t90.5 45t117 16q58 0 110.5 -16t98.5 -47l-22 -103q-42 32 -89 47.5t-102 15.5q-74 0 -115.5 -28t-41.5 -76zM296 -119q0 -21 -10.5 -45.5t-28.5 -48t-42 -43.5h-89q57 45 78 90q-14 4 -22.5 15
t-8.5 27q0 26 17.5 42.5t46.5 16.5q28 0 43.5 -14t15.5 -40z" />
    <glyph glyph-name="uni021A" horiz-adv-x="598" 
d="M114 715h563l-23 -108h-219l-128 -607h-124l128 607h-220zM285 -119q0 -21 -10.5 -45.5t-28.5 -48t-42 -43.5h-89q57 45 78 90q-14 4 -22.5 15t-8.5 27q0 26 17.5 42.5t46.5 16.5q28 0 43.5 -14t15.5 -40z" />
    <glyph glyph-name="uni0123" horiz-adv-x="569" 
d="M443 1q-24 -116 -96.5 -178t-185.5 -62q-54 0 -96.5 11.5t-78.5 37.5l20 97q34 -27 69 -38.5t80 -11.5q68 0 112 38t59 111l8 38l28 95q-36 -64 -84.5 -98t-104.5 -34q-41 0 -72 20.5t-47.5 58t-16.5 89.5q0 59 16 112t45 97t69 76.5t88.5 50t102.5 17.5q101 0 187 -44z
M159 184q0 -39 16 -59.5t45 -20.5q42 0 80.5 35t76.5 107l37 175q-29 13 -66 13q-39 0 -73.5 -19.5t-60.5 -54t-40.5 -80t-14.5 -96.5zM440 662q0 -28 -18.5 -45t-48.5 -17q-28 0 -44 15t-16 43q0 24 12 50.5t33 53t48 47.5h89q-65 -48 -89 -103q15 -3 24.5 -15t9.5 -29z
" />
    <glyph glyph-name="uni0137" horiz-adv-x="542" 
d="M217 228h-31l-48 -228h-119l158 745h119l-90 -425h32q50 48 96.5 95.5t95.5 99.5h138q-64 -66 -126 -127.5t-123 -120.5q43 -67 82 -132.5t79 -134.5h-130q-34 61 -66 116.5t-67 111.5zM288 -118q0 -22 -10 -46t-28.5 -48t-42.5 -44h-87q58 46 78 92q-14 3 -22.5 14
t-8.5 27q0 25 17.5 41.5t45.5 16.5t43 -14t15 -39z" />
    <glyph glyph-name="uni013C" horiz-adv-x="315" 
d="M46 139l129 606h119l-130 -608q-3 -13 -3 -23q0 -30 34 -30q31 0 60 20l-21 -98q-34 -15 -79 -15q-56 0 -85 25t-29 73q0 11 1 23t4 27zM182 -118q0 -22 -10 -46t-28.5 -48t-42.5 -44h-87q58 46 78 92q-14 3 -22.5 14t-8.5 27q0 25 17.5 41.5t45.5 16.5t43 -14t15 -39z
" />
    <glyph glyph-name="uni0146" horiz-adv-x="572" 
d="M354 431q-43 0 -81.5 -37t-75.5 -114l-59 -280h-119l74 350q11 50 17.5 89.5t9.5 75.5h106q-2 -28 -7 -60t-12 -68q37 68 87 104.5t108 36.5q38 0 66 -16t43 -46t15 -70q0 -15 -1 -30.5t-6 -35.5l-70 -330h-119l69 325q2 12 3.5 22.5t1.5 21.5q0 30 -13 46t-37 16z
M285 -118q0 -22 -10 -46t-28.5 -48t-42.5 -44h-87q58 46 78 92q-14 3 -22.5 14t-8.5 27q0 25 17.5 41.5t45.5 16.5t43 -14t15 -39z" />
    <glyph glyph-name="uni0219" horiz-adv-x="458" 
d="M1 34l20 93q65 -50 150 -50q49 0 78.5 18.5t29.5 52.5q0 16 -6.5 27t-22.5 20.5t-44 20.5q-52 20 -82 41t-43 46t-13 60q0 49 27 86.5t76 58t114 20.5q44 0 84.5 -12t75.5 -34l-20 -92q-29 24 -65 36t-75 12q-49 0 -76 -17.5t-27 -48.5q0 -14 6.5 -25t24 -21t49.5 -22
q49 -19 78 -39.5t41.5 -46.5t12.5 -62q0 -50 -27 -88.5t-76.5 -59.5t-115.5 -21q-51 0 -95.5 12t-78.5 35zM226 -118q0 -22 -10 -46t-28.5 -48t-42.5 -44h-87q58 46 78 92q-14 3 -22.5 14t-8.5 27q0 25 17.5 41.5t45.5 16.5t43 -14t15 -39z" />
    <glyph glyph-name="uni021B" horiz-adv-x="389" 
d="M315 11q-25 -13 -51 -18.5t-60 -5.5q-63 0 -95.5 29t-32.5 86q0 12 2.5 28.5t5.5 31.5l55 261h-90l19 92h91l28 133l125 28l-34 -161h133l-20 -92h-133l-50 -236q-4 -18 -6.5 -35.5t-2.5 -25.5q0 -43 46 -43q24 0 46.5 8.5t46.5 25.5zM238 -118q0 -22 -10 -46t-28.5 -48
t-42.5 -44h-87q58 46 78 92q-14 3 -22.5 14t-8.5 27q0 25 17.5 41.5t45.5 16.5t43 -14t15 -39z" />
    <glyph glyph-name="ccedilla.smcp" horiz-adv-x="538" 
d="M480 139l-25 -119q-34 -16 -70.5 -24.5t-82.5 -8.5q-79 0 -135.5 28.5t-87 81.5t-30.5 128q0 53 15 104t44.5 94.5t72 77t97 52t120.5 18.5q49 0 86.5 -10.5t71.5 -33.5l-22 -105q-29 26 -61 36.5t-78 10.5q-45 0 -81 -14t-62.5 -37.5t-44.5 -54t-26.5 -64t-8.5 -65.5
q0 -70 39.5 -107.5t110.5 -37.5q47 0 83.5 11t74.5 39zM381 -134q0 -32 -17.5 -55.5t-49.5 -36.5t-74 -13q-25 0 -45 4t-38 13l13 59q16 -8 31 -11.5t37 -3.5q31 0 48 10.5t17 28.5q0 29 -48 29q-14 0 -26 -1t-25 -4l61 130h65l-37 -76h6q39 0 60.5 -19.5t21.5 -53.5z" />
    <glyph glyph-name="scedilla.smcp" horiz-adv-x="507" 
d="M192 -13q-114 0 -190 52l21 99q37 -28 78 -41t90 -13q59 0 94 19t35 53q0 18 -7.5 31.5t-27 25t-55.5 25.5q-58 21 -91 43t-47 49.5t-14 64.5q0 53 30.5 92.5t85.5 61.5t128 22q48 0 91 -12t81 -37l-21 -97q-34 25 -71.5 37t-83.5 12q-56 0 -88 -17t-32 -49
q0 -17 7.5 -29t28 -23.5t61.5 -26.5q55 -21 87 -43t45.5 -50t13.5 -67q0 -55 -31 -96t-87 -63.5t-131 -22.5zM304 -134q0 -32 -17.5 -55.5t-49.5 -36.5t-74 -13q-25 0 -45 4t-38 13l13 59q16 -8 31 -11.5t37 -3.5q31 0 48 10.5t17 28.5q0 29 -48 29q-14 0 -26 -1t-25 -4
l61 130h65l-37 -76h6q39 0 60.5 -19.5t21.5 -53.5z" />
    <glyph glyph-name="uni0163.smcp" horiz-adv-x="507" 
d="M80 558h477l-22 -102h-178l-97 -456h-121l97 456h-178zM293 -134q0 -32 -17.5 -55.5t-49.5 -36.5t-74 -13q-25 0 -45 4t-38 13l13 59q16 -8 31 -11.5t37 -3.5q31 0 48 10.5t17 28.5q0 29 -48 29q-14 0 -26 -1t-25 -4l61 130h65l-37 -76h6q39 0 60.5 -19.5t21.5 -53.5z
" />
    <glyph glyph-name="uni0123.smcp" horiz-adv-x="603" 
d="M495 32q-45 -23 -94 -34t-104 -11q-77 0 -133 28.5t-85.5 81.5t-29.5 127q0 51 15 101.5t45 94.5t74 78t101.5 53.5t127.5 19.5q52 0 94 -10.5t78 -33.5l-22 -105q-32 26 -68 36.5t-86 10.5q-48 0 -86 -14t-66 -38t-47 -54.5t-28 -64t-9 -65.5q0 -71 37.5 -109t105.5 -38
q24 0 44.5 3.5t39.5 11.5l25 118h-100l20 92h210zM341 -118q0 -22 -10 -46t-28.5 -48t-42.5 -44h-87q58 46 78 92q-14 3 -22.5 14t-8.5 27q0 25 17.5 41.5t45.5 16.5t43 -14t15 -39z" />
    <glyph glyph-name="uni0137.smcp" horiz-adv-x="586" 
d="M224 243h-29l-51 -243h-121l118 558h121l-46 -219h31q40 36 77 71t73.5 71.5l76.5 76.5h147q-72 -70 -146 -140t-146 -135q50 -70 98.5 -140.5t96.5 -142.5h-137q-41 64 -80 123t-83 120zM305 -118q0 -22 -10 -46t-28.5 -48t-42.5 -44h-87q58 46 78 92q-14 3 -22.5 14
t-8.5 27q0 25 17.5 41.5t45.5 16.5t43 -14t15 -39z" />
    <glyph glyph-name="uni013C.smcp" horiz-adv-x="477" 
d="M141 558h121l-96 -456h263l-22 -102h-384zM276 -118q0 -22 -10 -46t-28.5 -48t-42.5 -44h-87q58 46 78 92q-14 3 -22.5 14t-8.5 27q0 25 17.5 41.5t45.5 16.5t43 -14t15 -39z" />
    <glyph glyph-name="uni0146.smcp" horiz-adv-x="638" 
d="M387 0q-25 64 -53 131.5t-56.5 135t-56.5 131.5l-84 -398h-114l118 558h120q28 -64 57 -132t56.5 -135t52.5 -129l84 396h114l-118 -558h-120zM316 -118q0 -22 -10 -46t-28.5 -48t-42.5 -44h-87q58 46 78 92q-14 3 -22.5 14t-8.5 27q0 25 17.5 41.5t45.5 16.5t43 -14
t15 -39z" />
    <glyph glyph-name="uni0219.smcp" horiz-adv-x="507" 
d="M192 -13q-114 0 -190 52l21 99q37 -28 78 -41t90 -13q59 0 94 19t35 53q0 18 -7.5 31.5t-27 25t-55.5 25.5q-58 21 -91 43t-47 49.5t-14 64.5q0 53 30.5 92.5t85.5 61.5t128 22q48 0 91 -12t81 -37l-21 -97q-34 25 -71.5 37t-83.5 12q-56 0 -88 -17t-32 -49
q0 -17 7.5 -29t28 -23.5t61.5 -26.5q55 -21 87 -43t45.5 -50t13.5 -67q0 -55 -31 -96t-87 -63.5t-131 -22.5zM250 -118q0 -22 -10 -46t-28.5 -48t-42.5 -44h-87q58 46 78 92q-14 3 -22.5 14t-8.5 27q0 25 17.5 41.5t45.5 16.5t43 -14t15 -39z" />
    <glyph glyph-name="uni021B.smcp" horiz-adv-x="507" 
d="M80 558h477l-22 -102h-178l-97 -456h-121l97 456h-178zM239 -118q0 -22 -10 -46t-28.5 -48t-42.5 -44h-87q58 46 78 92q-14 3 -22.5 14t-8.5 27q0 25 17.5 41.5t45.5 16.5t43 -14t15 -39z" />
    <glyph glyph-name="aogonek.smcp" horiz-adv-x="590" 
d="M400 0q-8 65 -17 128h-221q-35 -63 -71 -128h-135q86 147 171.5 286.5t168.5 271.5h128q28 -136 53.5 -275t48.5 -283h-126zM215 221h156l-16 108t-17 107q-31 -54 -62 -107.5t-61 -107.5zM484 -161l-14 -66q-16 -6 -34 -9t-34 -3q-52 0 -81 22t-29 62q0 57 47 103
t138 80l28 -28q-62 -28 -95.5 -62.5t-33.5 -70.5q0 -42 48 -42q17 0 30 3.5t30 10.5z" />
    <glyph glyph-name="eogonek.smcp" horiz-adv-x="510" 
d="M141 558h388l-21 -98h-269l-27 -127h241l-20 -95h-241l-29 -140h281l-21 -98h-400zM379 -161l-14 -66q-16 -6 -34 -9t-34 -3q-52 0 -81 22t-29 62q0 57 47 103t138 80l28 -28q-62 -28 -95.5 -62.5t-33.5 -70.5q0 -42 48 -42q17 0 30 3.5t30 10.5z" />
    <glyph glyph-name="iogonek.smcp" horiz-adv-x="275" 
d="M144 0h-121l118 558h121zM108 -161l-14 -66q-16 -6 -34 -9t-34 -3q-52 0 -81 22t-29 62q0 57 47 103t138 80l28 -28q-62 -28 -95.5 -62.5t-33.5 -70.5q0 -42 48 -42q17 0 30 3.5t30 10.5z" />
    <glyph glyph-name="uogonek.smcp" horiz-adv-x="625" 
d="M184 185q0 -47 26.5 -72t76.5 -25q107 0 133 121l74 349h121l-72 -340q-24 -115 -91 -173t-174 -58q-67 0 -114.5 23.5t-73 68t-25.5 106.5q0 17 2 32.5t6 33.5l65 307h121l-70 -331q-3 -12 -4 -21.5t-1 -20.5zM177 -153q0 63 53.5 113t157.5 88l28 -28q-75 -32 -115 -71
t-40 -80q0 -44 48 -44q17 0 30 3.5t30 10.5l-14 -66q-16 -6 -34 -9t-34 -3q-52 0 -81 22.5t-29 63.5z" />
    <glyph glyph-name="acutecomb.cap" 
d="M180 914h150q-51 -34 -98.5 -66.5t-87.5 -61.5h-125q39 33 81 66t80 62z" />
    <glyph glyph-name="uni030B" 
d="M73 761h130q-50 -44 -94 -85t-81 -76h-104q38 43 76 84t73 77zM273 761h130q-50 -44 -94 -85t-81 -76h-104q38 43 76 84t73 77z" />
    <glyph glyph-name="uni030B.cap" 
d="M110 914h141q-50 -34 -97.5 -66.5t-87.5 -61.5h-118q40 33 81.5 66t80.5 62zM323 914h141q-50 -34 -97 -66.5t-88 -61.5h-118q40 33 81.5 66t80.5 62z" />
    <glyph glyph-name="aacute.smcp" horiz-adv-x="590" 
d="M400 0q-8 65 -17 128h-221q-35 -63 -71 -128h-135q86 147 171.5 286.5t168.5 271.5h128q28 -136 53.5 -275t48.5 -283h-126zM215 221h156l-16 108t-17 107q-31 -54 -62 -107.5t-61 -107.5zM431 796h139q-50 -44 -94 -85t-81 -76h-112q38 43 76 84t72 77z" />
    <glyph glyph-name="cacute.smcp" horiz-adv-x="538" 
d="M480 139l-25 -119q-34 -16 -70.5 -24.5t-82.5 -8.5q-79 0 -135.5 28.5t-87 81.5t-30.5 128q0 53 15 104t44.5 94.5t72 77t97 52t120.5 18.5q49 0 86.5 -10.5t71.5 -33.5l-22 -105q-29 26 -61 36.5t-78 10.5q-45 0 -81 -14t-62.5 -37.5t-44.5 -54t-26.5 -64t-8.5 -65.5
q0 -70 39.5 -107.5t110.5 -37.5q47 0 83.5 11t74.5 39zM468 796h139q-50 -44 -94 -85t-81 -76h-112q38 43 76 84t72 77z" />
    <glyph glyph-name="eacute.smcp" horiz-adv-x="510" 
d="M141 558h388l-21 -98h-269l-27 -127h241l-20 -95h-241l-29 -140h281l-21 -98h-400zM412 796h139q-50 -44 -94 -85t-81 -76h-112q38 43 76 84t72 77z" />
    <glyph glyph-name="iacute.smcp" horiz-adv-x="275" 
d="M144 0h-121l118 558h121zM278 796h139q-50 -44 -94 -85t-81 -76h-112q38 43 76 84t72 77z" />
    <glyph glyph-name="lacute.smcp" horiz-adv-x="477" 
d="M141 558h121l-96 -456h263l-22 -102h-384zM278 796h139q-50 -44 -94 -85t-81 -76h-112q38 43 76 84t72 77z" />
    <glyph glyph-name="nacute.smcp" horiz-adv-x="638" 
d="M387 0q-25 64 -53 131.5t-56.5 135t-56.5 131.5l-84 -398h-114l118 558h120q28 -64 57 -132t56.5 -135t52.5 -129l84 396h114l-118 -558h-120zM463 796h139q-50 -44 -94 -85t-81 -76h-112q38 43 76 84t72 77z" />
    <glyph glyph-name="oacute.smcp" horiz-adv-x="640" 
d="M357 571q75 0 129.5 -29.5t84.5 -83.5t30 -126q0 -55 -13.5 -106t-40 -94t-64 -76t-85.5 -51t-105 -18q-75 0 -129.5 29.5t-84.5 83.5t-30 126q0 55 13.5 106t40 94t64 76t85.5 51t105 18zM355 469q-36 0 -65 -14t-51 -38t-37 -55t-22.5 -65.5t-7.5 -68.5
q0 -64 32.5 -101.5t90.5 -37.5q36 0 65 14t51 38t37 55t22.5 65.5t7.5 68.5q0 64 -32.5 101.5t-90.5 37.5zM453 796h139q-50 -44 -94 -85t-81 -76h-112q38 43 76 84t72 77z" />
    <glyph glyph-name="racute.smcp" horiz-adv-x="563" 
d="M184 202l-43 -202h-118l118 558h192q65 0 113 -18.5t73.5 -52t25.5 -79.5q0 -70 -38 -119t-106 -71q24 -52 48.5 -107.5t46.5 -110.5h-126q-18 48 -39 100t-42 102h-1h-104zM240 466l-37 -172h82q67 0 103.5 27t36.5 76q0 32 -27 50.5t-76 18.5h-82zM408 796h139
q-50 -44 -94 -85t-81 -76h-112q38 43 76 84t72 77z" />
    <glyph glyph-name="sacute.smcp" horiz-adv-x="507" 
d="M192 -13q-114 0 -190 52l21 99q37 -28 78 -41t90 -13q59 0 94 19t35 53q0 18 -7.5 31.5t-27 25t-55.5 25.5q-58 21 -91 43t-47 49.5t-14 64.5q0 53 30.5 92.5t85.5 61.5t128 22q48 0 91 -12t81 -37l-21 -97q-34 25 -71.5 37t-83.5 12q-56 0 -88 -17t-32 -49
q0 -17 7.5 -29t28 -23.5t61.5 -26.5q55 -21 87 -43t45.5 -50t13.5 -67q0 -55 -31 -96t-87 -63.5t-131 -22.5zM400 796h139q-50 -44 -94 -85t-81 -76h-112q38 43 76 84t72 77z" />
    <glyph glyph-name="uacute.smcp" horiz-adv-x="625" 
d="M184 185q0 -47 26.5 -72t76.5 -25q107 0 133 121l74 349h121l-72 -340q-24 -115 -91 -173t-174 -58q-67 0 -114.5 23.5t-73 68t-25.5 106.5q0 17 2 32.5t6 33.5l65 307h121l-70 -331q-3 -12 -4 -21.5t-1 -20.5zM448 796h139q-50 -44 -94 -85t-81 -76h-112q38 43 76 84
t72 77z" />
    <glyph glyph-name="wacute.smcp" horiz-adv-x="769" 
d="M429 0q-5 95 -9.5 191t-7.5 188q-43 -94 -89 -189.5t-93 -189.5h-126q-9 134 -15.5 276t-8.5 282h128q-4 -110 -5.5 -219t-0.5 -211q49 104 96 206.5t89 198.5h116q1 -92 3.5 -191.5t6.5 -201.5q43 99 86.5 205t85.5 213h133q-63 -140 -130 -282t-132 -276h-127zM520 796
h139q-50 -44 -94 -85t-81 -76h-112q38 43 76 84t72 77z" />
    <glyph glyph-name="yacute.smcp" horiz-adv-x="586" 
d="M344 210l-45 -210h-121l44 210q-39 88 -75.5 176.5t-68.5 171.5h127q20 -59 43 -122.5t48 -126.5q51 61 101 124.5t97 124.5h142q-70 -86 -143.5 -174t-148.5 -174zM425 796h139q-50 -44 -94 -85t-81 -76h-112q38 43 76 84t72 77z" />
    <glyph glyph-name="zacute.smcp" horiz-adv-x="525" 
d="M456 100l-21 -100h-453l18 84q56 59 117 121.5t124.5 126.5t126.5 126h-276l22 100h430l-18 -84q-62 -61 -125.5 -124.5t-125.5 -127t-119 -122.5h300zM399 796h139q-50 -44 -94 -85t-81 -76h-112q38 43 76 84t72 77z" />
    <glyph glyph-name="ohungarumlaut.smcp" horiz-adv-x="640" 
d="M357 571q75 0 129.5 -29.5t84.5 -83.5t30 -126q0 -55 -13.5 -106t-40 -94t-64 -76t-85.5 -51t-105 -18q-75 0 -129.5 29.5t-84.5 83.5t-30 126q0 55 13.5 106t40 94t64 76t85.5 51t105 18zM355 469q-36 0 -65 -14t-51 -38t-37 -55t-22.5 -65.5t-7.5 -68.5
q0 -64 32.5 -101.5t90.5 -37.5q36 0 65 14t51 38t37 55t22.5 65.5t7.5 68.5q0 64 -32.5 101.5t-90.5 37.5zM388 796h130q-50 -44 -94 -85t-81 -76h-104q38 43 76 84t73 77zM588 796h130q-50 -44 -94 -85t-81 -76h-104q38 43 76 84t73 77z" />
    <glyph glyph-name="uhungarumlaut.smcp" horiz-adv-x="625" 
d="M184 185q0 -47 26.5 -72t76.5 -25q107 0 133 121l74 349h121l-72 -340q-24 -115 -91 -173t-174 -58q-67 0 -114.5 23.5t-73 68t-25.5 106.5q0 17 2 32.5t6 33.5l65 307h121l-70 -331q-3 -12 -4 -21.5t-1 -20.5zM383 796h130q-50 -44 -94 -85t-81 -76h-104q38 43 76 84
t73 77zM583 796h130q-50 -44 -94 -85t-81 -76h-104q38 43 76 84t73 77z" />
    <glyph glyph-name="gravecomb.cap" 
d="M-49 914h135q58 -58 122 -128h-111q-31 28 -68 61t-78 67z" />
    <glyph glyph-name="uni02CB" horiz-adv-x="500" 
d="M232 761h123q23 -37 47 -77.5t47 -83.5h-97q-25 35 -55 75t-65 86z" />
    <glyph glyph-name="agrave.smcp" horiz-adv-x="590" 
d="M400 0q-8 65 -17 128h-221q-35 -63 -71 -128h-135q86 147 171.5 286.5t168.5 271.5h128q28 -136 53.5 -275t48.5 -283h-126zM215 221h156l-16 108t-17 107q-31 -54 -62 -107.5t-61 -107.5zM233 796h123q23 -37 47 -77.5t47 -83.5h-97q-25 35 -55 75t-65 86z" />
    <glyph glyph-name="egrave.smcp" horiz-adv-x="510" 
d="M141 558h388l-21 -98h-269l-27 -127h241l-20 -95h-241l-29 -140h281l-21 -98h-400zM214 796h123q23 -37 47 -77.5t47 -83.5h-97q-25 35 -55 75t-65 86z" />
    <glyph glyph-name="igrave.smcp" horiz-adv-x="275" 
d="M144 0h-121l118 558h121zM80 796h123q23 -37 47 -77.5t47 -83.5h-97q-25 35 -55 75t-65 86z" />
    <glyph glyph-name="ograve.smcp" horiz-adv-x="640" 
d="M357 571q75 0 129.5 -29.5t84.5 -83.5t30 -126q0 -55 -13.5 -106t-40 -94t-64 -76t-85.5 -51t-105 -18q-75 0 -129.5 29.5t-84.5 83.5t-30 126q0 55 13.5 106t40 94t64 76t85.5 51t105 18zM355 469q-36 0 -65 -14t-51 -38t-37 -55t-22.5 -65.5t-7.5 -68.5
q0 -64 32.5 -101.5t90.5 -37.5q36 0 65 14t51 38t37 55t22.5 65.5t7.5 68.5q0 64 -32.5 101.5t-90.5 37.5zM255 796h123q23 -37 47 -77.5t47 -83.5h-97q-25 35 -55 75t-65 86z" />
    <glyph glyph-name="ugrave.smcp" horiz-adv-x="625" 
d="M184 185q0 -47 26.5 -72t76.5 -25q107 0 133 121l74 349h121l-72 -340q-24 -115 -91 -173t-174 -58q-67 0 -114.5 23.5t-73 68t-25.5 106.5q0 17 2 32.5t6 33.5l65 307h121l-70 -331q-3 -12 -4 -21.5t-1 -20.5zM250 796h123q23 -37 47 -77.5t47 -83.5h-97q-25 35 -55 75
t-65 86z" />
    <glyph glyph-name="wgrave.smcp" horiz-adv-x="769" 
d="M429 0q-5 95 -9.5 191t-7.5 188q-43 -94 -89 -189.5t-93 -189.5h-126q-9 134 -15.5 276t-8.5 282h128q-4 -110 -5.5 -219t-0.5 -211q49 104 96 206.5t89 198.5h116q1 -92 3.5 -191.5t6.5 -201.5q43 99 86.5 205t85.5 213h133q-63 -140 -130 -282t-132 -276h-127zM322 796
h123q23 -37 47 -77.5t47 -83.5h-97q-25 35 -55 75t-65 86z" />
    <glyph glyph-name="ygrave.smcp" horiz-adv-x="586" 
d="M344 210l-45 -210h-121l44 210q-39 88 -75.5 176.5t-68.5 171.5h127q20 -59 43 -122.5t48 -126.5q51 61 101 124.5t97 124.5h142q-70 -86 -143.5 -174t-148.5 -174zM227 796h123q23 -37 47 -77.5t47 -83.5h-97q-25 35 -55 75t-65 86z" />
    <glyph glyph-name="uni0302.cap" 
d="M202 786q-15 15 -32.5 32t-37.5 36q-27 -19 -51.5 -36t-45.5 -32h-122q43 34 86.5 67t83.5 61h112q28 -28 58 -61t59 -67h-110z" />
    <glyph glyph-name="tildecomb.cap" 
d="M201 787q-24 0 -43.5 7t-36.5 19q-19 14 -30.5 21.5t-20 10t-19.5 2.5q-21 0 -32 -13.5t-16 -42.5h-81q11 68 44.5 101t88.5 33q23 0 43 -7.5t37 -19.5q19 -14 30.5 -21t20 -9.5t19.5 -2.5q21 0 32 13.5t16 42.5h81q-11 -68 -44.5 -101t-88.5 -33z" />
    <glyph glyph-name="acircumflex.smcp" horiz-adv-x="590" 
d="M400 0q-8 65 -17 128h-221q-35 -63 -71 -128h-135q86 147 171.5 286.5t168.5 271.5h128q28 -136 53.5 -275t48.5 -283h-126zM215 221h156l-16 108t-17 107q-31 -54 -62 -107.5t-61 -107.5zM456 635q-27 42 -64 93q-29 -26 -55.5 -49t-48.5 -44h-106q37 38 79.5 79
t86.5 82h107q26 -42 50 -82.5t45 -78.5h-94z" />
    <glyph glyph-name="ecircumflex.smcp" horiz-adv-x="510" 
d="M141 558h388l-21 -98h-269l-27 -127h241l-20 -95h-241l-29 -140h281l-21 -98h-400zM437 635q-27 42 -64 93q-29 -26 -55.5 -49t-48.5 -44h-106q37 38 79.5 79t86.5 82h107q26 -42 50 -82.5t45 -78.5h-94z" />
    <glyph glyph-name="icircumflex.smcp" horiz-adv-x="275" 
d="M144 0h-121l118 558h121zM303 635q-27 42 -64 93q-29 -26 -55.5 -49t-48.5 -44h-106q37 38 79.5 79t86.5 82h107q26 -42 50 -82.5t45 -78.5h-94z" />
    <glyph glyph-name="ocircumflex.smcp" horiz-adv-x="640" 
d="M357 571q75 0 129.5 -29.5t84.5 -83.5t30 -126q0 -55 -13.5 -106t-40 -94t-64 -76t-85.5 -51t-105 -18q-75 0 -129.5 29.5t-84.5 83.5t-30 126q0 55 13.5 106t40 94t64 76t85.5 51t105 18zM355 469q-36 0 -65 -14t-51 -38t-37 -55t-22.5 -65.5t-7.5 -68.5
q0 -64 32.5 -101.5t90.5 -37.5q36 0 65 14t51 38t37 55t22.5 65.5t7.5 68.5q0 64 -32.5 101.5t-90.5 37.5zM478 635q-27 42 -64 93q-29 -26 -55.5 -49t-48.5 -44h-106q37 38 79.5 79t86.5 82h107q26 -42 50 -82.5t45 -78.5h-94z" />
    <glyph glyph-name="ucircumflex.smcp" horiz-adv-x="625" 
d="M184 185q0 -47 26.5 -72t76.5 -25q107 0 133 121l74 349h121l-72 -340q-24 -115 -91 -173t-174 -58q-67 0 -114.5 23.5t-73 68t-25.5 106.5q0 17 2 32.5t6 33.5l65 307h121l-70 -331q-3 -12 -4 -21.5t-1 -20.5zM473 635q-27 42 -64 93q-29 -26 -55.5 -49t-48.5 -44h-106
q37 38 79.5 79t86.5 82h107q26 -42 50 -82.5t45 -78.5h-94z" />
    <glyph glyph-name="wcircumflex.smcp" horiz-adv-x="769" 
d="M429 0q-5 95 -9.5 191t-7.5 188q-43 -94 -89 -189.5t-93 -189.5h-126q-9 134 -15.5 276t-8.5 282h128q-4 -110 -5.5 -219t-0.5 -211q49 104 96 206.5t89 198.5h116q1 -92 3.5 -191.5t6.5 -201.5q43 99 86.5 205t85.5 213h133q-63 -140 -130 -282t-132 -276h-127zM545 635
q-27 42 -64 93q-29 -26 -55.5 -49t-48.5 -44h-106q37 38 79.5 79t86.5 82h107q26 -42 50 -82.5t45 -78.5h-94z" />
    <glyph glyph-name="ycircumflex.smcp" horiz-adv-x="586" 
d="M344 210l-45 -210h-121l44 210q-39 88 -75.5 176.5t-68.5 171.5h127q20 -59 43 -122.5t48 -126.5q51 61 101 124.5t97 124.5h142q-70 -86 -143.5 -174t-148.5 -174zM450 635q-27 42 -64 93q-29 -26 -55.5 -49t-48.5 -44h-106q37 38 79.5 79t86.5 82h107q26 -42 50 -82.5
t45 -78.5h-94z" />
    <glyph glyph-name="atilde.smcp" horiz-adv-x="590" 
d="M400 0q-8 65 -17 128h-221q-35 -63 -71 -128h-135q86 147 171.5 286.5t168.5 271.5h128q28 -136 53.5 -275t48.5 -283h-126zM215 221h156l-16 108t-17 107q-31 -54 -62 -107.5t-61 -107.5zM372 675q-24 20 -37 28.5t-27 8.5q-20 0 -31.5 -15.5t-18.5 -53.5h-80
q24 149 134 149q25 0 43 -8t41 -28t36 -28.5t27 -8.5q20 0 31.5 16t18.5 53h80q-24 -149 -134 -149q-25 0 -42.5 8t-40.5 28z" />
    <glyph glyph-name="itilde.smcp" horiz-adv-x="275" 
d="M144 0h-121l118 558h121zM219 675q-24 20 -37 28.5t-27 8.5q-20 0 -31.5 -15.5t-18.5 -53.5h-80q24 149 134 149q25 0 43 -8t41 -28t36 -28.5t27 -8.5q20 0 31.5 16t18.5 53h80q-24 -149 -134 -149q-25 0 -42.5 8t-40.5 28z" />
    <glyph glyph-name="ntilde.smcp" horiz-adv-x="638" 
d="M387 0q-25 64 -53 131.5t-56.5 135t-56.5 131.5l-84 -398h-114l118 558h120q28 -64 57 -132t56.5 -135t52.5 -129l84 396h114l-118 -558h-120zM404 675q-24 20 -37 28.5t-27 8.5q-20 0 -31.5 -15.5t-18.5 -53.5h-80q24 149 134 149q25 0 43 -8t41 -28t36 -28.5t27 -8.5
q20 0 31.5 16t18.5 53h80q-24 -149 -134 -149q-25 0 -42.5 8t-40.5 28z" />
    </font>
</defs>
</svg>
